<svg width="161" height="189" viewBox="0 0 161 189" fill="none" xmlns="http://www.w3.org/2000/svg">
<rect x="0.324219" y="0.848633" width="160.542" height="187.298" rx="16.4658" fill="#EDEDF6"/>
<path d="M64.973 78.0996C64.479 84.0478 68.9659 88.9052 74.9348 88.9052H84.7937C91.5035 88.9052 96.1139 83.4921 95.0025 76.8646C93.8293 69.9078 87.1195 64.2065 80.0598 64.2065C72.4032 64.2065 65.611 70.4635 64.973 78.0996Z" stroke="#0D0E14" stroke-width="3.08734" stroke-linecap="round" stroke-linejoin="round"/>
<path d="M77.4459 59.0611C80.2877 59.0611 82.5914 56.7574 82.5914 53.9156C82.5914 51.0738 80.2877 48.77 77.4459 48.77C74.604 48.77 72.3003 51.0738 72.3003 53.9156C72.3003 56.7574 74.604 59.0611 77.4459 59.0611Z" stroke="#0D0E14" stroke-width="3.08734" stroke-linecap="round" stroke-linejoin="round"/>
<path d="M91.5037 61.5307C93.7771 61.5307 95.6201 59.6878 95.6201 57.4143C95.6201 55.1408 93.7771 53.2979 91.5037 53.2979C89.2302 53.2979 87.3872 55.1408 87.3872 57.4143C87.3872 59.6878 89.2302 61.5307 91.5037 61.5307Z" stroke="#0D0E14" stroke-width="3.08734" stroke-linecap="round" stroke-linejoin="round"/>
<path d="M99.1191 69.764C100.824 69.764 102.206 68.3818 102.206 66.6767C102.206 64.9716 100.824 63.5894 99.1191 63.5894C97.414 63.5894 96.0317 64.9716 96.0317 66.6767C96.0317 68.3818 97.414 69.764 99.1191 69.764Z" stroke="#0D0E14" stroke-width="3.08734" stroke-linecap="round" stroke-linejoin="round"/>
<path d="M64.0674 65.6474C66.3408 65.6474 68.1838 63.8045 68.1838 61.531C68.1838 59.2575 66.3408 57.4146 64.0674 57.4146C61.7939 57.4146 59.9509 59.2575 59.9509 61.531C59.9509 63.8045 61.7939 65.6474 64.0674 65.6474Z" stroke="#0D0E14" stroke-width="3.08734" stroke-linecap="round" stroke-linejoin="round"/>
<path d="M47.6962 121.371L51.399 110.637H53.9347L57.6375 121.371H55.5051L54.7415 119.066H50.5922L49.8142 121.371H47.6962ZM51.1541 117.337H54.1796L52.3931 111.992H52.9406L51.1541 117.337ZM62.0373 121.544C61.2785 121.544 60.6013 121.366 60.0058 121.011C59.4103 120.646 58.9397 120.151 58.5939 119.527C58.2481 118.903 58.0752 118.211 58.0752 117.452C58.0752 116.684 58.2481 115.992 58.5939 115.378C58.9397 114.763 59.4103 114.273 60.0058 113.908C60.6109 113.543 61.2833 113.36 62.0229 113.36C62.6184 113.36 63.1467 113.481 63.6077 113.721C64.0784 113.951 64.4482 114.278 64.7171 114.7L64.4289 115.089V110.465H66.3163V121.371H64.5298V119.858L64.7315 120.233C64.4626 120.656 64.088 120.982 63.6077 121.213C63.1275 121.434 62.604 121.544 62.0373 121.544ZM62.239 119.815C62.6712 119.815 63.0506 119.714 63.3772 119.513C63.7038 119.311 63.9583 119.032 64.1408 118.677C64.3329 118.321 64.4289 117.913 64.4289 117.452C64.4289 117.001 64.3329 116.597 64.1408 116.242C63.9583 115.877 63.7038 115.594 63.3772 115.392C63.0506 115.19 62.6712 115.089 62.239 115.089C61.8164 115.089 61.437 115.195 61.1008 115.406C60.7646 115.608 60.5005 115.887 60.3084 116.242C60.1259 116.588 60.0346 116.991 60.0346 117.452C60.0346 117.913 60.1259 118.321 60.3084 118.677C60.5005 119.032 60.7646 119.311 61.1008 119.513C61.437 119.714 61.8164 119.815 62.239 119.815ZM71.9047 121.544C71.1363 121.544 70.4351 121.366 69.8012 121.011C69.1768 120.656 68.6774 120.17 68.3028 119.556C67.9378 118.941 67.7553 118.24 67.7553 117.452C67.7553 116.665 67.9378 115.963 68.3028 115.349C68.6774 114.734 69.1768 114.249 69.8012 113.894C70.4255 113.538 71.1267 113.36 71.9047 113.36C72.6731 113.36 73.3694 113.538 73.9938 113.894C74.6181 114.249 75.1128 114.734 75.4778 115.349C75.8523 115.954 76.0396 116.655 76.0396 117.452C76.0396 118.24 75.8523 118.941 75.4778 119.556C75.1032 120.17 74.6037 120.656 73.9794 121.011C73.355 121.366 72.6635 121.544 71.9047 121.544ZM71.9047 119.815C72.3273 119.815 72.6971 119.714 73.0141 119.513C73.3406 119.311 73.5952 119.032 73.7777 118.677C73.9698 118.312 74.0658 117.904 74.0658 117.452C74.0658 116.991 73.9698 116.588 73.7777 116.242C73.5952 115.887 73.3406 115.608 73.0141 115.406C72.6971 115.195 72.3273 115.089 71.9047 115.089C71.4724 115.089 71.093 115.195 70.7665 115.406C70.4399 115.608 70.1806 115.887 69.9885 116.242C69.806 116.588 69.7147 116.991 69.7147 117.452C69.7147 117.904 69.806 118.312 69.9885 118.677C70.1806 119.032 70.4399 119.311 70.7665 119.513C71.093 119.714 71.4724 119.815 71.9047 119.815ZM77.4709 124.253V113.533H79.2431V115.089L79.0702 114.7C79.3391 114.278 79.7041 113.951 80.1652 113.721C80.6262 113.481 81.1593 113.36 81.7644 113.36C82.504 113.36 83.1715 113.543 83.7671 113.908C84.3626 114.273 84.8332 114.763 85.179 115.378C85.5344 115.992 85.7121 116.684 85.7121 117.452C85.7121 118.211 85.5392 118.903 85.1934 119.527C84.8476 120.151 84.377 120.646 83.7815 121.011C83.186 121.366 82.5088 121.544 81.75 121.544C81.1833 121.544 80.6598 121.434 80.1796 121.213C79.7089 120.982 79.3343 120.656 79.0558 120.233L79.3583 119.858V124.253H77.4709ZM81.5339 119.815C81.9661 119.815 82.3503 119.714 82.6865 119.513C83.0227 119.311 83.282 119.032 83.4645 118.677C83.6566 118.321 83.7526 117.913 83.7526 117.452C83.7526 116.991 83.6566 116.588 83.4645 116.242C83.282 115.887 83.0227 115.608 82.6865 115.406C82.3503 115.195 81.9661 115.089 81.5339 115.089C81.1209 115.089 80.7463 115.19 80.4101 115.392C80.0835 115.594 79.8242 115.877 79.6321 116.242C79.4496 116.597 79.3583 117.001 79.3583 117.452C79.3583 117.913 79.4496 118.321 79.6321 118.677C79.8242 119.032 80.0835 119.311 80.4101 119.513C80.7463 119.714 81.1209 119.815 81.5339 119.815ZM90.5834 121.458C89.6998 121.458 89.013 121.217 88.5231 120.737C88.0429 120.247 87.8028 119.561 87.8028 118.677V115.219H86.4484V113.533H86.5925C86.9767 113.533 87.2745 113.433 87.4858 113.231C87.6971 113.029 87.8028 112.736 87.8028 112.352V111.747H89.6901V113.533H91.4911V115.219H89.6901V118.576C89.6901 118.835 89.7334 119.056 89.8198 119.239C89.9159 119.421 90.0599 119.561 90.252 119.657C90.4537 119.753 90.7083 119.801 91.0156 119.801C91.0829 119.801 91.1597 119.796 91.2462 119.786C91.3422 119.777 91.4335 119.767 91.5199 119.757V121.371C91.3854 121.39 91.2318 121.41 91.0589 121.429C90.886 121.448 90.7275 121.458 90.5834 121.458ZM92.9619 121.371V113.533H94.8493V121.371H92.9619ZM92.9619 112.655V110.637H94.8493V112.655H92.9619ZM100.424 121.544C99.6559 121.544 98.9548 121.366 98.3208 121.011C97.6965 120.656 97.1971 120.17 96.8225 119.556C96.4575 118.941 96.275 118.24 96.275 117.452C96.275 116.665 96.4575 115.963 96.8225 115.349C97.1971 114.734 97.6965 114.249 98.3208 113.894C98.9452 113.538 99.6463 113.36 100.424 113.36C101.193 113.36 101.889 113.538 102.513 113.894C103.138 114.249 103.632 114.734 103.997 115.349C104.372 115.954 104.559 116.655 104.559 117.452C104.559 118.24 104.372 118.941 103.997 119.556C103.623 120.17 103.123 120.656 102.499 121.011C101.875 121.366 101.183 121.544 100.424 121.544ZM100.424 119.815C100.847 119.815 101.217 119.714 101.534 119.513C101.86 119.311 102.115 119.032 102.297 118.677C102.489 118.312 102.585 117.904 102.585 117.452C102.585 116.991 102.489 116.588 102.297 116.242C102.115 115.887 101.86 115.608 101.534 115.406C101.217 115.195 100.847 115.089 100.424 115.089C99.9921 115.089 99.6127 115.195 99.2862 115.406C98.9596 115.608 98.7002 115.887 98.5081 116.242C98.3256 116.588 98.2344 116.991 98.2344 117.452C98.2344 117.904 98.3256 118.312 98.5081 118.677C98.7002 119.032 98.9596 119.311 99.2862 119.513C99.6127 119.714 99.9921 119.815 100.424 119.815ZM105.991 121.371V113.533H107.763V115.075L107.619 114.801C107.801 114.331 108.099 113.975 108.512 113.735C108.935 113.485 109.424 113.36 109.982 113.36C110.558 113.36 111.067 113.485 111.509 113.735C111.96 113.985 112.311 114.335 112.56 114.787C112.81 115.229 112.935 115.743 112.935 116.328V121.371H111.048V116.775C111.048 116.429 110.98 116.132 110.846 115.882C110.712 115.632 110.524 115.44 110.284 115.306C110.054 115.161 109.78 115.089 109.463 115.089C109.155 115.089 108.882 115.161 108.642 115.306C108.401 115.44 108.214 115.632 108.08 115.882C107.945 116.132 107.878 116.429 107.878 116.775V121.371H105.991ZM58.704 141.544C57.9356 141.544 57.2248 141.405 56.5717 141.126C55.9282 140.848 55.3615 140.459 54.8716 139.959C54.3914 139.46 54.0168 138.874 53.7478 138.201C53.4789 137.529 53.3444 136.794 53.3444 135.997C53.3444 135.2 53.4741 134.465 53.7334 133.793C54.0023 133.111 54.3769 132.525 54.8572 132.035C55.3471 131.536 55.9186 131.151 56.5717 130.882C57.2248 130.604 57.9356 130.465 58.704 130.465C59.4724 130.465 60.1592 130.594 60.7643 130.854C61.379 131.113 61.8977 131.459 62.3203 131.891C62.7429 132.314 63.0455 132.779 63.228 133.288L61.4703 134.11C61.2686 133.572 60.9276 133.13 60.4473 132.784C59.9671 132.429 59.386 132.251 58.704 132.251C58.0317 132.251 57.4362 132.41 56.9175 132.727C56.4084 133.044 56.0098 133.481 55.7217 134.038C55.4431 134.595 55.3038 135.248 55.3038 135.997C55.3038 136.746 55.4431 137.404 55.7217 137.971C56.0098 138.528 56.4084 138.965 56.9175 139.282C57.4362 139.599 58.0317 139.757 58.704 139.757C59.386 139.757 59.9671 139.585 60.4473 139.239C60.9276 138.883 61.2686 138.437 61.4703 137.899L63.228 138.72C63.0455 139.229 62.7429 139.7 62.3203 140.132C61.8977 140.555 61.379 140.896 60.7643 141.155C60.1592 141.414 59.4724 141.544 58.704 141.544ZM68.2368 141.544C67.4299 141.544 66.724 141.361 66.1189 140.996C65.5137 140.632 65.0431 140.137 64.7069 139.513C64.3707 138.888 64.2026 138.197 64.2026 137.438C64.2026 136.65 64.3707 135.954 64.7069 135.349C65.0527 134.734 65.5185 134.249 66.1044 133.894C66.7 133.538 67.3627 133.36 68.0927 133.36C68.7074 133.36 69.2453 133.461 69.7063 133.663C70.177 133.865 70.5756 134.143 70.9022 134.499C71.2287 134.854 71.4785 135.262 71.6514 135.723C71.8243 136.175 71.9107 136.665 71.9107 137.193C71.9107 137.327 71.9011 137.467 71.8819 137.611C71.8723 137.755 71.8483 137.88 71.8098 137.985H65.7587V136.545H70.7437L69.8504 137.222C69.9369 136.78 69.9128 136.386 69.7784 136.04C69.6535 135.695 69.4422 135.421 69.1444 135.219C68.8563 135.017 68.5057 134.917 68.0927 134.917C67.6989 134.917 67.3483 135.017 67.0409 135.219C66.7336 135.411 66.4983 135.699 66.335 136.084C66.1813 136.458 66.1237 136.914 66.1621 137.452C66.1237 137.932 66.1861 138.36 66.3494 138.735C66.5223 139.099 66.772 139.383 67.0986 139.585C67.4347 139.786 67.8189 139.887 68.2512 139.887C68.6834 139.887 69.0484 139.796 69.3461 139.613C69.6535 139.431 69.8936 139.186 70.0665 138.879L71.5937 139.628C71.44 140.002 71.1999 140.334 70.8734 140.622C70.5468 140.91 70.1578 141.136 69.7063 141.299C69.2645 141.462 68.7746 141.544 68.2368 141.544ZM73.3414 141.371V133.533H75.1136V135.075L74.9695 134.801C75.152 134.331 75.4497 133.975 75.8628 133.735C76.2854 133.485 76.7752 133.36 77.3323 133.36C77.9086 133.36 78.4177 133.485 78.8595 133.735C79.311 133.985 79.6616 134.335 79.9113 134.787C80.161 135.229 80.2859 135.743 80.2859 136.328V141.371H78.3985V136.775C78.3985 136.429 78.3313 136.132 78.1968 135.882C78.0623 135.632 77.875 135.44 77.6349 135.306C77.4044 135.161 77.1306 135.089 76.8137 135.089C76.5063 135.089 76.2326 135.161 75.9924 135.306C75.7523 135.44 75.565 135.632 75.4305 135.882C75.2961 136.132 75.2288 136.429 75.2288 136.775V141.371H73.3414ZM85.4549 141.458C84.5713 141.458 83.8845 141.217 83.3947 140.737C82.9144 140.247 82.6743 139.561 82.6743 138.677V135.219H81.32V133.533H81.464C81.8482 133.533 82.146 133.433 82.3573 133.231C82.5686 133.029 82.6743 132.736 82.6743 132.352V131.747H84.5617V133.533H86.3626V135.219H84.5617V138.576C84.5617 138.835 84.6049 139.056 84.6913 139.239C84.7874 139.421 84.9315 139.561 85.1236 139.657C85.3253 139.753 85.5798 139.801 85.8872 139.801C85.9544 139.801 86.0312 139.796 86.1177 139.786C86.2137 139.777 86.305 139.767 86.3914 139.757V141.371C86.257 141.39 86.1033 141.41 85.9304 141.429C85.7575 141.448 85.599 141.458 85.4549 141.458ZM87.8334 141.371V133.533H89.6056V135.277L89.4615 135.017C89.644 134.431 89.9273 134.023 90.3115 133.793C90.7053 133.562 91.176 133.447 91.7235 133.447H92.1845V135.118H91.5074C90.9695 135.118 90.5372 135.286 90.2107 135.622C89.8841 135.949 89.7208 136.41 89.7208 137.006V141.371H87.8334ZM96.9393 141.544C96.1325 141.544 95.4266 141.361 94.8214 140.996C94.2163 140.632 93.7457 140.137 93.4095 139.513C93.0733 138.888 92.9052 138.197 92.9052 137.438C92.9052 136.65 93.0733 135.954 93.4095 135.349C93.7553 134.734 94.2211 134.249 94.807 133.894C95.4025 133.538 96.0653 133.36 96.7953 133.36C97.41 133.36 97.9479 133.461 98.4089 133.663C98.8796 133.865 99.2782 134.143 99.6047 134.499C99.9313 134.854 100.181 135.262 100.354 135.723C100.527 136.175 100.613 136.665 100.613 137.193C100.613 137.327 100.604 137.467 100.584 137.611C100.575 137.755 100.551 137.88 100.512 137.985H94.4612V136.545H99.4463L98.553 137.222C98.6394 136.78 98.6154 136.386 98.481 136.04C98.3561 135.695 98.1448 135.421 97.847 135.219C97.5589 135.017 97.2083 134.917 96.7953 134.917C96.4015 134.917 96.0509 135.017 95.7435 135.219C95.4362 135.411 95.2008 135.699 95.0375 136.084C94.8839 136.458 94.8262 136.914 94.8647 137.452C94.8262 137.932 94.8887 138.36 95.052 138.735C95.2248 139.099 95.4746 139.383 95.8011 139.585C96.1373 139.786 96.5215 139.887 96.9538 139.887C97.386 139.887 97.751 139.796 98.0487 139.613C98.3561 139.431 98.5962 139.186 98.7691 138.879L100.296 139.628C100.143 140.002 99.9025 140.334 99.5759 140.622C99.2494 140.91 98.8604 141.136 98.4089 141.299C97.9671 141.462 97.4772 141.544 96.9393 141.544ZM105.026 141.544C104.191 141.544 103.461 141.347 102.836 140.953C102.222 140.55 101.799 140.007 101.569 139.325L102.981 138.648C103.182 139.09 103.461 139.436 103.816 139.685C104.181 139.935 104.585 140.06 105.026 140.06C105.372 140.06 105.646 139.983 105.848 139.829C106.049 139.676 106.15 139.474 106.15 139.224C106.15 139.071 106.107 138.946 106.021 138.85C105.944 138.744 105.833 138.658 105.689 138.59C105.555 138.514 105.406 138.451 105.242 138.403L103.96 138.043C103.297 137.851 102.793 137.558 102.447 137.164C102.111 136.77 101.943 136.304 101.943 135.767C101.943 135.286 102.063 134.868 102.303 134.513C102.553 134.148 102.894 133.865 103.326 133.663C103.768 133.461 104.272 133.36 104.839 133.36C105.579 133.36 106.232 133.538 106.799 133.894C107.365 134.249 107.769 134.748 108.009 135.392L106.568 136.069C106.434 135.714 106.208 135.43 105.891 135.219C105.574 135.008 105.218 134.902 104.825 134.902C104.508 134.902 104.258 134.974 104.075 135.118C103.893 135.262 103.802 135.45 103.802 135.68C103.802 135.824 103.84 135.949 103.917 136.055C103.994 136.16 104.099 136.247 104.234 136.314C104.378 136.381 104.541 136.444 104.724 136.501L105.977 136.876C106.621 137.068 107.115 137.356 107.461 137.74C107.817 138.125 107.994 138.595 107.994 139.152C107.994 139.623 107.869 140.041 107.62 140.406C107.37 140.761 107.024 141.04 106.582 141.241C106.141 141.443 105.622 141.544 105.026 141.544Z" fill="#0D0E14"/>
</svg>
