<svg width="271" height="273" viewBox="0 0 271 273" fill="none" xmlns="http://www.w3.org/2000/svg">
<rect y="0.570312" width="270.657" height="272.153" rx="13.2028" fill="#EDEDF6"/>
<path d="M23.5174 28.7345C23.3867 28.7345 23.2561 28.6864 23.1529 28.5832L18.6695 24.0998C17.9406 23.3709 17.9406 22.1744 18.6695 21.4455L23.1529 16.9621C23.3523 16.7626 23.6824 16.7626 23.8818 16.9621C24.0812 17.1615 24.0812 17.4915 23.8818 17.691L19.3984 22.1744C19.0683 22.5045 19.0683 23.0408 19.3984 23.3709L23.8818 27.8543C24.0812 28.0538 24.0812 28.3838 23.8818 28.5832C23.7787 28.6795 23.648 28.7345 23.5174 28.7345Z" fill="#0D0E14"/>
<path d="M85.1279 27.7734V17.9374H86.2105L91.8613 25.8854L91.3728 25.9383V17.9374H92.6799V27.7734H91.5972L85.9729 19.7726L86.4217 19.7198V27.7734H85.1279ZM98.1099 27.9319C97.4234 27.9319 96.8028 27.7734 96.2483 27.4566C95.6938 27.1309 95.2537 26.6864 94.928 26.1231C94.6024 25.5598 94.4395 24.9216 94.4395 24.2087C94.4395 23.4957 94.598 22.862 94.9148 22.3075C95.2405 21.753 95.6806 21.3129 96.2351 20.9872C96.7896 20.6616 97.4146 20.4987 98.1099 20.4987C98.7964 20.4987 99.417 20.6616 99.9715 20.9872C100.526 21.3041 100.962 21.7398 101.279 22.2943C101.604 22.8488 101.767 23.4869 101.767 24.2087C101.767 24.9304 101.6 25.573 101.265 26.1363C100.931 26.6908 100.486 27.1309 99.9319 27.4566C99.3862 27.7734 98.7788 27.9319 98.1099 27.9319ZM98.1099 26.7436C98.55 26.7436 98.9461 26.6336 99.2981 26.4136C99.659 26.1935 99.9407 25.8898 100.143 25.5026C100.354 25.1153 100.46 24.684 100.46 24.2087C100.46 23.7246 100.354 23.2977 100.143 22.928C99.9407 22.5495 99.659 22.2503 99.2981 22.0302C98.9461 21.8014 98.55 21.687 98.1099 21.687C97.661 21.687 97.2561 21.8014 96.8952 22.0302C96.5432 22.2503 96.2615 22.5495 96.0503 22.928C95.839 23.2977 95.7334 23.7246 95.7334 24.2087C95.7334 24.684 95.839 25.1153 96.0503 25.5026C96.2615 25.8898 96.5432 26.1935 96.8952 26.4136C97.2561 26.6336 97.661 26.7436 98.1099 26.7436ZM105.22 27.7734L102.434 20.6572H103.807L106.039 26.6776H105.563L107.808 20.6572H109.181L106.382 27.7734H105.22ZM113.425 27.9319C112.738 27.9319 112.126 27.769 111.589 27.4434C111.053 27.1177 110.63 26.6732 110.322 26.1099C110.014 25.5378 109.86 24.8996 109.86 24.1955C109.86 23.4825 110.01 22.8488 110.309 22.2943C110.617 21.7398 111.031 21.3041 111.55 20.9872C112.078 20.6616 112.668 20.4987 113.319 20.4987C113.847 20.4987 114.314 20.5955 114.719 20.7892C115.132 20.974 115.48 21.2293 115.762 21.5549C116.052 21.8718 116.272 22.2371 116.422 22.6508C116.58 23.0557 116.659 23.4781 116.659 23.9182C116.659 24.0151 116.651 24.1251 116.633 24.2483C116.624 24.3627 116.611 24.4727 116.593 24.5784H110.758V23.5221H115.88L115.299 23.9974C115.379 23.5398 115.335 23.1305 115.167 22.7696C115 22.4087 114.754 22.1227 114.428 21.9114C114.102 21.7002 113.733 21.5945 113.319 21.5945C112.905 21.5945 112.527 21.7002 112.184 21.9114C111.84 22.1227 111.572 22.4263 111.378 22.8224C111.193 23.2097 111.119 23.6718 111.154 24.2087C111.119 24.728 111.198 25.1857 111.391 25.5818C111.594 25.9691 111.876 26.2727 112.236 26.4928C112.606 26.704 113.007 26.8096 113.438 26.8096C113.913 26.8096 114.314 26.6996 114.639 26.4796C114.965 26.2595 115.229 25.9779 115.432 25.6346L116.461 26.1627C116.32 26.4884 116.1 26.7876 115.801 27.0605C115.511 27.3245 115.163 27.5358 114.758 27.6942C114.362 27.8527 113.918 27.9319 113.425 27.9319ZM118.26 27.7734V20.6572H119.462V22.1095L119.29 21.885C119.466 21.4361 119.748 21.0928 120.135 20.8552C120.522 20.6175 120.958 20.4987 121.442 20.4987C121.997 20.4987 122.494 20.6528 122.934 20.9608C123.383 21.2689 123.691 21.6738 123.858 22.1755L123.515 22.1887C123.7 21.6342 124.012 21.2161 124.452 20.9344C124.892 20.6439 125.381 20.4987 125.918 20.4987C126.411 20.4987 126.855 20.6131 127.251 20.842C127.656 21.0708 127.978 21.3877 128.215 21.7926C128.453 22.1975 128.572 22.6552 128.572 23.1657V27.7734H127.331V23.5618C127.331 23.1657 127.26 22.8312 127.119 22.5583C126.979 22.2855 126.785 22.0742 126.538 21.9246C126.301 21.7662 126.019 21.687 125.693 21.687C125.377 21.687 125.091 21.7662 124.835 21.9246C124.589 22.0742 124.391 22.2899 124.241 22.5716C124.1 22.8444 124.03 23.1745 124.03 23.5618V27.7734H122.789V23.5618C122.789 23.1657 122.718 22.8312 122.578 22.5583C122.437 22.2855 122.243 22.0742 121.997 21.9246C121.759 21.7662 121.477 21.687 121.152 21.687C120.835 21.687 120.549 21.7662 120.294 21.9246C120.047 22.0742 119.849 22.2899 119.699 22.5716C119.559 22.8444 119.488 23.1745 119.488 23.5618V27.7734H118.26ZM133.999 27.9319C133.427 27.9319 132.903 27.8042 132.428 27.549C131.961 27.2937 131.601 26.9329 131.345 26.4664L131.517 26.2551V27.7734H130.316V17.779H131.543V22.1887L131.359 21.885C131.623 21.4625 131.983 21.128 132.441 20.8816C132.899 20.6263 133.423 20.4987 134.012 20.4987C134.681 20.4987 135.28 20.6616 135.808 20.9872C136.345 21.3129 136.767 21.7574 137.075 22.3207C137.383 22.8752 137.537 23.5089 137.537 24.2219C137.537 24.9172 137.383 25.5466 137.075 26.1099C136.767 26.6732 136.345 27.1177 135.808 27.4434C135.28 27.769 134.677 27.9319 133.999 27.9319ZM133.907 26.7436C134.356 26.7436 134.756 26.6336 135.108 26.4136C135.46 26.1935 135.733 25.8942 135.927 25.5158C136.129 25.1285 136.23 24.6972 136.23 24.2219C136.23 23.729 136.129 23.2977 135.927 22.928C135.733 22.5495 135.46 22.2503 135.108 22.0302C134.756 21.8014 134.356 21.687 133.907 21.687C133.458 21.687 133.053 21.797 132.692 22.017C132.34 22.2371 132.058 22.5407 131.847 22.928C131.645 23.3065 131.543 23.7378 131.543 24.2219C131.543 24.6972 131.645 25.1285 131.847 25.5158C132.058 25.8942 132.34 26.1935 132.692 26.4136C133.053 26.6336 133.458 26.7436 133.907 26.7436ZM142.422 27.9319C141.735 27.9319 141.123 27.769 140.587 27.4434C140.05 27.1177 139.627 26.6732 139.319 26.1099C139.011 25.5378 138.857 24.8996 138.857 24.1955C138.857 23.4825 139.007 22.8488 139.306 22.2943C139.614 21.7398 140.028 21.3041 140.547 20.9872C141.075 20.6616 141.665 20.4987 142.316 20.4987C142.844 20.4987 143.311 20.5955 143.716 20.7892C144.129 20.974 144.477 21.2293 144.759 21.5549C145.049 21.8718 145.269 22.2371 145.419 22.6508C145.577 23.0557 145.656 23.4781 145.656 23.9182C145.656 24.0151 145.648 24.1251 145.63 24.2483C145.621 24.3627 145.608 24.4727 145.59 24.5784H139.755V23.5221H144.877L144.297 23.9974C144.376 23.5398 144.332 23.1305 144.165 22.7696C143.997 22.4087 143.751 22.1227 143.425 21.9114C143.099 21.7002 142.73 21.5945 142.316 21.5945C141.902 21.5945 141.524 21.7002 141.181 21.9114C140.837 22.1227 140.569 22.4263 140.375 22.8224C140.19 23.2097 140.116 23.6718 140.151 24.2087C140.116 24.728 140.195 25.1857 140.389 25.5818C140.591 25.9691 140.873 26.2727 141.234 26.4928C141.603 26.704 142.004 26.8096 142.435 26.8096C142.91 26.8096 143.311 26.6996 143.636 26.4796C143.962 26.2595 144.226 25.9779 144.429 25.6346L145.458 26.1627C145.318 26.4884 145.098 26.7876 144.798 27.0605C144.508 27.3245 144.16 27.5358 143.755 27.6942C143.359 27.8527 142.915 27.9319 142.422 27.9319ZM147.257 27.7734V20.6572H148.459V21.9642L148.327 21.7794C148.494 21.3745 148.749 21.0752 149.093 20.8816C149.436 20.6792 149.854 20.5779 150.347 20.5779H150.783V21.7398H150.162C149.66 21.7398 149.255 21.8982 148.947 22.2151C148.639 22.5231 148.485 22.9632 148.485 23.5354V27.7734H147.257ZM153.918 27.7734V26.8756L156.637 23.9314C157.174 23.3593 157.601 22.8884 157.918 22.5187C158.244 22.1491 158.481 21.819 158.631 21.5285C158.781 21.2381 158.855 20.93 158.855 20.6043C158.855 20.0674 158.697 19.6537 158.38 19.3633C158.063 19.0728 157.645 18.9276 157.126 18.9276C156.598 18.9276 156.149 19.0816 155.779 19.3897C155.41 19.6889 155.154 20.1158 155.013 20.6704L153.838 20.3667C153.953 19.8386 154.164 19.3809 154.472 18.9936C154.78 18.6063 155.163 18.3071 155.621 18.0958C156.078 17.8846 156.58 17.779 157.126 17.779C157.724 17.779 158.248 17.8978 158.697 18.1354C159.155 18.3643 159.511 18.6855 159.766 19.0992C160.031 19.5129 160.163 19.9926 160.163 20.5383C160.163 20.8992 160.088 21.2513 159.938 21.5945C159.788 21.9378 159.568 22.3031 159.278 22.6904C158.988 23.0689 158.609 23.5089 158.143 24.0107L155.713 26.6512H160.374V27.7734H153.918ZM165.901 27.9319C165.118 27.9319 164.431 27.7206 163.841 27.2981C163.26 26.8668 162.807 26.2727 162.481 25.5158C162.156 24.75 161.993 23.861 161.993 22.8488C161.993 21.8366 162.156 20.952 162.481 20.1951C162.807 19.4293 163.26 18.8352 163.841 18.4127C164.422 17.9902 165.104 17.779 165.888 17.779C166.671 17.779 167.353 17.9902 167.934 18.4127C168.515 18.8352 168.968 19.4293 169.294 20.1951C169.628 20.952 169.796 21.8366 169.796 22.8488C169.796 23.861 169.633 24.75 169.307 25.5158C168.982 26.2815 168.524 26.8756 167.934 27.2981C167.353 27.7206 166.675 27.9319 165.901 27.9319ZM165.901 26.7304C166.429 26.7304 166.887 26.572 167.274 26.2551C167.661 25.9295 167.961 25.4762 168.172 24.8952C168.392 24.3143 168.502 23.6322 168.502 22.8488C168.502 22.0654 168.392 21.3833 168.172 20.8024C167.961 20.2215 167.657 19.7726 167.261 19.4557C166.873 19.1388 166.416 18.9804 165.888 18.9804C165.36 18.9804 164.902 19.1388 164.515 19.4557C164.127 19.7726 163.824 20.2215 163.604 20.8024C163.392 21.3833 163.287 22.0654 163.287 22.8488C163.287 23.6234 163.392 24.3011 163.604 24.882C163.824 25.463 164.127 25.9162 164.515 26.2419C164.911 26.5676 165.373 26.7304 165.901 26.7304ZM171.375 27.7734V26.8756L174.095 23.9314C174.632 23.3593 175.059 22.8884 175.376 22.5187C175.701 22.1491 175.939 21.819 176.089 21.5285C176.238 21.2381 176.313 20.93 176.313 20.6043C176.313 20.0674 176.155 19.6537 175.838 19.3633C175.521 19.0728 175.103 18.9276 174.583 18.9276C174.055 18.9276 173.606 19.0816 173.237 19.3897C172.867 19.6889 172.612 20.1158 172.471 20.6704L171.296 20.3667C171.41 19.8386 171.622 19.3809 171.93 18.9936C172.238 18.6063 172.621 18.3071 173.078 18.0958C173.536 17.8846 174.038 17.779 174.583 17.779C175.182 17.779 175.706 17.8978 176.155 18.1354C176.612 18.3643 176.969 18.6855 177.224 19.0992C177.488 19.5129 177.62 19.9926 177.62 20.5383C177.62 20.8992 177.545 21.2513 177.396 21.5945C177.246 21.9378 177.026 22.3031 176.736 22.6904C176.445 23.0689 176.067 23.5089 175.6 24.0107L173.171 26.6512H177.831V27.7734H171.375ZM182.447 27.9319C181.928 27.9319 181.444 27.8395 180.995 27.6546C180.546 27.4698 180.159 27.2101 179.833 26.8756C179.508 26.5324 179.266 26.1275 179.107 25.661L180.203 25.2121C180.388 25.705 180.678 26.0879 181.074 26.3607C181.47 26.6336 181.928 26.77 182.447 26.77C182.852 26.77 183.213 26.6908 183.53 26.5324C183.847 26.3739 184.093 26.1451 184.269 25.8458C184.454 25.5466 184.547 25.1857 184.547 24.7632C184.547 24.3319 184.454 23.971 184.269 23.6806C184.093 23.3813 183.847 23.1525 183.53 22.994C183.213 22.8356 182.848 22.7564 182.434 22.7564C182.302 22.7564 182.157 22.7652 181.999 22.7828C181.849 22.8004 181.721 22.8268 181.616 22.862L181.338 22.2679L183.966 19.0596H179.609V17.9374H185.431V19.02L182.923 22.1095L182.844 21.7662C183.433 21.7838 183.953 21.9202 184.401 22.1755C184.85 22.4307 185.202 22.7784 185.458 23.2185C185.713 23.6498 185.841 24.1559 185.841 24.7368C185.841 25.3353 185.695 25.8766 185.405 26.3607C185.114 26.8448 184.714 27.2277 184.203 27.5094C183.693 27.791 183.108 27.9319 182.447 27.9319Z" fill="#0D0E14"/>
<path d="M247.077 28.7345C246.947 28.7345 246.816 28.6864 246.713 28.5832C246.513 28.3838 246.513 28.0538 246.713 27.8543L251.196 23.3709C251.526 23.0408 251.526 22.5045 251.196 22.1744L246.713 17.691C246.513 17.4915 246.513 17.1615 246.713 16.9621C246.912 16.7626 247.242 16.7626 247.442 16.9621L251.925 21.4455C252.276 21.7962 252.475 22.2707 252.475 22.7727C252.475 23.2746 252.283 23.7491 251.925 24.0998L247.442 28.5832C247.339 28.6795 247.208 28.7345 247.077 28.7345Z" fill="#0D0E14"/>
<path d="M21.5977 61.9756V53.369H22.6374L25.8605 57.9553H25.3291L28.5292 53.369H29.5689V61.9756H28.4252V54.8015L28.8295 54.9286L25.6295 59.4341H25.5371L22.3717 54.9286L22.7298 54.8015V61.9756H21.5977Z" fill="#787897"/>
<path d="M61.6056 61.9756V54.4088H59.272V53.369H65.0482V54.4088H62.7493V61.9756H61.6056Z" fill="#787897"/>
<path d="M95.5334 61.9756L93.1189 53.369H94.3088L96.3305 60.9474H96.0533L98.1558 53.369H99.3457L101.437 60.9474H101.148L103.181 53.369H104.371L101.957 61.9756H100.697L98.5948 54.4319H98.8951L96.7926 61.9756H95.5334Z" fill="#787897"/>
<path d="M134.771 61.9756V54.4088H132.438V53.369H138.214V54.4088H135.915V61.9756H134.771Z" fill="#787897"/>
<path d="M169.502 61.9756V53.369H174.955V54.4088H170.634V57.1929H174.55V58.2326H170.634V61.9756H169.502Z" fill="#787897"/>
<path d="M208.675 62.1142C208.129 62.1142 207.628 62.0141 207.174 61.8139C206.719 61.6059 206.334 61.3248 206.018 60.9705C205.703 60.6163 205.475 60.2196 205.337 59.7806L206.319 59.3763C206.527 59.9308 206.835 60.3582 207.243 60.6586C207.659 60.9513 208.144 61.0976 208.698 61.0976C209.037 61.0976 209.334 61.0437 209.588 60.9359C209.842 60.828 210.039 60.6779 210.177 60.4853C210.323 60.2851 210.397 60.054 210.397 59.7922C210.397 59.4302 210.293 59.1452 210.085 58.9373C209.885 58.7217 209.588 58.5599 209.195 58.4521L207.613 57.9669C206.989 57.7744 206.511 57.4701 206.18 57.0543C205.849 56.6384 205.683 56.1609 205.683 55.6218C205.683 55.152 205.795 54.7399 206.018 54.3857C206.249 54.0237 206.565 53.7426 206.966 53.5423C207.374 53.3344 207.836 53.2304 208.352 53.2304C208.868 53.2304 209.334 53.3228 209.75 53.5077C210.173 53.6925 210.531 53.9428 210.824 54.2586C211.117 54.5666 211.332 54.9209 211.471 55.3214L210.501 55.7257C210.316 55.2405 210.039 54.8747 209.669 54.6283C209.299 54.3741 208.864 54.247 208.363 54.247C208.055 54.247 207.782 54.3009 207.543 54.4088C207.312 54.5089 207.131 54.6591 207 54.8593C206.877 55.0518 206.815 55.2829 206.815 55.5524C206.815 55.8682 206.916 56.1493 207.116 56.3958C207.316 56.6422 207.62 56.8309 208.028 56.9618L209.472 57.3893C210.15 57.5972 210.662 57.8937 211.009 58.2788C211.356 58.6639 211.529 59.1414 211.529 59.7113C211.529 60.1811 211.406 60.597 211.159 60.959C210.92 61.3209 210.585 61.6059 210.154 61.8139C209.73 62.0141 209.238 62.1142 208.675 62.1142Z" fill="#787897"/>
<path d="M245.258 62.1142C244.711 62.1142 244.211 62.0141 243.756 61.8139C243.302 61.6059 242.917 61.3248 242.601 60.9705C242.285 60.6163 242.058 60.2196 241.919 59.7806L242.901 59.3763C243.109 59.9308 243.417 60.3582 243.826 60.6586C244.241 60.9513 244.727 61.0976 245.281 61.0976C245.62 61.0976 245.917 61.0437 246.171 60.9359C246.425 60.828 246.621 60.6779 246.76 60.4853C246.906 60.2851 246.979 60.054 246.979 59.7922C246.979 59.4302 246.875 59.1452 246.668 58.9373C246.467 58.7217 246.171 58.5599 245.778 58.4521L244.195 57.9669C243.571 57.7744 243.094 57.4701 242.763 57.0543C242.432 56.6384 242.266 56.1609 242.266 55.6218C242.266 55.152 242.378 54.7399 242.601 54.3857C242.832 54.0237 243.148 53.7426 243.548 53.5423C243.957 53.3344 244.419 53.2304 244.935 53.2304C245.451 53.2304 245.917 53.3228 246.332 53.5077C246.756 53.6925 247.114 53.9428 247.407 54.2586C247.7 54.5666 247.915 54.9209 248.054 55.3214L247.083 55.7257C246.899 55.2405 246.621 54.8747 246.252 54.6283C245.882 54.3741 245.447 54.247 244.946 54.247C244.638 54.247 244.365 54.3009 244.126 54.4088C243.895 54.5089 243.714 54.6591 243.583 54.8593C243.46 55.0518 243.398 55.2829 243.398 55.5524C243.398 55.8682 243.498 56.1493 243.699 56.3958C243.899 56.6422 244.203 56.8309 244.611 56.9618L246.055 57.3893C246.733 57.5972 247.245 57.8937 247.592 58.2788C247.938 58.6639 248.112 59.1414 248.112 59.7113C248.112 60.1811 247.988 60.597 247.742 60.959C247.503 61.3209 247.168 61.6059 246.737 61.8139C246.313 62.0141 245.82 62.1142 245.258 62.1142Z" fill="#D90034"/>
<path d="M23.2456 100.072C22.7912 100.072 22.3676 99.9914 21.9748 99.8296C21.582 99.6679 21.2431 99.4407 20.9582 99.148C20.6732 98.8477 20.4614 98.4934 20.3228 98.0852L21.2816 97.6924C21.4434 98.1237 21.6975 98.4587 22.0441 98.6975C22.3907 98.9362 22.7912 99.0556 23.2456 99.0556C23.5998 99.0556 23.9156 98.9863 24.1928 98.8477C24.4701 98.709 24.6858 98.5088 24.8398 98.2469C25.0015 97.9851 25.0824 97.6693 25.0824 97.2996C25.0824 96.9223 25.0015 96.6065 24.8398 96.3523C24.6858 96.0905 24.4701 95.8902 24.1928 95.7516C23.9156 95.613 23.596 95.5437 23.234 95.5437C23.1185 95.5437 22.9914 95.5514 22.8528 95.5668C22.7218 95.5822 22.6102 95.6053 22.5177 95.6361L22.2751 95.1162L24.5741 92.309H20.7618V91.327H25.8564V92.2743L23.6614 94.9776L23.5921 94.6772C24.1081 94.6926 24.5625 94.812 24.9553 95.0354C25.3481 95.2587 25.6562 95.5629 25.8795 95.948C26.1028 96.3254 26.2145 96.7682 26.2145 97.2765C26.2145 97.8002 26.0874 98.2739 25.8333 98.6975C25.5791 99.1211 25.2287 99.4561 24.782 99.7025C24.3353 99.949 23.8232 100.072 23.2456 100.072ZM28.9565 99.9336V92.309H27.3276V91.327H30.1002V99.9336H28.9565Z" fill="#BCBCD0"/>
<path d="M62.0135 99.9336V92.309H60.3846V91.327H63.1572V99.9336H62.0135Z" fill="#0D0E14"/>
<circle cx="98.7455" cy="95.3112" r="12.3776" fill="#1B2FE4"/>
<path d="M95.9115 99.9336V99.148L98.2913 96.5718C98.7611 96.0712 99.1346 95.6592 99.4119 95.3357C99.6968 95.0123 99.9048 94.7235 100.036 94.4693C100.167 94.2151 100.232 93.9456 100.232 93.6606C100.232 93.1908 100.093 92.8289 99.8162 92.5747C99.539 92.3206 99.1731 92.1935 98.7187 92.1935C98.2566 92.1935 97.8639 92.3283 97.5404 92.5978C97.2169 92.8597 96.9936 93.2332 96.8704 93.7184L95.8422 93.4527C95.9423 92.9906 96.1272 92.5901 96.3967 92.2512C96.6663 91.9124 97.0013 91.6505 97.4018 91.4657C97.8023 91.2808 98.2412 91.1884 98.7187 91.1884C99.2425 91.1884 99.7007 91.2924 100.093 91.5003C100.494 91.7006 100.806 91.9817 101.029 92.3437C101.26 92.7056 101.376 93.1254 101.376 93.6029C101.376 93.9186 101.31 94.2267 101.179 94.5271C101.048 94.8274 100.856 95.147 100.602 95.4859C100.348 95.8171 100.016 96.2022 99.6083 96.6412L97.4826 98.9516H101.561V99.9336H95.9115Z" fill="#EDEDF6"/>
<path d="M135.199 100.072C134.745 100.072 134.321 99.9914 133.928 99.8296C133.536 99.6679 133.197 99.4407 132.912 99.148C132.627 98.8477 132.415 98.4934 132.276 98.0852L133.235 97.6924C133.397 98.1237 133.651 98.4587 133.998 98.6975C134.344 98.9362 134.745 99.0556 135.199 99.0556C135.553 99.0556 135.869 98.9863 136.146 98.8477C136.424 98.709 136.639 98.5088 136.793 98.2469C136.955 97.9851 137.036 97.6693 137.036 97.2996C137.036 96.9223 136.955 96.6065 136.793 96.3523C136.639 96.0905 136.424 95.8902 136.146 95.7516C135.869 95.613 135.55 95.5437 135.188 95.5437C135.072 95.5437 134.945 95.5514 134.806 95.5668C134.675 95.5822 134.564 95.6053 134.471 95.6361L134.229 95.1162L136.528 92.309H132.715V91.327H137.81V92.2743L135.615 94.9776L135.546 94.6772C136.062 94.6926 136.516 94.812 136.909 95.0354C137.302 95.2587 137.61 95.5629 137.833 95.948C138.056 96.3254 138.168 96.7682 138.168 97.2765C138.168 97.8002 138.041 98.2739 137.787 98.6975C137.533 99.1211 137.182 99.4561 136.736 99.7025C136.289 99.949 135.777 100.072 135.199 100.072Z" fill="#0D0E14"/>
<path d="M172.952 99.9336V97.9466H168.724V97.0108L172.929 91.327H174.015V97.0108H175.136V97.9466H174.015V99.9336H172.952ZM169.579 97.4152L169.417 97.0108H172.952V92.2743L173.287 92.3668L169.579 97.4152Z" fill="#0D0E14"/>
<path d="M208.4 100.072C207.953 100.072 207.533 99.9952 207.14 99.8412C206.748 99.6794 206.405 99.4522 206.112 99.1596C205.827 98.8592 205.619 98.5088 205.488 98.1083L206.413 97.7155C206.574 98.1391 206.836 98.4703 207.198 98.709C207.568 98.9401 207.968 99.0556 208.4 99.0556C208.754 99.0556 209.066 98.9786 209.335 98.8246C209.613 98.6628 209.828 98.4433 209.982 98.1661C210.136 97.8811 210.213 97.5653 210.213 97.2188C210.213 96.8568 210.133 96.5372 209.971 96.2599C209.817 95.9827 209.605 95.767 209.335 95.613C209.066 95.4513 208.758 95.3704 208.411 95.3704C208.057 95.3704 207.733 95.4513 207.441 95.613C207.148 95.7747 206.936 95.9788 206.805 96.2253L205.893 96.0289L206.551 91.327H211.011V92.309H206.979L207.418 91.87L206.909 95.5206L206.517 95.2895C206.771 94.9661 207.067 94.735 207.406 94.5964C207.753 94.45 208.126 94.3769 208.527 94.3769C209.089 94.3769 209.582 94.504 210.005 94.7581C210.429 95.0123 210.76 95.3511 210.999 95.7747C211.238 96.1983 211.357 96.6797 211.357 97.2188C211.357 97.7579 211.226 98.2431 210.964 98.6744C210.71 99.1057 210.36 99.4484 209.913 99.7025C209.474 99.949 208.97 100.072 208.4 100.072Z" fill="#0D0E14"/>
<path d="M245.096 100.072C244.541 100.072 244.048 99.949 243.617 99.7025C243.193 99.4561 242.858 99.1211 242.612 98.6975C242.365 98.2662 242.242 97.7771 242.242 97.2303C242.242 96.93 242.277 96.6335 242.346 96.3408C242.415 96.0481 242.527 95.7516 242.681 95.4513C242.835 95.1509 243.031 94.839 243.27 94.5155L245.696 91.327H247.059L244.09 95.1856L243.883 95.1624C243.998 95.0084 244.125 94.889 244.264 94.8043C244.41 94.7196 244.564 94.658 244.726 94.6195C244.895 94.581 245.072 94.5617 245.257 94.5617C245.766 94.5617 246.22 94.6811 246.62 94.9198C247.029 95.1509 247.348 95.4705 247.579 95.8787C247.818 96.2869 247.937 96.7567 247.937 97.2881C247.937 97.8195 247.814 98.297 247.568 98.7206C247.321 99.1365 246.982 99.4676 246.551 99.7141C246.128 99.9528 245.642 100.072 245.096 100.072ZM245.096 99.0556C245.419 99.0556 245.708 98.9824 245.962 98.8361C246.216 98.6821 246.416 98.4703 246.563 98.2007C246.717 97.9312 246.794 97.6308 246.794 97.2996C246.794 96.9531 246.721 96.6527 246.574 96.3986C246.428 96.1367 246.228 95.9288 245.974 95.7747C245.719 95.6207 245.427 95.5437 245.096 95.5437C244.772 95.5437 244.479 95.6207 244.218 95.7747C243.956 95.9288 243.752 96.1367 243.605 96.3986C243.459 96.6527 243.386 96.9531 243.386 97.2996C243.386 97.6308 243.459 97.9312 243.605 98.2007C243.759 98.4703 243.963 98.6821 244.218 98.8361C244.479 98.9824 244.772 99.0556 245.096 99.0556Z" fill="#BCBCD0"/>
<path d="M23.3053 137.892L27.0829 130.267H22.8663V129.285H28.2728V130.267L24.5298 137.892H23.3053Z" fill="#0D0E14"/>
<path d="M62.1691 138.03C61.5914 138.03 61.0793 137.915 60.6326 137.684C60.1936 137.453 59.847 137.141 59.5929 136.748C59.3464 136.347 59.2232 135.901 59.2232 135.408C59.2232 134.853 59.3772 134.368 59.6853 133.952C59.9934 133.536 60.4169 133.24 60.9561 133.063L60.933 133.352C60.5248 133.19 60.2051 132.932 59.9741 132.577C59.7508 132.216 59.6391 131.827 59.6391 131.411C59.6391 130.972 59.7469 130.583 59.9625 130.244C60.1859 129.905 60.4863 129.639 60.8636 129.447C61.2487 129.247 61.6839 129.146 62.1691 129.146C62.6543 129.146 63.0855 129.243 63.4629 129.435C63.8403 129.628 64.1368 129.897 64.3525 130.244C64.5758 130.583 64.6875 130.972 64.6875 131.411C64.6875 131.85 64.5681 132.242 64.3294 132.589C64.0983 132.936 63.7902 133.194 63.4052 133.363L63.3705 133.063C63.9173 133.24 64.3448 133.54 64.6528 133.964C64.9609 134.38 65.1149 134.861 65.1149 135.408C65.1149 135.901 64.9878 136.347 64.7337 136.748C64.4872 137.141 64.1407 137.453 63.694 137.684C63.255 137.915 62.7467 138.03 62.1691 138.03ZM62.1691 137.048C62.531 137.048 62.8468 136.979 63.1164 136.84C63.3859 136.702 63.5939 136.509 63.7402 136.263C63.8942 136.009 63.9712 135.72 63.9712 135.396C63.9712 135.065 63.8942 134.776 63.7402 134.53C63.5939 134.276 63.3859 134.083 63.1164 133.952C62.8468 133.814 62.531 133.744 62.1691 133.744C61.8071 133.744 61.4875 133.814 61.2102 133.952C60.9407 134.083 60.7327 134.276 60.5864 134.53C60.44 134.776 60.3669 135.065 60.3669 135.396C60.3669 135.72 60.44 136.009 60.5864 136.263C60.7327 136.509 60.9407 136.702 61.2102 136.84C61.4875 136.979 61.8071 137.048 62.1691 137.048ZM62.1691 132.762C62.4309 132.762 62.662 132.705 62.8622 132.589C63.0701 132.474 63.2357 132.319 63.359 132.127C63.4822 131.927 63.5438 131.696 63.5438 131.434C63.5438 131.172 63.4822 130.945 63.359 130.752C63.2357 130.56 63.0701 130.409 62.8622 130.302C62.662 130.186 62.4309 130.128 62.1691 130.128C61.8995 130.128 61.6608 130.186 61.4528 130.302C61.2449 130.409 61.0793 130.56 60.9561 130.752C60.8328 130.945 60.7712 131.172 60.7712 131.434C60.7712 131.696 60.8328 131.927 60.9561 132.127C61.0793 132.319 61.2449 132.474 61.4528 132.589C61.6608 132.705 61.8995 132.762 62.1691 132.762Z" fill="#0D0E14"/>
<path d="M96.7664 137.892L99.7354 134.022L99.9433 134.045C99.8278 134.199 99.7007 134.322 99.5621 134.414C99.4234 134.499 99.2694 134.561 99.1 134.599C98.9382 134.638 98.7611 134.657 98.5686 134.657C98.0603 134.657 97.602 134.541 97.1938 134.31C96.7933 134.072 96.4737 133.748 96.235 133.34C96.0039 132.924 95.8884 132.45 95.8884 131.919C95.8884 131.388 96.0116 130.914 96.2581 130.498C96.5045 130.082 96.8434 129.755 97.2747 129.516C97.706 129.27 98.1912 129.146 98.7303 129.146C99.2848 129.146 99.7739 129.27 100.197 129.516C100.629 129.755 100.968 130.09 101.214 130.521C101.461 130.945 101.584 131.434 101.584 131.988C101.584 132.289 101.549 132.585 101.48 132.878C101.41 133.171 101.299 133.467 101.145 133.767C100.998 134.068 100.802 134.38 100.556 134.703L98.1296 137.892H96.7664ZM98.7303 133.663C99.0615 133.663 99.3541 133.59 99.6083 133.444C99.8701 133.29 100.074 133.082 100.221 132.82C100.367 132.551 100.44 132.25 100.44 131.919C100.44 131.572 100.363 131.268 100.209 131.006C100.063 130.745 99.8624 130.537 99.6083 130.383C99.3541 130.229 99.0615 130.151 98.7303 130.151C98.4068 130.151 98.118 130.229 97.8639 130.383C97.6097 130.537 97.4056 130.745 97.2516 131.006C97.1053 131.268 97.0321 131.572 97.0321 131.919C97.0321 132.25 97.1053 132.551 97.2516 132.82C97.3979 133.082 97.5982 133.29 97.8523 133.444C98.1142 133.59 98.4068 133.663 98.7303 133.663Z" fill="#0D0E14"/>
<path d="M130.999 137.892V130.267H129.37V129.285H132.143V137.892H130.999ZM137.548 138.03C136.862 138.03 136.261 137.845 135.745 137.476C135.237 137.098 134.84 136.578 134.555 135.916C134.27 135.246 134.128 134.468 134.128 133.583C134.128 132.697 134.27 131.923 134.555 131.261C134.84 130.59 135.237 130.071 135.745 129.701C136.254 129.331 136.851 129.146 137.536 129.146C138.221 129.146 138.818 129.331 139.327 129.701C139.835 130.071 140.232 130.59 140.516 131.261C140.809 131.923 140.955 132.697 140.955 133.583C140.955 134.468 140.813 135.246 140.528 135.916C140.243 136.586 139.843 137.106 139.327 137.476C138.818 137.845 138.225 138.03 137.548 138.03ZM137.548 136.979C138.01 136.979 138.41 136.84 138.749 136.563C139.088 136.278 139.35 135.881 139.535 135.373C139.727 134.865 139.823 134.268 139.823 133.583C139.823 132.897 139.727 132.3 139.535 131.792C139.35 131.284 139.084 130.891 138.737 130.614C138.399 130.336 137.998 130.198 137.536 130.198C137.074 130.198 136.673 130.336 136.335 130.614C135.996 130.891 135.73 131.284 135.537 131.792C135.353 132.3 135.26 132.897 135.26 133.583C135.26 134.26 135.353 134.853 135.537 135.362C135.73 135.87 135.996 136.267 136.335 136.552C136.681 136.836 137.085 136.979 137.548 136.979Z" fill="#0D0E14"/>
<path d="M169.556 137.892V130.267H167.927V129.285H170.7V137.892H169.556ZM173.967 137.892V130.267H172.338V129.285H175.111V137.892H173.967Z" fill="#BCBCD0"/>
<path d="M204.886 137.892V130.267H203.257V129.285H206.03V137.892H204.886ZM207.865 137.892V137.106L210.245 134.53C210.714 134.029 211.088 133.617 211.365 133.294C211.65 132.97 211.858 132.681 211.989 132.427C212.12 132.173 212.185 131.904 212.185 131.619C212.185 131.149 212.047 130.787 211.77 130.533C211.492 130.279 211.127 130.151 210.672 130.151C210.21 130.151 209.817 130.286 209.494 130.556C209.17 130.818 208.947 131.191 208.824 131.676L207.796 131.411C207.896 130.949 208.081 130.548 208.35 130.209C208.62 129.87 208.955 129.609 209.355 129.424C209.756 129.239 210.195 129.146 210.672 129.146C211.196 129.146 211.654 129.25 212.047 129.458C212.447 129.659 212.759 129.94 212.983 130.302C213.214 130.664 213.329 131.083 213.329 131.561C213.329 131.877 213.264 132.185 213.133 132.485C213.002 132.785 212.809 133.105 212.555 133.444C212.301 133.775 211.97 134.16 211.562 134.599L209.436 136.91H213.514V137.892H207.865Z" fill="#0D0E14"/>
<path d="M241.401 137.892V130.267H239.772V129.285H242.545V137.892H241.401ZM247.153 138.03C246.698 138.03 246.275 137.949 245.882 137.788C245.489 137.626 245.15 137.399 244.865 137.106C244.58 136.806 244.368 136.451 244.23 136.043L245.189 135.65C245.35 136.082 245.605 136.417 245.951 136.655C246.298 136.894 246.698 137.014 247.153 137.014C247.507 137.014 247.823 136.944 248.1 136.806C248.377 136.667 248.593 136.467 248.747 136.205C248.908 135.943 248.989 135.627 248.989 135.258C248.989 134.88 248.908 134.565 248.747 134.31C248.593 134.048 248.377 133.848 248.1 133.71C247.823 133.571 247.503 133.502 247.141 133.502C247.025 133.502 246.898 133.509 246.76 133.525C246.629 133.54 246.517 133.563 246.425 133.594L246.182 133.074L248.481 130.267H244.669V129.285H249.763V130.232L247.568 132.936L247.499 132.635C248.015 132.651 248.47 132.77 248.862 132.993C249.255 133.217 249.563 133.521 249.786 133.906C250.01 134.283 250.121 134.726 250.121 135.235C250.121 135.758 249.994 136.232 249.74 136.655C249.486 137.079 249.136 137.414 248.689 137.661C248.242 137.907 247.73 138.03 247.153 138.03Z" fill="#BCBCD0"/>
<path d="M21.7475 175.85V168.225H20.1186V167.243H22.8912V175.85H21.7475ZM28.8273 175.85V173.863H24.5991V172.927L28.8042 167.243H29.8901V172.927H31.0107V173.863H29.8901V175.85H28.8273ZM25.454 173.331L25.2922 172.927H28.8273V168.19L29.1623 168.283L25.454 173.331Z" fill="#0D0E14"/>
<path d="M58.4544 175.85V168.225H56.8255V167.243H59.5981V175.85H58.4544ZM64.2749 175.988C63.8282 175.988 63.4085 175.911 63.0157 175.757C62.6229 175.595 62.2802 175.368 61.9875 175.076C61.7026 174.775 61.4946 174.425 61.3637 174.024L62.2879 173.632C62.4496 174.055 62.7115 174.386 63.0735 174.625C63.4431 174.856 63.8436 174.972 64.2749 174.972C64.6292 174.972 64.9411 174.895 65.2107 174.741C65.4879 174.579 65.7036 174.359 65.8576 174.082C66.0116 173.797 66.0886 173.481 66.0886 173.135C66.0886 172.773 66.0078 172.453 65.846 172.176C65.692 171.899 65.4802 171.683 65.2107 171.529C64.9411 171.367 64.633 171.286 64.2865 171.286C63.9322 171.286 63.6087 171.367 63.3161 171.529C63.0234 171.691 62.8116 171.895 62.6807 172.141L61.768 171.945L62.4265 167.243H66.8858V168.225H62.854L63.293 167.786L62.7846 171.437L62.3919 171.206C62.646 170.882 62.9425 170.651 63.2814 170.512C63.628 170.366 64.0015 170.293 64.402 170.293C64.9642 170.293 65.4571 170.42 65.8807 170.674C66.3043 170.928 66.6355 171.267 66.8742 171.691C67.113 172.114 67.2323 172.596 67.2323 173.135C67.2323 173.674 67.1014 174.159 66.8395 174.59C66.5854 175.022 66.235 175.364 65.7883 175.619C65.3493 175.865 64.8448 175.988 64.2749 175.988Z" fill="#0D0E14"/>
<path d="M95.1951 175.85V168.225H93.5662V167.243H96.3388V175.85H95.1951ZM100.914 175.988C100.36 175.988 99.8669 175.865 99.4356 175.619C99.0121 175.372 98.677 175.037 98.4306 174.614C98.1841 174.182 98.0609 173.693 98.0609 173.146C98.0609 172.846 98.0956 172.549 98.1649 172.257C98.2342 171.964 98.3459 171.668 98.4999 171.367C98.6539 171.067 98.8503 170.755 99.0891 170.432L101.515 167.243H102.878L99.9093 171.102L99.7013 171.078C99.8169 170.924 99.944 170.805 100.083 170.72C100.229 170.636 100.383 170.574 100.545 170.535C100.714 170.497 100.891 170.478 101.076 170.478C101.584 170.478 102.039 170.597 102.439 170.836C102.847 171.067 103.167 171.387 103.398 171.795C103.637 172.203 103.756 172.673 103.756 173.204C103.756 173.736 103.633 174.213 103.387 174.637C103.14 175.052 102.801 175.384 102.37 175.63C101.946 175.869 101.461 175.988 100.914 175.988ZM100.914 174.972C101.238 174.972 101.527 174.898 101.781 174.752C102.035 174.598 102.235 174.386 102.382 174.117C102.536 173.847 102.613 173.547 102.613 173.216C102.613 172.869 102.539 172.569 102.393 172.315C102.247 172.053 102.046 171.845 101.792 171.691C101.538 171.537 101.246 171.46 100.914 171.46C100.591 171.46 100.298 171.537 100.036 171.691C99.7745 171.845 99.5704 172.053 99.4241 172.315C99.2778 172.569 99.2046 172.869 99.2046 173.216C99.2046 173.547 99.2778 173.847 99.4241 174.117C99.5781 174.386 99.7822 174.598 100.036 174.752C100.298 174.898 100.591 174.972 100.914 174.972Z" fill="#0D0E14"/>
<path d="M132.015 175.85V168.225H130.386V167.243H133.158V175.85H132.015ZM135.259 175.85L139.037 168.225H134.82V167.243H140.226V168.225L136.483 175.85H135.259Z" fill="#BCBCD0"/>
<path d="M168.129 175.85V168.225H166.5V167.243H169.273V175.85H168.129ZM174.123 175.988C173.545 175.988 173.033 175.873 172.586 175.642C172.147 175.411 171.801 175.099 171.546 174.706C171.3 174.305 171.177 173.859 171.177 173.366C171.177 172.811 171.331 172.326 171.639 171.91C171.947 171.494 172.371 171.198 172.91 171.021L172.887 171.31C172.478 171.148 172.159 170.89 171.928 170.535C171.704 170.174 171.593 169.785 171.593 169.369C171.593 168.93 171.701 168.541 171.916 168.202C172.14 167.863 172.44 167.597 172.817 167.405C173.202 167.205 173.637 167.104 174.123 167.104C174.608 167.104 175.039 167.201 175.417 167.393C175.794 167.586 176.09 167.855 176.306 168.202C176.529 168.541 176.641 168.93 176.641 169.369C176.641 169.808 176.522 170.2 176.283 170.547C176.052 170.894 175.744 171.152 175.359 171.321L175.324 171.021C175.871 171.198 176.298 171.498 176.606 171.922C176.915 172.338 177.069 172.819 177.069 173.366C177.069 173.859 176.941 174.305 176.687 174.706C176.441 175.099 176.094 175.411 175.648 175.642C175.209 175.873 174.7 175.988 174.123 175.988ZM174.123 175.006C174.485 175.006 174.8 174.937 175.07 174.798C175.34 174.66 175.547 174.467 175.694 174.221C175.848 173.967 175.925 173.678 175.925 173.354C175.925 173.023 175.848 172.734 175.694 172.488C175.547 172.234 175.34 172.041 175.07 171.91C174.8 171.772 174.485 171.702 174.123 171.702C173.761 171.702 173.441 171.772 173.164 171.91C172.894 172.041 172.686 172.234 172.54 172.488C172.394 172.734 172.32 173.023 172.32 173.354C172.32 173.678 172.394 173.967 172.54 174.221C172.686 174.467 172.894 174.66 173.164 174.798C173.441 174.937 173.761 175.006 174.123 175.006ZM174.123 170.72C174.385 170.72 174.616 170.663 174.816 170.547C175.024 170.432 175.189 170.277 175.313 170.085C175.436 169.885 175.497 169.654 175.497 169.392C175.497 169.13 175.436 168.903 175.313 168.71C175.189 168.518 175.024 168.367 174.816 168.26C174.616 168.144 174.385 168.086 174.123 168.086C173.853 168.086 173.614 168.144 173.406 168.26C173.198 168.367 173.033 168.518 172.91 168.71C172.786 168.903 172.725 169.13 172.725 169.392C172.725 169.654 172.786 169.885 172.91 170.085C173.033 170.277 173.198 170.432 173.406 170.547C173.614 170.663 173.853 170.72 174.123 170.72Z" fill="#0D0E14"/>
<path d="M204.886 175.85V168.225H203.258V167.243H206.03V175.85H204.886ZM208.72 175.85L211.689 171.98L211.897 172.003C211.781 172.157 211.654 172.28 211.516 172.372C211.377 172.457 211.223 172.519 211.054 172.557C210.892 172.596 210.715 172.615 210.522 172.615C210.014 172.615 209.556 172.499 209.147 172.268C208.747 172.03 208.427 171.706 208.189 171.298C207.958 170.882 207.842 170.408 207.842 169.877C207.842 169.346 207.965 168.872 208.212 168.456C208.458 168.04 208.797 167.713 209.228 167.474C209.66 167.228 210.145 167.104 210.684 167.104C211.238 167.104 211.727 167.228 212.151 167.474C212.582 167.713 212.921 168.048 213.168 168.479C213.414 168.903 213.537 169.392 213.537 169.946C213.537 170.247 213.503 170.543 213.433 170.836C213.364 171.129 213.252 171.425 213.098 171.725C212.952 172.026 212.756 172.338 212.509 172.661L210.083 175.85H208.72ZM210.684 171.621C211.015 171.621 211.308 171.548 211.562 171.402C211.824 171.248 212.028 171.04 212.174 170.778C212.32 170.509 212.394 170.208 212.394 169.877C212.394 169.53 212.317 169.226 212.163 168.964C212.016 168.703 211.816 168.495 211.562 168.341C211.308 168.187 211.015 168.109 210.684 168.109C210.36 168.109 210.072 168.187 209.817 168.341C209.563 168.495 209.359 168.703 209.205 168.964C209.059 169.226 208.986 169.53 208.986 169.877C208.986 170.208 209.059 170.509 209.205 170.778C209.352 171.04 209.552 171.248 209.806 171.402C210.068 171.548 210.36 171.621 210.684 171.621Z" fill="#0D0E14"/>
<path d="M238.062 175.85V175.064L240.442 172.488C240.912 171.987 241.285 171.575 241.563 171.252C241.848 170.928 242.056 170.639 242.186 170.385C242.317 170.131 242.383 169.862 242.383 169.577C242.383 169.107 242.244 168.745 241.967 168.491C241.69 168.237 241.324 168.109 240.869 168.109C240.407 168.109 240.015 168.244 239.691 168.514C239.368 168.776 239.144 169.149 239.021 169.634L237.993 169.369C238.093 168.907 238.278 168.506 238.547 168.167C238.817 167.828 239.152 167.567 239.552 167.382C239.953 167.197 240.392 167.104 240.869 167.104C241.393 167.104 241.851 167.208 242.244 167.416C242.645 167.617 242.957 167.898 243.18 168.26C243.411 168.622 243.527 169.041 243.527 169.519C243.527 169.835 243.461 170.143 243.33 170.443C243.199 170.743 243.007 171.063 242.753 171.402C242.498 171.733 242.167 172.118 241.759 172.557L239.633 174.868H243.711V175.85H238.062ZM248.548 175.988C247.862 175.988 247.261 175.803 246.745 175.434C246.237 175.056 245.84 174.536 245.555 173.874C245.271 173.204 245.128 172.426 245.128 171.541C245.128 170.655 245.271 169.881 245.555 169.219C245.84 168.548 246.237 168.029 246.745 167.659C247.254 167.289 247.851 167.104 248.536 167.104C249.221 167.104 249.818 167.289 250.327 167.659C250.835 168.029 251.232 168.548 251.517 169.219C251.809 169.881 251.956 170.655 251.956 171.541C251.956 172.426 251.813 173.204 251.528 173.874C251.243 174.544 250.843 175.064 250.327 175.434C249.818 175.803 249.225 175.988 248.548 175.988ZM248.548 174.937C249.01 174.937 249.41 174.798 249.749 174.521C250.088 174.236 250.35 173.839 250.535 173.331C250.727 172.823 250.823 172.226 250.823 171.541C250.823 170.855 250.727 170.258 250.535 169.75C250.35 169.242 250.084 168.849 249.737 168.572C249.399 168.294 248.998 168.156 248.536 168.156C248.074 168.156 247.673 168.294 247.335 168.572C246.996 168.849 246.73 169.242 246.537 169.75C246.353 170.258 246.26 170.855 246.26 171.541C246.26 172.218 246.353 172.811 246.537 173.32C246.73 173.828 246.996 174.225 247.335 174.51C247.681 174.794 248.085 174.937 248.548 174.937Z" fill="#BCBCD0"/>
<path d="M20.5407 213.807V213.022L22.9205 210.445C23.3903 209.945 23.7638 209.533 24.041 209.209C24.326 208.886 24.5339 208.597 24.6649 208.343C24.7958 208.089 24.8613 207.819 24.8613 207.534C24.8613 207.064 24.7226 206.702 24.4454 206.448C24.1681 206.194 23.8023 206.067 23.3479 206.067C22.8858 206.067 22.493 206.202 22.1696 206.471C21.8461 206.733 21.6227 207.107 21.4995 207.592L20.4713 207.326C20.5715 206.864 20.7563 206.464 21.0259 206.125C21.2954 205.786 21.6304 205.524 22.0309 205.339C22.4314 205.154 22.8704 205.062 23.3479 205.062C23.8716 205.062 24.3299 205.166 24.7226 205.374C25.1231 205.574 25.435 205.855 25.6584 206.217C25.8894 206.579 26.005 206.999 26.005 207.476C26.005 207.792 25.9395 208.1 25.8086 208.401C25.6776 208.701 25.4851 209.021 25.2309 209.359C24.9768 209.691 24.6456 210.076 24.2374 210.515L22.1118 212.825H26.1898V213.807H20.5407ZM28.8888 213.807V206.183H27.2599V205.201H30.0325V213.807H28.8888Z" fill="#0D0E14"/>
<path d="M55.8712 213.807V213.022L58.251 210.445C58.7208 209.945 59.0943 209.533 59.3715 209.209C59.6565 208.886 59.8644 208.597 59.9954 208.343C60.1263 208.089 60.1918 207.819 60.1918 207.534C60.1918 207.064 60.0531 206.702 59.7759 206.448C59.4986 206.194 59.1328 206.067 58.6784 206.067C58.2163 206.067 57.8235 206.202 57.5001 206.471C57.1766 206.733 56.9532 207.107 56.83 207.592L55.8018 207.326C55.902 206.864 56.0868 206.464 56.3564 206.125C56.6259 205.786 56.9609 205.524 57.3614 205.339C57.7619 205.154 58.2009 205.062 58.6784 205.062C59.2021 205.062 59.6604 205.166 60.0531 205.374C60.4536 205.574 60.7655 205.855 60.9889 206.217C61.2199 206.579 61.3355 206.999 61.3355 207.476C61.3355 207.792 61.27 208.1 61.1391 208.401C61.0081 208.701 60.8156 209.021 60.5614 209.359C60.3073 209.691 59.9761 210.076 59.5679 210.515L57.4423 212.825H61.5203V213.807H55.8712ZM62.7868 213.807V213.022L65.1666 210.445C65.6364 209.945 66.0099 209.533 66.2872 209.209C66.5722 208.886 66.7801 208.597 66.911 208.343C67.042 208.089 67.1074 207.819 67.1074 207.534C67.1074 207.064 66.9688 206.702 66.6915 206.448C66.4143 206.194 66.0484 206.067 65.5941 206.067C65.132 206.067 64.7392 206.202 64.4157 206.471C64.0922 206.733 63.8689 207.107 63.7457 207.592L62.7175 207.326C62.8176 206.864 63.0025 206.464 63.272 206.125C63.5416 205.786 63.8766 205.524 64.2771 205.339C64.6776 205.154 65.1166 205.062 65.5941 205.062C66.1178 205.062 66.576 205.166 66.9688 205.374C67.3693 205.574 67.6812 205.855 67.9045 206.217C68.1356 206.579 68.2511 206.999 68.2511 207.476C68.2511 207.792 68.1856 208.1 68.0547 208.401C67.9238 208.701 67.7312 209.021 67.4771 209.359C67.2229 209.691 66.8918 210.076 66.4836 210.515L64.3579 212.825H68.4359V213.807H62.7868Z" fill="#0D0E14"/>
<path d="M92.3862 213.807V213.022L94.766 210.445C95.2358 209.945 95.6094 209.533 95.8866 209.209C96.1716 208.886 96.3795 208.597 96.5104 208.343C96.6414 208.089 96.7068 207.819 96.7068 207.534C96.7068 207.064 96.5682 206.702 96.291 206.448C96.0137 206.194 95.6479 206.067 95.1935 206.067C94.7314 206.067 94.3386 206.202 94.0151 206.471C93.6917 206.733 93.4683 207.107 93.3451 207.592L92.3169 207.326C92.417 206.864 92.6019 206.464 92.8714 206.125C93.141 205.786 93.476 205.524 93.8765 205.339C94.277 205.154 94.716 205.062 95.1935 205.062C95.7172 205.062 96.1754 205.166 96.5682 205.374C96.9687 205.574 97.2806 205.855 97.504 206.217C97.735 206.579 97.8505 206.999 97.8505 207.476C97.8505 207.792 97.7851 208.1 97.6541 208.401C97.5232 208.701 97.3307 209.021 97.0765 209.359C96.8224 209.691 96.4912 210.076 96.083 210.515L93.9574 212.825H98.0354V213.807H92.3862ZM102.074 213.946C101.62 213.946 101.196 213.865 100.804 213.703C100.411 213.541 100.072 213.314 99.7871 213.022C99.5021 212.721 99.2903 212.367 99.1517 211.959L100.111 211.566C100.272 211.997 100.526 212.332 100.873 212.571C101.22 212.81 101.62 212.929 102.074 212.929C102.429 212.929 102.745 212.86 103.022 212.721C103.299 212.583 103.515 212.382 103.669 212.12C103.83 211.859 103.911 211.543 103.911 211.173C103.911 210.796 103.83 210.48 103.669 210.226C103.515 209.964 103.299 209.764 103.022 209.625C102.745 209.487 102.425 209.417 102.063 209.417C101.947 209.417 101.82 209.425 101.682 209.44C101.551 209.456 101.439 209.479 101.347 209.51L101.104 208.99L103.403 206.183H99.5907V205.201H104.685V206.148L102.49 208.851L102.421 208.551C102.937 208.566 103.391 208.686 103.784 208.909C104.177 209.132 104.485 209.436 104.708 209.822C104.932 210.199 105.043 210.642 105.043 211.15C105.043 211.674 104.916 212.147 104.662 212.571C104.408 212.995 104.058 213.33 103.611 213.576C103.164 213.823 102.652 213.946 102.074 213.946Z" fill="#0D0E14"/>
<path d="M128.867 213.807V213.022L131.247 210.445C131.717 209.945 132.09 209.533 132.368 209.209C132.653 208.886 132.861 208.597 132.991 208.343C133.122 208.089 133.188 207.819 133.188 207.534C133.188 207.064 133.049 206.702 132.772 206.448C132.495 206.194 132.129 206.067 131.674 206.067C131.212 206.067 130.82 206.202 130.496 206.471C130.173 206.733 129.949 207.107 129.826 207.592L128.798 207.326C128.898 206.864 129.083 206.464 129.352 206.125C129.622 205.786 129.957 205.524 130.357 205.339C130.758 205.154 131.197 205.062 131.674 205.062C132.198 205.062 132.656 205.166 133.049 205.374C133.45 205.574 133.762 205.855 133.985 206.217C134.216 206.579 134.332 206.999 134.332 207.476C134.332 207.792 134.266 208.1 134.135 208.401C134.004 208.701 133.812 209.021 133.557 209.359C133.303 209.691 132.972 210.076 132.564 210.515L130.438 212.825H134.516V213.807H128.867ZM139.771 213.807V211.82H135.543V210.884L139.748 205.201H140.834V210.884H141.955V211.82H140.834V213.807H139.771ZM136.398 211.289L136.236 210.884H139.771V206.148L140.106 206.24L136.398 211.289Z" fill="#0D0E14"/>
<path d="M165.517 213.807V213.022L167.897 210.445C168.367 209.945 168.741 209.533 169.018 209.209C169.303 208.886 169.511 208.597 169.642 208.343C169.773 208.089 169.838 207.819 169.838 207.534C169.838 207.064 169.699 206.702 169.422 206.448C169.145 206.194 168.779 206.067 168.325 206.067C167.863 206.067 167.47 206.202 167.146 206.471C166.823 206.733 166.6 207.107 166.476 207.592L165.448 207.326C165.548 206.864 165.733 206.464 166.003 206.125C166.272 205.786 166.607 205.524 167.008 205.339C167.408 205.154 167.847 205.062 168.325 205.062C168.848 205.062 169.307 205.166 169.699 205.374C170.1 205.574 170.412 205.855 170.635 206.217C170.866 206.579 170.982 206.999 170.982 207.476C170.982 207.792 170.916 208.1 170.785 208.401C170.654 208.701 170.462 209.021 170.208 209.359C169.954 209.691 169.622 210.076 169.214 210.515L167.089 212.825H171.167V213.807H165.517ZM175.275 213.946C174.828 213.946 174.409 213.869 174.016 213.715C173.623 213.553 173.28 213.326 172.988 213.033C172.703 212.733 172.495 212.382 172.364 211.982L173.288 211.589C173.45 212.013 173.712 212.344 174.074 212.583C174.443 212.814 174.844 212.929 175.275 212.929C175.629 212.929 175.941 212.852 176.211 212.698C176.488 212.536 176.704 212.317 176.858 212.04C177.012 211.755 177.089 211.439 177.089 211.092C177.089 210.73 177.008 210.411 176.846 210.133C176.692 209.856 176.48 209.641 176.211 209.487C175.941 209.325 175.633 209.244 175.287 209.244C174.932 209.244 174.609 209.325 174.316 209.487C174.023 209.648 173.812 209.852 173.681 210.099L172.768 209.902L173.427 205.201H177.886V206.183H173.854L174.293 205.744L173.785 209.394L173.392 209.163C173.646 208.84 173.943 208.609 174.281 208.47C174.628 208.324 175.002 208.25 175.402 208.25C175.964 208.25 176.457 208.377 176.881 208.632C177.304 208.886 177.636 209.225 177.874 209.648C178.113 210.072 178.232 210.553 178.232 211.092C178.232 211.631 178.101 212.117 177.84 212.548C177.585 212.979 177.235 213.322 176.788 213.576C176.349 213.823 175.845 213.946 175.275 213.946Z" fill="#0D0E14"/>
<path d="M202.202 213.807V213.022L204.582 210.445C205.051 209.945 205.425 209.533 205.702 209.209C205.987 208.886 206.195 208.597 206.326 208.343C206.457 208.089 206.522 207.819 206.522 207.534C206.522 207.064 206.384 206.702 206.106 206.448C205.829 206.194 205.463 206.067 205.009 206.067C204.547 206.067 204.154 206.202 203.831 206.471C203.507 206.733 203.284 207.107 203.161 207.592L202.132 207.326C202.233 206.864 202.417 206.464 202.687 206.125C202.956 205.786 203.292 205.524 203.692 205.339C204.092 205.154 204.531 205.062 205.009 205.062C205.533 205.062 205.991 205.166 206.384 205.374C206.784 205.574 207.096 205.855 207.319 206.217C207.55 206.579 207.666 206.999 207.666 207.476C207.666 207.792 207.601 208.1 207.47 208.401C207.339 208.701 207.146 209.021 206.892 209.359C206.638 209.691 206.307 210.076 205.899 210.515L203.773 212.825H207.851V213.807H202.202ZM211.971 213.946C211.416 213.946 210.923 213.823 210.492 213.576C210.069 213.33 209.734 212.995 209.487 212.571C209.241 212.14 209.117 211.651 209.117 211.104C209.117 210.804 209.152 210.507 209.221 210.214C209.291 209.922 209.402 209.625 209.556 209.325C209.71 209.024 209.907 208.713 210.146 208.389L212.572 205.201H213.935L210.966 209.059L210.758 209.036C210.873 208.882 211 208.763 211.139 208.678C211.285 208.593 211.439 208.532 211.601 208.493C211.771 208.455 211.948 208.435 212.133 208.435C212.641 208.435 213.095 208.555 213.496 208.793C213.904 209.024 214.224 209.344 214.455 209.752C214.693 210.16 214.813 210.63 214.813 211.162C214.813 211.693 214.689 212.171 214.443 212.594C214.197 213.01 213.858 213.341 213.426 213.588C213.003 213.826 212.518 213.946 211.971 213.946ZM211.971 212.929C212.294 212.929 212.583 212.856 212.837 212.71C213.091 212.556 213.292 212.344 213.438 212.074C213.592 211.805 213.669 211.504 213.669 211.173C213.669 210.827 213.596 210.526 213.45 210.272C213.303 210.01 213.103 209.802 212.849 209.648C212.595 209.494 212.302 209.417 211.971 209.417C211.647 209.417 211.355 209.494 211.093 209.648C210.831 209.802 210.627 210.01 210.481 210.272C210.334 210.526 210.261 210.827 210.261 211.173C210.261 211.504 210.334 211.805 210.481 212.074C210.635 212.344 210.839 212.556 211.093 212.71C211.355 212.856 211.647 212.929 211.971 212.929Z" fill="#0D0E14"/>
<path d="M239.078 213.807V213.022L241.457 210.445C241.927 209.945 242.301 209.533 242.578 209.209C242.863 208.886 243.071 208.597 243.202 208.343C243.333 208.089 243.398 207.819 243.398 207.534C243.398 207.064 243.26 206.702 242.982 206.448C242.705 206.194 242.339 206.067 241.885 206.067C241.423 206.067 241.03 206.202 240.706 206.471C240.383 206.733 240.16 207.107 240.036 207.592L239.008 207.326C239.108 206.864 239.293 206.464 239.563 206.125C239.832 205.786 240.167 205.524 240.568 205.339C240.968 205.154 241.407 205.062 241.885 205.062C242.409 205.062 242.867 205.166 243.26 205.374C243.66 205.574 243.972 205.855 244.195 206.217C244.426 206.579 244.542 206.999 244.542 207.476C244.542 207.792 244.476 208.1 244.345 208.401C244.215 208.701 244.022 209.021 243.768 209.359C243.514 209.691 243.183 210.076 242.774 210.515L240.649 212.825H244.727V213.807H239.078ZM246.259 213.807L250.037 206.183H245.82V205.201H251.226V206.183L247.483 213.807H246.259Z" fill="#BCBCD0"/>
<path d="M19.1135 251.765V250.98L21.4933 248.403C21.9631 247.903 22.3367 247.491 22.6139 247.167C22.8989 246.844 23.1068 246.555 23.2377 246.301C23.3687 246.047 23.4341 245.777 23.4341 245.492C23.4341 245.022 23.2955 244.66 23.0182 244.406C22.741 244.152 22.3752 244.025 21.9208 244.025C21.4587 244.025 21.0659 244.16 20.7424 244.429C20.419 244.691 20.1956 245.065 20.0724 245.55L19.0442 245.284C19.1443 244.822 19.3292 244.422 19.5987 244.083C19.8683 243.744 20.2033 243.482 20.6038 243.297C21.0043 243.112 21.4433 243.02 21.9208 243.02C22.4445 243.02 22.9027 243.124 23.2955 243.332C23.696 243.532 24.0079 243.813 24.2313 244.175C24.4623 244.537 24.5778 244.957 24.5778 245.434C24.5778 245.75 24.5124 246.058 24.3814 246.359C24.2505 246.659 24.058 246.979 23.8038 247.317C23.5497 247.649 23.2185 248.034 22.8103 248.473L20.6847 250.783H24.7627V251.765H19.1135ZM29.0444 251.904C28.4667 251.904 27.9546 251.788 27.5079 251.557C27.0689 251.326 26.7223 251.014 26.4682 250.621C26.2217 250.221 26.0985 249.774 26.0985 249.281C26.0985 248.727 26.2525 248.242 26.5606 247.826C26.8687 247.41 27.2922 247.113 27.8314 246.936L27.8083 247.225C27.4001 247.063 27.0805 246.805 26.8494 246.451C26.6261 246.089 26.5144 245.7 26.5144 245.284C26.5144 244.845 26.6222 244.456 26.8379 244.117C27.0612 243.779 27.3616 243.513 27.7389 243.32C28.124 243.12 28.5592 243.02 29.0444 243.02C29.5296 243.02 29.9609 243.116 30.3382 243.309C30.7156 243.501 31.0121 243.771 31.2278 244.117C31.4511 244.456 31.5628 244.845 31.5628 245.284C31.5628 245.723 31.4434 246.116 31.2047 246.463C30.9736 246.809 30.6656 247.067 30.2805 247.237L30.2458 246.936C30.7926 247.113 31.2201 247.414 31.5281 247.837C31.8362 248.253 31.9902 248.735 31.9902 249.281C31.9902 249.774 31.8632 250.221 31.609 250.621C31.3625 251.014 31.016 251.326 30.5693 251.557C30.1303 251.788 29.622 251.904 29.0444 251.904ZM29.0444 250.922C29.4063 250.922 29.7221 250.852 29.9917 250.714C30.2612 250.575 30.4692 250.383 30.6155 250.136C30.7695 249.882 30.8465 249.593 30.8465 249.27C30.8465 248.939 30.7695 248.65 30.6155 248.403C30.4692 248.149 30.2612 247.957 29.9917 247.826C29.7221 247.687 29.4063 247.618 29.0444 247.618C28.6824 247.618 28.3628 247.687 28.0855 247.826C27.816 247.957 27.608 248.149 27.4617 248.403C27.3154 248.65 27.2422 248.939 27.2422 249.27C27.2422 249.593 27.3154 249.882 27.4617 250.136C27.608 250.383 27.816 250.575 28.0855 250.714C28.3628 250.852 28.6824 250.922 29.0444 250.922ZM29.0444 246.636C29.3062 246.636 29.5373 246.578 29.7375 246.463C29.9455 246.347 30.111 246.193 30.2343 246C30.3575 245.8 30.4191 245.569 30.4191 245.307C30.4191 245.045 30.3575 244.818 30.2343 244.626C30.111 244.433 29.9455 244.283 29.7375 244.175C29.5373 244.06 29.3062 244.002 29.0444 244.002C28.7748 244.002 28.5361 244.06 28.3281 244.175C28.1202 244.283 27.9546 244.433 27.8314 244.626C27.7081 244.818 27.6465 245.045 27.6465 245.307C27.6465 245.569 27.7081 245.8 27.8314 246C27.9546 246.193 28.1202 246.347 28.3281 246.463C28.5361 246.578 28.7748 246.636 29.0444 246.636Z" fill="#0D0E14"/>
<path d="M55.8712 251.765V250.98L58.251 248.403C58.7208 247.903 59.0943 247.491 59.3715 247.167C59.6565 246.844 59.8644 246.555 59.9954 246.301C60.1263 246.047 60.1918 245.777 60.1918 245.492C60.1918 245.022 60.0531 244.66 59.7759 244.406C59.4986 244.152 59.1328 244.025 58.6784 244.025C58.2163 244.025 57.8235 244.16 57.5001 244.429C57.1766 244.691 56.9532 245.065 56.83 245.55L55.8018 245.284C55.902 244.822 56.0868 244.422 56.3564 244.083C56.6259 243.744 56.9609 243.482 57.3614 243.297C57.7619 243.112 58.2009 243.02 58.6784 243.02C59.2021 243.02 59.6604 243.124 60.0531 243.332C60.4536 243.532 60.7655 243.813 60.9889 244.175C61.2199 244.537 61.3355 244.957 61.3355 245.434C61.3355 245.75 61.27 246.058 61.1391 246.359C61.0081 246.659 60.8156 246.979 60.5614 247.317C60.3073 247.649 59.9761 248.034 59.5679 248.473L57.4423 250.783H61.5203V251.765H55.8712ZM63.6417 251.765L66.6107 247.895L66.8186 247.918C66.7031 248.072 66.576 248.195 66.4374 248.288C66.2987 248.373 66.1447 248.434 65.9753 248.473C65.8135 248.511 65.6364 248.53 65.4439 248.53C64.9356 248.53 64.4773 248.415 64.0691 248.184C63.6686 247.945 63.349 247.622 63.1103 247.213C62.8792 246.798 62.7637 246.324 62.7637 245.793C62.7637 245.261 62.8869 244.787 63.1334 244.372C63.3798 243.956 63.7187 243.628 64.15 243.39C64.5813 243.143 65.0665 243.02 65.6056 243.02C66.1601 243.02 66.6492 243.143 67.0728 243.39C67.5041 243.628 67.8429 243.963 68.0894 244.395C68.3358 244.818 68.459 245.307 68.459 245.862C68.459 246.162 68.4244 246.459 68.3551 246.751C68.2858 247.044 68.1741 247.341 68.0201 247.641C67.8737 247.941 67.6773 248.253 67.4309 248.577L65.0049 251.765H63.6417ZM65.6056 247.537C65.9368 247.537 66.2294 247.464 66.4836 247.317C66.7454 247.163 66.9495 246.955 67.0959 246.694C67.2422 246.424 67.3154 246.124 67.3154 245.793C67.3154 245.446 67.2383 245.142 67.0843 244.88C66.938 244.618 66.7377 244.41 66.4836 244.256C66.2294 244.102 65.9368 244.025 65.6056 244.025C65.2821 244.025 64.9933 244.102 64.7392 244.256C64.485 244.41 64.2809 244.618 64.1269 244.88C63.9806 245.142 63.9074 245.446 63.9074 245.793C63.9074 246.124 63.9806 246.424 64.1269 246.694C64.2732 246.955 64.4735 247.163 64.7276 247.317C64.9895 247.464 65.2821 247.537 65.6056 247.537Z" fill="#0D0E14"/>
<path d="M94.4368 251.904C93.9824 251.904 93.5588 251.823 93.166 251.661C92.7732 251.499 92.4344 251.272 92.1494 250.98C91.8645 250.679 91.6527 250.325 91.514 249.917L92.4729 249.524C92.6346 249.955 92.8888 250.29 93.2353 250.529C93.5819 250.768 93.9824 250.887 94.4368 250.887C94.7911 250.887 95.1068 250.818 95.3841 250.679C95.6613 250.541 95.877 250.34 96.031 250.078C96.1928 249.817 96.2736 249.501 96.2736 249.131C96.2736 248.754 96.1928 248.438 96.031 248.184C95.877 247.922 95.6613 247.722 95.3841 247.583C95.1068 247.445 94.7872 247.375 94.4252 247.375C94.3097 247.375 94.1826 247.383 94.044 247.398C93.9131 247.414 93.8014 247.437 93.709 247.468L93.4664 246.948L95.7653 244.141H91.953V243.159H97.0476V244.106L94.8527 246.809L94.7834 246.509C95.2994 246.524 95.7538 246.644 96.1465 246.867C96.5393 247.09 96.8474 247.394 97.0707 247.78C97.2941 248.157 97.4058 248.6 97.4058 249.108C97.4058 249.632 97.2787 250.105 97.0245 250.529C96.7704 250.953 96.42 251.288 95.9733 251.534C95.5266 251.781 95.0144 251.904 94.4368 251.904ZM102.285 251.904C101.599 251.904 100.999 251.719 100.483 251.349C99.9745 250.972 99.5778 250.452 99.2929 249.79C99.0079 249.12 98.8654 248.342 98.8654 247.456C98.8654 246.57 99.0079 245.796 99.2929 245.134C99.5778 244.464 99.9745 243.944 100.483 243.574C100.991 243.205 101.588 243.02 102.273 243.02C102.959 243.02 103.556 243.205 104.064 243.574C104.572 243.944 104.969 244.464 105.254 245.134C105.547 245.796 105.693 246.57 105.693 247.456C105.693 248.342 105.55 249.12 105.265 249.79C104.981 250.46 104.58 250.98 104.064 251.349C103.556 251.719 102.963 251.904 102.285 251.904ZM102.285 250.852C102.747 250.852 103.148 250.714 103.486 250.437C103.825 250.152 104.087 249.755 104.272 249.247C104.464 248.738 104.561 248.142 104.561 247.456C104.561 246.771 104.464 246.174 104.272 245.665C104.087 245.157 103.821 244.764 103.475 244.487C103.136 244.21 102.735 244.071 102.273 244.071C101.811 244.071 101.411 244.21 101.072 244.487C100.733 244.764 100.467 245.157 100.275 245.665C100.09 246.174 99.9976 246.771 99.9976 247.456C99.9976 248.134 100.09 248.727 100.275 249.235C100.467 249.743 100.733 250.14 101.072 250.425C101.419 250.71 101.823 250.852 102.285 250.852Z" fill="#0D0E14"/>
<path d="M132.994 251.904C132.539 251.904 132.116 251.823 131.723 251.661C131.33 251.499 130.991 251.272 130.706 250.98C130.421 250.679 130.209 250.325 130.071 249.917L131.03 249.524C131.191 249.955 131.446 250.29 131.792 250.529C132.139 250.768 132.539 250.887 132.994 250.887C133.348 250.887 133.664 250.818 133.941 250.679C134.218 250.541 134.434 250.34 134.588 250.078C134.75 249.817 134.83 249.501 134.83 249.131C134.83 248.754 134.75 248.438 134.588 248.184C134.434 247.922 134.218 247.722 133.941 247.583C133.664 247.445 133.344 247.375 132.982 247.375C132.867 247.375 132.739 247.383 132.601 247.398C132.47 247.414 132.358 247.437 132.266 247.468L132.023 246.948L134.322 244.141H130.51V243.159H135.604V244.106L133.409 246.809L133.34 246.509C133.856 246.524 134.311 246.644 134.703 246.867C135.096 247.09 135.404 247.394 135.628 247.78C135.851 248.157 135.963 248.6 135.963 249.108C135.963 249.632 135.835 250.105 135.581 250.529C135.327 250.953 134.977 251.288 134.53 251.534C134.083 251.781 133.571 251.904 132.994 251.904ZM138.705 251.765V244.141H137.076V243.159H139.848V251.765H138.705Z" fill="#0D0E14"/>
<path d="M173.374 241.963V252.765H172.066V243.334H172.003L169.366 245.085V243.756L172.066 241.963H173.374Z" fill="#EDEDF6"/>
<path d="M205.115 252.765V251.816L208.681 247.913C209.099 247.455 209.444 247.058 209.715 246.721C209.985 246.379 210.186 246.059 210.316 245.761C210.45 245.458 210.516 245.142 210.516 244.811C210.516 244.431 210.425 244.103 210.242 243.825C210.063 243.547 209.817 243.333 209.504 243.181C209.191 243.03 208.839 242.954 208.449 242.954C208.034 242.954 207.672 243.041 207.362 243.213C207.056 243.382 206.819 243.619 206.65 243.925C206.485 244.231 206.402 244.59 206.402 245.001H205.157C205.157 244.368 205.303 243.812 205.595 243.334C205.887 242.856 206.284 242.483 206.787 242.216C207.294 241.949 207.861 241.815 208.491 241.815C209.124 241.815 209.685 241.949 210.173 242.216C210.662 242.483 211.046 242.844 211.323 243.297C211.601 243.751 211.74 244.256 211.74 244.811C211.74 245.208 211.668 245.597 211.524 245.977C211.383 246.353 211.137 246.773 210.785 247.237C210.437 247.698 209.954 248.261 209.335 248.925L206.909 251.52V251.605H211.93V252.765H205.115Z" fill="#EDEDF6"/>
<path d="M245.116 252.913C244.419 252.913 243.799 252.793 243.254 252.554C242.712 252.315 242.281 251.983 241.961 251.557C241.645 251.128 241.473 250.631 241.445 250.065H242.774C242.802 250.413 242.921 250.713 243.132 250.967C243.343 251.216 243.619 251.41 243.961 251.547C244.302 251.684 244.68 251.752 245.095 251.752C245.559 251.752 245.97 251.672 246.329 251.51C246.687 251.348 246.969 251.123 247.173 250.835C247.377 250.546 247.479 250.212 247.479 249.832C247.479 249.435 247.38 249.085 247.183 248.783C246.986 248.477 246.698 248.238 246.318 248.066C245.938 247.893 245.474 247.807 244.926 247.807H244.061V246.647H244.926C245.355 246.647 245.731 246.569 246.054 246.415C246.382 246.26 246.636 246.042 246.819 245.761C247.006 245.479 247.099 245.149 247.099 244.769C247.099 244.403 247.018 244.085 246.856 243.814C246.694 243.543 246.466 243.333 246.171 243.181C245.879 243.03 245.534 242.954 245.137 242.954C244.764 242.954 244.412 243.023 244.082 243.16C243.755 243.294 243.488 243.489 243.28 243.746C243.073 243.999 242.96 244.305 242.943 244.663H241.677C241.698 244.097 241.868 243.602 242.188 243.176C242.508 242.747 242.927 242.413 243.444 242.174C243.964 241.935 244.535 241.815 245.158 241.815C245.826 241.815 246.399 241.951 246.877 242.221C247.356 242.489 247.723 242.842 247.98 243.282C248.236 243.721 248.365 244.196 248.365 244.706C248.365 245.314 248.205 245.833 247.885 246.262C247.568 246.691 247.138 246.988 246.593 247.153V247.237C247.275 247.35 247.807 247.64 248.191 248.108C248.574 248.572 248.766 249.147 248.766 249.832C248.766 250.42 248.606 250.947 248.286 251.415C247.969 251.879 247.537 252.245 246.988 252.512C246.44 252.779 245.815 252.913 245.116 252.913Z" fill="#EDEDF6"/>
</svg>
