<svg width="247" height="49" viewBox="0 0 247 49" fill="none" xmlns="http://www.w3.org/2000/svg">
<path d="M2.66461 14.6335H22.2986V20.1556H10.6409V24.6434H20.5981V29.8323H10.6409V40.333H2.66461V14.6335ZM43.2999 14.6335H51.2236V29.955C51.2236 31.4743 50.9841 32.9118 50.5049 34.2675C50.0374 35.6115 49.2953 36.7919 48.2785 37.8086C47.2735 38.8137 46.2158 39.5208 45.1056 39.9298C43.5629 40.5025 41.7105 40.7888 39.5484 40.7888C38.2979 40.7888 36.9306 40.7011 35.4463 40.5258C33.9738 40.3505 32.7408 40.0058 31.7474 39.4916C30.7541 38.9656 29.8425 38.2235 29.0127 37.2652C28.1946 36.3069 27.6337 35.3193 27.3298 34.3026C26.8389 32.6664 26.5935 31.2172 26.5935 29.955V14.6335H34.5172V30.3232C34.5172 31.7256 34.9029 32.8242 35.6742 33.6189C36.4573 34.4019 37.5383 34.7934 38.9173 34.7934C40.2847 34.7934 41.3541 34.4078 42.1254 33.6364C42.9084 32.8534 43.2999 31.749 43.2999 30.3232V14.6335ZM56.5879 40.333V14.6335H69.8233C72.2776 14.6335 74.1533 14.8439 75.4506 15.2646C76.7478 15.6854 77.7938 16.4684 78.5885 17.6137C79.3832 18.7473 79.7806 20.1322 79.7806 21.7684C79.7806 23.1942 79.4767 24.4272 78.869 25.4673C78.2613 26.4957 77.4256 27.3313 76.3621 27.9741C75.6843 28.3832 74.7552 28.7221 73.5748 28.9909C74.5215 29.3064 75.211 29.622 75.6434 29.9375C75.9356 30.1479 76.3563 30.5978 76.9056 31.2874C77.4665 31.9769 77.8405 32.5086 78.0275 32.8826L81.8667 40.333H72.8911L68.6488 32.4794C68.1112 31.4627 67.632 30.8023 67.2113 30.4985C66.6386 30.1011 65.99 29.9025 65.2654 29.9025H64.5642V40.333H56.5879ZM64.5642 25.0466H67.9125C68.2748 25.0466 68.976 24.9297 70.0162 24.6959C70.5421 24.5908 70.9686 24.322 71.2959 23.8896C71.6348 23.4571 71.8043 22.9604 71.8043 22.3995C71.8043 21.5697 71.5413 20.9328 71.0154 20.4887C70.4895 20.0446 69.5019 19.8225 68.0528 19.8225H64.5642V25.0466ZM84.5313 40.333V14.6335H97.7667C100.221 14.6335 102.097 14.8439 103.394 15.2646C104.691 15.6854 105.737 16.4684 106.532 17.6137C107.327 18.7473 107.724 20.1322 107.724 21.7684C107.724 23.1942 107.42 24.4272 106.812 25.4673C106.205 26.4957 105.369 27.3313 104.305 27.9741C103.628 28.3832 102.699 28.7221 101.518 28.9909C102.465 29.3064 103.154 29.622 103.587 29.9375C103.879 30.1479 104.3 30.5978 104.849 31.2874C105.41 31.9769 105.784 32.5086 105.971 32.8826L109.81 40.333H100.834L96.5921 32.4794C96.0545 31.4627 95.5754 30.8023 95.1547 30.4985C94.582 30.1011 93.9334 29.9025 93.2088 29.9025H92.5076V40.333H84.5313ZM92.5076 25.0466H95.8559C96.2182 25.0466 96.9194 24.9297 97.9595 24.6959C98.4854 24.5908 98.912 24.322 99.2392 23.8896C99.5781 23.4571 99.7476 22.9604 99.7476 22.3995C99.7476 21.5697 99.4846 20.9328 98.9587 20.4887C98.4328 20.0446 97.4453 19.8225 95.9961 19.8225H92.5076V25.0466ZM129.479 29.8323L136.439 31.936C135.971 33.8877 135.235 35.518 134.23 36.8269C133.225 38.1359 131.974 39.1234 130.478 39.7896C128.994 40.4557 127.101 40.7888 124.798 40.7888C122.005 40.7888 119.721 40.3856 117.944 39.5792C116.179 38.7611 114.654 37.3295 113.369 35.2843C112.083 33.2391 111.44 30.6212 111.44 27.4307C111.44 23.1767 112.568 19.9102 114.824 17.6312C117.091 15.3406 120.293 14.1953 124.43 14.1953C127.668 14.1953 130.209 14.8497 132.056 16.1587C133.914 17.4676 135.293 19.4778 136.193 22.1891L129.181 23.7493C128.936 22.9663 128.679 22.3936 128.41 22.0313C127.966 21.4236 127.422 20.9561 126.779 20.6289C126.137 20.3017 125.418 20.1381 124.623 20.1381C122.823 20.1381 121.444 20.8626 120.486 22.3118C119.761 23.387 119.399 25.0758 119.399 27.3781C119.399 30.2297 119.832 32.1872 120.696 33.2508C121.561 34.3026 122.777 34.8285 124.343 34.8285C125.862 34.8285 127.007 34.4019 127.779 33.5488C128.562 32.6956 129.128 31.4568 129.479 29.8323ZM140.418 40.333V14.6335H153.653C156.108 14.6335 157.983 14.8439 159.281 15.2646C160.578 15.6854 161.624 16.4684 162.419 17.6137C163.213 18.7473 163.611 20.1322 163.611 21.7684C163.611 23.1942 163.307 24.4272 162.699 25.4673C162.091 26.4957 161.256 27.3313 160.192 27.9741C159.514 28.3832 158.585 28.7221 157.405 28.9909C158.352 29.3064 159.041 29.622 159.473 29.9375C159.766 30.1479 160.186 30.5978 160.736 31.2874C161.297 31.9769 161.671 32.5086 161.858 32.8826L165.697 40.333H156.721L152.479 32.4794C151.941 31.4627 151.462 30.8023 151.041 30.4985C150.469 30.1011 149.82 29.9025 149.096 29.9025H148.394V40.333H140.418ZM148.394 25.0466H151.743C152.105 25.0466 152.806 24.9297 153.846 24.6959C154.372 24.5908 154.799 24.322 155.126 23.8896C155.465 23.4571 155.634 22.9604 155.634 22.3995C155.634 21.5697 155.371 20.9328 154.845 20.4887C154.32 20.0446 153.332 19.8225 151.883 19.8225H148.394V25.0466ZM168.239 14.6335H189.52V20.1205H176.197V24.2051H188.556V29.4467H176.197V34.5129H189.906V40.333H168.239V14.6335Z" fill="white"/>
<path d="M240.127 5.00693V6.14035H238.581V8.61328H237.242V6.14035H235.696V5.00693H240.127ZM245.804 5.00693V8.61328H244.464V6.89769L243.48 8.61328H242.604L241.62 6.89769V8.61328H240.281V5.00693H241.929L243.042 7.0677L244.155 5.00693H245.804Z" fill="white"/>
<path d="M215.715 35.6162C214.432 36.9151 213.187 38.1362 211.986 39.3927C210.644 40.8045 209.458 40.9245 207.713 39.9362C203.663 37.6421 199.569 35.3903 195.519 33.0962C193.819 32.1362 193.327 30.6045 193.476 28.8609C193.625 27.1174 193.879 25.3739 194.095 23.6304C194.274 22.2186 194.945 21.1809 196.683 21.1315C198.42 21.0821 199.942 22.0915 199.808 23.5598C199.45 27.315 201.143 28.501 205.028 30.8657C206.333 31.6633 207.325 32.8986 208.876 33.6327C209.048 33.5268 210.122 32.6727 210.293 32.5668C209.719 31.5574 209.19 30.5198 208.556 29.5386C207.064 27.2304 205.364 25.0351 204.148 22.621C203.952 22.0585 203.889 21.4622 203.964 20.8742C204.039 20.2862 204.249 19.721 204.581 19.2186C205.908 17.2774 208.041 17.8068 209.689 20.0445C211.337 22.2821 213.09 24.3786 214.91 26.4751C215.596 27.2798 216.401 27.1809 216.871 26.1574C218.02 23.7574 219.056 21.3151 220.361 18.9927C221.033 17.7385 221.994 16.6433 223.173 15.788C223.822 15.3503 225.336 15.4633 226.156 15.8657C227.476 16.5363 227.588 17.9833 227.096 19.1621C225.828 22.2045 224.374 25.1762 223.031 28.1833C222.688 28.9527 222.45 29.7574 222.166 30.548C222.323 30.6539 223.509 31.3174 223.658 31.4304C224.717 30.7245 225.03 29.6586 225.753 28.7409C227.509 26.4996 229.111 24.1535 230.549 21.7174C231.593 19.9527 233.226 18.6821 234.867 18.8939C236.291 19.0562 236.955 19.635 236.836 21.0892C236.545 24.8162 234.367 27.7033 231.936 30.3927C229.318 33.2868 227.528 35.228 225.97 38.8633C225.388 40.2186 223.195 40.4233 222.338 39.8797C220.675 38.828 219.079 37.6774 217.438 36.5904C216.938 36.1809 216.379 35.948 215.715 35.6162Z" fill="white"/>
</svg>
