<svg width="161" height="124" viewBox="0 0 161 124" fill="none" xmlns="http://www.w3.org/2000/svg">
<rect x="0.324219" y="0.570312" width="160.542" height="122.911" rx="16.4658" fill="#EDEDF6"/>
<path d="M67.2164 43.2781C62.4002 43.2781 58.469 39.3469 58.469 34.5307C58.469 29.7144 62.4002 25.7832 67.2164 25.7832C72.0327 25.7832 75.9639 29.7144 75.9639 34.5307C75.9639 39.3469 72.0327 43.2781 67.2164 43.2781ZM67.2164 28.8705C64.0879 28.8705 61.5563 31.4022 61.5563 34.5307C61.5563 37.6592 64.0879 40.1908 67.2164 40.1908C70.3449 40.1908 72.8766 37.6592 72.8766 34.5307C72.8766 31.4022 70.3449 28.8705 67.2164 28.8705Z" fill="#0D0E14"/>
<path d="M67.2164 65.9187C62.4002 65.9187 58.469 61.9875 58.469 57.1713C58.469 52.355 62.4002 48.4238 67.2164 48.4238C72.0327 48.4238 75.9639 52.355 75.9639 57.1713C75.9639 61.9875 72.0327 65.9187 67.2164 65.9187ZM67.2164 51.5112C64.0879 51.5112 61.5563 54.0428 61.5563 57.1713C61.5563 60.2998 64.0879 62.8314 67.2164 62.8314C70.3449 62.8314 72.8766 60.2998 72.8766 57.1713C72.8766 54.0428 70.3449 51.5112 67.2164 51.5112Z" fill="#0D0E14"/>
<path d="M73.7002 55.587C73.2268 55.587 72.774 55.3812 72.4653 54.9695C71.9507 54.2903 72.0949 53.3229 72.7741 52.8084L100.251 32.2673C100.931 31.7527 101.898 31.8968 102.412 32.576C102.927 33.2553 102.783 34.2226 102.104 34.7372L74.6265 55.2783C74.3589 55.4841 74.0295 55.587 73.7002 55.587Z" fill="#0D0E14"/>
<path d="M101.178 59.6827C100.848 59.6827 100.539 59.5798 100.251 59.374L72.7741 38.8329C72.0949 38.3183 71.9507 37.351 72.4653 36.6717C72.9798 35.9925 73.9472 35.8484 74.6265 36.363L102.104 56.9041C102.783 57.4186 102.927 58.386 102.412 59.0652C102.104 59.4563 101.651 59.6827 101.178 59.6827Z" fill="#0D0E14"/>
<path d="M51.3676 99.0723C50.5992 99.0723 49.8884 98.933 49.2353 98.6545C48.5821 98.3759 48.0106 97.9869 47.5208 97.4875C47.0309 96.988 46.6467 96.4021 46.3682 95.7297C46.0992 95.0574 45.9647 94.3226 45.9647 93.5254C45.9647 92.7282 46.0944 91.9934 46.3537 91.321C46.6227 90.6391 46.9973 90.0532 47.4775 89.5633C47.9674 89.0638 48.5389 88.6796 49.192 88.4107C49.8452 88.1322 50.556 87.9929 51.3244 87.9929C52.0928 87.9929 52.7795 88.1226 53.3846 88.3819C53.9994 88.6412 54.518 88.987 54.9407 89.4192C55.3633 89.8419 55.6658 90.3077 55.8483 90.8168L54.105 91.6524C53.9033 91.0953 53.5623 90.6439 53.0821 90.2981C52.6018 89.9523 52.0159 89.7794 51.3244 89.7794C50.652 89.7794 50.0565 89.9379 49.5378 90.2549C49.0288 90.5718 48.6301 91.0089 48.342 91.566C48.0634 92.1231 47.9242 92.7762 47.9242 93.5254C47.9242 94.2746 48.0682 94.9325 48.3564 95.4992C48.6542 96.0563 49.0624 96.4933 49.581 96.8103C50.0997 97.1273 50.6952 97.2858 51.3676 97.2858C51.9151 97.2858 52.4193 97.1801 52.8804 96.9688C53.3414 96.7479 53.7112 96.4405 53.9898 96.0467C54.2683 95.6433 54.4076 95.1679 54.4076 94.6204V93.7991L55.3008 94.5771H51.3244V92.9203H56.367V94.0008C56.367 94.8269 56.2277 95.5569 55.9492 96.1908C55.6706 96.8247 55.2912 97.3578 54.811 97.79C54.3403 98.2127 53.8073 98.5344 53.2117 98.7553C52.6162 98.9666 52.0015 99.0723 51.3676 99.0723ZM57.759 98.8994V91.0617H59.5312V92.805L59.3871 92.5457C59.5696 91.9598 59.8529 91.5516 60.2371 91.321C60.6309 91.0905 61.1016 90.9752 61.6491 90.9752H62.1101V92.6465H61.433C60.8951 92.6465 60.4628 92.8146 60.1363 93.1508C59.8097 93.4774 59.6464 93.9384 59.6464 94.5339V98.8994H57.759ZM66.9802 99.0723C66.2118 99.0723 65.5106 98.8946 64.8767 98.5392C64.2524 98.1838 63.7529 97.6988 63.3783 97.0841C63.0133 96.4693 62.8308 95.7682 62.8308 94.9806C62.8308 94.1929 63.0133 93.4918 63.3783 92.877C63.7529 92.2623 64.2524 91.7773 64.8767 91.4219C65.501 91.0665 66.2022 90.8888 66.9802 90.8888C67.7486 90.8888 68.445 91.0665 69.0693 91.4219C69.6936 91.7773 70.1883 92.2623 70.5533 92.877C70.9279 93.4822 71.1152 94.1833 71.1152 94.9806C71.1152 95.7682 70.9279 96.4693 70.5533 97.0841C70.1787 97.6988 69.6792 98.1838 69.0549 98.5392C68.4306 98.8946 67.739 99.0723 66.9802 99.0723ZM66.9802 97.3434C67.4028 97.3434 67.7726 97.2425 68.0896 97.0408C68.4162 96.8391 68.6707 96.5606 68.8532 96.2052C69.0453 95.8402 69.1413 95.432 69.1413 94.9806C69.1413 94.5195 69.0453 94.1161 68.8532 93.7703C68.6707 93.4149 68.4162 93.1364 68.0896 92.9347C67.7726 92.7234 67.4028 92.6177 66.9802 92.6177C66.548 92.6177 66.1686 92.7234 65.842 92.9347C65.5154 93.1364 65.2561 93.4149 65.064 93.7703C64.8815 94.1161 64.7903 94.5195 64.7903 94.9806C64.7903 95.432 64.8815 95.8402 65.064 96.2052C65.2561 96.5606 65.5154 96.8391 65.842 97.0408C66.1686 97.2425 66.548 97.3434 66.9802 97.3434ZM76.3789 99.0723C75.6105 99.0723 74.9093 98.8946 74.2754 98.5392C73.6511 98.1838 73.1516 97.6988 72.777 97.0841C72.412 96.4693 72.2295 95.7682 72.2295 94.9806C72.2295 94.1929 72.412 93.4918 72.777 92.877C73.1516 92.2623 73.6511 91.7773 74.2754 91.4219C74.8997 91.0665 75.6009 90.8888 76.3789 90.8888C77.1473 90.8888 77.8437 91.0665 78.468 91.4219C79.0923 91.7773 79.587 92.2623 79.952 92.877C80.3266 93.4822 80.5139 94.1833 80.5139 94.9806C80.5139 95.7682 80.3266 96.4693 79.952 97.0841C79.5774 97.6988 79.0779 98.1838 78.4536 98.5392C77.8293 98.8946 77.1377 99.0723 76.3789 99.0723ZM76.3789 97.3434C76.8015 97.3434 77.1713 97.2425 77.4883 97.0408C77.8149 96.8391 78.0694 96.5606 78.2519 96.2052C78.444 95.8402 78.54 95.432 78.54 94.9806C78.54 94.5195 78.444 94.1161 78.2519 93.7703C78.0694 93.4149 77.8149 93.1364 77.4883 92.9347C77.1713 92.7234 76.8015 92.6177 76.3789 92.6177C75.9467 92.6177 75.5673 92.7234 75.2407 92.9347C74.9141 93.1364 74.6548 93.4149 74.4627 93.7703C74.2802 94.1161 74.1889 94.5195 74.1889 94.9806C74.1889 95.432 74.2802 95.8402 74.4627 96.2052C74.6548 96.5606 74.9141 96.8391 75.2407 97.0408C75.5673 97.2425 75.9467 97.3434 76.3789 97.3434ZM81.9452 98.8994V91.0617H83.7173V92.877L83.5156 92.5745C83.6597 92.0078 83.9478 91.5852 84.3801 91.3066C84.8123 91.0281 85.3213 90.8888 85.9073 90.8888C86.5508 90.8888 87.1175 91.0569 87.6073 91.3931C88.0972 91.7292 88.4142 92.1711 88.5582 92.7186L88.0252 92.7618C88.2653 92.1375 88.6255 91.6716 89.1057 91.3643C89.586 91.0473 90.1383 90.8888 90.7626 90.8888C91.3197 90.8888 91.8144 91.0137 92.2466 91.2634C92.6884 91.5131 93.0342 91.8637 93.2839 92.3152C93.5337 92.757 93.6585 93.2709 93.6585 93.8568V98.8994H91.7711V94.3034C91.7711 93.9576 91.7087 93.6599 91.5838 93.4101C91.459 93.1604 91.2861 92.9683 91.0652 92.8338C90.8442 92.6898 90.5753 92.6177 90.2583 92.6177C89.9606 92.6177 89.6964 92.6898 89.4659 92.8338C89.2354 92.9683 89.0577 93.1604 88.9328 93.4101C88.808 93.6599 88.7455 93.9576 88.7455 94.3034V98.8994H86.8582V94.3034C86.8582 93.9576 86.7957 93.6599 86.6709 93.4101C86.546 93.1604 86.3683 92.9683 86.1378 92.8338C85.9169 92.6898 85.6527 92.6177 85.3454 92.6177C85.0476 92.6177 84.7835 92.6898 84.5529 92.8338C84.3224 92.9683 84.1447 93.1604 84.0199 93.4101C83.895 93.6599 83.8326 93.9576 83.8326 94.3034V98.8994H81.9452ZM95.2553 98.8994V91.0617H97.1427V98.8994H95.2553ZM95.2553 90.1828V88.1658H97.1427V90.1828H95.2553ZM98.8853 98.8994V91.0617H100.657V92.6033L100.513 92.3296C100.696 91.8589 100.994 91.5035 101.407 91.2634C101.829 91.0137 102.319 90.8888 102.876 90.8888C103.453 90.8888 103.962 91.0137 104.403 91.2634C104.855 91.5131 105.205 91.8637 105.455 92.3152C105.705 92.757 105.83 93.2709 105.83 93.8568V98.8994H103.942V94.3034C103.942 93.9576 103.875 93.6599 103.741 93.4101C103.606 93.1604 103.419 92.9683 103.179 92.8338C102.948 92.6898 102.675 92.6177 102.358 92.6177C102.05 92.6177 101.776 92.6898 101.536 92.8338C101.296 92.9683 101.109 93.1604 100.974 93.4101C100.84 93.6599 100.773 93.9576 100.773 94.3034V98.8994H98.8853ZM111.229 102.069C110.643 102.069 110.101 101.973 109.601 101.781C109.102 101.589 108.67 101.32 108.305 100.974C107.949 100.638 107.69 100.239 107.527 99.7783L109.284 99.1155C109.4 99.4805 109.625 99.7735 109.961 99.9944C110.307 100.225 110.73 100.34 111.229 100.34C111.614 100.34 111.95 100.268 112.238 100.124C112.536 99.98 112.766 99.7687 112.929 99.4901C113.093 99.2212 113.174 98.8946 113.174 98.5104V96.7239L113.535 97.1561C113.266 97.6267 112.905 97.9821 112.454 98.2223C112.003 98.4624 111.489 98.5824 110.912 98.5824C110.182 98.5824 109.529 98.4144 108.953 98.0782C108.377 97.742 107.925 97.281 107.599 96.6951C107.272 96.1091 107.109 95.4512 107.109 94.7212C107.109 93.9816 107.272 93.3237 107.599 92.7474C107.925 92.1711 108.372 91.7196 108.939 91.3931C109.505 91.0569 110.149 90.8888 110.869 90.8888C111.455 90.8888 111.969 91.0137 112.411 91.2634C112.862 91.5035 113.237 91.8541 113.535 92.3152L113.275 92.7906V91.0617H115.062V98.5104C115.062 99.1924 114.894 99.8023 114.557 100.34C114.231 100.878 113.779 101.301 113.203 101.608C112.636 101.915 111.979 102.069 111.229 102.069ZM111.143 96.8391C111.546 96.8391 111.897 96.7527 112.195 96.5798C112.502 96.3973 112.742 96.1476 112.915 95.8306C113.088 95.5136 113.174 95.1486 113.174 94.7356C113.174 94.3322 113.083 93.972 112.901 93.6551C112.728 93.3285 112.488 93.074 112.18 92.8915C111.882 92.709 111.537 92.6177 111.143 92.6177C110.749 92.6177 110.394 92.709 110.077 92.8915C109.76 93.074 109.51 93.3285 109.328 93.6551C109.155 93.972 109.068 94.3322 109.068 94.7356C109.068 95.139 109.155 95.4992 109.328 95.8162C109.51 96.1332 109.755 96.3829 110.062 96.5654C110.379 96.7479 110.739 96.8391 111.143 96.8391Z" fill="#0D0E14"/>
</svg>
