<svg width="161" height="124" viewBox="0 0 161 124" fill="none" xmlns="http://www.w3.org/2000/svg">
<rect x="0.324219" y="0.208984" width="160.542" height="122.911" rx="16.4658" fill="#EDEDF6"/>
<path d="M81.624 67.6156H64.2937C61.0623 67.6156 58.4072 65.0222 58.4072 61.8114V31.2674C58.4072 28.1183 59.5804 25.669 61.721 24.3311C63.8821 22.9727 66.6813 23.0139 69.5834 24.4546L78.7219 28.9416C81.2124 30.1765 83.1677 33.2844 83.1677 36.0424V66.0719C83.1677 66.9158 82.4679 67.6156 81.624 67.6156ZM65.2817 26.4511C64.5613 26.4511 63.9027 26.6158 63.347 26.9657C62.1532 27.7066 61.4946 29.2503 61.4946 31.2674V61.8114C61.4946 63.3139 62.7501 64.5283 64.2937 64.5283H80.0803V36.0424C80.0803 34.4576 78.8042 32.42 77.3429 31.7202L68.2044 27.2332C67.1547 26.7187 66.1667 26.4511 65.2817 26.4511Z" fill="#0D0E14"/>
<path d="M94.6114 67.6155H81.624C80.7801 67.6155 80.0803 66.9157 80.0803 66.0718V42.2376C80.0803 41.7642 80.2861 41.3319 80.6566 41.0438C81.0271 40.7556 81.4799 40.6322 81.9533 40.7351L82.9207 40.9409L96.3815 43.9459C100.477 44.8515 102.536 47.2596 102.659 51.3555C102.68 51.3555 102.68 51.5613 102.68 51.7877V59.5678C102.659 64.8369 99.8804 67.6155 94.6114 67.6155ZM83.1677 64.5281H94.6114C98.2339 64.5281 99.5717 63.1903 99.5717 59.5678V51.6231C99.4688 48.8033 98.3985 47.5478 95.7022 46.9509L83.1677 44.1517V64.5281Z" fill="#0D0E14"/>
<path d="M74.3586 40.8588H67.2165C66.3726 40.8588 65.6729 40.159 65.6729 39.3152C65.6729 38.4713 66.3726 37.7715 67.2165 37.7715H74.3586C75.2024 37.7715 75.9022 38.4713 75.9022 39.3152C75.9022 40.159 75.223 40.8588 74.3586 40.8588Z" fill="#0D0E14"/>
<path d="M74.3586 49.0917H67.2165C66.3726 49.0917 65.6729 48.3919 65.6729 47.5481C65.6729 46.7042 66.3726 46.0044 67.2165 46.0044H74.3586C75.2024 46.0044 75.9022 46.7042 75.9022 47.5481C75.9022 48.3919 75.223 49.0917 74.3586 49.0917Z" fill="#0D0E14"/>
<path d="M87.2223 57.3245C83.8262 57.3245 81.0476 54.5459 81.0476 51.1498V42.4435C81.0476 41.9701 81.2534 41.5379 81.6239 41.2292C81.9944 40.9204 82.4678 40.8175 82.9206 40.9204L92.1826 42.9992C92.8824 43.1639 93.397 43.7814 93.397 44.5017V51.1292C93.397 54.5459 90.6389 57.3245 87.2223 57.3245ZM84.1349 44.3782V51.1498C84.1349 52.8581 85.514 54.2371 87.2223 54.2371C88.9306 54.2371 90.3096 52.8581 90.3096 51.1498V45.7573L84.1349 44.3782Z" fill="#0D0E14"/>
<path d="M96.4842 57.3244C93.0882 57.3244 90.3096 54.5458 90.3096 51.1497V44.5222C90.3096 44.0488 90.5154 43.6166 90.8859 43.3285C91.2564 43.0403 91.7297 42.9168 92.1826 43.0197L96.3608 43.9459C100.457 44.8516 102.515 47.2597 102.638 51.3555C102.638 51.3967 102.638 51.4379 102.638 51.479C102.474 54.7516 99.7774 57.3244 96.4842 57.3244ZM93.3969 46.4364V51.1497C93.3969 52.858 94.7759 54.2371 96.4842 54.2371C98.1102 54.2371 99.4481 52.9815 99.551 51.3761C99.4481 48.7828 98.3778 47.5478 95.7021 46.9509L93.3969 46.4364Z" fill="#0D0E14"/>
<path d="M57.8753 98.5381V87.8044H59.4025L65.3096 95.7574L64.5172 95.9159V87.8044H66.4766V98.5381H64.935L59.1144 90.5275L59.8347 90.369V98.5381H57.8753ZM73.6402 98.711C72.8718 98.711 72.161 98.5717 71.5079 98.2932C70.8548 98.0146 70.2833 97.6256 69.7934 97.1261C69.3035 96.6267 68.9193 96.0408 68.6408 95.3684C68.3719 94.6961 68.2374 93.9613 68.2374 93.1641C68.2374 92.3668 68.3671 91.6321 68.6264 90.9597C68.8953 90.2777 69.2699 89.6918 69.7502 89.202C70.24 88.7025 70.8115 88.3183 71.4647 88.0494C72.1178 87.7708 72.8286 87.6316 73.597 87.6316C74.3654 87.6316 75.0522 87.7612 75.6573 88.0206C76.272 88.2799 76.7907 88.6257 77.2133 89.0579C77.6359 89.4805 77.9385 89.9464 78.121 90.4554L76.3777 91.2911C76.176 90.734 75.835 90.2825 75.3547 89.9368C74.8745 89.591 74.2886 89.4181 73.597 89.4181C72.9246 89.4181 72.3291 89.5766 71.8105 89.8935C71.3014 90.2105 70.9028 90.6475 70.6146 91.2046C70.3361 91.7617 70.1968 92.4149 70.1968 93.1641C70.1968 93.9133 70.3409 94.5712 70.629 95.1379C70.9268 95.695 71.335 96.132 71.8537 96.449C72.3724 96.766 72.9679 96.9244 73.6402 96.9244C74.1877 96.9244 74.692 96.8188 75.153 96.6075C75.6141 96.3866 75.9839 96.0792 76.2624 95.6854C76.5409 95.282 76.6802 94.8065 76.6802 94.259V93.4378L77.5735 94.2158H73.597V92.5589H78.6396V93.6395C78.6396 94.4655 78.5004 95.1955 78.2218 95.8295C77.9433 96.4634 77.5639 96.9965 77.0836 97.4287C76.613 97.8513 76.0799 98.1731 75.4844 98.394C74.8889 98.6053 74.2742 98.711 73.6402 98.711ZM85.4777 98.711C84.6901 98.711 83.9553 98.5717 83.2734 98.2932C82.5914 98.0146 81.9959 97.6256 81.4868 97.1261C80.9778 96.6267 80.5792 96.0408 80.291 95.3684C80.0125 94.6865 79.8732 93.9517 79.8732 93.1641C79.8732 92.3668 80.0125 91.6321 80.291 90.9597C80.5696 90.2874 80.9634 89.7014 81.4724 89.202C81.9815 88.7025 82.577 88.3183 83.259 88.0494C83.9409 87.7708 84.6805 87.6316 85.4777 87.6316C86.2749 87.6316 87.0145 87.7708 87.6965 88.0494C88.3785 88.3279 88.974 88.7169 89.483 89.2164C89.9921 89.7062 90.3859 90.2874 90.6645 90.9597C90.9526 91.6321 91.0967 92.3668 91.0967 93.1641C91.0967 93.9517 90.9526 94.6865 90.6645 95.3684C90.3763 96.0408 89.9777 96.6267 89.4686 97.1261C88.9596 97.6256 88.364 98.0146 87.6821 98.2932C87.0097 98.5717 86.2749 98.711 85.4777 98.711ZM85.4777 96.9244C86.006 96.9244 86.4911 96.8332 86.9329 96.6507C87.3747 96.4586 87.7589 96.1945 88.0855 95.8583C88.4217 95.5221 88.6762 95.1235 88.8491 94.6624C89.0316 94.2014 89.1228 93.7019 89.1228 93.1641C89.1228 92.6262 89.0316 92.1315 88.8491 91.6801C88.6762 91.219 88.4217 90.8204 88.0855 90.4843C87.7589 90.1385 87.3747 89.8743 86.9329 89.6918C86.4911 89.5093 86.006 89.4181 85.4777 89.4181C84.9591 89.4181 84.4788 89.5093 84.037 89.6918C83.5951 89.8743 83.2061 90.1385 82.87 90.4843C82.5434 90.8204 82.2889 91.219 82.1064 91.6801C81.9239 92.1315 81.8326 92.6262 81.8326 93.1641C81.8326 93.7019 81.9239 94.2014 82.1064 94.6624C82.2889 95.1235 82.5434 95.5221 82.87 95.8583C83.2061 96.1945 83.5951 96.4586 84.037 96.6507C84.4788 96.8332 84.9591 96.9244 85.4777 96.9244ZM93.2856 91.925V90.9885C93.6026 90.9117 93.8571 90.7724 94.0492 90.5707C94.2509 90.3594 94.3758 90.1097 94.4238 89.8215H93.5738V87.8044H95.4756V89.0435C95.4756 89.8215 95.2883 90.4602 94.9137 90.9597C94.5487 91.4496 94.006 91.7713 93.2856 91.925ZM100.812 98.711C99.9768 98.711 99.2468 98.5141 98.6225 98.1203C98.0078 97.7169 97.5852 97.1742 97.3546 96.4922L98.7666 95.8151C98.9683 96.2569 99.2468 96.6027 99.6022 96.8524C99.9672 97.1021 100.371 97.227 100.812 97.227C101.158 97.227 101.432 97.1502 101.634 96.9965C101.835 96.8428 101.936 96.6411 101.936 96.3914C101.936 96.2377 101.893 96.1128 101.807 96.0168C101.73 95.9111 101.619 95.8247 101.475 95.7574C101.341 95.6806 101.192 95.6182 101.029 95.5701L99.7463 95.2099C99.0835 95.0178 98.5793 94.7249 98.2335 94.3311C97.8973 93.9373 97.7292 93.4714 97.7292 92.9335C97.7292 92.4533 97.8493 92.0355 98.0894 91.6801C98.3392 91.3151 98.6801 91.0317 99.1124 90.83C99.5542 90.6283 100.058 90.5275 100.625 90.5275C101.365 90.5275 102.018 90.7052 102.585 91.0606C103.151 91.4159 103.555 91.9154 103.795 92.5589L102.354 93.2361C102.22 92.8807 101.994 92.5974 101.677 92.3861C101.36 92.1747 101.005 92.0691 100.611 92.0691C100.294 92.0691 100.044 92.1411 99.8616 92.2852C99.6791 92.4293 99.5878 92.6166 99.5878 92.8471C99.5878 92.9912 99.6262 93.116 99.7031 93.2217C99.7799 93.3273 99.8856 93.4138 100.02 93.481C100.164 93.5483 100.327 93.6107 100.51 93.6683L101.763 94.0429C102.407 94.235 102.902 94.5232 103.247 94.9074C103.603 95.2916 103.78 95.7622 103.78 96.3193C103.78 96.79 103.656 97.2078 103.406 97.5728C103.156 97.9282 102.81 98.2067 102.368 98.4084C101.927 98.6101 101.408 98.711 100.812 98.711Z" fill="#0D0E14"/>
</svg>
