<svg width="972" height="481" viewBox="0 0 972 481" fill="none" xmlns="http://www.w3.org/2000/svg">
<path d="M861.449 4.01146C900.011 4.01146 919.292 4.01146 934.02 11.5161C946.976 18.1174 957.509 28.6507 964.111 41.6064C971.615 56.3351 971.615 75.616 971.615 114.178V367.216C971.615 405.778 971.615 425.059 964.111 439.788C957.509 452.743 946.976 463.277 934.02 469.878C919.292 477.383 900.011 477.383 861.449 477.383H722.019V479.369C722.019 480.1 721.426 480.693 720.695 480.693H608.145C607.414 480.693 606.821 480.1 606.821 479.369V477.383L110.541 477.383C71.9795 477.383 52.6986 477.383 37.9699 469.878C25.0142 463.277 14.4808 452.743 7.8795 439.788C0.374843 425.059 0.374843 405.778 0.374843 367.216V114.178C0.374843 75.616 0.374843 56.3351 7.8795 41.6064C14.4808 28.6507 25.0142 18.1174 37.9699 11.5161C52.6986 4.01146 71.9795 4.01146 110.541 4.01146L583.649 4.01146V2.02529C583.649 1.294 584.242 0.701172 584.973 0.701172L656.475 0.701172C657.207 0.701172 657.799 1.294 657.799 2.02529V4.01146L674.351 4.01146V2.02529C674.351 1.294 674.944 0.701172 675.675 0.701172L747.177 0.701172C747.909 0.701172 748.501 1.294 748.501 2.02529V4.01146L779.618 4.01146V2.02529C779.618 1.294 780.211 0.701172 780.942 0.701172L816.693 0.701172C817.425 0.701172 818.018 1.294 818.018 2.02529V4.01146L861.449 4.01146Z" fill="#144571"/>
<g style="mix-blend-mode:multiply">
<mask id="mask0_2406_16617" style="mask-type:alpha" maskUnits="userSpaceOnUse" x="0" y="4" width="972" height="474">
<path d="M861.453 4.01855C900.014 4.01855 919.295 4.01855 934.024 11.5232C946.98 18.1245 957.513 28.6578 964.114 41.6135C971.619 56.3422 971.619 75.6231 971.619 114.185V367.223C971.619 405.785 971.619 425.066 964.114 439.795C957.513 452.75 946.98 463.284 934.024 469.885C919.295 477.39 900.014 477.39 861.453 477.39L110.545 477.39C71.9834 477.39 52.7025 477.39 37.9738 469.885C25.0181 463.284 14.4847 452.75 7.8834 439.795C0.378752 425.066 0.378749 405.785 0.378749 367.223V114.185C0.378749 75.6231 0.378752 56.3422 7.8834 41.6135C14.4847 28.6578 25.0181 18.1245 37.9738 11.5232C52.7025 4.01855 71.9834 4.01855 110.545 4.01855L861.453 4.01855Z" fill="black"/>
</mask>
<g mask="url(#mask0_2406_16617)">
<g filter="url(#filter0_i_2406_16617)">
<path d="M861.453 4.01855C900.014 4.01855 919.295 4.01855 934.024 11.5232C946.98 18.1245 957.513 28.6578 964.114 41.6135C971.619 56.3422 971.619 75.6231 971.619 114.185V367.223C971.619 405.785 971.619 425.066 964.114 439.795C957.513 452.75 946.98 463.284 934.024 469.885C919.295 477.39 900.014 477.39 861.453 477.39L110.545 477.39C71.9834 477.39 52.7025 477.39 37.9738 469.885C25.0181 463.284 14.4847 452.75 7.8834 439.795C0.378752 425.066 0.378749 405.785 0.378749 367.223V114.185C0.378749 75.6231 0.378752 56.3422 7.8834 41.6135C14.4847 28.6578 25.0181 18.1245 37.9738 11.5232C52.7025 4.01855 71.9834 4.01855 110.545 4.01855L861.453 4.01855Z" fill="#EBEBEB"/>
</g>
<rect x="888.861" y="1.37305" width="11.255" height="9.26882" transform="rotate(90 888.861 1.37305)" fill="url(#paint0_linear_2406_16617)"/>
<rect x="88.4297" y="1.37305" width="11.255" height="9.26882" transform="rotate(90 88.4297 1.37305)" fill="url(#paint1_linear_2406_16617)"/>
<rect x="888.859" y="468.786" width="11.255" height="9.26882" transform="rotate(90 888.859 468.786)" fill="url(#paint2_linear_2406_16617)"/>
<rect x="88.4297" y="468.786" width="11.255" height="9.26882" transform="rotate(90 88.4297 468.786)" fill="url(#paint3_linear_2406_16617)"/>
<rect x="976.252" y="376.758" width="11.255" height="9.26881" transform="rotate(-180 976.252 376.758)" fill="url(#paint4_linear_2406_16617)"/>
<rect x="8.98242" y="98.0342" width="11.255" height="9.26881" transform="rotate(-180 8.98242 98.0342)" fill="url(#paint5_linear_2406_16617)"/>
</g>
<path d="M966.157 112.064V369.339C966.157 387.325 966.157 400.805 965.282 411.505C964.408 422.204 962.661 430.11 959.175 436.951C953.034 449.004 943.235 458.803 931.183 464.944C924.341 468.43 916.435 470.177 905.737 471.051C895.036 471.925 881.557 471.925 863.571 471.925L108.427 471.925C90.4406 471.925 76.9612 471.925 66.2607 471.051C55.5621 470.177 47.6562 468.43 40.8148 464.944C28.7622 458.803 18.9632 449.004 12.8221 436.951C9.33618 430.11 7.58911 422.204 6.71497 411.505C5.8407 400.805 5.84058 387.325 5.84058 369.339V112.064C5.84058 94.0779 5.8407 80.5985 6.71497 69.898C7.58911 59.1995 9.33618 51.2936 12.8221 44.4521C18.9632 32.3996 28.7622 22.6006 40.8148 16.4595C47.6562 12.9736 55.5621 11.2265 66.2607 10.3524C76.9611 9.47814 90.4406 9.47801 108.427 9.47801L863.571 9.47801C881.557 9.47801 895.036 9.47814 905.737 10.3524C916.435 11.2265 924.341 12.9736 931.183 16.4595C943.235 22.6006 953.034 32.3996 959.175 44.4521C962.661 51.2936 964.408 59.1995 965.282 69.898C966.157 80.5985 966.157 94.0779 966.157 112.064Z" fill="black" stroke="url(#paint6_linear_2406_16617)" stroke-width="0.331029"/>
<g filter="url(#filter1_ii_2406_16617)">
<path d="M816.693 0.708984C817.425 0.708984 818.018 1.30181 818.018 2.0331V4.01927L779.618 4.01927V2.0331C779.618 1.30181 780.211 0.708984 780.942 0.708984L816.693 0.708984Z" fill="url(#paint7_linear_2406_16617)"/>
</g>
<g filter="url(#filter2_ii_2406_16617)">
<path d="M747.178 0.708984C747.909 0.708984 748.502 1.30181 748.502 2.0331V4.01927L674.351 4.01927V2.0331C674.351 1.30181 674.944 0.708984 675.675 0.708984L747.178 0.708984Z" fill="url(#paint8_linear_2406_16617)"/>
</g>
<g filter="url(#filter3_ii_2406_16617)">
<path d="M722.02 477.391V479.377C722.02 480.108 721.427 480.701 720.695 480.701H608.145C607.414 480.701 606.821 480.108 606.821 479.377V477.391H722.02Z" fill="url(#paint9_linear_2406_16617)"/>
</g>
<g filter="url(#filter4_ii_2406_16617)">
<path d="M656.473 0.708984C657.204 0.708984 657.797 1.30181 657.797 2.0331V4.01927L583.646 4.01927V2.0331C583.646 1.30181 584.239 0.708984 584.97 0.708984L656.473 0.708984Z" fill="url(#paint10_linear_2406_16617)"/>
</g>
</g>
<g style="mix-blend-mode:screen">
<mask id="mask1_2406_16617" style="mask-type:alpha" maskUnits="userSpaceOnUse" x="0" y="4" width="972" height="474">
<path d="M861.453 4.01855C900.014 4.01855 919.295 4.01855 934.024 11.5232C946.98 18.1245 957.513 28.6578 964.114 41.6135C971.619 56.3422 971.619 75.6231 971.619 114.185V367.223C971.619 405.785 971.619 425.066 964.114 439.795C957.513 452.75 946.98 463.284 934.024 469.885C919.295 477.39 900.014 477.39 861.453 477.39L110.545 477.39C71.9834 477.39 52.7025 477.39 37.9738 469.885C25.0181 463.284 14.4847 452.75 7.8834 439.795C0.378752 425.066 0.378749 405.785 0.378749 367.223V114.185C0.378749 75.6231 0.378752 56.3422 7.8834 41.6135C14.4847 28.6578 25.0181 18.1245 37.9738 11.5232C52.7025 4.01855 71.9834 4.01855 110.545 4.01855L861.453 4.01855Z" fill="black"/>
</mask>
<g mask="url(#mask1_2406_16617)">
<g filter="url(#filter5_ii_2406_16617)">
<path d="M861.453 4.01855C900.014 4.01855 919.295 4.01855 934.024 11.5232C946.98 18.1245 957.513 28.6578 964.114 41.6135C971.619 56.3422 971.619 75.6231 971.619 114.185V367.223C971.619 405.785 971.619 425.066 964.114 439.795C957.513 452.75 946.98 463.284 934.024 469.885C919.295 477.39 900.014 477.39 861.453 477.39L110.545 477.39C71.9834 477.39 52.7025 477.39 37.9738 469.885C25.0181 463.284 14.4847 452.75 7.8834 439.795C0.378752 425.066 0.378749 405.785 0.378749 367.223V114.185C0.378749 75.6231 0.378752 56.3422 7.8834 41.6135C14.4847 28.6578 25.0181 18.1245 37.9738 11.5232C52.7025 4.01855 71.9834 4.01855 110.545 4.01855L861.453 4.01855Z" fill="#050505"/>
</g>
<path d="M970.957 114.185V367.223C970.957 386.515 970.957 400.944 970.021 412.393C969.086 423.833 967.221 432.239 963.525 439.494C956.987 452.325 946.555 462.757 933.724 469.295C926.468 472.992 918.063 474.857 906.622 475.792C895.174 476.727 880.744 476.728 861.453 476.728L110.545 476.728C91.2535 476.728 76.8244 476.727 65.376 475.792C53.9354 474.857 45.5298 472.992 38.2744 469.295C25.4432 462.757 15.0111 452.325 8.47333 439.494C4.77643 432.239 2.91144 423.833 1.97668 412.393C1.04132 400.944 1.04083 386.515 1.04083 367.223V114.185C1.04083 94.8931 1.04132 80.464 1.97668 69.0157C2.91144 57.5751 4.77643 49.1695 8.47333 41.914C15.0111 29.0829 25.4432 18.6509 38.2744 12.1131C45.5298 8.41625 53.9354 6.55123 65.376 5.61649C76.8244 4.68113 91.2535 4.68061 110.545 4.68061L861.453 4.68061C880.744 4.68061 895.174 4.68113 906.622 5.61649C918.063 6.55123 926.468 8.41625 933.724 12.1131C946.555 18.6509 956.987 29.0829 963.525 41.914C967.221 49.1695 969.086 57.5751 970.021 69.0157C970.957 80.464 970.957 94.8931 970.957 114.185Z" stroke="url(#paint11_linear_2406_16617)" stroke-width="1.32412"/>
<rect x="888.861" y="1.37305" width="11.255" height="9.26882" transform="rotate(90 888.861 1.37305)" fill="url(#paint12_linear_2406_16617)"/>
<rect x="88.4297" y="1.37305" width="11.255" height="9.26882" transform="rotate(90 88.4297 1.37305)" fill="url(#paint13_linear_2406_16617)"/>
<rect x="888.859" y="468.786" width="11.255" height="9.26882" transform="rotate(90 888.859 468.786)" fill="url(#paint14_linear_2406_16617)"/>
<rect x="88.4297" y="468.786" width="11.255" height="9.26882" transform="rotate(90 88.4297 468.786)" fill="url(#paint15_linear_2406_16617)"/>
<rect x="976.252" y="376.758" width="11.255" height="9.26881" transform="rotate(-180 976.252 376.758)" fill="url(#paint16_linear_2406_16617)"/>
<rect x="8.98242" y="98.0342" width="11.255" height="9.26881" transform="rotate(-180 8.98242 98.0342)" fill="url(#paint17_linear_2406_16617)"/>
</g>
<path d="M966.157 112.064V369.339C966.157 387.325 966.157 400.805 965.282 411.505C964.408 422.204 962.661 430.11 959.175 436.951C953.034 449.004 943.235 458.803 931.183 464.944C924.341 468.43 916.435 470.177 905.737 471.051C895.036 471.925 881.557 471.925 863.571 471.925L108.427 471.925C90.4406 471.925 76.9612 471.925 66.2607 471.051C55.5621 470.177 47.6562 468.43 40.8148 464.944C28.7622 458.803 18.9632 449.004 12.8221 436.951C9.33618 430.11 7.58911 422.204 6.71497 411.505C5.8407 400.805 5.84058 387.325 5.84058 369.339V112.064C5.84058 94.0779 5.8407 80.5985 6.71497 69.898C7.58911 59.1995 9.33618 51.2936 12.8221 44.4521C18.9632 32.3996 28.7622 22.6006 40.8148 16.4595C47.6562 12.9736 55.5621 11.2265 66.2607 10.3524C76.9611 9.47814 90.4406 9.47801 108.427 9.47801L863.571 9.47801C881.557 9.47801 895.036 9.47814 905.737 10.3524C916.435 11.2265 924.341 12.9736 931.183 16.4595C943.235 22.6006 953.034 32.3996 959.175 44.4521C962.661 51.2936 964.408 59.1995 965.282 69.898C966.157 80.5985 966.157 94.0779 966.157 112.064Z" fill="black" stroke="url(#paint18_linear_2406_16617)" stroke-width="0.331029"/>
<path d="M923.202 32.0924C913.572 27.1855 900.965 27.1855 875.751 27.1855L96.2432 27.1855C71.0297 27.1855 58.4229 27.1855 48.7926 32.0924C40.3215 36.4086 33.4343 43.2958 29.1181 51.7668C24.2112 61.3971 24.2112 74.0039 24.2112 99.2174V382.181C24.2112 407.394 24.2112 420.001 29.1181 429.631C33.4343 438.102 40.3215 444.99 48.7926 449.306C58.4229 454.213 71.0297 454.213 96.2432 454.213L875.751 454.213C900.965 454.213 913.572 454.213 923.202 449.306C931.673 444.99 938.56 438.102 942.876 429.631C947.783 420.001 947.783 407.394 947.783 382.181V360.053C947.783 358.957 947.783 358.409 947.623 357.971C947.356 357.235 946.776 356.656 946.041 356.388C945.602 356.228 945.054 356.228 943.958 356.228C935.19 356.228 930.806 356.228 927.296 354.951C921.411 352.809 916.776 348.173 914.634 342.288C913.356 338.778 913.356 334.394 913.356 325.626V155.772C913.356 147.004 913.356 142.62 914.634 139.11C916.776 133.225 921.411 128.59 927.296 126.448C930.806 125.17 935.19 125.17 943.958 125.17C945.054 125.17 945.602 125.17 946.041 125.01C946.776 124.743 947.356 124.163 947.623 123.428C947.783 122.989 947.783 122.441 947.783 121.345V99.2174C947.783 74.0039 947.783 61.3971 942.876 51.7668C938.56 43.2958 931.673 36.4086 923.202 32.0924Z" fill="black"/>
<g filter="url(#filter6_iiii_2406_16617)">
<path d="M816.693 0.708984C817.425 0.708984 818.018 1.30181 818.018 2.0331V4.01927L779.618 4.01927V2.0331C779.618 1.30181 780.211 0.708984 780.942 0.708984L816.693 0.708984Z" fill="url(#paint19_linear_2406_16617)"/>
</g>
<g filter="url(#filter7_iiii_2406_16617)">
<path d="M747.178 0.708984C747.909 0.708984 748.502 1.30181 748.502 2.0331V4.01927L674.351 4.01927V2.0331C674.351 1.30181 674.944 0.708984 675.675 0.708984L747.178 0.708984Z" fill="url(#paint20_linear_2406_16617)"/>
</g>
<g filter="url(#filter8_iiii_2406_16617)">
<path d="M722.02 477.391V479.377C722.02 480.108 721.427 480.701 720.695 480.701H608.145C607.414 480.701 606.821 480.108 606.821 479.377V477.391H722.02Z" fill="url(#paint21_linear_2406_16617)"/>
</g>
<g filter="url(#filter9_iiii_2406_16617)">
<path d="M656.473 0.708984C657.204 0.708984 657.797 1.30181 657.797 2.0331V4.01927L583.646 4.01927V2.0331C583.646 1.30181 584.239 0.708984 584.97 0.708984L656.473 0.708984Z" fill="url(#paint22_linear_2406_16617)"/>
</g>
</g>
<mask id="mask2_2406_16617" style="mask-type:alpha" maskUnits="userSpaceOnUse" x="24" y="27" width="924" height="428">
<path d="M923.2 32.0856C913.57 27.1787 900.963 27.1787 875.749 27.1787L96.2413 27.1787C71.0277 27.1787 58.4209 27.1787 48.7906 32.0856C40.3196 36.4018 33.4323 43.289 29.1161 51.76C24.2093 61.3903 24.2093 73.9971 24.2093 99.2106V382.174C24.2093 407.388 24.2093 419.994 29.1161 429.625C33.4323 438.096 40.3196 444.983 48.7906 449.299C58.4209 454.206 71.0277 454.206 96.2413 454.206L875.749 454.206C900.963 454.206 913.57 454.206 923.2 449.299C931.671 444.983 938.558 438.096 942.874 429.625C947.781 419.994 947.781 407.388 947.781 382.174V360.047C947.781 358.951 947.781 358.403 947.622 357.964C947.354 357.228 946.774 356.649 946.039 356.381C945.6 356.221 945.052 356.221 943.956 356.221C935.188 356.221 930.804 356.221 927.294 354.944C921.409 352.802 916.774 348.166 914.632 342.281C913.354 338.771 913.354 334.387 913.354 325.62V155.765C913.354 146.997 913.354 142.613 914.632 139.103C916.774 133.218 921.409 128.583 927.294 126.441C930.804 125.163 935.188 125.163 943.956 125.163C945.052 125.163 945.6 125.163 946.039 125.004C946.774 124.736 947.354 124.156 947.622 123.421C947.781 122.982 947.781 122.434 947.781 121.338V99.2106C947.781 73.9971 947.781 61.3903 942.874 51.76C938.558 43.289 931.671 36.4018 923.2 32.0856Z" fill="#161616"/>
</mask>
<g mask="url(#mask2_2406_16617)">
<g clip-path="url(#clip0_2406_16617)">
<rect x="949.848" y="26.5107" width="432.818" height="926.89" rx="38.4837" transform="rotate(90 949.848 26.5107)" fill="white"/>
<g clip-path="url(#clip1_2406_16617)">
<path opacity="0.01" fill-rule="evenodd" clip-rule="evenodd" d="M901.743 26.5107V459.452H949.848V26.5107L901.743 26.5107Z" fill="#0D0E14"/>
<path opacity="0.5" fill-rule="evenodd" clip-rule="evenodd" d="M927.711 383.176V384.237C927.711 384.969 927.092 385.562 926.329 385.562H916.384C915.621 385.562 915.002 384.969 915.002 384.237V383.176C915.002 382.443 915.621 381.851 916.384 381.851H926.329C927.092 381.851 927.711 382.443 927.711 383.176" fill="#0D0E14"/>
<path fill-rule="evenodd" clip-rule="evenodd" d="M924.949 377.871V378.932C924.949 379.665 924.331 380.258 923.567 380.258H916.384C915.622 380.258 915.002 379.665 915.002 378.932V377.871C915.002 377.138 915.622 376.546 916.384 376.546H923.567C924.331 376.546 924.949 377.138 924.949 377.871" fill="#0D0E14"/>
<path fill-rule="evenodd" clip-rule="evenodd" d="M922.186 372.568V373.629C922.186 374.362 921.567 374.954 920.805 374.954H916.384C915.622 374.954 915.002 374.362 915.002 373.629V372.568C915.002 371.834 915.622 371.242 916.384 371.242H920.805C921.567 371.242 922.186 371.834 922.186 372.568" fill="#0D0E14"/>
<path fill-rule="evenodd" clip-rule="evenodd" d="M920.527 367.263V368.324C920.527 369.057 919.909 369.649 919.147 369.649H916.383C915.621 369.649 915.001 369.057 915.001 368.324V367.263C915.001 366.531 915.621 365.938 916.383 365.938H919.147C919.909 365.938 920.527 366.531 920.527 367.263" fill="#0D0E14"/>
<path fill-rule="evenodd" clip-rule="evenodd" d="M919.773 400.323C919.773 399.091 918.902 398.063 917.73 397.778L915.001 400.443L917.527 402.909C918.801 402.701 919.773 401.626 919.773 400.323" fill="#0D0E14"/>
<path fill-rule="evenodd" clip-rule="evenodd" d="M923.633 400.324C923.633 398.067 922.434 396.087 920.627 394.947L918.946 396.591C920.364 397.269 921.348 398.677 921.348 400.324C921.348 402.032 920.293 403.499 918.786 404.143L920.475 405.792C922.365 404.669 923.633 402.643 923.633 400.324" fill="#0D0E14"/>
<path opacity="0.5" fill-rule="evenodd" clip-rule="evenodd" d="M927.711 400.324C927.711 396.97 926.075 393.995 923.547 392.097L921.855 393.75C923.96 395.212 925.338 397.608 925.338 400.324C925.338 403.1 923.901 405.549 921.715 407L923.407 408.655C926.014 406.761 927.711 403.74 927.711 400.324" fill="#0D0E14"/>
<path fill-rule="evenodd" clip-rule="evenodd" d="M917.377 429.403V419.079C917.377 418.104 918.199 417.313 919.214 417.313H923.957C924.971 417.313 925.795 418.104 925.795 419.079V429.403C925.795 430.378 924.971 431.168 923.957 431.168H919.214C918.199 431.168 917.377 430.378 917.377 429.403" fill="#0D0E14"/>
<path opacity="0.5" fill-rule="evenodd" clip-rule="evenodd" d="M918.079 439.249C917.027 439.249 916.173 438.429 916.173 437.419V417.988C916.173 416.978 917.027 416.158 918.079 416.158H925.09C926.143 416.158 926.997 416.978 926.997 417.988V437.419C926.997 438.429 926.143 439.249 925.09 439.249H918.079ZM928.199 437.8V417.607C928.199 416.17 926.985 415.004 925.487 415.004H917.682C916.185 415.004 914.97 416.17 914.97 417.607V437.8C914.97 439.237 916.185 440.403 917.682 440.403H925.487C926.985 440.403 928.199 439.237 928.199 437.8V437.8Z" fill="#0D0E14"/>
<path opacity="0.5" fill-rule="evenodd" clip-rule="evenodd" d="M919.18 441.27V441.27H923.99C923.99 442.225 923.182 443.001 922.186 443.001H920.984C919.987 443.001 919.18 442.225 919.18 441.27" fill="#0D0E14"/>
<path d="M913.906 64.6088L919.949 69.2449L919.913 69.5696C919.673 69.3892 919.48 69.1908 919.336 68.9743C919.204 68.7578 919.108 68.5173 919.047 68.2527C918.987 68.0002 918.957 67.7236 918.957 67.4229C918.957 66.6292 919.138 65.9137 919.498 65.2763C919.871 64.6509 920.376 64.1518 921.014 63.779C921.663 63.4182 922.403 63.2378 923.233 63.2378C924.062 63.2378 924.802 63.4303 925.451 63.8151C926.101 64.1999 926.612 64.7291 926.985 65.4026C927.37 66.076 927.562 66.8337 927.562 67.6755C927.562 68.5414 927.37 69.305 926.985 69.9665C926.612 70.6399 926.089 71.1691 925.415 71.5539C924.754 71.9388 923.99 72.1312 923.124 72.1312C922.655 72.1312 922.192 72.0771 921.735 71.9688C921.278 71.8606 920.815 71.6862 920.346 71.4457C919.877 71.2172 919.39 70.9105 918.885 70.5257L913.906 66.7375V64.6088ZM920.509 67.6755C920.509 68.1926 920.623 68.6496 920.851 69.0465C921.092 69.4554 921.417 69.7741 921.825 70.0026C922.246 70.231 922.715 70.3453 923.233 70.3453C923.774 70.3453 924.249 70.225 924.658 69.9845C925.067 69.756 925.391 69.4433 925.632 69.0465C925.872 68.6496 925.993 68.1926 925.993 67.6755C925.993 67.1704 925.872 66.7194 925.632 66.3226C925.391 65.9257 925.067 65.607 924.658 65.3665C924.249 65.138 923.774 65.0237 923.233 65.0237C922.715 65.0237 922.246 65.138 921.825 65.3665C921.417 65.595 921.092 65.9076 920.851 66.3045C920.623 66.7134 920.509 67.1704 920.509 67.6755ZM913.906 75.1676H916.071V76.9174H913.906V75.1676ZM921.465 75.1676H923.629V76.9174H921.465V75.1676ZM913.906 86.3713H917.009V79.769H918.47L927.345 86.3353V88.031H918.47V89.7808H917.009V88.031H913.906V86.3713ZM917.839 81.1039L918.47 80.8513V86.3713H925.866L925.722 86.8945L917.839 81.1039ZM913.906 93.7925H925.812V91.2489H927.345V95.5783H913.906V93.7925Z" fill="#0D0E14"/>
</g>
<path d="M829.195 138.413V155.947H824.263V145.536H820.255V154.429H815.621V145.536H806.244V138.413H829.195Z" fill="#1B2FE4"/>
<path d="M829.195 174.703V181.779H815.512C814.155 181.779 812.871 181.565 811.66 181.137C810.46 180.719 809.406 180.057 808.498 179.149C807.6 178.251 806.969 177.307 806.604 176.315C806.092 174.937 805.837 173.283 805.837 171.352C805.837 170.235 805.915 169.014 806.071 167.689C806.228 166.374 806.536 165.273 806.995 164.386C807.465 163.498 808.127 162.684 808.983 161.943C809.839 161.213 810.721 160.712 811.629 160.44C813.09 160.002 814.384 159.783 815.512 159.783H829.195V166.859H815.183C813.93 166.859 812.949 167.204 812.24 167.892C811.54 168.592 811.191 169.557 811.191 170.789C811.191 172.01 811.535 172.965 812.224 173.654C812.923 174.353 813.91 174.703 815.183 174.703H829.195Z" fill="#1B2FE4"/>
<path d="M806.244 186.569H829.195V198.389C829.195 200.581 829.007 202.256 828.631 203.415C828.255 204.573 827.556 205.507 826.533 206.217C825.521 206.927 824.284 207.282 822.823 207.282C821.549 207.282 820.448 207.01 819.519 206.467C818.601 205.925 817.855 205.179 817.281 204.229C816.915 203.623 816.613 202.794 816.373 201.74C816.091 202.585 815.809 203.201 815.527 203.587C815.339 203.848 814.938 204.224 814.322 204.714C813.706 205.215 813.231 205.549 812.897 205.716L806.244 209.145V201.129L813.257 197.34C814.165 196.86 814.755 196.432 815.026 196.057C815.381 195.545 815.559 194.966 815.559 194.319V193.693H806.244V186.569ZM819.895 193.693V196.683C819.895 197.006 820 197.633 820.208 198.561C820.302 199.031 820.542 199.412 820.928 199.704C821.315 200.007 821.758 200.158 822.259 200.158C823 200.158 823.569 199.923 823.966 199.454C824.362 198.984 824.561 198.102 824.561 196.808V193.693H819.895Z" fill="#1B2FE4"/>
<path d="M806.244 211.524H829.195V223.344C829.195 225.536 829.007 227.211 828.631 228.37C828.255 229.528 827.556 230.462 826.533 231.172C825.521 231.882 824.284 232.236 822.823 232.236C821.549 232.236 820.448 231.965 819.519 231.422C818.601 230.88 817.855 230.133 817.281 229.184C816.915 228.578 816.613 227.749 816.373 226.694C816.091 227.54 815.809 228.156 815.527 228.542C815.339 228.803 814.938 229.178 814.322 229.669C813.706 230.17 813.231 230.504 812.897 230.671L806.244 234.099V226.084L813.257 222.295C814.165 221.815 814.755 221.387 815.026 221.011C815.381 220.5 815.559 219.921 815.559 219.274V218.647H806.244V211.524ZM819.895 218.647V221.638C819.895 221.961 820 222.587 820.208 223.516C820.302 223.986 820.542 224.367 820.928 224.659C821.315 224.962 821.758 225.113 822.259 225.113C823 225.113 823.569 224.878 823.966 224.409C824.362 223.939 824.561 223.057 824.561 221.763V218.647H819.895Z" fill="#1B2FE4"/>
<path d="M815.621 251.665L813.743 257.88C812 257.463 810.544 256.805 809.375 255.908C808.206 255.01 807.324 253.893 806.729 252.557C806.134 251.232 805.837 249.541 805.837 247.485C805.837 244.99 806.197 242.95 806.917 241.364C807.647 239.788 808.926 238.426 810.752 237.277C812.579 236.129 814.917 235.555 817.766 235.555C821.565 235.555 824.482 236.563 826.517 238.577C828.563 240.602 829.586 243.461 829.586 247.156C829.586 250.047 829.001 252.317 827.833 253.966C826.664 255.626 824.868 256.857 822.447 257.661L821.054 251.399C821.753 251.18 822.264 250.95 822.588 250.71C823.131 250.313 823.548 249.828 823.84 249.254C824.133 248.68 824.279 248.038 824.279 247.328C824.279 245.721 823.632 244.489 822.337 243.634C821.377 242.987 819.869 242.663 817.813 242.663C815.266 242.663 813.518 243.049 812.568 243.821C811.629 244.594 811.159 245.679 811.159 247.078C811.159 248.435 811.54 249.457 812.302 250.146C813.064 250.846 814.17 251.352 815.621 251.665Z" fill="#1B2FE4"/>
<path d="M806.244 261.434H829.195V273.254C829.195 275.446 829.007 277.121 828.631 278.279C828.255 279.438 827.556 280.372 826.533 281.082C825.521 281.791 824.284 282.146 822.823 282.146C821.549 282.146 820.448 281.875 819.519 281.332C818.601 280.789 817.855 280.043 817.281 279.093C816.915 278.488 816.613 277.658 816.373 276.604C816.091 277.449 815.809 278.065 815.527 278.451C815.339 278.712 814.938 279.088 814.322 279.579C813.706 280.08 813.231 280.414 812.897 280.581L806.244 284.009V275.993L813.257 272.205C814.165 271.725 814.755 271.297 815.026 270.921C815.381 270.41 815.559 269.83 815.559 269.183V268.557H806.244V261.434ZM819.895 268.557V271.547C819.895 271.871 820 272.497 820.208 273.426C820.302 273.896 820.542 274.277 820.928 274.569C821.315 274.872 821.758 275.023 822.259 275.023C823 275.023 823.569 274.788 823.966 274.318C824.362 273.849 824.561 272.967 824.561 271.673V268.557H819.895Z" fill="#1B2FE4"/>
<path d="M829.195 286.279V305.285H824.294V293.387H820.647V304.424H815.966V293.387H811.441V305.629H806.244V286.279H829.195Z" fill="#1B2FE4"/>
<path d="M809.972 328.676C808.812 327.531 807.721 326.418 806.599 325.346C805.338 324.147 805.231 323.088 806.114 321.53C808.163 317.913 810.174 314.257 812.222 310.64C813.08 309.122 814.448 308.682 816.005 308.815C817.562 308.949 819.119 309.175 820.676 309.368C821.937 309.528 822.863 310.128 822.907 311.679C822.952 313.231 822.05 314.59 820.739 314.47C817.385 314.15 816.326 315.662 814.214 319.132C813.502 320.298 812.399 321.183 811.743 322.569C811.838 322.722 812.601 323.681 812.695 323.834C813.597 323.321 814.523 322.849 815.399 322.282C817.461 320.95 819.421 319.432 821.577 318.346C822.08 318.171 822.612 318.115 823.137 318.182C823.662 318.249 824.167 318.437 824.616 318.733C826.349 319.918 825.877 321.823 823.878 323.295C821.88 324.767 820.008 326.332 818.135 327.957C817.417 328.57 817.505 329.289 818.419 329.709C820.562 330.734 822.744 331.66 824.817 332.826C825.938 333.425 826.916 334.283 827.679 335.336C828.07 335.916 827.969 337.268 827.61 338.001C827.011 339.179 825.719 339.279 824.666 338.84C821.949 337.707 819.295 336.409 816.61 335.21C815.923 334.904 815.204 334.69 814.498 334.437C814.403 334.577 813.811 335.636 813.71 335.769C814.34 336.715 815.292 336.995 816.112 337.641C818.113 339.209 820.209 340.64 822.384 341.923C823.96 342.856 825.095 344.314 824.906 345.78C824.761 347.052 824.244 347.645 822.945 347.538C819.617 347.278 817.038 345.333 814.637 343.162C812.052 340.824 810.319 339.226 807.072 337.834C805.862 337.315 805.679 335.356 806.164 334.59C807.104 333.105 808.131 331.68 809.102 330.215C809.467 329.768 809.676 329.269 809.972 328.676Z" fill="#1B2FE4"/>
<path d="M607.106 127.53C670.867 127.53 722.557 179.219 722.557 242.981V242.981C722.557 306.743 670.867 358.432 607.106 358.432H415.89V127.53L607.106 127.53Z" fill="#1B2FE4"/>
<path d="M543.778 292.279C536.019 292.183 532.997 291.895 531.163 290.921L527.289 238.793C535.48 242.364 543.778 203.039 553.588 199.866C550.542 192.784 543.143 195.261 538.046 190.681C546.548 190.356 552.113 193.578 557.029 198.603C555.483 190.068 546.165 191.222 542.087 185.944C550.134 186.485 556.022 190.404 560.052 197.81C560.675 196.776 561.347 196.006 561.215 195.826C558.157 191.666 555.003 187.567 551.453 182.902C557.137 184.609 560.471 188.192 562.282 193.181C563.181 195.658 564.501 196.571 566.839 195.862C575.401 193.241 584.084 193.362 592.862 194.311C602.911 195.393 612.421 197.942 621.019 203.436C627.843 207.8 628.155 212.128 621.727 216.865C617.05 220.315 612.265 223.621 607.3 227.12C606.089 227.973 605.322 229.32 605.202 230.786C604.818 235.439 604.434 240.512 603.883 245.562C603.619 248.062 603.931 248.459 606.833 250.202C607.864 250.815 609.447 251.621 610.142 252.282C613.057 255.095 615.611 257.403 619.364 259.952C623.598 262.837 624.509 265.626 621.679 268.019C617.458 271.589 613.069 275.545 608.032 277.444C599.038 280.846 589.528 282.866 580.222 285.379C577.872 286.016 565.616 287.242 559.608 289.586C554.583 291.546 549.175 292.34 543.778 292.279Z" fill="white"/>
<path d="M572.261 222.202C572.357 215.494 575.907 211.454 583.486 209.903C583.486 212.212 583.762 214.147 583.39 215.95C583.102 217.369 581.315 216.732 580.26 217.766C579.109 218.896 578.569 219.365 577.862 220.17C577.226 220.892 577.442 224.57 578.245 225.087C579.361 225.809 580.488 226.53 581.627 227.227C582.119 227.528 582.718 227.672 583.51 227.973L583.102 234.933C576.027 233.503 572.165 228.73 572.261 222.19V222.202ZM579.061 253.832C578.065 254.036 576.506 256.922 576.662 257.439C577.022 258.605 577.97 260.769 579.061 261.045C585.237 262.62 583.414 266.371 583.246 270.386C575.307 268.463 571.662 263.702 572.357 256.597C573.017 249.925 576.746 246.03 583.318 245.597C583.114 249.396 585.273 252.534 579.061 253.832Z" fill="#1B2FE4"/>
<path d="M522.615 290.498L520.217 237.601L436.272 193.72C433.474 180.896 435.793 157.774 467.452 167.872C507.026 180.495 514.221 170.878 516.619 167.872C519.018 164.867 523.814 152.243 515.42 146.232C508.704 141.423 507.825 147.034 508.225 150.44C512.222 159.457 509.664 173.883 467.452 159.457C425.24 145.03 414.686 185.906 414.686 208.146V331.974L480.643 314.542L476.446 297.11L522.615 290.498Z" fill="white"/>
<path d="M300.359 118.399C300.359 116.84 300.638 115.388 301.196 114.041C301.754 112.713 302.533 111.539 303.534 110.519C304.534 109.519 305.708 108.73 307.055 108.153C308.402 107.595 309.874 107.316 311.471 107.316C313.068 107.316 314.54 107.595 315.887 108.153C317.253 108.73 318.427 109.519 319.408 110.519C320.409 111.52 321.178 112.694 321.717 114.041C322.275 115.388 322.554 116.84 322.554 118.399C322.554 119.977 322.275 121.429 321.717 122.757C321.178 124.104 320.409 125.278 319.408 126.278C318.408 127.298 317.234 128.087 315.887 128.645C314.54 129.203 313.068 129.482 311.471 129.482C309.874 129.482 308.402 129.194 307.055 128.616C305.708 128.058 304.534 127.279 303.534 126.278C302.533 125.278 301.754 124.104 301.196 122.757C300.638 121.41 300.359 119.957 300.359 118.399ZM303.476 118.399C303.476 119.515 303.678 120.535 304.082 121.458C304.486 122.401 305.044 123.219 305.756 123.912C306.487 124.604 307.334 125.143 308.296 125.528C309.277 125.913 310.336 126.105 311.471 126.105C312.606 126.105 313.655 125.913 314.617 125.528C315.579 125.143 316.426 124.604 317.157 123.912C317.888 123.219 318.456 122.401 318.86 121.458C319.264 120.535 319.466 119.515 319.466 118.399C319.466 117.283 319.264 116.253 318.86 115.311C318.456 114.387 317.888 113.579 317.157 112.886C316.426 112.193 315.579 111.655 314.617 111.27C313.655 110.904 312.606 110.721 311.471 110.721C310.336 110.721 309.277 110.904 308.296 111.27C307.334 111.655 306.487 112.193 305.756 112.886C305.044 113.579 304.486 114.397 304.082 115.339C303.678 116.282 303.476 117.302 303.476 118.399ZM300.359 138.543C300.359 137.369 300.618 136.34 301.138 135.455C301.677 134.57 302.418 133.877 303.36 133.377C304.323 132.896 305.429 132.655 306.68 132.655H316.32V135.917H306.968C306.256 135.917 305.631 136.061 305.092 136.349C304.553 136.638 304.13 137.042 303.822 137.562C303.534 138.081 303.389 138.678 303.389 139.351C303.389 140.044 303.543 140.65 303.851 141.17C304.159 141.689 304.592 142.093 305.15 142.382C305.708 142.69 306.362 142.844 307.113 142.844H316.32V146.076H300.705V142.988H303.765L303.36 143.334C302.398 142.969 301.658 142.363 301.138 141.516C300.618 140.669 300.359 139.678 300.359 138.543ZM300.705 149.884H316.32V153.001H313.174L313.636 152.713C314.655 153.059 315.387 153.617 315.829 154.387C316.291 155.157 316.522 156.08 316.522 157.158V158.11H313.549V156.754C313.549 155.676 313.212 154.801 312.539 154.127C311.885 153.473 310.942 153.146 309.71 153.146H300.705V149.884ZM300.359 172.804C300.359 171.246 300.715 169.86 301.427 168.648C302.158 167.455 303.139 166.503 304.371 165.791C305.602 165.098 306.997 164.752 308.556 164.752C310.095 164.752 311.481 165.098 312.712 165.791C313.943 166.484 314.906 167.436 315.598 168.648C316.31 169.86 316.666 171.246 316.666 172.804C316.666 173.863 316.474 174.854 316.089 175.777C315.723 176.701 315.213 177.499 314.559 178.173C313.905 178.866 313.145 179.376 312.279 179.703L310.951 176.845C311.76 176.518 312.404 175.989 312.885 175.258C313.385 174.546 313.636 173.728 313.636 172.804C313.636 171.919 313.414 171.121 312.972 170.409C312.548 169.716 311.942 169.168 311.153 168.764C310.384 168.36 309.508 168.158 308.527 168.158C307.546 168.158 306.66 168.36 305.872 168.764C305.102 169.168 304.496 169.716 304.053 170.409C303.611 171.121 303.389 171.919 303.389 172.804C303.389 173.747 303.63 174.565 304.111 175.258C304.611 175.97 305.275 176.499 306.102 176.845L304.746 179.703C303.918 179.395 303.168 178.895 302.495 178.202C301.84 177.528 301.321 176.73 300.936 175.806C300.551 174.883 300.359 173.882 300.359 172.804ZM300.359 190.424C300.359 188.923 300.715 187.547 301.427 186.296C302.139 185.065 303.11 184.083 304.342 183.352C305.573 182.621 306.968 182.255 308.527 182.255C310.105 182.255 311.5 182.621 312.712 183.352C313.943 184.083 314.906 185.065 315.598 186.296C316.31 187.528 316.666 188.904 316.666 190.424C316.666 191.963 316.31 193.339 315.598 194.551C314.906 195.782 313.943 196.754 312.712 197.466C311.5 198.197 310.105 198.563 308.527 198.563C306.949 198.563 305.544 198.197 304.313 197.466C303.081 196.735 302.11 195.754 301.398 194.522C300.705 193.291 300.359 191.924 300.359 190.424ZM303.389 190.424C303.389 191.347 303.611 192.165 304.053 192.877C304.496 193.589 305.102 194.147 305.872 194.551C306.66 194.974 307.546 195.186 308.527 195.186C309.508 195.186 310.384 194.974 311.153 194.551C311.923 194.147 312.529 193.589 312.972 192.877C313.414 192.165 313.636 191.347 313.636 190.424C313.636 189.519 313.414 188.701 312.972 187.97C312.529 187.258 311.923 186.691 311.153 186.267C310.384 185.863 309.508 185.661 308.527 185.661C307.546 185.661 306.66 185.863 305.872 186.267C305.102 186.691 304.496 187.258 304.053 187.97C303.611 188.701 303.389 189.519 303.389 190.424ZM300.705 201.747H316.32V204.864H312.943L313.462 204.46C314.521 204.787 315.319 205.384 315.858 206.25C316.397 207.116 316.666 208.107 316.666 209.223C316.666 210.473 316.329 211.58 315.656 212.542C315.002 213.523 314.126 214.177 313.029 214.504L312.943 213.581C314.194 214.043 315.127 214.745 315.743 215.688C316.358 216.65 316.666 217.747 316.666 218.978C316.666 220.056 316.416 221.027 315.916 221.893C315.415 222.778 314.723 223.481 313.838 224C312.953 224.52 311.942 224.78 310.807 224.78H300.705V221.518H309.912C310.701 221.518 311.365 221.374 311.904 221.085C312.462 220.816 312.885 220.431 313.174 219.931C313.482 219.45 313.636 218.882 313.636 218.228C313.636 217.573 313.482 216.996 313.174 216.496C312.885 215.996 312.462 215.601 311.904 215.313C311.346 215.024 310.682 214.88 309.912 214.88H300.705V211.647H309.912C310.701 211.647 311.365 211.503 311.904 211.214C312.462 210.945 312.885 210.56 313.174 210.06C313.482 209.579 313.636 209.001 313.636 208.328C313.636 207.674 313.482 207.096 313.174 206.596C312.885 206.096 312.462 205.701 311.904 205.413C311.346 205.143 310.682 205.009 309.912 205.009H300.705V201.747ZM294.933 228.27H316.32V231.388H313.087L313.838 231.012C314.723 231.59 315.415 232.359 315.916 233.321C316.416 234.283 316.666 235.38 316.666 236.612C316.666 238.093 316.31 239.421 315.598 240.595C314.886 241.788 313.915 242.721 312.683 243.394C311.452 244.087 310.066 244.434 308.527 244.434C306.988 244.434 305.602 244.087 304.371 243.394C303.139 242.721 302.158 241.797 301.427 240.624C300.715 239.45 300.359 238.113 300.359 236.612C300.359 235.399 300.609 234.293 301.109 233.292C301.609 232.311 302.331 231.551 303.274 231.012L303.88 231.532H294.933V228.27ZM303.389 236.294C303.389 237.218 303.611 238.036 304.053 238.748C304.496 239.459 305.102 240.018 305.872 240.422C306.66 240.845 307.546 241.057 308.527 241.057C309.508 241.057 310.384 240.845 311.153 240.422C311.923 240.018 312.529 239.459 312.972 238.748C313.414 238.036 313.636 237.218 313.636 236.294C313.636 235.39 313.414 234.572 312.972 233.841C312.529 233.129 311.923 232.561 311.153 232.138C310.384 231.734 309.508 231.532 308.527 231.532C307.546 231.532 306.66 231.734 305.872 232.138C305.102 232.561 304.496 233.129 304.053 233.841C303.611 234.572 303.389 235.39 303.389 236.294ZM300.359 252.282C300.359 251.224 300.542 250.29 300.907 249.482C301.292 248.693 301.811 248.078 302.466 247.635C303.139 247.192 303.928 246.971 304.832 246.971C305.679 246.971 306.439 247.154 307.113 247.52C307.786 247.904 308.354 248.491 308.816 249.28C309.277 250.069 309.604 251.06 309.797 252.253L310.692 257.679H308.123L307.286 252.888C307.132 252.022 306.853 251.387 306.449 250.983C306.064 250.579 305.564 250.377 304.948 250.377C304.351 250.377 303.861 250.598 303.476 251.041C303.11 251.503 302.928 252.09 302.928 252.801C302.928 253.687 303.12 254.456 303.505 255.11C303.89 255.784 304.4 256.303 305.034 256.669C305.689 257.035 306.41 257.217 307.199 257.217H311.211C311.981 257.217 312.606 256.929 313.087 256.352C313.587 255.794 313.838 255.043 313.838 254.1C313.838 253.234 313.607 252.474 313.145 251.82C312.702 251.185 312.125 250.714 311.413 250.406L312.77 247.693C313.539 247.981 314.213 248.453 314.79 249.107C315.387 249.761 315.848 250.521 316.176 251.387C316.503 252.272 316.666 253.206 316.666 254.187C316.666 255.418 316.435 256.506 315.973 257.448C315.512 258.41 314.867 259.151 314.04 259.671C313.232 260.21 312.289 260.479 311.211 260.479H300.705V257.362H303.534L303.447 258.026C302.812 257.66 302.264 257.189 301.802 256.611C301.34 256.053 300.984 255.409 300.734 254.678C300.484 253.966 300.359 253.167 300.359 252.282ZM300.705 264.292H316.32V267.41H313.26L313.664 267.034C314.646 267.419 315.387 268.035 315.887 268.882C316.406 269.728 316.666 270.71 316.666 271.826C316.666 272.98 316.416 274 315.916 274.885C315.415 275.77 314.723 276.463 313.838 276.963C312.953 277.463 311.933 277.714 310.778 277.714H300.705V274.481H309.912C310.701 274.481 311.365 274.337 311.904 274.048C312.462 273.759 312.885 273.346 313.174 272.807C313.482 272.287 313.636 271.691 313.636 271.017C313.636 270.344 313.482 269.738 313.174 269.199C312.885 268.68 312.462 268.275 311.904 267.987C311.346 267.698 310.682 267.554 309.912 267.554H300.705V264.292ZM300.705 281.204H316.32V284.466H300.705V281.204ZM318.456 281.204H322.208V284.466H318.456V281.204ZM300.359 295.812C300.359 294.311 300.715 292.935 301.427 291.685C302.139 290.453 303.11 289.472 304.342 288.741C305.573 288.01 306.968 287.644 308.527 287.644C310.105 287.644 311.5 288.01 312.712 288.741C313.943 289.472 314.906 290.453 315.598 291.685C316.31 292.916 316.666 294.292 316.666 295.812C316.666 297.351 316.31 298.727 315.598 299.94C314.906 301.171 313.943 302.143 312.712 302.855C311.5 303.586 310.105 303.951 308.527 303.951C306.949 303.951 305.544 303.586 304.313 302.855C303.081 302.123 302.11 301.142 301.398 299.911C300.705 298.679 300.359 297.313 300.359 295.812ZM303.389 295.812C303.389 296.736 303.611 297.554 304.053 298.265C304.496 298.977 305.102 299.535 305.872 299.94C306.66 300.363 307.546 300.575 308.527 300.575C309.508 300.575 310.384 300.363 311.153 299.94C311.923 299.535 312.529 298.977 312.972 298.265C313.414 297.554 313.636 296.736 313.636 295.812C313.636 294.908 313.414 294.09 312.972 293.359C312.529 292.647 311.923 292.079 311.153 291.656C310.384 291.252 309.508 291.05 308.527 291.05C307.546 291.05 306.66 291.252 305.872 291.656C305.102 292.079 304.496 292.647 304.053 293.359C303.611 294.09 303.389 294.908 303.389 295.812ZM300.705 307.136H316.32V310.253H313.26L313.664 309.878C314.646 310.262 315.387 310.878 315.887 311.725C316.406 312.571 316.666 313.553 316.666 314.669C316.666 315.823 316.416 316.843 315.916 317.728C315.415 318.613 314.723 319.306 313.838 319.806C312.953 320.307 311.933 320.557 310.778 320.557H300.705V317.324H309.912C310.701 317.324 311.365 317.18 311.904 316.891C312.462 316.603 312.885 316.189 313.174 315.65C313.482 315.131 313.636 314.534 313.636 313.861C313.636 313.187 313.482 312.581 313.174 312.042C312.885 311.523 312.462 311.119 311.904 310.83C311.346 310.541 310.682 310.397 309.912 310.397H300.705V307.136ZM300.359 329.82C300.359 328.223 300.753 326.818 301.542 325.606C302.331 324.413 303.389 323.576 304.717 323.095L305.9 325.606C305.015 326.029 304.313 326.607 303.793 327.338C303.274 328.088 303.014 328.916 303.014 329.82C303.014 330.59 303.187 331.215 303.534 331.696C303.88 332.177 304.351 332.418 304.948 332.418C305.333 332.418 305.641 332.312 305.872 332.1C306.122 331.888 306.324 331.619 306.478 331.292C306.632 330.984 306.747 330.667 306.824 330.339L307.517 327.886C307.902 326.539 308.479 325.529 309.248 324.856C310.037 324.201 310.951 323.874 311.99 323.874C312.933 323.874 313.751 324.115 314.444 324.596C315.156 325.077 315.704 325.741 316.089 326.587C316.474 327.434 316.666 328.386 316.666 329.445C316.666 330.869 316.31 332.139 315.598 333.255C314.906 334.371 313.934 335.16 312.683 335.621L311.5 333.11C312.25 332.802 312.847 332.312 313.289 331.638C313.732 330.984 313.953 330.243 313.953 329.416C313.953 328.704 313.78 328.136 313.434 327.713C313.106 327.29 312.674 327.078 312.135 327.078C311.769 327.078 311.461 327.174 311.211 327.367C310.98 327.559 310.788 327.809 310.634 328.117C310.499 328.425 310.384 328.742 310.288 329.069L309.537 331.609C309.171 332.899 308.594 333.89 307.805 334.582C307.036 335.275 306.112 335.621 305.034 335.621C304.111 335.621 303.293 335.371 302.581 334.871C301.888 334.39 301.34 333.716 300.936 332.851C300.551 331.985 300.359 330.974 300.359 329.82ZM300.705 338.817H322.554V342.078H313.26L313.664 341.559C314.646 341.944 315.387 342.56 315.887 343.406C316.406 344.253 316.666 345.234 316.666 346.35C316.666 347.505 316.416 348.524 315.916 349.41C315.415 350.295 314.723 350.987 313.838 351.488C312.953 351.988 311.942 352.238 310.807 352.238H300.705V349.006H309.912C310.701 349.006 311.365 348.852 311.904 348.544C312.462 348.255 312.885 347.851 313.174 347.332C313.482 346.812 313.636 346.215 313.636 345.542C313.636 344.888 313.482 344.291 313.174 343.753C312.885 343.233 312.462 342.819 311.904 342.511C311.346 342.223 310.682 342.078 309.912 342.078H300.705V338.817ZM300.705 355.729H316.32V358.99H300.705V355.729ZM318.456 355.729H322.208V358.99H318.456V355.729ZM294.933 362.804H316.32V365.921H313.087L313.838 365.545C314.723 366.123 315.415 366.892 315.916 367.854C316.416 368.817 316.666 369.913 316.666 371.145C316.666 372.626 316.31 373.954 315.598 375.128C314.886 376.321 313.915 377.254 312.683 377.928C311.452 378.62 310.066 378.967 308.527 378.967C306.988 378.967 305.602 378.62 304.371 377.928C303.139 377.254 302.158 376.331 301.427 375.157C300.715 373.983 300.359 372.646 300.359 371.145C300.359 369.933 300.609 368.826 301.109 367.826C301.609 366.844 302.331 366.084 303.274 365.545L303.88 366.065H294.933V362.804ZM303.389 370.827C303.389 371.751 303.611 372.569 304.053 373.281C304.496 373.993 305.102 374.551 305.872 374.955C306.66 375.378 307.546 375.59 308.527 375.59C309.508 375.59 310.384 375.378 311.153 374.955C311.923 374.551 312.529 373.993 312.972 373.281C313.414 372.569 313.636 371.751 313.636 370.827C313.636 369.923 313.414 369.105 312.972 368.374C312.529 367.662 311.923 367.094 311.153 366.671C310.384 366.267 309.508 366.065 308.527 366.065C307.546 366.065 306.66 366.267 305.872 366.671C305.102 367.094 304.496 367.662 304.053 368.374C303.611 369.105 303.389 369.923 303.389 370.827ZM262.705 166.838H278.32V170.1H262.705V166.838ZM280.456 166.838H284.208V170.1H280.456V166.838ZM262.705 175.674H275.376V172.787H278.32V175.674H279.128C280.302 175.674 281.283 175.914 282.072 176.395C282.88 176.876 283.496 177.54 283.919 178.387C284.343 179.253 284.554 180.244 284.554 181.36C284.554 181.571 284.535 181.812 284.496 182.081C284.477 182.351 284.448 182.572 284.41 182.745H281.581C281.62 182.591 281.639 182.418 281.639 182.226C281.658 182.033 281.668 181.879 281.668 181.764C281.668 180.898 281.466 180.205 281.062 179.686C280.677 179.166 280.032 178.906 279.128 178.906H278.32V182.485H275.376V178.906H262.705V175.674ZM262.705 190.889H284.208V204.887H281.177V194.294H274.712V203.733H271.681V194.294H262.705V190.889ZM262.359 212.715C262.359 211.541 262.618 210.512 263.138 209.627C263.677 208.742 264.418 208.049 265.36 207.549C266.323 207.068 267.429 206.827 268.68 206.827H278.32V210.089H268.968C268.256 210.089 267.631 210.233 267.092 210.522C266.553 210.81 266.13 211.214 265.822 211.734C265.534 212.253 265.389 212.85 265.389 213.523C265.389 214.216 265.543 214.822 265.851 215.342C266.159 215.861 266.592 216.265 267.15 216.554C267.708 216.862 268.362 217.016 269.113 217.016H278.32V220.248H262.705V217.16H265.765L265.36 217.506C264.398 217.141 263.658 216.535 263.138 215.688C262.618 214.841 262.359 213.851 262.359 212.715ZM262.705 224.057H278.32V227.174H275.174L275.636 226.885C276.655 227.231 277.387 227.789 277.829 228.559C278.291 229.329 278.522 230.252 278.522 231.33V232.282H275.549V230.926C275.549 229.848 275.212 228.973 274.539 228.299C273.885 227.645 272.942 227.318 271.71 227.318H262.705V224.057ZM262.705 234.514H278.32V237.631H275.174L275.636 237.342C276.655 237.689 277.387 238.247 277.829 239.016C278.291 239.786 278.522 240.709 278.522 241.787V242.74H275.549V241.383C275.549 240.305 275.212 239.43 274.539 238.756C273.885 238.102 272.942 237.775 271.71 237.775H262.705V234.514ZM269.084 245.461H271.97V257.007H269.084V245.461ZM262.705 261.319H278.32V264.436H275.174L275.636 264.147C276.655 264.494 277.387 265.052 277.829 265.821C278.291 266.591 278.522 267.515 278.522 268.592V269.545H275.549V268.188C275.549 267.111 275.212 266.235 274.539 265.562C273.885 264.907 272.942 264.58 271.71 264.58H262.705V261.319ZM262.359 279.107C262.359 277.548 262.715 276.163 263.427 274.951C264.158 273.758 265.139 272.825 266.371 272.151C267.621 271.478 269.016 271.141 270.556 271.141C272.134 271.141 273.529 271.478 274.741 272.151C275.953 272.844 276.906 273.767 277.598 274.922C278.31 276.076 278.666 277.385 278.666 278.847C278.666 280.021 278.464 281.07 278.06 281.993C277.656 282.917 277.098 283.696 276.386 284.331C275.693 284.966 274.895 285.447 273.99 285.774C273.086 286.121 272.124 286.294 271.104 286.294C270.854 286.294 270.594 286.284 270.325 286.265C270.055 286.246 269.805 286.207 269.574 286.15V273.71H272.172V284.302L270.989 282.744C271.932 282.936 272.769 282.869 273.5 282.542C274.25 282.234 274.837 281.753 275.26 281.099C275.703 280.464 275.924 279.713 275.924 278.847C275.924 277.981 275.703 277.212 275.26 276.538C274.837 275.865 274.221 275.345 273.413 274.98C272.624 274.614 271.662 274.47 270.527 274.547C269.469 274.45 268.545 274.595 267.756 274.98C266.967 275.384 266.351 275.942 265.909 276.654C265.466 277.385 265.245 278.212 265.245 279.136C265.245 280.079 265.457 280.877 265.88 281.531C266.303 282.205 266.852 282.734 267.525 283.119L266.226 285.774C265.495 285.466 264.831 284.985 264.235 284.331C263.658 283.696 263.196 282.927 262.849 282.022C262.522 281.137 262.359 280.165 262.359 279.107ZM262.359 294.012C262.359 292.953 262.542 292.02 262.907 291.212C263.292 290.423 263.811 289.807 264.466 289.365C265.139 288.922 265.928 288.701 266.832 288.701C267.679 288.701 268.439 288.884 269.113 289.249C269.786 289.634 270.354 290.221 270.816 291.01C271.277 291.799 271.604 292.79 271.797 293.983L272.692 299.409H270.123L269.286 294.618C269.132 293.752 268.853 293.117 268.449 292.713C268.064 292.309 267.564 292.107 266.948 292.107C266.351 292.107 265.861 292.328 265.476 292.771C265.11 293.232 264.928 293.819 264.928 294.531C264.928 295.416 265.12 296.186 265.505 296.84C265.89 297.514 266.4 298.033 267.034 298.399C267.689 298.764 268.41 298.947 269.199 298.947H273.211C273.981 298.947 274.606 298.659 275.087 298.081C275.587 297.523 275.838 296.773 275.838 295.83C275.838 294.964 275.607 294.204 275.145 293.55C274.702 292.915 274.125 292.443 273.413 292.136L274.77 289.423C275.539 289.711 276.213 290.183 276.79 290.837C277.387 291.491 277.848 292.251 278.176 293.117C278.503 294.002 278.666 294.935 278.666 295.917C278.666 297.148 278.435 298.235 277.973 299.178C277.512 300.14 276.867 300.881 276.04 301.401C275.232 301.939 274.289 302.209 273.211 302.209H262.705V299.092H265.534L265.447 299.755C264.812 299.39 264.264 298.918 263.802 298.341C263.34 297.783 262.984 297.139 262.734 296.407C262.484 295.695 262.359 294.897 262.359 294.012ZM262.705 306.022H284.554V309.284H262.705V306.022ZM269.113 314.684L284.208 314.454V317.773L269.113 317.571V314.684ZM262.705 314.454H266.457V317.773H262.705V314.454Z" fill="#0D0E14"/>
<rect x="217.221" y="164.21" width="49.3072" height="4.81046" rx="2.40523" transform="rotate(90 217.221 164.21)" fill="#0D0E14"/>
<rect x="217.221" y="218.327" width="49.3072" height="4.81046" rx="2.40523" transform="rotate(90 217.221 218.327)" fill="black" fill-opacity="0.12"/>
<rect x="217.221" y="272.445" width="49.3072" height="4.81046" rx="2.40523" transform="rotate(90 217.221 272.445)" fill="black" fill-opacity="0.12"/>
<rect x="164.307" y="69.8047" width="346.353" height="55.8628" rx="27.9314" transform="rotate(90 164.307 69.8047)" fill="#1B2FE4"/>
<path d="M128.644 213.773C128.644 212.862 128.811 212.016 129.144 211.233C129.478 210.464 129.94 209.797 130.53 209.232C131.133 208.68 131.832 208.276 132.627 208.02L133.57 210.194C132.749 210.541 132.101 211.041 131.627 211.695C131.165 212.349 130.934 213.087 130.934 213.908C130.934 214.37 131.004 214.767 131.146 215.101C131.299 215.447 131.505 215.71 131.761 215.89C132.018 216.082 132.326 216.178 132.685 216.178C133.108 216.178 133.455 216.05 133.724 215.794C134.006 215.55 134.224 215.178 134.378 214.678L135.263 211.926C135.61 210.81 136.129 209.97 136.822 209.405C137.515 208.841 138.329 208.559 139.266 208.559C140.087 208.559 140.811 208.757 141.44 209.155C142.068 209.566 142.556 210.13 142.902 210.848C143.261 211.58 143.441 212.413 143.441 213.35C143.441 214.209 143.287 214.998 142.979 215.717C142.684 216.435 142.267 217.051 141.729 217.564C141.203 218.09 140.58 218.481 139.862 218.738L138.9 216.582C139.618 216.3 140.17 215.877 140.555 215.313C140.952 214.748 141.151 214.094 141.151 213.35C141.151 212.914 141.074 212.529 140.92 212.195C140.779 211.862 140.574 211.599 140.305 211.406C140.048 211.227 139.74 211.137 139.381 211.137C138.983 211.137 138.631 211.265 138.323 211.522C138.028 211.778 137.797 212.17 137.63 212.696L136.803 215.332C136.431 216.473 135.918 217.326 135.263 217.891C134.609 218.468 133.801 218.757 132.839 218.757C132.018 218.757 131.293 218.545 130.664 218.122C130.036 217.698 129.542 217.115 129.183 216.371C128.824 215.627 128.644 214.761 128.644 213.773ZM128.875 220.902H139.343V223.422H128.875V220.902ZM140.516 220.902H143.21V223.422H140.516V220.902ZM124.642 230.829C124.642 230.047 124.77 229.322 125.027 228.655C125.283 227.988 125.642 227.411 126.104 226.923C126.553 226.449 127.086 226.102 127.701 225.884L128.586 228.232C128.099 228.386 127.708 228.687 127.413 229.136C127.105 229.598 126.951 230.162 126.951 230.829C126.951 231.343 127.047 231.791 127.239 232.176C127.432 232.574 127.714 232.882 128.086 233.1C128.445 233.318 128.881 233.427 129.395 233.427H131.781L131.203 233.908C130.575 233.549 130.1 233.068 129.779 232.465C129.459 231.862 129.298 231.176 129.298 230.406C129.298 229.431 129.523 228.559 129.972 227.789C130.421 227.02 131.037 226.417 131.819 225.98C132.602 225.544 133.48 225.326 134.455 225.326C135.443 225.326 136.322 225.544 137.091 225.98C137.861 226.417 138.464 227.013 138.9 227.77C139.349 228.527 139.573 229.386 139.573 230.348C139.573 231.131 139.407 231.817 139.073 232.407C138.752 233.01 138.284 233.51 137.669 233.908L137.034 233.562H139.343V235.948H129.395C128.484 235.948 127.669 235.723 126.951 235.274C126.232 234.838 125.668 234.235 125.258 233.466C124.847 232.709 124.642 231.83 124.642 230.829ZM131.627 230.714C131.627 231.253 131.742 231.721 131.973 232.119C132.217 232.529 132.55 232.85 132.974 233.081C133.397 233.312 133.884 233.427 134.436 233.427C134.975 233.427 135.456 233.305 135.879 233.061C136.315 232.831 136.655 232.51 136.899 232.099C137.143 231.702 137.264 231.24 137.264 230.714C137.264 230.188 137.143 229.713 136.899 229.29C136.655 228.867 136.315 228.533 135.879 228.289C135.456 228.059 134.975 227.943 134.436 227.943C133.897 227.943 133.416 228.059 132.993 228.289C132.569 228.533 132.236 228.86 131.992 229.271C131.748 229.694 131.627 230.175 131.627 230.714ZM128.875 238.302H139.343V240.669H137.284L137.649 240.476C138.278 240.72 138.752 241.118 139.073 241.669C139.407 242.234 139.573 242.888 139.573 243.632C139.573 244.402 139.407 245.081 139.073 245.671C138.74 246.274 138.271 246.743 137.669 247.076C137.078 247.41 136.392 247.576 135.61 247.576H128.875V245.056H135.013C135.475 245.056 135.873 244.966 136.206 244.786C136.54 244.607 136.796 244.357 136.976 244.036C137.168 243.728 137.264 243.362 137.264 242.939C137.264 242.529 137.168 242.163 136.976 241.842C136.796 241.522 136.54 241.272 136.206 241.092C135.873 240.912 135.475 240.823 135.013 240.823H128.875V238.302ZM128.644 258.862C128.644 257.759 128.875 256.777 129.337 255.918C129.799 255.071 130.434 254.404 131.242 253.917C132.05 253.429 132.967 253.186 133.993 253.186H143.21V255.802H134.128C133.538 255.802 133.006 255.931 132.531 256.187C132.056 256.457 131.684 256.822 131.415 257.284C131.158 257.746 131.03 258.272 131.03 258.862C131.03 259.465 131.158 259.991 131.415 260.44C131.684 260.902 132.056 261.261 132.531 261.517C133.006 261.787 133.538 261.921 134.128 261.921H143.21V264.538H133.993C132.967 264.538 132.05 264.295 131.242 263.807C130.434 263.32 129.799 262.646 129.337 261.787C128.875 260.94 128.644 259.965 128.644 258.862ZM125.027 266.939H139.343V269.306H137.264L137.784 269.075C138.348 269.434 138.785 269.922 139.092 270.537C139.413 271.153 139.573 271.865 139.573 272.673C139.573 273.661 139.33 274.552 138.842 275.348C138.355 276.143 137.701 276.772 136.88 277.233C136.059 277.708 135.135 277.945 134.109 277.945C133.095 277.945 132.172 277.715 131.338 277.253C130.504 276.791 129.844 276.162 129.356 275.367C128.881 274.572 128.644 273.667 128.644 272.654C128.644 271.897 128.792 271.198 129.087 270.557C129.395 269.928 129.831 269.428 130.395 269.056L130.895 269.46H125.027V266.939ZM130.953 272.365C130.953 272.943 131.088 273.456 131.357 273.905C131.627 274.354 131.999 274.7 132.473 274.944C132.948 275.2 133.493 275.329 134.109 275.329C134.725 275.329 135.263 275.2 135.725 274.944C136.2 274.7 136.572 274.354 136.841 273.905C137.123 273.456 137.264 272.943 137.264 272.365C137.264 271.814 137.13 271.313 136.86 270.864C136.591 270.428 136.213 270.082 135.725 269.825C135.25 269.582 134.712 269.46 134.109 269.46C133.493 269.46 132.948 269.582 132.473 269.825C131.999 270.082 131.627 270.428 131.357 270.864C131.088 271.313 130.953 271.814 130.953 272.365Z" fill="white"/>
<g filter="url(#filter10_b_2406_16617)">
<path d="M56.1758 216.491H70.511V219.108H58.4848V225.246H56.1758V216.491ZM55.9449 231.845C55.9449 230.819 56.1822 229.882 56.6568 229.036C57.1315 228.202 57.7793 227.535 58.6003 227.035C59.4212 226.547 60.3577 226.303 61.4096 226.303C62.4614 226.303 63.3979 226.547 64.2189 227.035C65.0399 227.535 65.6877 228.202 66.1623 229.036C66.6369 229.87 66.8742 230.806 66.8742 231.845C66.8742 232.871 66.6369 233.801 66.1623 234.635C65.6877 235.469 65.0399 236.13 64.2189 236.617C63.4107 237.117 62.4743 237.367 61.4096 237.367C60.3577 237.367 59.4212 237.117 58.6003 236.617C57.7793 236.117 57.1315 235.45 56.6568 234.616C56.1822 233.782 55.9449 232.858 55.9449 231.845ZM58.2539 231.845C58.2539 232.409 58.3886 232.903 58.658 233.327C58.9274 233.763 59.2994 234.103 59.774 234.346C60.2615 234.603 60.8067 234.731 61.4096 234.731C62.0253 234.731 62.5641 234.603 63.0259 234.346C63.5005 234.103 63.8725 233.763 64.1419 233.327C64.4241 232.903 64.5652 232.409 64.5652 231.845C64.5652 231.268 64.4241 230.761 64.1419 230.325C63.8725 229.889 63.5005 229.542 63.0259 229.286C62.5641 229.042 62.0253 228.92 61.4096 228.92C60.8067 228.92 60.2615 229.042 59.774 229.286C59.2994 229.542 58.9274 229.889 58.658 230.325C58.3886 230.761 58.2539 231.268 58.2539 231.845ZM51.9426 244.359C51.9426 243.576 52.0709 242.852 52.3274 242.184C52.584 241.517 52.9432 240.94 53.405 240.453C53.8539 239.978 54.3863 239.632 55.002 239.414L55.8872 241.761C55.3997 241.915 55.0084 242.217 54.7134 242.666C54.4055 243.127 54.2516 243.692 54.2516 244.359C54.2516 244.872 54.3478 245.321 54.5402 245.706C54.7326 246.103 55.0149 246.411 55.3869 246.629C55.746 246.847 56.1822 246.956 56.6953 246.956H59.0813L58.504 247.438C57.8755 247.078 57.4008 246.597 57.0801 245.994C56.7595 245.391 56.5991 244.705 56.5991 243.935C56.5991 242.961 56.8236 242.088 57.2726 241.319C57.7215 240.549 58.3373 239.946 59.1198 239.51C59.9023 239.074 60.781 238.856 61.7559 238.856C62.7437 238.856 63.6224 239.074 64.392 239.51C65.1617 239.946 65.7646 240.543 66.2008 241.299C66.6498 242.056 66.8742 242.916 66.8742 243.878C66.8742 244.66 66.7075 245.347 66.374 245.937C66.0533 246.54 65.585 247.04 64.9693 247.438L64.3343 247.091H66.6433V249.477H56.6953C55.7845 249.477 54.97 249.253 54.2516 248.804C53.5332 248.368 52.9688 247.765 52.5583 246.995C52.1478 246.238 51.9426 245.359 51.9426 244.359ZM58.9274 244.243C58.9274 244.782 59.0428 245.25 59.2737 245.648C59.5174 246.059 59.851 246.379 60.2743 246.61C60.6976 246.841 61.1851 246.956 61.7367 246.956C62.2754 246.956 62.7565 246.835 63.1798 246.591C63.616 246.36 63.9559 246.039 64.1996 245.629C64.4434 245.231 64.5652 244.769 64.5652 244.243C64.5652 243.717 64.4434 243.243 64.1996 242.819C63.9559 242.396 63.616 242.063 63.1798 241.819C62.7565 241.588 62.2754 241.473 61.7367 241.473C61.1979 241.473 60.7169 241.588 60.2935 241.819C59.8702 242.063 59.5367 242.39 59.293 242.8C59.0492 243.224 58.9274 243.705 58.9274 244.243ZM56.1758 255.463H70.511V258.08H56.1758V255.463ZM56.1758 260.625H66.6433V262.992H64.5845L64.9501 262.8C65.5786 263.043 66.0533 263.441 66.374 263.993C66.7075 264.557 66.8742 265.211 66.8742 265.955C66.8742 266.725 66.7075 267.405 66.374 267.995C66.0404 268.598 65.5722 269.066 64.9693 269.4C64.3792 269.733 63.6929 269.9 62.9104 269.9H56.1758V267.379H62.3139C62.7757 267.379 63.1734 267.289 63.5069 267.11C63.8404 266.93 64.097 266.68 64.2766 266.359C64.469 266.052 64.5652 265.686 64.5652 265.263C64.5652 264.852 64.469 264.487 64.2766 264.166C64.097 263.845 63.8404 263.595 63.5069 263.415C63.1734 263.236 62.7757 263.146 62.3139 263.146H56.1758V260.625Z" fill="#1B2FE4"/>
</g>
</g>
</g>
<g filter="url(#filter11_i_2406_16617)">
<path d="M935.2 215.206C937.759 215.206 939.834 217.281 939.834 219.84V262.212C939.834 264.772 937.759 266.847 935.2 266.847C932.64 266.847 930.565 264.772 930.565 262.212V219.84C930.565 217.281 932.64 215.206 935.2 215.206Z" fill="#161616"/>
</g>
<g filter="url(#filter12_f_2406_16617)">
<path d="M939.172 219.84V262.212C939.172 264.406 937.393 266.184 935.2 266.184C933.006 266.184 931.227 264.406 931.227 262.212V219.84C931.227 217.647 933.006 215.868 935.2 215.868C937.393 215.868 939.172 217.647 939.172 219.84Z" stroke="black" stroke-opacity="0.32" stroke-width="1.32412"/>
</g>
<path d="M939.503 219.84V262.212C939.503 264.589 937.576 266.516 935.2 266.516C932.823 266.516 930.896 264.589 930.896 262.212V219.84C930.896 217.464 932.823 215.537 935.2 215.537C937.576 215.537 939.503 217.464 939.503 219.84Z" stroke="url(#paint23_linear_2406_16617)" stroke-width="0.662058"/>
<path d="M935.2 277.44C940.319 277.44 944.469 281.59 944.469 286.709C944.469 291.828 940.319 295.978 935.2 295.978C930.081 295.978 925.931 291.828 925.931 286.709C925.931 281.59 930.081 277.44 935.2 277.44Z" fill="url(#paint24_radial_2406_16617)"/>
<path d="M935.2 277.44C940.319 277.44 944.469 281.59 944.469 286.709C944.469 291.828 940.319 295.978 935.2 295.978C930.081 295.978 925.931 291.828 925.931 286.709C925.931 281.59 930.081 277.44 935.2 277.44Z" fill="url(#paint25_radial_2406_16617)"/>
<path d="M935.2 291.342C937.759 291.342 939.834 289.267 939.834 286.708C939.834 284.148 937.759 282.073 935.2 282.073C932.64 282.073 930.565 284.148 930.565 286.708C930.565 289.267 932.64 291.342 935.2 291.342Z" fill="url(#paint26_linear_2406_16617)"/>
<path d="M935.2 291.342C937.759 291.342 939.834 289.267 939.834 286.708C939.834 284.148 937.759 282.073 935.2 282.073C932.64 282.073 930.565 284.148 930.565 286.708C930.565 289.267 932.64 291.342 935.2 291.342Z" fill="url(#paint27_radial_2406_16617)"/>
<path d="M935.2 291.342C937.759 291.342 939.834 289.267 939.834 286.708C939.834 284.148 937.759 282.073 935.2 282.073C932.64 282.073 930.565 284.148 930.565 286.708C930.565 289.267 932.64 291.342 935.2 291.342Z" fill="url(#paint28_radial_2406_16617)"/>
<path d="M935.2 291.342C937.759 291.342 939.834 289.267 939.834 286.708C939.834 284.148 937.759 282.073 935.2 282.073C932.64 282.073 930.565 284.148 930.565 286.708C930.565 289.267 932.64 291.342 935.2 291.342Z" fill="url(#paint29_radial_2406_16617)"/>
<path d="M935.2 291.342C937.759 291.342 939.834 289.267 939.834 286.708C939.834 284.148 937.759 282.073 935.2 282.073C932.64 282.073 930.565 284.148 930.565 286.708C930.565 289.267 932.64 291.342 935.2 291.342Z" fill="url(#paint30_radial_2406_16617)"/>
<defs>
<filter id="filter0_i_2406_16617" x="0.378906" y="4.01855" width="971.24" height="473.371" filterUnits="userSpaceOnUse" color-interpolation-filters="sRGB">
<feFlood flood-opacity="0" result="BackgroundImageFix"/>
<feBlend mode="normal" in="SourceGraphic" in2="BackgroundImageFix" result="shape"/>
<feColorMatrix in="SourceAlpha" type="matrix" values="0 0 0 0 0 0 0 0 0 0 0 0 0 0 0 0 0 0 127 0" result="hardAlpha"/>
<feOffset/>
<feGaussianBlur stdDeviation="5.29646"/>
<feComposite in2="hardAlpha" operator="arithmetic" k2="-1" k3="1"/>
<feColorMatrix type="matrix" values="0 0 0 0 0 0 0 0 0 0 0 0 0 0 0 0 0 0 0.32 0"/>
<feBlend mode="normal" in2="shape" result="effect1_innerShadow_2406_16617"/>
</filter>
<filter id="filter1_ii_2406_16617" x="779.619" y="-0.615132" width="38.3984" height="5.95878" filterUnits="userSpaceOnUse" color-interpolation-filters="sRGB">
<feFlood flood-opacity="0" result="BackgroundImageFix"/>
<feBlend mode="normal" in="SourceGraphic" in2="BackgroundImageFix" result="shape"/>
<feColorMatrix in="SourceAlpha" type="matrix" values="0 0 0 0 0 0 0 0 0 0 0 0 0 0 0 0 0 0 127 0" result="hardAlpha"/>
<feOffset dy="2.64823"/>
<feGaussianBlur stdDeviation="0.662058"/>
<feComposite in2="hardAlpha" operator="arithmetic" k2="-1" k3="1"/>
<feColorMatrix type="matrix" values="0 0 0 0 1 0 0 0 0 1 0 0 0 0 1 0 0 0 0.64 0"/>
<feBlend mode="normal" in2="shape" result="effect1_innerShadow_2406_16617"/>
<feColorMatrix in="SourceAlpha" type="matrix" values="0 0 0 0 0 0 0 0 0 0 0 0 0 0 0 0 0 0 127 0" result="hardAlpha"/>
<feOffset dy="-2.64823"/>
<feGaussianBlur stdDeviation="0.662058"/>
<feComposite in2="hardAlpha" operator="arithmetic" k2="-1" k3="1"/>
<feColorMatrix type="matrix" values="0 0 0 0 1 0 0 0 0 1 0 0 0 0 1 0 0 0 0.64 0"/>
<feBlend mode="normal" in2="effect1_innerShadow_2406_16617" result="effect2_innerShadow_2406_16617"/>
</filter>
<filter id="filter2_ii_2406_16617" x="674.352" y="-0.615132" width="74.1504" height="5.95878" filterUnits="userSpaceOnUse" color-interpolation-filters="sRGB">
<feFlood flood-opacity="0" result="BackgroundImageFix"/>
<feBlend mode="normal" in="SourceGraphic" in2="BackgroundImageFix" result="shape"/>
<feColorMatrix in="SourceAlpha" type="matrix" values="0 0 0 0 0 0 0 0 0 0 0 0 0 0 0 0 0 0 127 0" result="hardAlpha"/>
<feOffset dy="2.64823"/>
<feGaussianBlur stdDeviation="0.662058"/>
<feComposite in2="hardAlpha" operator="arithmetic" k2="-1" k3="1"/>
<feColorMatrix type="matrix" values="0 0 0 0 1 0 0 0 0 1 0 0 0 0 1 0 0 0 0.64 0"/>
<feBlend mode="normal" in2="shape" result="effect1_innerShadow_2406_16617"/>
<feColorMatrix in="SourceAlpha" type="matrix" values="0 0 0 0 0 0 0 0 0 0 0 0 0 0 0 0 0 0 127 0" result="hardAlpha"/>
<feOffset dy="-2.64823"/>
<feGaussianBlur stdDeviation="0.662058"/>
<feComposite in2="hardAlpha" operator="arithmetic" k2="-1" k3="1"/>
<feColorMatrix type="matrix" values="0 0 0 0 1 0 0 0 0 1 0 0 0 0 1 0 0 0 0.64 0"/>
<feBlend mode="normal" in2="effect1_innerShadow_2406_16617" result="effect2_innerShadow_2406_16617"/>
</filter>
<filter id="filter3_ii_2406_16617" x="606.82" y="476.067" width="115.199" height="5.95878" filterUnits="userSpaceOnUse" color-interpolation-filters="sRGB">
<feFlood flood-opacity="0" result="BackgroundImageFix"/>
<feBlend mode="normal" in="SourceGraphic" in2="BackgroundImageFix" result="shape"/>
<feColorMatrix in="SourceAlpha" type="matrix" values="0 0 0 0 0 0 0 0 0 0 0 0 0 0 0 0 0 0 127 0" result="hardAlpha"/>
<feOffset dy="2.64823"/>
<feGaussianBlur stdDeviation="0.662058"/>
<feComposite in2="hardAlpha" operator="arithmetic" k2="-1" k3="1"/>
<feColorMatrix type="matrix" values="0 0 0 0 1 0 0 0 0 1 0 0 0 0 1 0 0 0 0.64 0"/>
<feBlend mode="normal" in2="shape" result="effect1_innerShadow_2406_16617"/>
<feColorMatrix in="SourceAlpha" type="matrix" values="0 0 0 0 0 0 0 0 0 0 0 0 0 0 0 0 0 0 127 0" result="hardAlpha"/>
<feOffset dy="-2.64823"/>
<feGaussianBlur stdDeviation="0.662058"/>
<feComposite in2="hardAlpha" operator="arithmetic" k2="-1" k3="1"/>
<feColorMatrix type="matrix" values="0 0 0 0 1 0 0 0 0 1 0 0 0 0 1 0 0 0 0.64 0"/>
<feBlend mode="normal" in2="effect1_innerShadow_2406_16617" result="effect2_innerShadow_2406_16617"/>
</filter>
<filter id="filter4_ii_2406_16617" x="583.646" y="-0.615132" width="74.1504" height="5.95878" filterUnits="userSpaceOnUse" color-interpolation-filters="sRGB">
<feFlood flood-opacity="0" result="BackgroundImageFix"/>
<feBlend mode="normal" in="SourceGraphic" in2="BackgroundImageFix" result="shape"/>
<feColorMatrix in="SourceAlpha" type="matrix" values="0 0 0 0 0 0 0 0 0 0 0 0 0 0 0 0 0 0 127 0" result="hardAlpha"/>
<feOffset dy="2.64823"/>
<feGaussianBlur stdDeviation="0.662058"/>
<feComposite in2="hardAlpha" operator="arithmetic" k2="-1" k3="1"/>
<feColorMatrix type="matrix" values="0 0 0 0 1 0 0 0 0 1 0 0 0 0 1 0 0 0 0.64 0"/>
<feBlend mode="normal" in2="shape" result="effect1_innerShadow_2406_16617"/>
<feColorMatrix in="SourceAlpha" type="matrix" values="0 0 0 0 0 0 0 0 0 0 0 0 0 0 0 0 0 0 127 0" result="hardAlpha"/>
<feOffset dy="-2.64823"/>
<feGaussianBlur stdDeviation="0.662058"/>
<feComposite in2="hardAlpha" operator="arithmetic" k2="-1" k3="1"/>
<feColorMatrix type="matrix" values="0 0 0 0 1 0 0 0 0 1 0 0 0 0 1 0 0 0 0.64 0"/>
<feBlend mode="normal" in2="effect1_innerShadow_2406_16617" result="effect2_innerShadow_2406_16617"/>
</filter>
<filter id="filter5_ii_2406_16617" x="0.378906" y="4.01855" width="971.24" height="473.371" filterUnits="userSpaceOnUse" color-interpolation-filters="sRGB">
<feFlood flood-opacity="0" result="BackgroundImageFix"/>
<feBlend mode="normal" in="SourceGraphic" in2="BackgroundImageFix" result="shape"/>
<feColorMatrix in="SourceAlpha" type="matrix" values="0 0 0 0 0 0 0 0 0 0 0 0 0 0 0 0 0 0 127 0" result="hardAlpha"/>
<feOffset/>
<feGaussianBlur stdDeviation="3.31029"/>
<feComposite in2="hardAlpha" operator="arithmetic" k2="-1" k3="1"/>
<feColorMatrix type="matrix" values="0 0 0 0 1 0 0 0 0 1 0 0 0 0 1 0 0 0 0.88 0"/>
<feBlend mode="normal" in2="shape" result="effect1_innerShadow_2406_16617"/>
<feColorMatrix in="SourceAlpha" type="matrix" values="0 0 0 0 0 0 0 0 0 0 0 0 0 0 0 0 0 0 127 0" result="hardAlpha"/>
<feOffset/>
<feGaussianBlur stdDeviation="1.65515"/>
<feComposite in2="hardAlpha" operator="arithmetic" k2="-1" k3="1"/>
<feColorMatrix type="matrix" values="0 0 0 0 0 0 0 0 0 0 0 0 0 0 0 0 0 0 1 0"/>
<feBlend mode="normal" in2="effect1_innerShadow_2406_16617" result="effect2_innerShadow_2406_16617"/>
</filter>
<filter id="filter6_iiii_2406_16617" x="779.619" y="-0.615132" width="38.3984" height="5.95878" filterUnits="userSpaceOnUse" color-interpolation-filters="sRGB">
<feFlood flood-opacity="0" result="BackgroundImageFix"/>
<feBlend mode="normal" in="SourceGraphic" in2="BackgroundImageFix" result="shape"/>
<feColorMatrix in="SourceAlpha" type="matrix" values="0 0 0 0 0 0 0 0 0 0 0 0 0 0 0 0 0 0 127 0" result="hardAlpha"/>
<feOffset dy="2.64823"/>
<feGaussianBlur stdDeviation="0.662058"/>
<feComposite in2="hardAlpha" operator="arithmetic" k2="-1" k3="1"/>
<feColorMatrix type="matrix" values="0 0 0 0 1 0 0 0 0 1 0 0 0 0 1 0 0 0 0.08 0"/>
<feBlend mode="normal" in2="shape" result="effect1_innerShadow_2406_16617"/>
<feColorMatrix in="SourceAlpha" type="matrix" values="0 0 0 0 0 0 0 0 0 0 0 0 0 0 0 0 0 0 127 0" result="hardAlpha"/>
<feOffset dy="-2.64823"/>
<feGaussianBlur stdDeviation="0.662058"/>
<feComposite in2="hardAlpha" operator="arithmetic" k2="-1" k3="1"/>
<feColorMatrix type="matrix" values="0 0 0 0 1 0 0 0 0 1 0 0 0 0 1 0 0 0 0.08 0"/>
<feBlend mode="normal" in2="effect1_innerShadow_2406_16617" result="effect2_innerShadow_2406_16617"/>
<feColorMatrix in="SourceAlpha" type="matrix" values="0 0 0 0 0 0 0 0 0 0 0 0 0 0 0 0 0 0 127 0" result="hardAlpha"/>
<feOffset dy="0.662058"/>
<feGaussianBlur stdDeviation="0.331029"/>
<feComposite in2="hardAlpha" operator="arithmetic" k2="-1" k3="1"/>
<feColorMatrix type="matrix" values="0 0 0 0 1 0 0 0 0 1 0 0 0 0 1 0 0 0 0.32 0"/>
<feBlend mode="normal" in2="effect2_innerShadow_2406_16617" result="effect3_innerShadow_2406_16617"/>
<feColorMatrix in="SourceAlpha" type="matrix" values="0 0 0 0 0 0 0 0 0 0 0 0 0 0 0 0 0 0 127 0" result="hardAlpha"/>
<feOffset dy="-0.662058"/>
<feGaussianBlur stdDeviation="0.331029"/>
<feComposite in2="hardAlpha" operator="arithmetic" k2="-1" k3="1"/>
<feColorMatrix type="matrix" values="0 0 0 0 1 0 0 0 0 1 0 0 0 0 1 0 0 0 0.32 0"/>
<feBlend mode="normal" in2="effect3_innerShadow_2406_16617" result="effect4_innerShadow_2406_16617"/>
</filter>
<filter id="filter7_iiii_2406_16617" x="674.352" y="-0.615132" width="74.1504" height="5.95878" filterUnits="userSpaceOnUse" color-interpolation-filters="sRGB">
<feFlood flood-opacity="0" result="BackgroundImageFix"/>
<feBlend mode="normal" in="SourceGraphic" in2="BackgroundImageFix" result="shape"/>
<feColorMatrix in="SourceAlpha" type="matrix" values="0 0 0 0 0 0 0 0 0 0 0 0 0 0 0 0 0 0 127 0" result="hardAlpha"/>
<feOffset dy="2.64823"/>
<feGaussianBlur stdDeviation="0.662058"/>
<feComposite in2="hardAlpha" operator="arithmetic" k2="-1" k3="1"/>
<feColorMatrix type="matrix" values="0 0 0 0 1 0 0 0 0 1 0 0 0 0 1 0 0 0 0.08 0"/>
<feBlend mode="normal" in2="shape" result="effect1_innerShadow_2406_16617"/>
<feColorMatrix in="SourceAlpha" type="matrix" values="0 0 0 0 0 0 0 0 0 0 0 0 0 0 0 0 0 0 127 0" result="hardAlpha"/>
<feOffset dy="-2.64823"/>
<feGaussianBlur stdDeviation="0.662058"/>
<feComposite in2="hardAlpha" operator="arithmetic" k2="-1" k3="1"/>
<feColorMatrix type="matrix" values="0 0 0 0 1 0 0 0 0 1 0 0 0 0 1 0 0 0 0.08 0"/>
<feBlend mode="normal" in2="effect1_innerShadow_2406_16617" result="effect2_innerShadow_2406_16617"/>
<feColorMatrix in="SourceAlpha" type="matrix" values="0 0 0 0 0 0 0 0 0 0 0 0 0 0 0 0 0 0 127 0" result="hardAlpha"/>
<feOffset dy="0.662058"/>
<feGaussianBlur stdDeviation="0.331029"/>
<feComposite in2="hardAlpha" operator="arithmetic" k2="-1" k3="1"/>
<feColorMatrix type="matrix" values="0 0 0 0 1 0 0 0 0 1 0 0 0 0 1 0 0 0 0.32 0"/>
<feBlend mode="normal" in2="effect2_innerShadow_2406_16617" result="effect3_innerShadow_2406_16617"/>
<feColorMatrix in="SourceAlpha" type="matrix" values="0 0 0 0 0 0 0 0 0 0 0 0 0 0 0 0 0 0 127 0" result="hardAlpha"/>
<feOffset dy="-0.662058"/>
<feGaussianBlur stdDeviation="0.331029"/>
<feComposite in2="hardAlpha" operator="arithmetic" k2="-1" k3="1"/>
<feColorMatrix type="matrix" values="0 0 0 0 1 0 0 0 0 1 0 0 0 0 1 0 0 0 0.32 0"/>
<feBlend mode="normal" in2="effect3_innerShadow_2406_16617" result="effect4_innerShadow_2406_16617"/>
</filter>
<filter id="filter8_iiii_2406_16617" x="606.82" y="476.067" width="115.199" height="5.95878" filterUnits="userSpaceOnUse" color-interpolation-filters="sRGB">
<feFlood flood-opacity="0" result="BackgroundImageFix"/>
<feBlend mode="normal" in="SourceGraphic" in2="BackgroundImageFix" result="shape"/>
<feColorMatrix in="SourceAlpha" type="matrix" values="0 0 0 0 0 0 0 0 0 0 0 0 0 0 0 0 0 0 127 0" result="hardAlpha"/>
<feOffset dy="2.64823"/>
<feGaussianBlur stdDeviation="0.662058"/>
<feComposite in2="hardAlpha" operator="arithmetic" k2="-1" k3="1"/>
<feColorMatrix type="matrix" values="0 0 0 0 1 0 0 0 0 1 0 0 0 0 1 0 0 0 0.08 0"/>
<feBlend mode="normal" in2="shape" result="effect1_innerShadow_2406_16617"/>
<feColorMatrix in="SourceAlpha" type="matrix" values="0 0 0 0 0 0 0 0 0 0 0 0 0 0 0 0 0 0 127 0" result="hardAlpha"/>
<feOffset dy="-2.64823"/>
<feGaussianBlur stdDeviation="0.662058"/>
<feComposite in2="hardAlpha" operator="arithmetic" k2="-1" k3="1"/>
<feColorMatrix type="matrix" values="0 0 0 0 1 0 0 0 0 1 0 0 0 0 1 0 0 0 0.08 0"/>
<feBlend mode="normal" in2="effect1_innerShadow_2406_16617" result="effect2_innerShadow_2406_16617"/>
<feColorMatrix in="SourceAlpha" type="matrix" values="0 0 0 0 0 0 0 0 0 0 0 0 0 0 0 0 0 0 127 0" result="hardAlpha"/>
<feOffset dy="0.662058"/>
<feGaussianBlur stdDeviation="0.331029"/>
<feComposite in2="hardAlpha" operator="arithmetic" k2="-1" k3="1"/>
<feColorMatrix type="matrix" values="0 0 0 0 1 0 0 0 0 1 0 0 0 0 1 0 0 0 0.32 0"/>
<feBlend mode="normal" in2="effect2_innerShadow_2406_16617" result="effect3_innerShadow_2406_16617"/>
<feColorMatrix in="SourceAlpha" type="matrix" values="0 0 0 0 0 0 0 0 0 0 0 0 0 0 0 0 0 0 127 0" result="hardAlpha"/>
<feOffset dy="-0.662058"/>
<feGaussianBlur stdDeviation="0.331029"/>
<feComposite in2="hardAlpha" operator="arithmetic" k2="-1" k3="1"/>
<feColorMatrix type="matrix" values="0 0 0 0 1 0 0 0 0 1 0 0 0 0 1 0 0 0 0.32 0"/>
<feBlend mode="normal" in2="effect3_innerShadow_2406_16617" result="effect4_innerShadow_2406_16617"/>
</filter>
<filter id="filter9_iiii_2406_16617" x="583.646" y="-0.615132" width="74.1504" height="5.95878" filterUnits="userSpaceOnUse" color-interpolation-filters="sRGB">
<feFlood flood-opacity="0" result="BackgroundImageFix"/>
<feBlend mode="normal" in="SourceGraphic" in2="BackgroundImageFix" result="shape"/>
<feColorMatrix in="SourceAlpha" type="matrix" values="0 0 0 0 0 0 0 0 0 0 0 0 0 0 0 0 0 0 127 0" result="hardAlpha"/>
<feOffset dy="2.64823"/>
<feGaussianBlur stdDeviation="0.662058"/>
<feComposite in2="hardAlpha" operator="arithmetic" k2="-1" k3="1"/>
<feColorMatrix type="matrix" values="0 0 0 0 1 0 0 0 0 1 0 0 0 0 1 0 0 0 0.08 0"/>
<feBlend mode="normal" in2="shape" result="effect1_innerShadow_2406_16617"/>
<feColorMatrix in="SourceAlpha" type="matrix" values="0 0 0 0 0 0 0 0 0 0 0 0 0 0 0 0 0 0 127 0" result="hardAlpha"/>
<feOffset dy="-2.64823"/>
<feGaussianBlur stdDeviation="0.662058"/>
<feComposite in2="hardAlpha" operator="arithmetic" k2="-1" k3="1"/>
<feColorMatrix type="matrix" values="0 0 0 0 1 0 0 0 0 1 0 0 0 0 1 0 0 0 0.08 0"/>
<feBlend mode="normal" in2="effect1_innerShadow_2406_16617" result="effect2_innerShadow_2406_16617"/>
<feColorMatrix in="SourceAlpha" type="matrix" values="0 0 0 0 0 0 0 0 0 0 0 0 0 0 0 0 0 0 127 0" result="hardAlpha"/>
<feOffset dy="0.662058"/>
<feGaussianBlur stdDeviation="0.331029"/>
<feComposite in2="hardAlpha" operator="arithmetic" k2="-1" k3="1"/>
<feColorMatrix type="matrix" values="0 0 0 0 1 0 0 0 0 1 0 0 0 0 1 0 0 0 0.32 0"/>
<feBlend mode="normal" in2="effect2_innerShadow_2406_16617" result="effect3_innerShadow_2406_16617"/>
<feColorMatrix in="SourceAlpha" type="matrix" values="0 0 0 0 0 0 0 0 0 0 0 0 0 0 0 0 0 0 127 0" result="hardAlpha"/>
<feOffset dy="-0.662058"/>
<feGaussianBlur stdDeviation="0.331029"/>
<feComposite in2="hardAlpha" operator="arithmetic" k2="-1" k3="1"/>
<feColorMatrix type="matrix" values="0 0 0 0 1 0 0 0 0 1 0 0 0 0 1 0 0 0 0.32 0"/>
<feBlend mode="normal" in2="effect3_innerShadow_2406_16617" result="effect4_innerShadow_2406_16617"/>
</filter>
<filter id="filter10_b_2406_16617" x="-12.3605" y="21.7001" width="152.072" height="442.563" filterUnits="userSpaceOnUse" color-interpolation-filters="sRGB">
<feFlood flood-opacity="0" result="BackgroundImageFix"/>
<feGaussianBlur in="BackgroundImageFix" stdDeviation="24.0523"/>
<feComposite in2="SourceAlpha" operator="in" result="effect1_backgroundBlur_2406_16617"/>
<feBlend mode="normal" in="SourceGraphic" in2="effect1_backgroundBlur_2406_16617" result="shape"/>
</filter>
<filter id="filter11_i_2406_16617" x="930.564" y="215.206" width="9.26953" height="51.6406" filterUnits="userSpaceOnUse" color-interpolation-filters="sRGB">
<feFlood flood-opacity="0" result="BackgroundImageFix"/>
<feBlend mode="normal" in="SourceGraphic" in2="BackgroundImageFix" result="shape"/>
<feColorMatrix in="SourceAlpha" type="matrix" values="0 0 0 0 0 0 0 0 0 0 0 0 0 0 0 0 0 0 127 0" result="hardAlpha"/>
<feOffset/>
<feGaussianBlur stdDeviation="2.64823"/>
<feComposite in2="hardAlpha" operator="arithmetic" k2="-1" k3="1"/>
<feColorMatrix type="matrix" values="0 0 0 0 0 0 0 0 0 0 0 0 0 0 0 0 0 0 0.48 0"/>
<feBlend mode="normal" in2="shape" result="effect1_innerShadow_2406_16617"/>
</filter>
<filter id="filter12_f_2406_16617" x="929.902" y="214.544" width="10.5936" height="52.9647" filterUnits="userSpaceOnUse" color-interpolation-filters="sRGB">
<feFlood flood-opacity="0" result="BackgroundImageFix"/>
<feBlend mode="normal" in="SourceGraphic" in2="BackgroundImageFix" result="shape"/>
<feGaussianBlur stdDeviation="0.331029" result="effect1_foregroundBlur_2406_16617"/>
</filter>
<linearGradient id="paint0_linear_2406_16617" x1="888.861" y1="6.33849" x2="900.116" y2="6.33849" gradientUnits="userSpaceOnUse">
<stop offset="0.109375" stop-color="#D1D1D1"/>
<stop offset="0.317708" stop-color="#E3E3E3"/>
<stop offset="0.552083" stop-color="#D2D2D2"/>
<stop offset="0.807292" stop-color="#E6E6E6"/>
</linearGradient>
<linearGradient id="paint1_linear_2406_16617" x1="88.4297" y1="6.33849" x2="99.6847" y2="6.33849" gradientUnits="userSpaceOnUse">
<stop offset="0.109375" stop-color="#D1D1D1"/>
<stop offset="0.317708" stop-color="#E3E3E3"/>
<stop offset="0.552083" stop-color="#D2D2D2"/>
<stop offset="0.807292" stop-color="#E6E6E6"/>
</linearGradient>
<linearGradient id="paint2_linear_2406_16617" x1="888.859" y1="473.752" x2="900.114" y2="473.752" gradientUnits="userSpaceOnUse">
<stop offset="0.0988321" stop-color="#E6E6E6"/>
<stop offset="0.368786" stop-color="#D2D2D2"/>
<stop offset="0.624532" stop-color="#E3E3E3"/>
<stop offset="0.798581" stop-color="#D1D1D1"/>
</linearGradient>
<linearGradient id="paint3_linear_2406_16617" x1="88.4297" y1="473.752" x2="99.6847" y2="473.752" gradientUnits="userSpaceOnUse">
<stop offset="0.0988321" stop-color="#E6E6E6"/>
<stop offset="0.368786" stop-color="#D2D2D2"/>
<stop offset="0.624532" stop-color="#E3E3E3"/>
<stop offset="0.798581" stop-color="#D1D1D1"/>
</linearGradient>
<linearGradient id="paint4_linear_2406_16617" x1="976.252" y1="381.723" x2="987.507" y2="381.723" gradientUnits="userSpaceOnUse">
<stop offset="0.238306" stop-color="#D1D1D1"/>
<stop offset="0.416703" stop-color="#E3E3E3"/>
<stop offset="0.700226" stop-color="#D2D2D2"/>
<stop offset="0.926408" stop-color="#E6E6E6"/>
</linearGradient>
<linearGradient id="paint5_linear_2406_16617" x1="8.98242" y1="103" x2="20.2374" y2="103" gradientUnits="userSpaceOnUse">
<stop offset="0.0988321" stop-color="#E6E6E6"/>
<stop offset="0.368786" stop-color="#D2D2D2"/>
<stop offset="0.624532" stop-color="#E3E3E3"/>
<stop offset="0.798581" stop-color="#D1D1D1"/>
</linearGradient>
<linearGradient id="paint6_linear_2406_16617" x1="954.044" y1="38.8914" x2="29.8889" y2="436.007" gradientUnits="userSpaceOnUse">
<stop stop-color="white" stop-opacity="0.16"/>
<stop offset="1" stop-color="white" stop-opacity="0.05"/>
</linearGradient>
<linearGradient id="paint7_linear_2406_16617" x1="799.149" y1="0.708984" x2="799.149" y2="4.01927" gradientUnits="userSpaceOnUse">
<stop stop-opacity="0"/>
<stop offset="0.333333" stop-color="#D0D0D0" stop-opacity="0.42"/>
<stop offset="1" stop-opacity="0.24"/>
</linearGradient>
<linearGradient id="paint8_linear_2406_16617" x1="712.066" y1="0.708984" x2="712.066" y2="4.01927" gradientUnits="userSpaceOnUse">
<stop stop-opacity="0"/>
<stop offset="0.333333" stop-color="#D0D0D0" stop-opacity="0.42"/>
<stop offset="1" stop-opacity="0.24"/>
</linearGradient>
<linearGradient id="paint9_linear_2406_16617" x1="665.414" y1="477.391" x2="665.414" y2="480.701" gradientUnits="userSpaceOnUse">
<stop stop-opacity="0.24"/>
<stop offset="0.573835" stop-color="#D0D0D0" stop-opacity="0.42"/>
<stop offset="1" stop-opacity="0"/>
</linearGradient>
<linearGradient id="paint10_linear_2406_16617" x1="621.361" y1="0.708984" x2="621.361" y2="4.01927" gradientUnits="userSpaceOnUse">
<stop stop-opacity="0"/>
<stop offset="0.333333" stop-color="#D0D0D0" stop-opacity="0.42"/>
<stop offset="1" stop-opacity="0.24"/>
</linearGradient>
<linearGradient id="paint11_linear_2406_16617" x1="971.619" y1="240.704" x2="0.378784" y2="240.704" gradientUnits="userSpaceOnUse">
<stop stop-color="white" stop-opacity="0.64"/>
<stop offset="1" stop-color="white" stop-opacity="0.32"/>
</linearGradient>
<linearGradient id="paint12_linear_2406_16617" x1="888.861" y1="6.33849" x2="900.116" y2="6.33849" gradientUnits="userSpaceOnUse">
<stop offset="0.123628" stop-color="#8F8F8F"/>
<stop offset="0.365738" stop-color="#525252"/>
<stop offset="0.827659" stop-color="#141414"/>
</linearGradient>
<linearGradient id="paint13_linear_2406_16617" x1="88.4297" y1="6.33849" x2="99.6847" y2="6.33849" gradientUnits="userSpaceOnUse">
<stop offset="0.123628" stop-color="#8F8F8F"/>
<stop offset="0.365738" stop-color="#525252"/>
<stop offset="0.827659" stop-color="#141414"/>
</linearGradient>
<linearGradient id="paint14_linear_2406_16617" x1="888.859" y1="473.752" x2="900.114" y2="473.752" gradientUnits="userSpaceOnUse">
<stop offset="0.088176" stop-color="#141414"/>
<stop offset="0.536358" stop-color="#525252"/>
<stop offset="0.756584" stop-color="#8F8F8F"/>
</linearGradient>
<linearGradient id="paint15_linear_2406_16617" x1="88.4297" y1="473.752" x2="99.6847" y2="473.752" gradientUnits="userSpaceOnUse">
<stop offset="0.088176" stop-color="#141414"/>
<stop offset="0.529254" stop-color="#525252"/>
<stop offset="0.770792" stop-color="#8F8F8F"/>
</linearGradient>
<linearGradient id="paint16_linear_2406_16617" x1="976.252" y1="381.723" x2="987.507" y2="381.723" gradientUnits="userSpaceOnUse">
<stop offset="0.420124" stop-color="#8F8F8F"/>
<stop offset="0.610413" stop-color="#525252"/>
<stop offset="0.976264" stop-color="#141414"/>
</linearGradient>
<linearGradient id="paint17_linear_2406_16617" x1="8.98242" y1="103" x2="20.2374" y2="103" gradientUnits="userSpaceOnUse">
<stop offset="0.122861"/>
<stop offset="0.584624" stop-color="#292929"/>
<stop offset="0.87589" stop-color="#7A7A7A"/>
</linearGradient>
<linearGradient id="paint18_linear_2406_16617" x1="954.044" y1="38.8914" x2="29.8889" y2="436.007" gradientUnits="userSpaceOnUse">
<stop stop-color="white" stop-opacity="0.16"/>
<stop offset="1" stop-color="white" stop-opacity="0.05"/>
</linearGradient>
<linearGradient id="paint19_linear_2406_16617" x1="799.149" y1="0.708984" x2="799.149" y2="4.01927" gradientUnits="userSpaceOnUse">
<stop stop-color="white" stop-opacity="0.08"/>
<stop offset="0.276042" stop-color="white" stop-opacity="0.24"/>
<stop offset="1" stop-color="white" stop-opacity="0"/>
</linearGradient>
<linearGradient id="paint20_linear_2406_16617" x1="712.066" y1="0.708984" x2="712.066" y2="4.01927" gradientUnits="userSpaceOnUse">
<stop stop-color="white" stop-opacity="0.08"/>
<stop offset="0.276042" stop-color="white" stop-opacity="0.24"/>
<stop offset="1" stop-color="white" stop-opacity="0"/>
</linearGradient>
<linearGradient id="paint21_linear_2406_16617" x1="665.414" y1="477.391" x2="665.414" y2="480.701" gradientUnits="userSpaceOnUse">
<stop stop-color="white" stop-opacity="0"/>
<stop offset="0.630208" stop-color="white" stop-opacity="0.24"/>
<stop offset="1" stop-color="white" stop-opacity="0.08"/>
</linearGradient>
<linearGradient id="paint22_linear_2406_16617" x1="621.361" y1="0.708984" x2="621.361" y2="4.01927" gradientUnits="userSpaceOnUse">
<stop stop-color="white" stop-opacity="0.08"/>
<stop offset="0.276042" stop-color="white" stop-opacity="0.24"/>
<stop offset="1" stop-color="white" stop-opacity="0"/>
</linearGradient>
<linearGradient id="paint23_linear_2406_16617" x1="939.834" y1="241.026" x2="930.565" y2="241.026" gradientUnits="userSpaceOnUse">
<stop/>
<stop offset="0.483028" stop-color="#484848"/>
<stop offset="1"/>
</linearGradient>
<radialGradient id="paint24_radial_2406_16617" cx="0" cy="0" r="1" gradientUnits="userSpaceOnUse" gradientTransform="translate(930.897 288.364) rotate(-37.6942) scale(9.20356 9.20356)">
<stop stop-color="#242424"/>
<stop offset="1" stop-color="#161616"/>
</radialGradient>
<radialGradient id="paint25_radial_2406_16617" cx="0" cy="0" r="1" gradientUnits="userSpaceOnUse" gradientTransform="translate(935.2 286.709) rotate(180) scale(9.26882 9.26881)">
<stop offset="0.463542" stop-opacity="0.25"/>
<stop offset="0.645833" stop-opacity="0"/>
</radialGradient>
<linearGradient id="paint26_linear_2406_16617" x1="939.834" y1="286.708" x2="930.565" y2="286.708" gradientUnits="userSpaceOnUse">
<stop stop-color="#0B528D"/>
<stop offset="0.276042" stop-color="#3625AF"/>
<stop offset="0.510417" stop-color="#070D17"/>
<stop offset="0.734375" stop-color="#16618F"/>
<stop offset="1" stop-color="#021762"/>
</linearGradient>
<radialGradient id="paint27_radial_2406_16617" cx="0" cy="0" r="1" gradientUnits="userSpaceOnUse" gradientTransform="translate(936.193 283.066) rotate(148.393) scale(5.05294 5.05294)">
<stop stop-color="#070D17"/>
<stop offset="1" stop-color="#070D17" stop-opacity="0"/>
</radialGradient>
<radialGradient id="paint28_radial_2406_16617" cx="0" cy="0" r="1" gradientUnits="userSpaceOnUse" gradientTransform="translate(934.538 287.37) rotate(-163.301) scale(3.45605 3.45604)">
<stop offset="0.146834" stop-color="#070D17"/>
<stop offset="1" stop-color="#070D17" stop-opacity="0"/>
</radialGradient>
<radialGradient id="paint29_radial_2406_16617" cx="0" cy="0" r="1" gradientUnits="userSpaceOnUse" gradientTransform="translate(936.193 288.032) rotate(-141.34) scale(2.11962)">
<stop stop-color="#6356D7"/>
<stop offset="1" stop-color="#15368A" stop-opacity="0"/>
</radialGradient>
<radialGradient id="paint30_radial_2406_16617" cx="0" cy="0" r="1" gradientUnits="userSpaceOnUse" gradientTransform="translate(935.2 286.708) rotate(180) scale(4.63441 4.6344)">
<stop offset="0.828125" stop-opacity="0"/>
<stop offset="1" stop-opacity="0.85"/>
</radialGradient>
<clipPath id="clip0_2406_16617">
<rect x="949.848" y="26.5107" width="432.818" height="926.89" rx="38.4837" transform="rotate(90 949.848 26.5107)" fill="white"/>
</clipPath>
<clipPath id="clip1_2406_16617">
<rect width="432.941" height="48.1046" fill="white" transform="matrix(0 1 -1 0 949.848 26.5107)"/>
</clipPath>
</defs>
</svg>
