<svg width="513" height="205" viewBox="0 0 513 205" fill="none" xmlns="http://www.w3.org/2000/svg">
<rect x="0.867188" width="511.302" height="204.047" rx="29.186" fill="#ECECEC"/>
<path d="M30.023 39V27.041H37.9689V28.9673H32.2061V32.0333H37.6478V33.9596H32.2061V37.0737H37.9689V39H30.023ZM42.7641 39L38.5905 27.041H40.9663L44.2409 36.9453H43.7754L47.0501 27.041H49.4258L45.2683 39H42.7641ZM50.7624 39V27.041H58.7083V28.9673H52.9456V32.0333H58.3873V33.9596H52.9456V37.0737H58.7083V39H50.7624ZM60.3092 39V27.041H62.0107L68.5922 35.9019L67.7093 36.0785V27.041H69.8924V39H68.1748L61.6897 30.0749L62.4923 29.8983V39H60.3092ZM72.2073 39V27.041H74.3905V39H72.2073ZM76.6907 39V27.041H78.3922L84.9737 35.9019L84.0908 36.0785V27.041H86.2739V39H84.5563L78.0712 30.0749L78.8738 29.8983V39H76.6907ZM94.2553 39.1926C93.3992 39.1926 92.6073 39.0375 91.8796 38.7271C91.1519 38.4168 90.5151 37.9834 89.9694 37.4269C89.4236 36.8704 88.9955 36.2176 88.6852 35.4685C88.3855 34.7194 88.2357 33.9007 88.2357 33.0125C88.2357 32.1243 88.3802 31.3056 88.6691 30.5565C88.9688 29.7967 89.3861 29.1439 89.9212 28.5981C90.467 28.0416 91.1037 27.6135 91.8314 27.3139C92.5591 27.0036 93.3511 26.8484 94.2072 26.8484C95.0633 26.8484 95.8285 26.9929 96.5027 27.2818C97.1876 27.5707 97.7654 27.956 98.2363 28.4376C98.7072 28.9084 99.0443 29.4275 99.2476 29.9946L97.3053 30.9257C97.0805 30.305 96.7006 29.802 96.1656 29.4168C95.6305 29.0315 94.9777 28.8389 94.2072 28.8389C93.4581 28.8389 92.7946 29.0155 92.2167 29.3686C91.6495 29.7218 91.2054 30.2087 90.8843 30.8294C90.574 31.4501 90.4188 32.1778 90.4188 33.0125C90.4188 33.8472 90.5794 34.5803 90.9004 35.2117C91.2321 35.8323 91.687 36.3193 92.2648 36.6724C92.8427 37.0256 93.5062 37.2021 94.2553 37.2021C94.8653 37.2021 95.4272 37.0844 95.9408 36.849C96.4545 36.6029 96.8665 36.2604 97.1769 35.8216C97.4872 35.3722 97.6424 34.8424 97.6424 34.2325V33.3175L98.6376 34.1843H94.2072V32.3383H99.8255V33.5422C99.8255 34.4625 99.6703 35.2759 99.36 35.9822C99.0496 36.6885 98.6269 37.2824 98.0918 37.764C97.5675 38.2348 96.9735 38.5933 96.31 38.8395C95.6465 39.0749 94.9616 39.1926 94.2553 39.1926Z" fill="#44445D"/>
<path d="M28.8672 67.3486L28.8672 184.046" stroke="#BCBCD0" stroke-width="2.9186" stroke-linecap="round"/>
<rect x="46.3788" y="67.3486" width="137.535" height="52.3488" rx="11.6744" fill="#D9D9EB"/>
<path d="M81.0022 102.023V98.5089H73.5247V96.8541L80.9613 86.8024H82.8818V96.8541H84.8635V98.5089H82.8818V102.023H81.0022ZM75.0366 97.5692L74.7506 96.8541H81.0022V88.4777L81.5947 88.6411L75.0366 97.5692ZM87.9218 102.023V99.5713H89.9036V102.023H87.9218ZM87.9218 93.4627V91.0111H89.9036V93.4627H87.9218ZM99.5749 102.268C98.3627 102.268 97.3003 101.941 96.3878 101.287C95.4888 100.62 94.7874 99.7007 94.2835 98.5294C93.7795 97.3444 93.5275 95.9688 93.5275 94.4025C93.5275 92.8362 93.7795 91.4673 94.2835 90.296C94.7874 89.111 95.4888 88.1917 96.3878 87.5379C97.2867 86.8841 98.3423 86.5573 99.5545 86.5573C100.767 86.5573 101.822 86.8841 102.721 87.5379C103.62 88.1917 104.322 89.111 104.825 90.296C105.343 91.4673 105.602 92.8362 105.602 94.4025C105.602 95.9688 105.35 97.3444 104.846 98.5294C104.342 99.7143 103.634 100.634 102.721 101.287C101.822 101.941 100.773 102.268 99.5749 102.268ZM99.5749 100.409C100.392 100.409 101.1 100.164 101.7 99.6735C102.299 99.1695 102.762 98.4681 103.089 97.5692C103.429 96.6702 103.6 95.6147 103.6 94.4025C103.6 93.1903 103.429 92.1347 103.089 91.2358C102.762 90.3369 102.292 89.6422 101.679 89.1519C101.08 88.6616 100.372 88.4164 99.5545 88.4164C98.7372 88.4164 98.029 88.6616 97.4297 89.1519C96.8304 89.6422 96.3605 90.3369 96.02 91.2358C95.6931 92.1347 95.5297 93.1903 95.5297 94.4025C95.5297 95.601 95.6931 96.6498 96.02 97.5487C96.3605 98.4477 96.8304 99.1491 97.4297 99.653C98.0426 100.157 98.7577 100.409 99.5749 100.409ZM114.359 102.268C113.147 102.268 112.084 101.941 111.172 101.287C110.273 100.62 109.571 99.7007 109.067 98.5294C108.563 97.3444 108.312 95.9688 108.312 94.4025C108.312 92.8362 108.563 91.4673 109.067 90.296C109.571 89.111 110.273 88.1917 111.172 87.5379C112.071 86.8841 113.126 86.5573 114.338 86.5573C115.551 86.5573 116.606 86.8841 117.505 87.5379C118.404 88.1917 119.105 89.111 119.609 90.296C120.127 91.4673 120.386 92.8362 120.386 94.4025C120.386 95.9688 120.134 97.3444 119.63 98.5294C119.126 99.7143 118.418 100.634 117.505 101.287C116.606 101.941 115.557 102.268 114.359 102.268ZM114.359 100.409C115.176 100.409 115.884 100.164 116.484 99.6735C117.083 99.1695 117.546 98.4681 117.873 97.5692C118.213 96.6702 118.384 95.6147 118.384 94.4025C118.384 93.1903 118.213 92.1347 117.873 91.2358C117.546 90.3369 117.076 89.6422 116.463 89.1519C115.864 88.6616 115.156 88.4164 114.338 88.4164C113.521 88.4164 112.813 88.6616 112.214 89.1519C111.614 89.6422 111.145 90.3369 110.804 91.2358C110.477 92.1347 110.314 93.1903 110.314 94.4025C110.314 95.601 110.477 96.6498 110.804 97.5487C111.145 98.4477 111.614 99.1491 112.214 99.653C112.827 100.157 113.542 100.409 114.359 100.409ZM126.729 106.109V91.0111H128.588V93.381L128.343 92.9111C128.752 92.2573 129.31 91.7397 130.018 91.3584C130.727 90.9634 131.537 90.7659 132.45 90.7659C133.485 90.7659 134.411 91.0179 135.228 91.5218C136.059 92.0258 136.713 92.7136 137.189 93.5853C137.666 94.4433 137.904 95.424 137.904 96.5272C137.904 97.6032 137.666 98.577 137.189 99.4487C136.713 100.32 136.059 101.008 135.228 101.512C134.411 102.016 133.478 102.268 132.429 102.268C131.544 102.268 130.733 102.071 129.998 101.676C129.276 101.281 128.718 100.722 128.323 100L128.629 99.6735V106.109H126.729ZM132.286 100.429C132.981 100.429 133.6 100.259 134.145 99.9186C134.69 99.5781 135.112 99.115 135.412 98.5294C135.725 97.9301 135.882 97.2627 135.882 96.5272C135.882 95.7645 135.725 95.0971 135.412 94.5251C135.112 93.9394 134.69 93.4763 134.145 93.1358C133.6 92.7817 132.981 92.6046 132.286 92.6046C131.591 92.6046 130.965 92.7749 130.406 93.1154C129.862 93.4559 129.426 93.9258 129.099 94.5251C128.786 95.1107 128.629 95.7781 128.629 96.5272C128.629 97.2627 128.786 97.9301 129.099 98.5294C129.426 99.115 129.862 99.5781 130.406 99.9186C130.965 100.259 131.591 100.429 132.286 100.429ZM140.396 102.023V91.0111H142.255V93.2584L141.989 92.9111C142.262 92.2164 142.698 91.6853 143.297 91.3175C143.896 90.9498 144.57 90.7659 145.319 90.7659C146.178 90.7659 146.947 91.0042 147.628 91.4809C148.323 91.9577 148.799 92.5842 149.058 93.3605L148.527 93.381C148.813 92.5229 149.297 91.8759 149.978 91.4401C150.659 90.9906 151.414 90.7659 152.245 90.7659C153.008 90.7659 153.696 90.943 154.309 91.2971C154.935 91.6512 155.432 92.1415 155.8 92.7681C156.168 93.3946 156.352 94.1028 156.352 94.8928V102.023H154.431V95.5057C154.431 94.8928 154.322 94.3752 154.104 93.953C153.887 93.5308 153.587 93.2039 153.206 92.9724C152.838 92.7272 152.402 92.6046 151.898 92.6046C151.408 92.6046 150.965 92.7272 150.57 92.9724C150.189 93.2039 149.882 93.5376 149.651 93.9734C149.433 94.3957 149.324 94.9064 149.324 95.5057V102.023H147.403V95.5057C147.403 94.8928 147.294 94.3752 147.076 93.953C146.859 93.5308 146.559 93.2039 146.178 92.9724C145.81 92.7272 145.374 92.6046 144.87 92.6046C144.38 92.6046 143.937 92.7272 143.542 92.9724C143.161 93.2039 142.854 93.5376 142.623 93.9734C142.405 94.3957 142.296 94.9064 142.296 95.5057V102.023H140.396Z" fill="#37374A"/>
<rect x="195.588" y="67.3486" width="135.535" height="52.3488" rx="11.6744" fill="#D9D9EB"/>
<path d="M230.212 102.023V98.5089H222.734V96.8541L230.171 86.8024H232.091V96.8541H234.073V98.5089H232.091V102.023H230.212ZM224.246 97.5692L223.96 96.8541H230.212V88.4777L230.804 88.6411L224.246 97.5692ZM237.131 102.023V99.5713H239.113V102.023H237.131ZM237.131 93.4627V91.0111H239.113V93.4627H237.131ZM247.375 102.268C246.571 102.268 245.822 102.125 245.127 101.839C244.433 101.553 243.833 101.151 243.329 100.634C242.825 100.103 242.451 99.476 242.206 98.7541L243.901 98.0595C244.187 98.8222 244.637 99.4147 245.25 99.8369C245.863 100.259 246.571 100.47 247.375 100.47C248.001 100.47 248.56 100.348 249.05 100.103C249.54 99.8573 249.922 99.5032 250.194 99.0401C250.48 98.577 250.623 98.0186 250.623 97.3649C250.623 96.6975 250.48 96.139 250.194 95.6896C249.922 95.2265 249.54 94.8724 249.05 94.6272C248.56 94.382 247.994 94.2595 247.354 94.2595C247.15 94.2595 246.925 94.2731 246.68 94.3003C246.448 94.3276 246.251 94.3684 246.087 94.4229L245.658 93.5035L249.724 88.539H242.982V86.8024H251.992V88.4777L248.11 93.2584L247.987 92.7272C248.9 92.7544 249.704 92.9655 250.398 93.3605C251.093 93.7555 251.638 94.2935 252.033 94.9745C252.428 95.6419 252.625 96.4251 252.625 97.324C252.625 98.2502 252.4 99.0878 251.951 99.8369C251.501 100.586 250.882 101.178 250.092 101.614C249.302 102.05 248.396 102.268 247.375 102.268ZM261.254 102.268C260.042 102.268 258.979 101.941 258.067 101.287C257.168 100.62 256.466 99.7007 255.962 98.5294C255.458 97.3444 255.207 95.9688 255.207 94.4025C255.207 92.8362 255.458 91.4673 255.962 90.296C256.466 89.111 257.168 88.1917 258.067 87.5379C258.966 86.8841 260.021 86.5573 261.233 86.5573C262.446 86.5573 263.501 86.8841 264.4 87.5379C265.299 88.1917 266 89.111 266.504 90.296C267.022 91.4673 267.281 92.8362 267.281 94.4025C267.281 95.9688 267.029 97.3444 266.525 98.5294C266.021 99.7143 265.313 100.634 264.4 101.287C263.501 101.941 262.452 102.268 261.254 102.268ZM261.254 100.409C262.071 100.409 262.779 100.164 263.379 99.6735C263.978 99.1695 264.441 98.4681 264.768 97.5692C265.108 96.6702 265.279 95.6147 265.279 94.4025C265.279 93.1903 265.108 92.1347 264.768 91.2358C264.441 90.3369 263.971 89.6422 263.358 89.1519C262.759 88.6616 262.051 88.4164 261.233 88.4164C260.416 88.4164 259.708 88.6616 259.109 89.1519C258.509 89.6422 258.04 90.3369 257.699 91.2358C257.372 92.1347 257.209 93.1903 257.209 94.4025C257.209 95.601 257.372 96.6498 257.699 97.5487C258.04 98.4477 258.509 99.1491 259.109 99.653C259.722 100.157 260.437 100.409 261.254 100.409ZM273.624 106.109V91.0111H275.483V93.381L275.238 92.9111C275.647 92.2573 276.205 91.7397 276.913 91.3584C277.622 90.9634 278.432 90.7659 279.345 90.7659C280.38 90.7659 281.306 91.0179 282.123 91.5218C282.954 92.0258 283.608 92.7136 284.084 93.5853C284.561 94.4433 284.799 95.424 284.799 96.5272C284.799 97.6032 284.561 98.577 284.084 99.4487C283.608 100.32 282.954 101.008 282.123 101.512C281.306 102.016 280.373 102.268 279.324 102.268C278.439 102.268 277.628 102.071 276.893 101.676C276.171 101.281 275.613 100.722 275.218 100L275.524 99.6735V106.109H273.624ZM279.181 100.429C279.876 100.429 280.495 100.259 281.04 99.9186C281.585 99.5781 282.007 99.115 282.307 98.5294C282.62 97.9301 282.777 97.2627 282.777 96.5272C282.777 95.7645 282.62 95.0971 282.307 94.5251C282.007 93.9394 281.585 93.4763 281.04 93.1358C280.495 92.7817 279.876 92.6046 279.181 92.6046C278.486 92.6046 277.86 92.7749 277.301 93.1154C276.757 93.4559 276.321 93.9258 275.994 94.5251C275.681 95.1107 275.524 95.7781 275.524 96.5272C275.524 97.2627 275.681 97.9301 275.994 98.5294C276.321 99.115 276.757 99.5781 277.301 99.9186C277.86 100.259 278.486 100.429 279.181 100.429ZM287.291 102.023V91.0111H289.15V93.2584L288.884 92.9111C289.157 92.2164 289.593 91.6853 290.192 91.3175C290.791 90.9498 291.465 90.7659 292.214 90.7659C293.073 90.7659 293.842 91.0042 294.523 91.4809C295.218 91.9577 295.694 92.5842 295.953 93.3605L295.422 93.381C295.708 92.5229 296.192 91.8759 296.873 91.4401C297.554 90.9906 298.309 90.7659 299.14 90.7659C299.903 90.7659 300.591 90.943 301.204 91.2971C301.83 91.6512 302.327 92.1415 302.695 92.7681C303.063 93.3946 303.247 94.1028 303.247 94.8928V102.023H301.326V95.5057C301.326 94.8928 301.217 94.3752 300.999 93.953C300.782 93.5308 300.482 93.2039 300.101 92.9724C299.733 92.7272 299.297 92.6046 298.793 92.6046C298.303 92.6046 297.86 92.7272 297.465 92.9724C297.084 93.2039 296.777 93.5376 296.546 93.9734C296.328 94.3957 296.219 94.9064 296.219 95.5057V102.023H294.298V95.5057C294.298 94.8928 294.189 94.3752 293.971 93.953C293.754 93.5308 293.454 93.2039 293.073 92.9724C292.705 92.7272 292.269 92.6046 291.765 92.6046C291.275 92.6046 290.832 92.7272 290.437 92.9724C290.056 93.2039 289.749 93.5376 289.518 93.9734C289.3 94.3957 289.191 94.9064 289.191 95.5057V102.023H287.291Z" fill="#37374A"/>
<rect x="342.797" y="67.3486" width="137.535" height="52.3488" rx="11.6744" fill="#D9D9EB"/>
<path d="M375.194 102.268C374.404 102.268 373.662 102.132 372.967 101.86C372.272 101.573 371.666 101.172 371.149 100.654C370.645 100.123 370.277 99.5032 370.045 98.795L371.68 98.1003C371.966 98.8495 372.429 99.4351 373.069 99.8573C373.723 100.266 374.431 100.47 375.194 100.47C375.82 100.47 376.372 100.334 376.849 100.062C377.339 99.7756 377.72 99.3874 377.993 98.8971C378.265 98.3932 378.401 97.8348 378.401 97.2218C378.401 96.5817 378.258 96.0165 377.972 95.5261C377.7 95.0358 377.325 94.6544 376.849 94.382C376.372 94.096 375.827 93.953 375.214 93.953C374.588 93.953 374.016 94.096 373.498 94.382C372.981 94.6681 372.606 95.029 372.375 95.4648L370.761 95.1175L371.925 86.8024H379.811V88.539H372.681L373.457 87.7626L372.558 94.2186L371.864 93.81C372.313 93.2379 372.838 92.8293 373.437 92.5842C374.05 92.3254 374.71 92.196 375.419 92.196C376.413 92.196 377.285 92.4207 378.034 92.8702C378.783 93.3197 379.368 93.919 379.791 94.6681C380.213 95.4172 380.424 96.2684 380.424 97.2218C380.424 98.1753 380.192 99.0333 379.729 99.7961C379.28 100.559 378.66 101.165 377.87 101.614C377.094 102.05 376.202 102.268 375.194 102.268ZM383.901 102.023V99.5713H385.883V102.023H383.901ZM383.901 93.4627V91.0111H385.883V93.4627H383.901ZM395.555 102.268C394.342 102.268 393.28 101.941 392.367 101.287C391.468 100.62 390.767 99.7007 390.263 98.5294C389.759 97.3444 389.507 95.9688 389.507 94.4025C389.507 92.8362 389.759 91.4673 390.263 90.296C390.767 89.111 391.468 88.1917 392.367 87.5379C393.266 86.8841 394.322 86.5573 395.534 86.5573C396.746 86.5573 397.802 86.8841 398.701 87.5379C399.6 88.1917 400.301 89.111 400.805 90.296C401.323 91.4673 401.581 92.8362 401.581 94.4025C401.581 95.9688 401.329 97.3444 400.826 98.5294C400.322 99.7143 399.613 100.634 398.701 101.287C397.802 101.941 396.753 102.268 395.555 102.268ZM395.555 100.409C396.372 100.409 397.08 100.164 397.679 99.6735C398.279 99.1695 398.742 98.4681 399.069 97.5692C399.409 96.6702 399.579 95.6147 399.579 94.4025C399.579 93.1903 399.409 92.1347 399.069 91.2358C398.742 90.3369 398.272 89.6422 397.659 89.1519C397.06 88.6616 396.351 88.4164 395.534 88.4164C394.717 88.4164 394.009 88.6616 393.409 89.1519C392.81 89.6422 392.34 90.3369 392 91.2358C391.673 92.1347 391.509 93.1903 391.509 94.4025C391.509 95.601 391.673 96.6498 392 97.5487C392.34 98.4477 392.81 99.1491 393.409 99.653C394.022 100.157 394.737 100.409 395.555 100.409ZM410.339 102.268C409.126 102.268 408.064 101.941 407.151 101.287C406.252 100.62 405.551 99.7007 405.047 98.5294C404.543 97.3444 404.291 95.9688 404.291 94.4025C404.291 92.8362 404.543 91.4673 405.047 90.296C405.551 89.111 406.252 88.1917 407.151 87.5379C408.05 86.8841 409.106 86.5573 410.318 86.5573C411.53 86.5573 412.586 86.8841 413.485 87.5379C414.384 88.1917 415.085 89.111 415.589 90.296C416.107 91.4673 416.365 92.8362 416.365 94.4025C416.365 95.9688 416.113 97.3444 415.61 98.5294C415.106 99.7143 414.397 100.634 413.485 101.287C412.586 101.941 411.537 102.268 410.339 102.268ZM410.339 100.409C411.156 100.409 411.864 100.164 412.463 99.6735C413.063 99.1695 413.526 98.4681 413.853 97.5692C414.193 96.6702 414.363 95.6147 414.363 94.4025C414.363 93.1903 414.193 92.1347 413.853 91.2358C413.526 90.3369 413.056 89.6422 412.443 89.1519C411.844 88.6616 411.135 88.4164 410.318 88.4164C409.501 88.4164 408.793 88.6616 408.193 89.1519C407.594 89.6422 407.124 90.3369 406.784 91.2358C406.457 92.1347 406.293 93.1903 406.293 94.4025C406.293 95.601 406.457 96.6498 406.784 97.5487C407.124 98.4477 407.594 99.1491 408.193 99.653C408.806 100.157 409.521 100.409 410.339 100.409ZM422.709 106.109V91.0111H424.568V93.381L424.323 92.9111C424.731 92.2573 425.29 91.7397 425.998 91.3584C426.706 90.9634 427.517 90.7659 428.429 90.7659C429.464 90.7659 430.39 91.0179 431.208 91.5218C432.039 92.0258 432.692 92.7136 433.169 93.5853C433.646 94.4433 433.884 95.424 433.884 96.5272C433.884 97.6032 433.646 98.577 433.169 99.4487C432.692 100.32 432.039 101.008 431.208 101.512C430.39 102.016 429.457 102.268 428.409 102.268C427.523 102.268 426.713 102.071 425.978 101.676C425.256 101.281 424.697 100.722 424.302 100L424.609 99.6735V106.109H422.709ZM428.266 100.429C428.96 100.429 429.58 100.259 430.125 99.9186C430.67 99.5781 431.092 99.115 431.392 98.5294C431.705 97.9301 431.861 97.2627 431.861 96.5272C431.861 95.7645 431.705 95.0971 431.392 94.5251C431.092 93.9394 430.67 93.4763 430.125 93.1358C429.58 92.7817 428.96 92.6046 428.266 92.6046C427.571 92.6046 426.945 92.7749 426.386 93.1154C425.841 93.4559 425.405 93.9258 425.079 94.5251C424.765 95.1107 424.609 95.7781 424.609 96.5272C424.609 97.2627 424.765 97.9301 425.079 98.5294C425.405 99.115 425.841 99.5781 426.386 99.9186C426.945 100.259 427.571 100.429 428.266 100.429ZM436.375 102.023V91.0111H438.235V93.2584L437.969 92.9111C438.241 92.2164 438.677 91.6853 439.277 91.3175C439.876 90.9498 440.55 90.7659 441.299 90.7659C442.157 90.7659 442.927 91.0042 443.608 91.4809C444.302 91.9577 444.779 92.5842 445.038 93.3605L444.507 93.381C444.793 92.5229 445.276 91.8759 445.957 91.4401C446.638 90.9906 447.394 90.7659 448.225 90.7659C448.988 90.7659 449.675 90.943 450.288 91.2971C450.915 91.6512 451.412 92.1415 451.78 92.7681C452.148 93.3946 452.331 94.1028 452.331 94.8928V102.023H450.411V95.5057C450.411 94.8928 450.302 94.3752 450.084 93.953C449.866 93.5308 449.567 93.2039 449.185 92.9724C448.817 92.7272 448.382 92.6046 447.878 92.6046C447.387 92.6046 446.945 92.7272 446.55 92.9724C446.168 93.2039 445.862 93.5376 445.63 93.9734C445.412 94.3957 445.303 94.9064 445.303 95.5057V102.023H443.383V95.5057C443.383 94.8928 443.274 94.3752 443.056 93.953C442.838 93.5308 442.539 93.2039 442.157 92.9724C441.789 92.7272 441.354 92.6046 440.85 92.6046C440.359 92.6046 439.917 92.7272 439.522 92.9724C439.14 93.2039 438.834 93.5376 438.602 93.9734C438.384 94.3957 438.275 94.9064 438.275 95.5057V102.023H436.375Z" fill="#37374A"/>
<g opacity="0.32">
<rect x="46.3788" y="131.697" width="137.535" height="52.3488" rx="11.6744" fill="#D9D9EB"/>
<path d="M78.7957 166.617C77.8151 166.617 76.9434 166.399 76.1807 165.963C75.4316 165.527 74.8391 164.935 74.4032 164.186C73.9674 163.423 73.7495 162.558 73.7495 161.591C73.7495 161.06 73.8108 160.535 73.9333 160.018C74.0559 159.5 74.2534 158.976 74.5258 158.445C74.7982 157.913 75.1455 157.362 75.5678 156.79L79.8581 151.151H82.2689L77.0183 157.975L76.6506 157.934C76.8549 157.661 77.0796 157.45 77.3248 157.301C77.5835 157.151 77.8559 157.042 78.142 156.974C78.4416 156.906 78.7549 156.872 79.0818 156.872C79.9807 156.872 80.7843 157.083 81.4925 157.505C82.2144 157.913 82.7796 158.479 83.1882 159.201C83.6105 159.922 83.8216 160.753 83.8216 161.693C83.8216 162.633 83.6037 163.477 83.1678 164.226C82.732 164.962 82.1327 165.548 81.37 165.983C80.6208 166.406 79.7628 166.617 78.7957 166.617ZM78.7957 164.819C79.3678 164.819 79.8785 164.689 80.328 164.431C80.7775 164.158 81.1316 163.784 81.3904 163.307C81.6628 162.83 81.799 162.299 81.799 161.713C81.799 161.101 81.6696 160.569 81.4108 160.12C81.152 159.657 80.7979 159.289 80.3484 159.017C79.899 158.744 79.3814 158.608 78.7957 158.608C78.2237 158.608 77.7061 158.744 77.243 159.017C76.78 159.289 76.419 159.657 76.1602 160.12C75.9015 160.569 75.7721 161.101 75.7721 161.713C75.7721 162.299 75.9015 162.83 76.1602 163.307C76.4326 163.784 76.7936 164.158 77.243 164.431C77.7061 164.689 78.2237 164.819 78.7957 164.819ZM87.1238 166.372V163.92H89.1055V166.372H87.1238ZM87.1238 157.811V155.36H89.1055V157.811H87.1238ZM98.7768 166.617C97.5646 166.617 96.5023 166.29 95.5897 165.636C94.6908 164.969 93.9893 164.049 93.4854 162.878C92.9815 161.693 92.7295 160.317 92.7295 158.751C92.7295 157.185 92.9815 155.816 93.4854 154.645C93.9893 153.46 94.6908 152.54 95.5897 151.887C96.4886 151.233 97.5442 150.906 98.7564 150.906C99.9686 150.906 101.024 151.233 101.923 151.887C102.822 152.54 103.523 153.46 104.027 154.645C104.545 155.816 104.804 157.185 104.804 158.751C104.804 160.317 104.552 161.693 104.048 162.878C103.544 164.063 102.836 164.982 101.923 165.636C101.024 166.29 99.9754 166.617 98.7768 166.617ZM98.7768 164.758C99.594 164.758 100.302 164.512 100.902 164.022C101.501 163.518 101.964 162.817 102.291 161.918C102.631 161.019 102.802 159.963 102.802 158.751C102.802 157.539 102.631 156.483 102.291 155.584C101.964 154.685 101.494 153.991 100.881 153.501C100.282 153.01 99.5736 152.765 98.7564 152.765C97.9392 152.765 97.2309 153.01 96.6317 153.501C96.0324 153.991 95.5625 154.685 95.222 155.584C94.8951 156.483 94.7316 157.539 94.7316 158.751C94.7316 159.95 94.8951 160.998 95.222 161.897C95.5625 162.796 96.0324 163.498 96.6317 164.002C97.2446 164.506 97.9596 164.758 98.7768 164.758ZM113.561 166.617C112.349 166.617 111.286 166.29 110.374 165.636C109.475 164.969 108.773 164.049 108.269 162.878C107.765 161.693 107.513 160.317 107.513 158.751C107.513 157.185 107.765 155.816 108.269 154.645C108.773 153.46 109.475 152.54 110.374 151.887C111.273 151.233 112.328 150.906 113.54 150.906C114.753 150.906 115.808 151.233 116.707 151.887C117.606 152.54 118.307 153.46 118.811 154.645C119.329 155.816 119.588 157.185 119.588 158.751C119.588 160.317 119.336 161.693 118.832 162.878C118.328 164.063 117.62 164.982 116.707 165.636C115.808 166.29 114.759 166.617 113.561 166.617ZM113.561 164.758C114.378 164.758 115.086 164.512 115.686 164.022C116.285 163.518 116.748 162.817 117.075 161.918C117.415 161.019 117.586 159.963 117.586 158.751C117.586 157.539 117.415 156.483 117.075 155.584C116.748 154.685 116.278 153.991 115.665 153.501C115.066 153.01 114.358 152.765 113.54 152.765C112.723 152.765 112.015 153.01 111.416 153.501C110.816 153.991 110.346 154.685 110.006 155.584C109.679 156.483 109.516 157.539 109.516 158.751C109.516 159.95 109.679 160.998 110.006 161.897C110.346 162.796 110.816 163.498 111.416 164.002C112.029 164.506 112.744 164.758 113.561 164.758ZM125.931 170.458V155.36H127.79V157.73L127.545 157.26C127.954 156.606 128.512 156.088 129.22 155.707C129.929 155.312 130.739 155.115 131.651 155.115C132.687 155.115 133.613 155.366 134.43 155.87C135.261 156.374 135.915 157.062 136.391 157.934C136.868 158.792 137.106 159.773 137.106 160.876C137.106 161.952 136.868 162.926 136.391 163.797C135.915 164.669 135.261 165.357 134.43 165.861C133.613 166.365 132.68 166.617 131.631 166.617C130.746 166.617 129.935 166.419 129.2 166.024C128.478 165.629 127.92 165.071 127.525 164.349L127.831 164.022V170.458H125.931ZM131.488 164.778C132.183 164.778 132.802 164.608 133.347 164.267C133.892 163.927 134.314 163.464 134.614 162.878C134.927 162.279 135.084 161.611 135.084 160.876C135.084 160.113 134.927 159.446 134.614 158.874C134.314 158.288 133.892 157.825 133.347 157.484C132.802 157.13 132.183 156.953 131.488 156.953C130.793 156.953 130.167 157.123 129.608 157.464C129.064 157.805 128.628 158.274 128.301 158.874C127.988 159.459 127.831 160.127 127.831 160.876C127.831 161.611 127.988 162.279 128.301 162.878C128.628 163.464 129.064 163.927 129.608 164.267C130.167 164.608 130.793 164.778 131.488 164.778ZM139.598 166.372V155.36H141.457V157.607L141.191 157.26C141.464 156.565 141.9 156.034 142.499 155.666C143.098 155.298 143.772 155.115 144.521 155.115C145.379 155.115 146.149 155.353 146.83 155.83C147.525 156.306 148.001 156.933 148.26 157.709L147.729 157.73C148.015 156.872 148.498 156.225 149.179 155.789C149.86 155.339 150.616 155.115 151.447 155.115C152.21 155.115 152.898 155.292 153.511 155.646C154.137 156 154.634 156.49 155.002 157.117C155.37 157.743 155.554 158.451 155.554 159.241V166.372H153.633V159.854C153.633 159.241 153.524 158.724 153.306 158.302C153.088 157.879 152.789 157.553 152.407 157.321C152.04 157.076 151.604 156.953 151.1 156.953C150.61 156.953 150.167 157.076 149.772 157.321C149.391 157.553 149.084 157.886 148.853 158.322C148.635 158.744 148.526 159.255 148.526 159.854V166.372H146.605V159.854C146.605 159.241 146.496 158.724 146.278 158.302C146.06 157.879 145.761 157.553 145.379 157.321C145.012 157.076 144.576 156.953 144.072 156.953C143.582 156.953 143.139 157.076 142.744 157.321C142.363 157.553 142.056 157.886 141.825 158.322C141.607 158.744 141.498 159.255 141.498 159.854V166.372H139.598Z" fill="#191921"/>
</g>
<rect x="195.588" y="131.697" width="132.535" height="52.3488" rx="11.6744" fill="#D9D9EB"/>
<path d="M228.005 166.617C227.024 166.617 226.153 166.399 225.39 165.963C224.641 165.527 224.048 164.935 223.613 164.186C223.177 163.423 222.959 162.558 222.959 161.591C222.959 161.06 223.02 160.535 223.143 160.018C223.265 159.5 223.463 158.976 223.735 158.445C224.008 157.913 224.355 157.362 224.777 156.79L229.067 151.151H231.478L226.228 157.975L225.86 157.934C226.064 157.661 226.289 157.45 226.534 157.301C226.793 157.151 227.065 157.042 227.351 156.974C227.651 156.906 227.964 156.872 228.291 156.872C229.19 156.872 229.994 157.083 230.702 157.505C231.424 157.913 231.989 158.479 232.398 159.201C232.82 159.922 233.031 160.753 233.031 161.693C233.031 162.633 232.813 163.477 232.377 164.226C231.941 164.962 231.342 165.548 230.579 165.983C229.83 166.406 228.972 166.617 228.005 166.617ZM228.005 164.819C228.577 164.819 229.088 164.689 229.537 164.431C229.987 164.158 230.341 163.784 230.6 163.307C230.872 162.83 231.008 162.299 231.008 161.713C231.008 161.101 230.879 160.569 230.62 160.12C230.361 159.657 230.007 159.289 229.558 159.017C229.108 158.744 228.591 158.608 228.005 158.608C227.433 158.608 226.915 158.744 226.452 159.017C225.989 159.289 225.628 159.657 225.37 160.12C225.111 160.569 224.981 161.101 224.981 161.713C224.981 162.299 225.111 162.83 225.37 163.307C225.642 163.784 226.003 164.158 226.452 164.431C226.915 164.689 227.433 164.819 228.005 164.819ZM236.333 166.372V163.92H238.315V166.372H236.333ZM236.333 157.811V155.36H238.315V157.811H236.333ZM246.576 166.617C245.773 166.617 245.024 166.474 244.329 166.188C243.635 165.902 243.035 165.5 242.531 164.982C242.027 164.451 241.653 163.825 241.408 163.103L243.103 162.408C243.389 163.171 243.839 163.763 244.452 164.186C245.065 164.608 245.773 164.819 246.576 164.819C247.203 164.819 247.761 164.696 248.252 164.451C248.742 164.206 249.123 163.852 249.396 163.389C249.682 162.926 249.825 162.367 249.825 161.713C249.825 161.046 249.682 160.488 249.396 160.038C249.123 159.575 248.742 159.221 248.252 158.976C247.761 158.731 247.196 158.608 246.556 158.608C246.352 158.608 246.127 158.622 245.882 158.649C245.65 158.676 245.453 158.717 245.289 158.772L244.86 157.852L248.926 152.888H242.184V151.151H251.194V152.826L247.312 157.607L247.189 157.076C248.102 157.103 248.906 157.314 249.6 157.709C250.295 158.104 250.84 158.642 251.235 159.323C251.63 159.991 251.827 160.774 251.827 161.673C251.827 162.599 251.602 163.436 251.153 164.186C250.703 164.935 250.084 165.527 249.294 165.963C248.504 166.399 247.598 166.617 246.576 166.617ZM260.456 166.617C259.244 166.617 258.181 166.29 257.269 165.636C256.37 164.969 255.668 164.049 255.164 162.878C254.66 161.693 254.408 160.317 254.408 158.751C254.408 157.185 254.66 155.816 255.164 154.645C255.668 153.46 256.37 152.54 257.269 151.887C258.168 151.233 259.223 150.906 260.435 150.906C261.648 150.906 262.703 151.233 263.602 151.887C264.501 152.54 265.202 153.46 265.706 154.645C266.224 155.816 266.483 157.185 266.483 158.751C266.483 160.317 266.231 161.693 265.727 162.878C265.223 164.063 264.515 164.982 263.602 165.636C262.703 166.29 261.654 166.617 260.456 166.617ZM260.456 164.758C261.273 164.758 261.981 164.512 262.581 164.022C263.18 163.518 263.643 162.817 263.97 161.918C264.31 161.019 264.481 159.963 264.481 158.751C264.481 157.539 264.31 156.483 263.97 155.584C263.643 154.685 263.173 153.991 262.56 153.501C261.961 153.01 261.253 152.765 260.435 152.765C259.618 152.765 258.91 153.01 258.311 153.501C257.711 153.991 257.241 154.685 256.901 155.584C256.574 156.483 256.411 157.539 256.411 158.751C256.411 159.95 256.574 160.998 256.901 161.897C257.241 162.796 257.711 163.498 258.311 164.002C258.924 164.506 259.639 164.758 260.456 164.758ZM276.054 166.617C275.332 166.617 274.692 166.487 274.134 166.229C273.589 165.956 273.16 165.588 272.846 165.125C272.533 164.649 272.377 164.104 272.377 163.491C272.377 162.905 272.499 162.381 272.744 161.918C273.003 161.441 273.398 161.039 273.929 160.712C274.474 160.386 275.155 160.154 275.972 160.018L280.058 159.344V160.937L276.401 161.55C275.693 161.673 275.175 161.897 274.849 162.224C274.535 162.551 274.379 162.953 274.379 163.43C274.379 163.879 274.556 164.254 274.91 164.553C275.278 164.853 275.734 165.003 276.279 165.003C276.973 165.003 277.573 164.86 278.077 164.574C278.594 164.274 278.996 163.872 279.282 163.368C279.582 162.864 279.731 162.306 279.731 161.693V158.894C279.731 158.295 279.507 157.811 279.057 157.444C278.621 157.062 278.043 156.872 277.321 156.872C276.694 156.872 276.136 157.035 275.645 157.362C275.169 157.675 274.815 158.097 274.583 158.629L272.928 157.77C273.132 157.267 273.459 156.817 273.909 156.422C274.358 156.013 274.883 155.693 275.482 155.462C276.081 155.23 276.708 155.115 277.361 155.115C278.206 155.115 278.948 155.278 279.588 155.605C280.229 155.918 280.726 156.361 281.08 156.933C281.448 157.491 281.631 158.145 281.631 158.894V166.372H279.772V164.288L280.12 164.41C279.888 164.846 279.575 165.227 279.18 165.554C278.785 165.881 278.322 166.14 277.791 166.331C277.259 166.521 276.68 166.617 276.054 166.617ZM284.577 166.372V155.36H286.437V157.607L286.171 157.26C286.443 156.565 286.879 156.034 287.478 155.666C288.078 155.298 288.752 155.115 289.501 155.115C290.359 155.115 291.129 155.353 291.81 155.83C292.504 156.306 292.981 156.933 293.24 157.709L292.709 157.73C292.995 156.872 293.478 156.225 294.159 155.789C294.84 155.339 295.596 155.115 296.427 155.115C297.19 155.115 297.877 155.292 298.49 155.646C299.117 156 299.614 156.49 299.982 157.117C300.35 157.743 300.533 158.451 300.533 159.241V166.372H298.613V159.854C298.613 159.241 298.504 158.724 298.286 158.302C298.068 157.879 297.768 157.553 297.387 157.321C297.019 157.076 296.584 156.953 296.08 156.953C295.589 156.953 295.147 157.076 294.752 157.321C294.37 157.553 294.064 157.886 293.832 158.322C293.614 158.744 293.505 159.255 293.505 159.854V166.372H291.585V159.854C291.585 159.241 291.476 158.724 291.258 158.302C291.04 157.879 290.74 157.553 290.359 157.321C289.991 157.076 289.556 156.953 289.052 156.953C288.561 156.953 288.119 157.076 287.724 157.321C287.342 157.553 287.036 157.886 286.804 158.322C286.586 158.744 286.477 159.255 286.477 159.854V166.372H284.577Z" fill="#37374A"/>
<rect x="339.797" y="131.697" width="136.535" height="52.3488" rx="11.6744" fill="#D9D9EB"/>
<path d="M367.638 166.372L374.319 152.888H366.862V151.151H376.423V152.888L369.804 166.372H367.638ZM379.505 166.372V163.92H381.487V166.372H379.505ZM379.505 157.811V155.36H381.487V157.811H379.505ZM391.158 166.617C389.946 166.617 388.883 166.29 387.971 165.636C387.072 164.969 386.37 164.049 385.867 162.878C385.363 161.693 385.111 160.317 385.111 158.751C385.111 157.185 385.363 155.816 385.867 154.645C386.37 153.46 387.072 152.54 387.971 151.887C388.87 151.233 389.925 150.906 391.138 150.906C392.35 150.906 393.405 151.233 394.304 151.887C395.203 152.54 395.905 153.46 396.409 154.645C396.926 155.816 397.185 157.185 397.185 158.751C397.185 160.317 396.933 161.693 396.429 162.878C395.925 164.063 395.217 164.982 394.304 165.636C393.405 166.29 392.357 166.617 391.158 166.617ZM391.158 164.758C391.975 164.758 392.683 164.512 393.283 164.022C393.882 163.518 394.345 162.817 394.672 161.918C395.012 161.019 395.183 159.963 395.183 158.751C395.183 157.539 395.012 156.483 394.672 155.584C394.345 154.685 393.875 153.991 393.262 153.501C392.663 153.01 391.955 152.765 391.138 152.765C390.32 152.765 389.612 153.01 389.013 153.501C388.413 153.991 387.944 154.685 387.603 155.584C387.276 156.483 387.113 157.539 387.113 158.751C387.113 159.95 387.276 160.998 387.603 161.897C387.944 162.796 388.413 163.498 389.013 164.002C389.626 164.506 390.341 164.758 391.158 164.758ZM405.942 166.617C404.73 166.617 403.667 166.29 402.755 165.636C401.856 164.969 401.154 164.049 400.65 162.878C400.147 161.693 399.895 160.317 399.895 158.751C399.895 157.185 400.147 155.816 400.65 154.645C401.154 153.46 401.856 152.54 402.755 151.887C403.654 151.233 404.709 150.906 405.921 150.906C407.134 150.906 408.189 151.233 409.088 151.887C409.987 152.54 410.689 153.46 411.192 154.645C411.71 155.816 411.969 157.185 411.969 158.751C411.969 160.317 411.717 161.693 411.213 162.878C410.709 164.063 410.001 164.982 409.088 165.636C408.189 166.29 407.14 166.617 405.942 166.617ZM405.942 164.758C406.759 164.758 407.467 164.512 408.067 164.022C408.666 163.518 409.129 162.817 409.456 161.918C409.796 161.019 409.967 159.963 409.967 158.751C409.967 157.539 409.796 156.483 409.456 155.584C409.129 154.685 408.659 153.991 408.046 153.501C407.447 153.01 406.739 152.765 405.921 152.765C405.104 152.765 404.396 153.01 403.797 153.501C403.197 153.991 402.728 154.685 402.387 155.584C402.06 156.483 401.897 157.539 401.897 158.751C401.897 159.95 402.06 160.998 402.387 161.897C402.728 162.796 403.197 163.498 403.797 164.002C404.41 164.506 405.125 164.758 405.942 164.758ZM418.312 170.458V155.36H420.171V157.73L419.926 157.26C420.335 156.606 420.893 156.088 421.601 155.707C422.31 155.312 423.12 155.115 424.033 155.115C425.068 155.115 425.994 155.366 426.811 155.87C427.642 156.374 428.296 157.062 428.772 157.934C429.249 158.792 429.487 159.773 429.487 160.876C429.487 161.952 429.249 162.926 428.772 163.797C428.296 164.669 427.642 165.357 426.811 165.861C425.994 166.365 425.061 166.617 424.012 166.617C423.127 166.617 422.316 166.419 421.581 166.024C420.859 165.629 420.301 165.071 419.906 164.349L420.212 164.022V170.458H418.312ZM423.869 164.778C424.564 164.778 425.183 164.608 425.728 164.267C426.273 163.927 426.695 163.464 426.995 162.878C427.308 162.279 427.465 161.611 427.465 160.876C427.465 160.113 427.308 159.446 426.995 158.874C426.695 158.288 426.273 157.825 425.728 157.484C425.183 157.13 424.564 156.953 423.869 156.953C423.175 156.953 422.548 157.123 421.99 157.464C421.445 157.805 421.009 158.274 420.682 158.874C420.369 159.459 420.212 160.127 420.212 160.876C420.212 161.611 420.369 162.279 420.682 162.878C421.009 163.464 421.445 163.927 421.99 164.267C422.548 164.608 423.175 164.778 423.869 164.778ZM431.979 166.372V155.36H433.838V157.607L433.572 157.26C433.845 156.565 434.281 156.034 434.88 155.666C435.479 155.298 436.153 155.115 436.903 155.115C437.761 155.115 438.53 155.353 439.211 155.83C439.906 156.306 440.382 156.933 440.641 157.709L440.11 157.73C440.396 156.872 440.88 156.225 441.561 155.789C442.242 155.339 442.998 155.115 443.828 155.115C444.591 155.115 445.279 155.292 445.892 155.646C446.518 156 447.015 156.49 447.383 157.117C447.751 157.743 447.935 158.451 447.935 159.241V166.372H446.014V159.854C446.014 159.241 445.905 158.724 445.688 158.302C445.47 157.879 445.17 157.553 444.789 157.321C444.421 157.076 443.985 156.953 443.481 156.953C442.991 156.953 442.548 157.076 442.153 157.321C441.772 157.553 441.465 157.886 441.234 158.322C441.016 158.744 440.907 159.255 440.907 159.854V166.372H438.986V159.854C438.986 159.241 438.877 158.724 438.66 158.302C438.442 157.879 438.142 157.553 437.761 157.321C437.393 157.076 436.957 156.953 436.453 156.953C435.963 156.953 435.52 157.076 435.125 157.321C434.744 157.553 434.437 157.886 434.206 158.322C433.988 158.744 433.879 159.255 433.879 159.854V166.372H431.979Z" fill="#37374A"/>
</svg>
