<svg width="257" height="255" viewBox="0 0 257 255" fill="none" xmlns="http://www.w3.org/2000/svg">
<rect x="0.148438" width="256.021" height="255" rx="22.4176" fill="#EDEDF6"/>
<path d="M156.181 122.217H100.137C98.9883 122.217 98.0355 121.264 98.0355 120.115C98.0355 118.966 98.9883 118.014 100.137 118.014H156.181C157.33 118.014 158.283 118.966 158.283 120.115C158.283 121.264 157.33 122.217 156.181 122.217Z" fill="#0D0E14"/>
<path d="M153.379 122.217H102.939C101.79 122.217 100.838 121.264 100.838 120.115V75.2802C100.838 66.8175 105.685 61.9697 114.148 61.9697H142.17C150.633 61.9697 155.481 66.8175 155.481 75.2802V120.115C155.481 121.264 154.528 122.217 153.379 122.217ZM105.041 118.014H151.277V75.2802C151.277 69.0593 148.391 66.173 142.17 66.173H114.148C107.927 66.173 105.041 69.0593 105.041 75.2802V118.014Z" fill="#0D0E14"/>
<path d="M136.566 122.217H119.753C118.604 122.217 117.651 121.264 117.651 120.115V103.134C117.651 100.528 119.781 98.3984 122.387 98.3984H133.96C136.566 98.3984 138.695 100.528 138.695 103.134V120.115C138.667 121.264 137.715 122.217 136.566 122.217ZM121.854 118.014H134.464V103.134C134.464 102.854 134.24 102.602 133.932 102.602H122.359C122.078 102.602 121.826 102.826 121.826 103.134V118.014H121.854Z" fill="#0D0E14"/>
<path d="M128.159 91.393C127.01 91.393 126.057 90.4402 126.057 89.2913V75.2804C126.057 74.1315 127.01 73.1787 128.159 73.1787C129.308 73.1787 130.261 74.1315 130.261 75.2804V89.2913C130.261 90.4402 129.308 91.393 128.159 91.393Z" fill="#0D0E14"/>
<path d="M135.165 84.3869H121.154C120.005 84.3869 119.052 83.4341 119.052 82.2852C119.052 81.1363 120.005 80.1836 121.154 80.1836H135.165C136.314 80.1836 137.266 81.1363 137.266 82.2852C137.266 83.4341 136.314 84.3869 135.165 84.3869Z" fill="#0D0E14"/>
<path d="M74.0829 164.533L68.9829 149.92H71.8859L75.8875 162.022H75.3186L79.3202 149.92H82.2232L77.1429 164.533H74.0829ZM87.7246 164.769C86.6261 164.769 85.665 164.52 84.8411 164.023C84.0173 163.526 83.3765 162.853 82.9188 162.003C82.4611 161.153 82.2323 160.211 82.2323 159.178C82.2323 158.106 82.4611 157.158 82.9188 156.334C83.3896 155.497 84.0238 154.837 84.8215 154.353C85.6323 153.869 86.5346 153.627 87.5284 153.627C88.3654 153.627 89.0977 153.764 89.7254 154.039C90.3661 154.314 90.9088 154.693 91.3534 155.177C91.7981 155.661 92.1381 156.216 92.3734 156.844C92.6088 157.459 92.7265 158.126 92.7265 158.845C92.7265 159.028 92.7134 159.217 92.6873 159.414C92.6742 159.61 92.6415 159.78 92.5892 159.924H84.3507V157.962H91.1377L89.9215 158.884C90.0392 158.282 90.0065 157.746 89.8234 157.276C89.6534 156.805 89.3657 156.432 88.9604 156.157C88.5681 155.883 88.0907 155.746 87.5284 155.746C86.9923 155.746 86.515 155.883 86.0965 156.157C85.6781 156.419 85.3577 156.811 85.1354 157.334C84.9261 157.844 84.8477 158.466 84.9 159.198C84.8477 159.852 84.9327 160.434 85.155 160.944C85.3904 161.441 85.7304 161.826 86.175 162.101C86.6327 162.376 87.1557 162.513 87.7442 162.513C88.3327 162.513 88.8296 162.389 89.235 162.14C89.6534 161.892 89.9804 161.558 90.2157 161.14L92.295 162.16C92.0857 162.67 91.7588 163.121 91.3142 163.513C90.8696 163.906 90.34 164.213 89.7254 164.435C89.1238 164.657 88.4569 164.769 87.7246 164.769ZM99.539 164.651C98.336 164.651 97.401 164.324 96.734 163.67C96.0802 163.003 95.7533 162.068 95.7533 160.865V156.157H93.9094V153.862H94.1056C94.6286 153.862 95.034 153.725 95.3217 153.451C95.6094 153.176 95.7533 152.777 95.7533 152.254V151.43H98.3229V153.862H100.775V156.157H98.3229V160.728C98.3229 161.081 98.3817 161.382 98.4994 161.63C98.6302 161.879 98.8263 162.068 99.0879 162.199C99.3625 162.33 99.709 162.395 100.127 162.395C100.219 162.395 100.324 162.389 100.441 162.376C100.572 162.362 100.696 162.349 100.814 162.336V164.533C100.631 164.559 100.422 164.586 100.186 164.612C99.951 164.638 99.7352 164.651 99.539 164.651ZM107.742 164.769C106.644 164.769 105.683 164.52 104.859 164.023C104.035 163.526 103.394 162.853 102.936 162.003C102.479 161.153 102.25 160.211 102.25 159.178C102.25 158.106 102.479 157.158 102.936 156.334C103.407 155.497 104.041 154.837 104.839 154.353C105.65 153.869 106.552 153.627 107.546 153.627C108.383 153.627 109.115 153.764 109.743 154.039C110.384 154.314 110.926 154.693 111.371 155.177C111.816 155.661 112.156 156.216 112.391 156.844C112.626 157.459 112.744 158.126 112.744 158.845C112.744 159.028 112.731 159.217 112.705 159.414C112.692 159.61 112.659 159.78 112.607 159.924H104.368V157.962H111.155L109.939 158.884C110.057 158.282 110.024 157.746 109.841 157.276C109.671 156.805 109.383 156.432 108.978 156.157C108.586 155.883 108.108 155.746 107.546 155.746C107.01 155.746 106.533 155.883 106.114 156.157C105.696 156.419 105.375 156.811 105.153 157.334C104.944 157.844 104.865 158.466 104.918 159.198C104.865 159.852 104.95 160.434 105.173 160.944C105.408 161.441 105.748 161.826 106.193 162.101C106.65 162.376 107.173 162.513 107.762 162.513C108.35 162.513 108.847 162.389 109.253 162.14C109.671 161.892 109.998 161.558 110.233 161.14L112.313 162.16C112.103 162.67 111.776 163.121 111.332 163.513C110.887 163.906 110.358 164.213 109.743 164.435C109.141 164.657 108.475 164.769 107.742 164.769ZM114.692 164.533V153.862H117.105V156.236L116.909 155.883C117.157 155.085 117.543 154.529 118.066 154.216C118.602 153.902 119.243 153.745 119.988 153.745H120.616V156.02H119.694C118.962 156.02 118.373 156.249 117.929 156.707C117.484 157.151 117.262 157.779 117.262 158.59V164.533H114.692ZM122.029 164.533V153.862H124.598V164.533H122.029ZM122.029 152.666V149.92H124.598V152.666H122.029ZM126.971 164.533V153.862H129.384V155.961L129.187 155.589C129.436 154.948 129.841 154.464 130.404 154.137C130.979 153.797 131.646 153.627 132.404 153.627C133.189 153.627 133.882 153.797 134.484 154.137C135.098 154.477 135.575 154.954 135.915 155.569C136.255 156.171 136.425 156.87 136.425 157.668V164.533H133.856V158.276C133.856 157.805 133.764 157.4 133.581 157.06C133.398 156.72 133.143 156.458 132.816 156.275C132.502 156.079 132.13 155.981 131.698 155.981C131.28 155.981 130.907 156.079 130.58 156.275C130.253 156.458 129.998 156.72 129.815 157.06C129.632 157.4 129.54 157.805 129.54 158.276V164.533H126.971ZM141.835 164.769C141.089 164.769 140.442 164.644 139.893 164.396C139.344 164.147 138.919 163.794 138.618 163.337C138.317 162.866 138.167 162.323 138.167 161.709C138.167 161.12 138.298 160.597 138.559 160.139C138.821 159.669 139.226 159.276 139.775 158.962C140.324 158.649 141.018 158.426 141.854 158.296L145.346 157.727V159.688L142.345 160.198C141.835 160.29 141.456 160.453 141.207 160.689C140.959 160.924 140.834 161.231 140.834 161.611C140.834 161.977 140.972 162.271 141.246 162.493C141.534 162.702 141.887 162.807 142.306 162.807C142.842 162.807 143.313 162.696 143.718 162.474C144.136 162.238 144.457 161.918 144.679 161.512C144.914 161.107 145.032 160.662 145.032 160.179V157.432C145.032 156.975 144.849 156.596 144.483 156.295C144.13 155.981 143.659 155.824 143.071 155.824C142.521 155.824 142.031 155.974 141.599 156.275C141.181 156.563 140.874 156.949 140.678 157.432L138.579 156.412C138.788 155.85 139.115 155.366 139.559 154.961C140.017 154.542 140.553 154.216 141.168 153.98C141.783 153.745 142.449 153.627 143.169 153.627C144.045 153.627 144.816 153.791 145.483 154.117C146.15 154.431 146.667 154.876 147.033 155.451C147.412 156.014 147.602 156.674 147.602 157.432V164.533H145.169V162.709L145.719 162.67C145.444 163.127 145.117 163.513 144.738 163.827C144.359 164.128 143.927 164.363 143.443 164.533C142.959 164.69 142.423 164.769 141.835 164.769ZM149.977 164.533V153.862H152.389V156.236L152.193 155.883C152.442 155.085 152.828 154.529 153.351 154.216C153.887 153.902 154.528 153.745 155.273 153.745H155.901V156.02H154.979C154.246 156.02 153.658 156.249 153.213 156.707C152.769 157.151 152.546 157.779 152.546 158.59V164.533H149.977ZM157.313 164.533V153.862H159.883V164.533H157.313ZM157.313 152.666V149.92H159.883V152.666H157.313ZM165.492 164.769C164.747 164.769 164.099 164.644 163.55 164.396C163.001 164.147 162.576 163.794 162.275 163.337C161.974 162.866 161.824 162.323 161.824 161.709C161.824 161.12 161.955 160.597 162.216 160.139C162.478 159.669 162.883 159.276 163.432 158.962C163.982 158.649 164.675 158.426 165.512 158.296L169.003 157.727V159.688L166.002 160.198C165.492 160.29 165.113 160.453 164.864 160.689C164.616 160.924 164.492 161.231 164.492 161.611C164.492 161.977 164.629 162.271 164.904 162.493C165.191 162.702 165.544 162.807 165.963 162.807C166.499 162.807 166.97 162.696 167.375 162.474C167.794 162.238 168.114 161.918 168.336 161.512C168.572 161.107 168.689 160.662 168.689 160.179V157.432C168.689 156.975 168.506 156.596 168.14 156.295C167.787 155.981 167.316 155.824 166.728 155.824C166.179 155.824 165.688 155.974 165.257 156.275C164.838 156.563 164.531 156.949 164.335 157.432L162.236 156.412C162.445 155.85 162.772 155.366 163.217 154.961C163.674 154.542 164.211 154.216 164.825 153.98C165.44 153.745 166.107 153.627 166.826 153.627C167.702 153.627 168.474 153.791 169.141 154.117C169.807 154.431 170.324 154.876 170.69 155.451C171.069 156.014 171.259 156.674 171.259 157.432V164.533H168.827V162.709L169.376 162.67C169.101 163.127 168.774 163.513 168.395 163.827C168.016 164.128 167.584 164.363 167.101 164.533C166.617 164.69 166.081 164.769 165.492 164.769ZM173.634 164.533V153.862H176.047V155.961L175.851 155.589C176.099 154.948 176.504 154.464 177.067 154.137C177.642 153.797 178.309 153.627 179.067 153.627C179.852 153.627 180.545 153.797 181.147 154.137C181.761 154.477 182.239 154.954 182.579 155.569C182.919 156.171 183.089 156.87 183.089 157.668V164.533H180.519V158.276C180.519 157.805 180.427 157.4 180.244 157.06C180.061 156.72 179.806 156.458 179.479 156.275C179.166 156.079 178.793 155.981 178.361 155.981C177.943 155.981 177.57 156.079 177.243 156.275C176.916 156.458 176.661 156.72 176.478 157.06C176.295 157.4 176.204 157.805 176.204 158.276V164.533H173.634ZM93.729 191.769C92.8006 191.769 91.9375 191.599 91.1398 191.259C90.3552 190.919 89.6752 190.448 89.0998 189.846C88.5375 189.232 88.1256 188.519 87.864 187.708L90.0806 186.747C90.4337 187.584 90.9437 188.244 91.6106 188.728C92.2775 189.199 93.0294 189.434 93.8664 189.434C94.3371 189.434 94.7425 189.362 95.0825 189.219C95.4356 189.062 95.7037 188.852 95.8867 188.591C96.0829 188.329 96.181 188.016 96.181 187.649C96.181 187.218 96.0502 186.865 95.7887 186.59C95.5402 186.302 95.161 186.08 94.651 185.923L91.846 185.021C90.7083 184.668 89.8517 184.138 89.2764 183.432C88.701 182.726 88.4133 181.896 88.4133 180.941C88.4133 180.104 88.616 179.365 89.0214 178.724C89.4398 178.084 90.0152 177.587 90.7475 177.234C91.4929 176.867 92.3429 176.684 93.2975 176.684C94.1737 176.684 94.9779 176.841 95.7102 177.155C96.4425 177.456 97.0702 177.881 97.5933 178.43C98.1294 178.966 98.5283 179.601 98.7898 180.333L96.5929 181.314C96.3052 180.581 95.8737 180.019 95.2983 179.627C94.7229 179.221 94.056 179.019 93.2975 179.019C92.8529 179.019 92.4606 179.097 92.1206 179.254C91.7806 179.398 91.5125 179.607 91.3164 179.882C91.1333 180.143 91.0417 180.457 91.0417 180.823C91.0417 181.229 91.1725 181.588 91.434 181.902C91.6956 182.203 92.0944 182.438 92.6306 182.608L95.3179 183.452C96.4817 183.831 97.3514 184.354 97.9267 185.021C98.5152 185.688 98.8094 186.512 98.8094 187.492C98.8094 188.329 98.5937 189.068 98.1621 189.709C97.7306 190.35 97.1356 190.853 96.3771 191.219C95.6187 191.586 94.736 191.769 93.729 191.769ZM106.057 191.769C104.958 191.769 103.997 191.52 103.173 191.023C102.349 190.526 101.708 189.853 101.251 189.003C100.793 188.153 100.564 187.211 100.564 186.178C100.564 185.106 100.793 184.158 101.251 183.334C101.722 182.497 102.356 181.837 103.153 181.353C103.964 180.869 104.867 180.627 105.86 180.627C106.697 180.627 107.43 180.764 108.057 181.039C108.698 181.314 109.241 181.693 109.685 182.177C110.13 182.661 110.47 183.216 110.705 183.844C110.941 184.459 111.058 185.126 111.058 185.845C111.058 186.028 111.045 186.217 111.019 186.414C111.006 186.61 110.973 186.78 110.921 186.924H102.683V184.962H109.47L108.253 185.884C108.371 185.282 108.338 184.746 108.155 184.276C107.985 183.805 107.698 183.432 107.292 183.157C106.9 182.883 106.423 182.746 105.86 182.746C105.324 182.746 104.847 182.883 104.428 183.157C104.01 183.419 103.69 183.811 103.467 184.334C103.258 184.844 103.18 185.466 103.232 186.198C103.18 186.852 103.265 187.434 103.487 187.944C103.722 188.441 104.062 188.826 104.507 189.101C104.965 189.376 105.488 189.513 106.076 189.513C106.665 189.513 107.162 189.389 107.567 189.14C107.985 188.892 108.312 188.558 108.548 188.14L110.627 189.16C110.418 189.67 110.091 190.121 109.646 190.513C109.202 190.906 108.672 191.213 108.057 191.435C107.456 191.657 106.789 191.769 106.057 191.769ZM113.006 191.533V180.862H115.419V183.236L115.223 182.883C115.471 182.085 115.857 181.529 116.38 181.216C116.916 180.902 117.557 180.745 118.303 180.745H118.93V183.02H118.008C117.276 183.02 116.688 183.249 116.243 183.707C115.798 184.151 115.576 184.779 115.576 185.59V191.533H113.006ZM123.56 191.533L119.362 180.862H122.167L125.208 189.258H124.168L127.228 180.862H130.033L125.835 191.533H123.56ZM131.453 191.533V180.862H134.023V191.533H131.453ZM131.453 179.666V176.92H134.023V179.666H131.453ZM141.535 191.769C140.475 191.769 139.521 191.527 138.671 191.043C137.834 190.546 137.173 189.879 136.69 189.042C136.206 188.192 135.964 187.237 135.964 186.178C135.964 185.119 136.206 184.171 136.69 183.334C137.173 182.497 137.834 181.837 138.671 181.353C139.521 180.869 140.475 180.627 141.535 180.627C142.293 180.627 142.999 180.764 143.653 181.039C144.307 181.301 144.869 181.667 145.34 182.137C145.824 182.595 146.17 183.144 146.38 183.785L144.124 184.766C143.928 184.23 143.594 183.798 143.123 183.471C142.666 183.144 142.136 182.981 141.535 182.981C140.972 182.981 140.469 183.118 140.024 183.393C139.593 183.667 139.253 184.047 139.004 184.531C138.756 185.014 138.632 185.57 138.632 186.198C138.632 186.826 138.756 187.381 139.004 187.865C139.253 188.349 139.593 188.728 140.024 189.003C140.469 189.277 140.972 189.415 141.535 189.415C142.149 189.415 142.685 189.251 143.143 188.924C143.601 188.597 143.928 188.159 144.124 187.61L146.38 188.63C146.17 189.232 145.83 189.774 145.36 190.258C144.889 190.729 144.327 191.102 143.673 191.376C143.019 191.638 142.306 191.769 141.535 191.769ZM153.39 191.769C152.292 191.769 151.331 191.52 150.507 191.023C149.683 190.526 149.042 189.853 148.584 189.003C148.127 188.153 147.898 187.211 147.898 186.178C147.898 185.106 148.127 184.158 148.584 183.334C149.055 182.497 149.689 181.837 150.487 181.353C151.298 180.869 152.2 180.627 153.194 180.627C154.031 180.627 154.763 180.764 155.391 181.039C156.032 181.314 156.574 181.693 157.019 182.177C157.464 182.661 157.804 183.216 158.039 183.844C158.274 184.459 158.392 185.126 158.392 185.845C158.392 186.028 158.379 186.217 158.353 186.414C158.34 186.61 158.307 186.78 158.255 186.924H150.016V184.962H156.803L155.587 185.884C155.705 185.282 155.672 184.746 155.489 184.276C155.319 183.805 155.031 183.432 154.626 183.157C154.234 182.883 153.756 182.746 153.194 182.746C152.658 182.746 152.181 182.883 151.762 183.157C151.344 183.419 151.023 183.811 150.801 184.334C150.592 184.844 150.513 185.466 150.566 186.198C150.513 186.852 150.598 187.434 150.821 187.944C151.056 188.441 151.396 188.826 151.841 189.101C152.298 189.376 152.821 189.513 153.41 189.513C153.998 189.513 154.495 189.389 154.901 189.14C155.319 188.892 155.646 188.558 155.881 188.14L157.961 189.16C157.751 189.67 157.424 190.121 156.98 190.513C156.535 190.906 156.006 191.213 155.391 191.435C154.789 191.657 154.122 191.769 153.39 191.769ZM164.4 191.769C163.263 191.769 162.269 191.501 161.419 190.964C160.582 190.415 160.007 189.676 159.693 188.748L161.615 187.826C161.89 188.427 162.269 188.898 162.753 189.238C163.25 189.578 163.799 189.748 164.4 189.748C164.871 189.748 165.244 189.644 165.518 189.434C165.793 189.225 165.93 188.951 165.93 188.611C165.93 188.401 165.872 188.231 165.754 188.101C165.649 187.957 165.499 187.839 165.303 187.747C165.12 187.643 164.917 187.558 164.695 187.492L162.949 187.002C162.047 186.741 161.36 186.342 160.889 185.806C160.432 185.269 160.203 184.635 160.203 183.903C160.203 183.249 160.366 182.68 160.693 182.196C161.033 181.699 161.497 181.314 162.086 181.039C162.687 180.764 163.374 180.627 164.145 180.627C165.152 180.627 166.042 180.869 166.813 181.353C167.585 181.837 168.134 182.517 168.461 183.393L166.499 184.315C166.316 183.831 166.009 183.445 165.577 183.157C165.146 182.87 164.662 182.726 164.126 182.726C163.694 182.726 163.354 182.824 163.106 183.02C162.857 183.216 162.733 183.471 162.733 183.785C162.733 183.981 162.785 184.151 162.89 184.295C162.995 184.439 163.138 184.557 163.322 184.648C163.518 184.74 163.74 184.825 163.988 184.903L165.695 185.413C166.571 185.675 167.245 186.067 167.715 186.59C168.199 187.113 168.441 187.754 168.441 188.512C168.441 189.153 168.271 189.722 167.931 190.219C167.591 190.703 167.12 191.082 166.519 191.357C165.917 191.631 165.211 191.769 164.4 191.769Z" fill="#0D0E14"/>
</svg>
