<svg width="40" height="40" viewBox="0 0 40 40" fill="none" xmlns="http://www.w3.org/2000/svg">
<path fill-rule="evenodd" clip-rule="evenodd" d="M15.0001 11.25C14.6685 11.25 14.3506 11.1183 14.1162 10.8839C13.8818 10.6495 13.7501 10.3315 13.7501 10C13.7501 9.66848 13.8818 9.35054 14.1162 9.11612C14.3506 8.8817 14.6685 8.75 15.0001 8.75H30.0001C30.3316 8.75 30.6495 8.8817 30.884 9.11612C31.1184 9.35054 31.2501 9.66848 31.2501 10V25C31.2501 25.3315 31.1184 25.6495 30.884 25.8839C30.6495 26.1183 30.3316 26.25 30.0001 26.25C29.6685 26.25 29.3506 26.1183 29.1162 25.8839C28.8818 25.6495 28.7501 25.3315 28.7501 25V13.0167L10.8834 30.8833C10.6464 31.1041 10.333 31.2243 10.0092 31.2186C9.68536 31.2129 9.37639 31.0817 9.14737 30.8527C8.91834 30.6237 8.78716 30.3147 8.78144 29.9909C8.77573 29.667 8.89594 29.3536 9.11674 29.1167L26.9834 11.25H15.0001Z" fill="white"/>
</svg>
