<svg width="24" height="24" viewBox="0 0 24 24" fill="none" xmlns="http://www.w3.org/2000/svg">
<path d="M3.45738 11.7182C3.45738 12.2503 3.88822 12.6821 4.42124 12.6821H17.5161L15.306 14.8922C14.9292 15.269 14.9292 15.8783 15.306 16.2551C15.494 16.4431 15.7408 16.5375 15.9875 16.5375C16.2342 16.5375 16.481 16.4431 16.669 16.2551L20.5235 12.4006C20.6131 12.311 20.6835 12.2051 20.7327 12.0865C20.83 11.8513 20.83 11.5851 20.7327 11.35C20.6835 11.2314 20.6131 11.1255 20.5235 11.0358L16.669 7.18133C16.2921 6.80446 15.6829 6.80446 15.306 7.18133C14.9292 7.5582 14.9292 8.16742 15.306 8.54428L17.5161 10.7544H4.42124C3.88822 10.7544 3.45738 11.1862 3.45738 11.7182Z" fill="#29292B"/>
</svg>
