<svg width="27" height="28" viewBox="0 0 27 28" fill="none" xmlns="http://www.w3.org/2000/svg">
<path d="M23.6247 14.0001C23.6247 14.6211 23.1218 15.1251 22.4997 15.1251H7.2155L9.79509 17.7047C10.235 18.1445 10.235 18.8556 9.79509 19.2955C9.57571 19.5149 9.28768 19.6251 8.99968 19.6251C8.71168 19.6251 8.42364 19.5149 8.20427 19.2955L3.70537 14.7966C3.60074 14.692 3.51857 14.5683 3.4612 14.4299C3.34757 14.1554 3.34757 13.8447 3.4612 13.5702C3.51857 13.4319 3.60074 13.3082 3.70537 13.2036L8.20427 8.70466C8.64414 8.26479 9.35521 8.26479 9.79509 8.70466C10.235 9.14454 10.235 9.85561 9.79509 10.2955L7.2155 12.8751H22.4997C23.1218 12.8751 23.6247 13.3791 23.6247 14.0001Z" fill="#25314C"/>
</svg>
