<svg width="60" height="60" viewBox="0 0 60 60" fill="none" xmlns="http://www.w3.org/2000/svg">
<path d="M34.6029 36.3863L33.7838 37.2503C33.7838 37.2503 31.8342 39.3007 26.5147 33.7004C21.1952 28.1002 23.1448 26.0499 23.1448 26.0499L23.6614 25.5044C24.9323 24.1651 25.0529 22.0157 23.9422 20.446L21.674 17.2364C20.2987 15.2922 17.6434 15.0366 16.0682 16.6945L13.2438 19.6666C12.4643 20.4892 11.9422 21.5531 12.0052 22.7358C12.1673 25.76 13.4598 32.2639 20.6677 39.8551C28.3131 47.9018 35.4868 48.2222 38.4193 47.9324C39.3482 47.8424 40.1546 47.3401 40.8045 46.6561L43.3608 43.9631C45.0889 42.1449 44.6029 39.0307 42.3923 37.7598L38.9539 35.7796C37.503 34.9461 35.737 35.191 34.6029 36.3845" fill="white"/>
<path d="M39.0025 30.0004C40.9599 30.0001 42.8638 29.3617 44.4258 28.1821C45.9877 27.0024 47.1225 25.3457 47.6582 23.4631C48.194 21.5805 48.1014 19.5746 47.3945 17.7493C46.6876 15.9241 45.405 14.379 43.741 13.3482C42.077 12.3174 40.1224 11.8572 38.1733 12.0372C36.2242 12.2172 34.3869 13.0276 32.9399 14.3457C31.4928 15.6637 30.5148 17.4176 30.1542 19.3414C29.7936 21.2652 30.0699 23.2542 30.9413 25.0068C31.1061 25.3251 31.149 25.6925 31.0619 26.0401L30.5255 28.0437C30.4724 28.2421 30.4724 28.4509 30.5256 28.6493C30.5787 28.8476 30.6832 29.0285 30.8284 29.1737C30.9736 29.3189 31.1545 29.4233 31.3528 29.4765C31.5512 29.5297 31.7601 29.5297 31.9584 29.4766L33.962 28.9402C34.3097 28.8531 34.6771 28.896 34.9953 29.0608C36.2401 29.6805 37.612 30.0022 39.0025 30.0004Z" fill="white"/>
</svg>
