<svg width="40" height="41" viewBox="0 0 40 41" fill="none" xmlns="http://www.w3.org/2000/svg">
<path d="M20 32.213H10C8.67392 32.213 7.40215 31.6862 6.46447 30.7485C5.52678 29.8108 5 28.5391 5 27.213V13.8796C5 12.5536 5.52678 11.2818 6.46447 10.3441C7.40215 9.40642 8.67392 8.87964 10 8.87964H30C31.3261 8.87964 32.5979 9.40642 33.5355 10.3441C34.4732 11.2818 35 12.5536 35 13.8796V21.3796M5 17.213H35M11.6667 25.5463H11.6833M18.3333 25.5463H21.6667M26.6667 32.213H36.6667M26.6667 32.213L31.6667 27.213M26.6667 32.213L31.6667 37.213" stroke="#0515A7" stroke-width="3.33333" stroke-linecap="round" stroke-linejoin="round"/>
</svg>
