<svg width="35" height="29" viewBox="0 0 35 29" fill="none" xmlns="http://www.w3.org/2000/svg">
<path d="M34.1025 3.76102C32.8301 4.32384 31.4808 4.69347 30.0992 4.85768C31.5554 3.98674 32.6454 2.61604 33.1658 1.00102C31.7992 1.81435 30.3008 2.38435 28.7392 2.69268C27.6902 1.57031 26.2998 0.825956 24.7841 0.575325C23.2684 0.324694 21.7124 0.581835 20.358 1.30677C19.0035 2.03171 17.9265 3.18382 17.2944 4.584C16.6623 5.98418 16.5104 7.55398 16.8625 9.04935C14.091 8.91044 11.3797 8.19022 8.90467 6.93546C6.42959 5.68069 4.24607 3.91943 2.49586 1.76602C1.87634 2.8301 1.55078 4.03973 1.55253 5.27102C1.55253 7.68768 2.78252 9.82268 4.65252 11.0727C3.54587 11.0378 2.46358 10.739 1.49586 10.201V10.2877C1.49619 11.8972 2.05314 13.457 3.07227 14.7028C4.0914 15.9485 5.50999 16.8035 7.08752 17.1227C6.06021 17.4011 4.98304 17.4421 3.93752 17.2427C4.3823 18.6281 5.2492 19.8397 6.41684 20.7079C7.58448 21.576 8.9944 22.0573 10.4492 22.0843C9.00332 23.2199 7.34782 24.0593 5.57732 24.5546C3.80683 25.0499 1.95607 25.1914 0.130859 24.971C3.31702 27.0201 7.02602 28.1079 10.8142 28.1043C23.6358 28.1043 30.6475 17.4827 30.6475 8.27102C30.6475 7.97102 30.6392 7.66768 30.6258 7.37102C31.9906 6.38463 33.1685 5.16271 34.1042 3.76268L34.1025 3.76102Z" fill="#D7D7D5"/>
</svg>
