<svg width="28" height="22" viewBox="0 0 28 22" fill="none" xmlns="http://www.w3.org/2000/svg">
<path d="M27.4987 5.37476V17.9948C27.4988 19.015 27.1089 19.9968 26.409 20.7391C25.709 21.4814 24.7519 21.9282 23.7334 21.9881L23.4987 21.9948H4.83203C3.81175 21.9948 2.83001 21.605 2.08768 20.905C1.34536 20.2051 0.898555 19.2479 0.838698 18.2294L0.832031 17.9948V5.37476L13.4254 13.7708L13.58 13.8588C13.7623 13.9478 13.9625 13.9941 14.1654 13.9941C14.3682 13.9941 14.5684 13.9478 14.7507 13.8588L14.9054 13.7708L27.4987 5.37476Z" fill="#D7D7D5"/>
<path d="M23.4991 0.661621C24.9391 0.661621 26.2018 1.42162 26.9058 2.56429L14.1658 11.0576L1.42578 2.56429C1.76009 2.02131 2.2194 1.56616 2.76539 1.2368C3.31138 0.90744 3.92822 0.713429 4.56445 0.670954L4.83245 0.661621H23.4991Z" fill="#D7D7D5"/>
</svg>
