<svg width="40" height="41" viewBox="0 0 40 41" fill="none" xmlns="http://www.w3.org/2000/svg">
<path fill-rule="evenodd" clip-rule="evenodd" d="M5.6817 10.8012C5.59219 10.8908 5.52119 10.9971 5.47276 11.1141C5.42434 11.2311 5.39943 11.3565 5.39947 11.4832C5.39951 11.6098 5.42449 11.7352 5.47299 11.8522C5.52148 11.9691 5.59255 12.0754 5.68212 12.1649C5.77169 12.2545 5.87802 12.3255 5.99503 12.3739C6.11204 12.4223 6.23745 12.4472 6.36408 12.4472C6.49072 12.4471 6.61611 12.4222 6.73309 12.3737C6.85007 12.3252 6.95635 12.2541 7.04587 12.1645L7.72754 11.482L11.1359 14.8904L8.4092 17.6187C8.23355 17.8005 8.13635 18.0441 8.13854 18.2969C8.14073 18.5497 8.24213 18.7916 8.4209 18.9703C8.59967 19.1491 8.84151 19.2505 9.09433 19.2527C9.34714 19.2549 9.5907 19.1577 9.77254 18.982L11.1359 17.6187L13.5984 20.0812H6.97837C6.45337 20.0812 5.95087 20.292 5.5792 20.667C5.20757 21.0438 4.99947 21.552 5.00004 22.0812V25.0795C4.99379 27.4047 5.77511 29.6635 7.2167 31.4879C8.64951 33.3026 10.6615 34.571 12.9167 35.0812C15.1717 34.5714 17.1836 33.3037 18.6167 31.4895C19.6264 30.2128 20.3181 28.7144 20.635 27.1179L22.7267 29.2095C23.3901 29.8734 24.2327 30.3292 25.1514 30.5212C26.07 30.7132 27.0247 30.633 27.8984 30.2904L28.8634 31.2562C29.1027 31.4958 29.401 31.668 29.7281 31.7556C30.0552 31.8433 30.3996 31.8432 30.7267 31.7554L32.9542 33.9829C33.0438 34.0724 33.1501 34.1435 33.2671 34.192C33.3842 34.2404 33.5096 34.2654 33.6363 34.2654C33.763 34.2654 33.8884 34.2404 34.0054 34.192C34.1225 34.1435 34.2288 34.0724 34.3184 33.9829C34.4079 33.8933 34.479 33.787 34.5275 33.6699C34.576 33.5529 34.6009 33.4275 34.6009 33.3008C34.6009 33.1741 34.576 33.0487 34.5275 32.9316C34.479 32.8146 34.4079 32.7083 34.3184 32.6187L32.09 30.3912C32.1776 30.0642 32.1775 29.7199 32.0897 29.3929C32.0019 29.066 31.8296 28.7679 31.59 28.5287L30.625 27.5629C30.9208 26.8084 31.0217 25.9916 30.9184 25.1879C30.7843 24.1293 30.3014 23.1455 29.5459 22.392L17.9542 10.8004L19.3184 9.4362C19.4992 9.2553 19.6007 9.00999 19.6006 8.75424C19.6005 8.49848 19.4989 8.25324 19.318 8.07245C19.2284 7.98293 19.1221 7.91193 19.005 7.86351C18.888 7.81508 18.7626 7.79018 18.636 7.79022C18.3802 7.79029 18.135 7.89197 17.9542 8.07287L15.2275 10.8004L11.8192 7.39203L12.5 6.71036C12.6809 6.52958 12.7826 6.28433 12.7827 6.02858C12.7828 5.77282 12.6812 5.52751 12.5005 5.34662C12.3197 5.16572 12.0744 5.06404 11.8187 5.06396C11.5629 5.06389 11.3176 5.16541 11.1367 5.3462L5.6817 10.8012ZM22.1225 26.2479L26.5834 21.787L16.775 11.9787L12.3142 16.4404L15.9559 20.0812H18.855C19.38 20.0812 19.8825 20.292 20.2534 20.667C20.625 21.042 20.8334 21.5504 20.8334 22.0812V24.9595L22.1225 26.2479ZM14.0484 11.9787L10.64 8.57037L8.9067 10.3037L12.315 13.712L14.0484 11.9787ZM29.7259 29.0204C29.6089 29.1502 29.4851 29.2737 29.355 29.3904L30.0417 30.077C30.066 30.1014 30.0949 30.1207 30.1266 30.1339C30.1584 30.1471 30.1924 30.1539 30.2268 30.154C30.2612 30.154 30.2953 30.1473 30.3271 30.1341C30.3589 30.121 30.3878 30.1017 30.4121 30.0774C30.4365 30.0532 30.4558 30.0243 30.469 29.9925C30.4822 29.9608 30.489 29.9267 30.489 29.8923C30.4891 29.8579 30.4823 29.8239 30.4692 29.7921C30.4561 29.7603 30.4368 29.7314 30.4125 29.707L29.7259 29.0204ZM27.9467 23.1504L28.3667 23.5704C28.6935 23.8956 28.9446 24.2888 29.1023 24.722C29.26 25.1552 29.3204 25.6178 29.2792 26.077C29.253 26.3782 29.1837 26.6739 29.0734 26.9554L27.29 28.7379C26.7185 28.9623 26.0938 29.0151 25.4927 28.8897C24.8915 28.7643 24.3401 28.4663 23.9059 28.032L23.4859 27.612L27.9467 23.1504ZM14.1667 24.2479C14.1667 24.0268 14.0789 23.8149 13.9226 23.6586C13.7663 23.5023 13.5544 23.4145 13.3334 23.4145C13.1124 23.4145 12.9004 23.5023 12.7441 23.6586C12.5878 23.8149 12.5 24.0268 12.5 24.2479V25.9145H10.8334C10.6124 25.9145 10.4004 26.0023 10.2441 26.1586C10.0878 26.3149 10 26.5268 10 26.7479C10 26.9689 10.0878 27.1808 10.2441 27.3371C10.4004 27.4934 10.6124 27.5812 10.8334 27.5812H12.5V29.2479C12.5 29.4689 12.5878 29.6808 12.7441 29.8371C12.9004 29.9934 13.1124 30.0812 13.3334 30.0812C13.5544 30.0812 13.7663 29.9934 13.9226 29.8371C14.0789 29.6808 14.1667 29.4689 14.1667 29.2479V27.5812H15.8334C16.0544 27.5812 16.2663 27.4934 16.4226 27.3371C16.5789 27.1808 16.6667 26.9689 16.6667 26.7479C16.6667 26.5268 16.5789 26.3149 16.4226 26.1586C16.2663 26.0023 16.0544 25.9145 15.8334 25.9145H14.1667V24.2479Z" fill="#D7D7D5"/>
</svg>
