<svg width="40" height="41" viewBox="0 0 40 41" fill="none" xmlns="http://www.w3.org/2000/svg">
<path d="M20 31.7479H10C8.67392 31.7479 7.40215 31.2211 6.46447 30.2834C5.52678 29.3457 5 28.074 5 26.7479V13.4146C5 12.0885 5.52678 10.8167 6.46447 9.87902C7.40215 8.94134 8.67392 8.41455 10 8.41455H30C31.3261 8.41455 32.5979 8.94134 33.5355 9.87902C34.4732 10.8167 35 12.0885 35 13.4146V20.9145M5 16.7479H35M11.6667 25.0812H11.6833M18.3333 25.0812H21.6667M26.6667 31.7479H36.6667M26.6667 31.7479L31.6667 26.7479M26.6667 31.7479L31.6667 36.7479" stroke="#D7D7D5" stroke-width="3.33333" stroke-linecap="round" stroke-linejoin="round"/>
</svg>
