<svg width="40" height="41" viewBox="0 0 40 41" fill="none" xmlns="http://www.w3.org/2000/svg">
<path d="M9.58458 15.7729H7.61458C5.98125 15.7729 4.65625 17.0963 4.65625 18.7313V32.538C4.65625 34.1713 5.98125 35.498 7.61458 35.498H9.58792C11.2212 35.498 12.5462 34.173 12.5462 32.538V18.7313C12.5462 17.0979 11.2212 15.7729 9.58792 15.7729" stroke="#D7D7D5" stroke-width="2.66667" stroke-linecap="round" stroke-linejoin="round"/>
<path d="M35.2673 20.4864L32.9006 32.3214C32.7204 33.2297 32.2265 34.0456 31.5052 34.6264C30.784 35.2072 29.8814 35.5157 28.9556 35.498H16.4889C15.4427 35.498 14.4392 35.0824 13.6994 34.3426C12.9596 33.6027 12.5439 32.5993 12.5439 31.553V19.718C12.5757 18.9584 12.768 18.2142 13.1081 17.5342C13.4483 16.8543 13.9285 16.254 14.5173 15.773L16.1539 5.9097C16.1912 5.67987 16.2822 5.46206 16.4194 5.27399C16.5567 5.08591 16.7364 4.93288 16.9439 4.82732C17.1515 4.72177 17.381 4.66667 17.6138 4.6665C17.8467 4.66634 18.0763 4.72111 18.2839 4.82637L20.1173 5.73304C21.3292 6.33209 22.2994 7.3281 22.8664 8.55529C23.4335 9.78249 23.5632 11.1669 23.2339 12.478L22.4073 15.753H31.4006C31.9856 15.7529 32.5634 15.8828 33.092 16.1334C33.6206 16.3841 34.0869 16.7492 34.457 17.2023C34.8271 17.6553 35.0919 18.1851 35.232 18.7531C35.3721 19.3211 35.3842 19.9131 35.2673 20.4864Z" stroke="#D7D7D5" stroke-width="2.66667" stroke-linecap="round" stroke-linejoin="round"/>
</svg>
