<svg width="40" height="41" viewBox="0 0 40 41" fill="none" xmlns="http://www.w3.org/2000/svg">
<g clip-path="url(#clip0_913_2091)">
<path d="M17.9297 36.8193C17.7995 37.3141 17.7018 37.8154 17.6367 38.3232C17.5716 38.8311 17.526 39.3519 17.5 39.8857C15.8333 39.6904 14.2448 39.2998 12.7344 38.7139C11.224 38.1279 9.82422 37.3792 8.53516 36.4678C7.24609 35.5563 6.07422 34.5016 5.01953 33.3037C3.96484 32.1058 3.06641 30.8037 2.32422 29.3975C1.58203 27.9912 1.00911 26.5068 0.605469 24.9443C0.201823 23.3818 0 21.7607 0 20.0811C0 18.2451 0.234375 16.4743 0.703125 14.7686C1.17188 13.0628 1.84245 11.4678 2.71484 9.9834C3.58724 8.49902 4.62891 7.15137 5.83984 5.94043C7.05078 4.72949 8.40495 3.68783 9.90234 2.81543C11.3997 1.94303 12.9883 1.27246 14.668 0.803711C16.3477 0.334961 18.125 0.0940755 20 0.0810547C21.8359 0.0810547 23.6003 0.31543 25.293 0.78418C26.9857 1.25293 28.5807 1.93001 30.0781 2.81543C31.5755 3.70085 32.9232 4.74251 34.1211 5.94043C35.319 7.13835 36.3672 8.49251 37.2656 10.0029C38.1641 11.5133 38.8346 13.1019 39.2773 14.7686C39.7201 16.4352 39.9609 18.2061 40 20.0811H38.6133C38.431 19.7816 38.2422 19.4886 38.0469 19.2021C37.8516 18.9157 37.6237 18.6423 37.3633 18.3818C37.2852 17.249 37.0833 16.1488 36.7578 15.0811H12.832C12.7279 15.9144 12.6497 16.7412 12.5977 17.5615C12.5456 18.3818 12.513 19.2217 12.5 20.0811C12.5 20.9274 12.526 21.7607 12.5781 22.5811C12.6302 23.4014 12.7148 24.2347 12.832 25.0811H20C20 25.4977 20.0326 25.9144 20.0977 26.3311C20.1628 26.7477 20.2474 27.1644 20.3516 27.5811H13.2617C13.418 28.3232 13.6263 29.137 13.8867 30.0225C14.1471 30.9079 14.4727 31.7738 14.8633 32.6201C15.2539 33.4665 15.7031 34.2607 16.2109 35.0029C16.7188 35.7451 17.2917 36.3506 17.9297 36.8193ZM35.8008 12.5811C35.293 11.5264 34.694 10.5368 34.0039 9.6123C33.3138 8.68783 32.5326 7.84147 31.6602 7.07324C30.7878 6.30501 29.8633 5.62142 28.8867 5.02246C27.9102 4.4235 26.8555 3.93522 25.7227 3.55762C26.1914 4.20866 26.6081 4.89876 26.9727 5.62793C27.3372 6.3571 27.6693 7.10579 27.9688 7.87402C28.2682 8.64225 28.5221 9.4235 28.7305 10.2178C28.9388 11.012 29.1211 11.7998 29.2773 12.5811H35.8008ZM20 2.58105C19.349 2.58105 18.75 2.75684 18.2031 3.1084C17.6562 3.45996 17.1484 3.9222 16.6797 4.49512C16.2109 5.06803 15.7943 5.71257 15.4297 6.42871C15.0651 7.14486 14.7331 7.88053 14.4336 8.63574C14.1341 9.39095 13.8932 10.1071 13.7109 10.7842C13.5286 11.4613 13.3789 12.0602 13.2617 12.5811H26.7383C26.6341 12.0732 26.4844 11.4743 26.2891 10.7842C26.0938 10.0941 25.8529 9.37793 25.5664 8.63574C25.2799 7.89355 24.9544 7.16439 24.5898 6.44824C24.2253 5.7321 23.8086 5.08105 23.3398 4.49512C22.8711 3.90918 22.3568 3.44694 21.7969 3.1084C21.237 2.76986 20.638 2.59408 20 2.58105ZM14.2969 3.53809C13.1901 3.91569 12.1354 4.39746 11.1328 4.9834C10.1302 5.56934 9.19922 6.25293 8.33984 7.03418C7.48047 7.81543 6.69922 8.66829 5.99609 9.59277C5.29297 10.5173 4.69401 11.5133 4.19922 12.5811H10.7227C10.8659 11.8649 11.0417 11.1032 11.25 10.2959C11.4583 9.48861 11.7188 8.68132 12.0312 7.87402C12.3438 7.06673 12.6823 6.29199 13.0469 5.5498C13.4115 4.80762 13.8281 4.13704 14.2969 3.53809ZM2.5 20.0811C2.5 21.8128 2.74089 23.4795 3.22266 25.0811H10.3125C10.2083 24.2477 10.1302 23.4209 10.0781 22.6006C10.026 21.7803 10 20.9404 10 20.0811C10 19.2347 10.026 18.4014 10.0781 17.5811C10.1302 16.7607 10.2083 15.9274 10.3125 15.0811H3.22266C2.74089 16.6826 2.5 18.3493 2.5 20.0811ZM4.16016 27.5811C4.66797 28.6357 5.26693 29.6253 5.95703 30.5498C6.64714 31.4743 7.42839 32.3271 8.30078 33.1084C9.17318 33.8896 10.1107 34.5667 11.1133 35.1396C12.1159 35.7126 13.1706 36.2008 14.2773 36.6045C13.8086 35.9535 13.3919 35.2633 13.0273 34.5342C12.6628 33.805 12.3307 33.0563 12.0312 32.2881C11.7318 31.5199 11.4779 30.7386 11.2695 29.9443C11.0612 29.1501 10.8724 28.3623 10.7031 27.5811H4.16016ZM34.4141 31.1162C35.2604 31.5459 36.0286 32.0732 36.7188 32.6982C37.4089 33.3232 37.9948 34.0264 38.4766 34.8076C38.9583 35.5889 39.3359 36.4222 39.6094 37.3076C39.8828 38.193 40.013 39.1175 40 40.0811H37.5C37.5 39.0524 37.3047 38.0824 36.9141 37.1709C36.5234 36.2594 35.9896 35.4652 35.3125 34.7881C34.6354 34.111 33.8346 33.5706 32.9102 33.167C31.9857 32.7633 31.0156 32.568 30 32.5811C28.9583 32.5811 27.9883 32.7764 27.0898 33.167C26.1914 33.5576 25.3971 34.0915 24.707 34.7686C24.0169 35.4456 23.4766 36.2464 23.0859 37.1709C22.6953 38.0954 22.5 39.0654 22.5 40.0811H20C20 39.1305 20.1302 38.2126 20.3906 37.3271C20.651 36.4417 21.0221 35.6019 21.5039 34.8076C21.9857 34.0133 22.5716 33.3102 23.2617 32.6982C23.9518 32.0863 24.7201 31.5589 25.5664 31.1162C24.5898 30.4131 23.8346 29.5342 23.3008 28.4795C22.7669 27.4248 22.5 26.292 22.5 25.0811C22.5 24.0524 22.6953 23.0824 23.0859 22.1709C23.4766 21.2594 24.0104 20.4652 24.6875 19.7881C25.3646 19.111 26.1589 18.5706 27.0703 18.167C27.9818 17.7633 28.9583 17.568 30 17.5811C31.0286 17.5811 31.9987 17.7764 32.9102 18.167C33.8216 18.5576 34.6159 19.0915 35.293 19.7686C35.9701 20.4456 36.5104 21.2464 36.9141 22.1709C37.3177 23.0954 37.513 24.0654 37.5 25.0811C37.5 26.279 37.2331 27.4053 36.6992 28.46C36.1654 29.5146 35.4036 30.4001 34.4141 31.1162ZM30 30.0811C30.6901 30.0811 31.3346 29.9508 31.9336 29.6904C32.5326 29.43 33.0664 29.0719 33.5352 28.6162C34.0039 28.1605 34.362 27.6331 34.6094 27.0342C34.8568 26.4352 34.987 25.7842 35 25.0811C35 24.391 34.8698 23.7464 34.6094 23.1475C34.349 22.5485 33.9909 22.0146 33.5352 21.5459C33.0794 21.0771 32.5521 20.7191 31.9531 20.4717C31.3542 20.2243 30.7031 20.0941 30 20.0811C29.3099 20.0811 28.6654 20.2113 28.0664 20.4717C27.4674 20.7321 26.9336 21.0902 26.4648 21.5459C25.9961 22.0016 25.638 22.529 25.3906 23.1279C25.1432 23.7269 25.013 24.3779 25 25.0811C25 25.7712 25.1302 26.4157 25.3906 27.0146C25.651 27.6136 26.0091 28.1475 26.4648 28.6162C26.9206 29.085 27.4479 29.443 28.0469 29.6904C28.6458 29.9378 29.2969 30.068 30 30.0811Z" fill="#D7D7D5"/>
</g>
<defs>
<clipPath id="clip0_913_2091">
<rect width="40" height="40" fill="white" transform="translate(0 0.0810547)"/>
</clipPath>
</defs>
</svg>
