<svg width="32" height="32" viewBox="0 0 32 32" fill="none" xmlns="http://www.w3.org/2000/svg">
<path d="M16.1657 10.9163C14.7291 10.9163 13.3514 11.4869 12.3355 12.5028C11.3197 13.5186 10.749 14.8963 10.749 16.3329C10.749 17.7695 11.3197 19.1473 12.3355 20.1631C13.3514 21.1789 14.7291 21.7496 16.1657 21.7496C17.6023 21.7496 18.98 21.1789 19.9959 20.1631C21.0117 19.1473 21.5824 17.7695 21.5824 16.3329C21.5824 14.8963 21.0117 13.5186 19.9959 12.5028C18.98 11.4869 17.6023 10.9163 16.1657 10.9163Z" fill="#D7D7D5"/>
<path fill-rule="evenodd" clip-rule="evenodd" d="M7.44938 1.46917C13.2427 0.827007 19.0893 0.827007 24.8827 1.46917C28.0477 1.82251 30.5994 4.31417 30.971 7.49084C31.6581 13.3653 31.6581 19.2998 30.971 25.1742C30.5994 28.3508 28.0477 30.8425 24.8844 31.1975C19.0905 31.8399 13.2433 31.8399 7.44938 31.1975C4.28438 30.8425 1.73271 28.3508 1.36104 25.1758C0.673923 19.3009 0.673923 13.3658 1.36104 7.49084C1.73271 4.31417 4.28438 1.82251 7.44938 1.46917ZM24.4994 6.33251C24.0573 6.33251 23.6334 6.5081 23.3209 6.82066C23.0083 7.13322 22.8327 7.55715 22.8327 7.99917C22.8327 8.4412 23.0083 8.86512 23.3209 9.17768C23.6334 9.49025 24.0573 9.66584 24.4994 9.66584C24.9414 9.66584 25.3653 9.49025 25.6779 9.17768C25.9904 8.86512 26.166 8.4412 26.166 7.99917C26.166 7.55715 25.9904 7.13322 25.6779 6.82066C25.3653 6.5081 24.9414 6.33251 24.4994 6.33251ZM8.24938 16.3325C8.24938 14.2329 9.08345 12.2192 10.5681 10.7346C12.0528 9.24992 14.0664 8.41584 16.166 8.41584C18.2657 8.41584 20.2793 9.24992 21.764 10.7346C23.2486 12.2192 24.0827 14.2329 24.0827 16.3325C24.0827 18.4321 23.2486 20.4458 21.764 21.9304C20.2793 23.4151 18.2657 24.2492 16.166 24.2492C14.0664 24.2492 12.0528 23.4151 10.5681 21.9304C9.08345 20.4458 8.24938 18.4321 8.24938 16.3325Z" fill="#D7D7D5"/>
</svg>
