<svg width="25" height="24" viewBox="0 0 25 24" fill="none" xmlns="http://www.w3.org/2000/svg">
<path d="M22.766 23.9998C19.9882 23.9998 17.2438 23.3944 14.5327 22.1838C11.8216 20.9731 9.35491 19.2562 7.13268 17.0331C4.91046 14.8109 3.19402 12.3442 1.98335 9.63309C0.772682 6.92198 0.166905 4.17753 0.166016 1.39976C0.166016 0.999756 0.299349 0.666422 0.566016 0.399756C0.832682 0.133089 1.16602 -0.000244141 1.56602 -0.000244141H6.96602C7.27713 -0.000244141 7.55491 0.105534 7.79935 0.317089C8.04379 0.528645 8.18824 0.778422 8.23268 1.06642L9.09935 5.73309C9.14379 6.08864 9.13268 6.38864 9.06602 6.63309C8.99935 6.87753 8.87713 7.08864 8.69935 7.26642L5.46602 10.5331C5.91046 11.3553 6.43802 12.1495 7.04868 12.9158C7.65935 13.682 8.33179 14.4211 9.06602 15.1331C9.7549 15.822 10.4771 16.4611 11.2327 17.0504C11.9882 17.6398 12.7882 18.1784 13.6327 18.6664L16.766 15.5331C16.966 15.3331 17.2274 15.1833 17.55 15.0838C17.8727 14.9842 18.1891 14.9562 18.4993 14.9998L23.0993 15.9331C23.4105 16.022 23.666 16.1833 23.866 16.4171C24.066 16.6509 24.166 16.9118 24.166 17.1998V22.5998C24.166 22.9998 24.0327 23.3331 23.766 23.5998C23.4994 23.8664 23.166 23.9998 22.766 23.9998Z" fill="#D7D7D5"/>
</svg>
