<svg width="23" height="29" viewBox="0 0 23 29" fill="none" xmlns="http://www.w3.org/2000/svg">
<path d="M11.167 0.66626C8.25068 0.6697 5.45478 1.82973 3.39263 3.89189C1.33047 5.95404 0.170444 8.74993 0.167004 11.6663C0.163511 14.0495 0.941984 16.368 2.383 18.2663C2.383 18.2663 2.683 18.6613 2.732 18.7183L11.167 28.6663L19.606 18.7133C19.65 18.6603 19.951 18.2663 19.951 18.2663L19.952 18.2633C21.3923 16.3659 22.1704 14.0484 22.167 11.6663C22.1636 8.74993 21.0035 5.95404 18.9414 3.89189C16.8792 1.82973 14.0833 0.6697 11.167 0.66626ZM11.167 15.6663C10.3759 15.6663 9.60252 15.4317 8.94472 14.9921C8.28693 14.5526 7.77424 13.9279 7.47149 13.197C7.16874 12.4661 7.08952 11.6618 7.24386 10.8859C7.3982 10.11 7.77917 9.39724 8.33858 8.83783C8.89799 8.27842 9.61072 7.89746 10.3866 7.74312C11.1626 7.58878 11.9668 7.66799 12.6977 7.97074C13.4286 8.27349 14.0534 8.78618 14.4929 9.44398C14.9324 10.1018 15.167 10.8751 15.167 11.6663C15.1657 12.7267 14.7438 13.7434 13.994 14.4932C13.2441 15.2431 12.2275 15.6649 11.167 15.6663Z" fill="#D7D7D5"/>
</svg>
