<svg width="34" height="34" viewBox="0 0 34 34" fill="none" xmlns="http://www.w3.org/2000/svg">
<path d="M32.0039 0.669189H2.33724C1.85101 0.669189 1.38469 0.862344 1.04088 1.20616C0.697061 1.54998 0.503906 2.01629 0.503906 2.50252V32.1692C0.503906 32.6554 0.697061 33.1217 1.04088 33.4656C1.38469 33.8094 1.85101 34.0025 2.33724 34.0025H18.3039V21.0859H13.9706V16.0859H18.3039V12.3359C18.2141 11.4555 18.3181 10.5661 18.6084 9.73009C18.8988 8.8941 19.3685 8.13177 19.9847 7.49654C20.6009 6.86132 21.3485 6.36859 22.1753 6.05292C23.002 5.73725 23.8878 5.60628 24.7706 5.66919C26.0678 5.66121 27.3644 5.72798 28.6539 5.86919V10.3692H26.0039C23.9039 10.3692 23.5039 11.3692 23.5039 12.8192V16.0359H28.5039L27.8539 21.0359H23.5039V34.0025H32.0039C32.2447 34.0025 32.4831 33.9551 32.7055 33.863C32.9279 33.7708 33.13 33.6358 33.3003 33.4656C33.4705 33.2953 33.6056 33.0932 33.6977 32.8708C33.7898 32.6484 33.8372 32.41 33.8372 32.1692V2.50252C33.8372 2.26177 33.7898 2.02337 33.6977 1.80094C33.6056 1.57851 33.4705 1.3764 33.3003 1.20616C33.13 1.03592 32.9279 0.900877 32.7055 0.808744C32.4831 0.71661 32.2447 0.669189 32.0039 0.669189Z" fill="#D7D7D5"/>
</svg>
