<svg width="41" height="41" viewBox="0 0 41 41" fill="none" xmlns="http://www.w3.org/2000/svg">
<path d="M35.0024 3.65259H5.33577C4.84954 3.65259 4.38323 3.84574 4.03941 4.18956C3.6956 4.53338 3.50244 4.99969 3.50244 5.48592V35.1526C3.50244 35.6388 3.6956 36.1051 4.03941 36.449C4.38323 36.7928 4.84954 36.9859 5.33577 36.9859H21.3024V24.0693H16.9691V19.0693H21.3024V15.3193C21.2127 14.4389 21.3166 13.5495 21.607 12.7135C21.8973 11.8775 22.3671 11.1152 22.9832 10.4799C23.5994 9.84472 24.3471 9.35199 25.1738 9.03632C26.0006 8.72065 26.8864 8.58967 27.7691 8.65259C29.0663 8.64461 30.3629 8.71138 31.6524 8.85259V13.3526H29.0024C26.9024 13.3526 26.5024 14.3526 26.5024 15.8026V19.0193H31.5024L30.8524 24.0193H26.5024V36.9859H35.0024C35.2432 36.9859 35.4816 36.9385 35.704 36.8464C35.9265 36.7542 36.1286 36.6192 36.2988 36.449C36.4691 36.2787 36.6041 36.0766 36.6962 35.8542C36.7884 35.6318 36.8358 35.3934 36.8358 35.1526V5.48592C36.8358 5.24516 36.7884 5.00677 36.6962 4.78434C36.6041 4.5619 36.4691 4.3598 36.2988 4.18956C36.1286 4.01932 35.9265 3.88428 35.704 3.79214C35.4816 3.70001 35.2432 3.65259 35.0024 3.65259Z" fill="#29292B"/>
</svg>
