<svg width="40" height="41" viewBox="0 0 40 41" fill="none" xmlns="http://www.w3.org/2000/svg">
<path fill-rule="evenodd" clip-rule="evenodd" d="M5.6817 11.2663C5.59219 11.3559 5.52119 11.4622 5.47276 11.5792C5.42434 11.6962 5.39943 11.8216 5.39947 11.9482C5.39951 12.0749 5.42449 12.2003 5.47299 12.3173C5.52148 12.4342 5.59255 12.5405 5.68212 12.63C5.77169 12.7196 5.87802 12.7906 5.99503 12.839C6.11204 12.8874 6.23745 12.9123 6.36408 12.9123C6.49072 12.9122 6.61611 12.8872 6.73309 12.8388C6.85007 12.7903 6.95635 12.7192 7.04587 12.6296L7.72754 11.9471L11.1359 15.3555L8.4092 18.0838C8.23355 18.2656 8.13635 18.5092 8.13854 18.762C8.14073 19.0148 8.24213 19.2566 8.4209 19.4354C8.59967 19.6142 8.84151 19.7156 9.09433 19.7178C9.34714 19.72 9.5907 19.6228 9.77254 19.4471L11.1359 18.0838L13.5984 20.5463H6.97837C6.45337 20.5463 5.95087 20.7571 5.5792 21.1321C5.20757 21.5089 4.99947 22.017 5.00004 22.5463V25.5446C4.99379 27.8698 5.77511 30.1286 7.2167 31.953C8.64951 33.7677 10.6615 35.0361 12.9167 35.5463C15.1717 35.0365 17.1836 33.7688 18.6167 31.9546C19.6264 30.6779 20.3181 29.1795 20.635 27.583L22.7267 29.6746C23.3901 30.3384 24.2327 30.7943 25.1514 30.9863C26.07 31.1783 27.0247 31.098 27.8984 30.7555L28.8634 31.7213C29.1027 31.9608 29.401 32.1331 29.7281 32.2207C30.0552 32.3084 30.3996 32.3083 30.7267 32.2204L32.9542 34.4479C33.0438 34.5375 33.1501 34.6086 33.2671 34.6571C33.3842 34.7055 33.5096 34.7305 33.6363 34.7305C33.763 34.7305 33.8884 34.7055 34.0054 34.6571C34.1225 34.6086 34.2288 34.5375 34.3184 34.4479C34.4079 34.3584 34.479 34.252 34.5275 34.135C34.576 34.018 34.6009 33.8925 34.6009 33.7659C34.6009 33.6392 34.576 33.5138 34.5275 33.3967C34.479 33.2797 34.4079 33.1734 34.3184 33.0838L32.09 30.8563C32.1776 30.5293 32.1775 30.185 32.0897 29.858C32.0019 29.5311 31.8296 29.233 31.59 28.9938L30.625 28.028C30.9208 27.2735 31.0217 26.4567 30.9184 25.653C30.7843 24.5944 30.3014 23.6106 29.5459 22.8571L17.9542 11.2655L19.3184 9.90129C19.4992 9.72039 19.6007 9.47508 19.6006 9.21932C19.6005 8.96357 19.4989 8.71833 19.318 8.53754C19.2284 8.44802 19.1221 8.37702 19.005 8.32859C18.888 8.28017 18.7626 8.25526 18.636 8.2553C18.3802 8.25538 18.135 8.35705 17.9542 8.53795L15.2275 11.2655L11.8192 7.85712L12.5 7.17545C12.6809 6.99466 12.7826 6.74942 12.7827 6.49366C12.7828 6.23791 12.6812 5.9926 12.5005 5.8117C12.3197 5.6308 12.0744 5.52913 11.8187 5.52905C11.5629 5.52897 11.3176 5.6305 11.1367 5.81129L5.6817 11.2663ZM22.1225 26.713L26.5834 22.2521L16.775 12.4438L12.3142 16.9055L15.9559 20.5463H18.855C19.38 20.5463 19.8825 20.7571 20.2534 21.1321C20.625 21.5071 20.8334 22.0155 20.8334 22.5463V25.4246L22.1225 26.713ZM14.0484 12.4438L10.64 9.03545L8.9067 10.7688L12.315 14.1771L14.0484 12.4438ZM29.7259 29.4855C29.6089 29.6153 29.4851 29.7388 29.355 29.8555L30.0417 30.5421C30.066 30.5665 30.0949 30.5858 30.1266 30.599C30.1584 30.6122 30.1924 30.619 30.2268 30.619C30.2612 30.6191 30.2953 30.6123 30.3271 30.5992C30.3589 30.5861 30.3878 30.5668 30.4121 30.5425C30.4365 30.5182 30.4558 30.4894 30.469 30.4576C30.4822 30.4259 30.489 30.3918 30.489 30.3574C30.4891 30.323 30.4823 30.2889 30.4692 30.2572C30.4561 30.2254 30.4368 30.1965 30.4125 30.1721L29.7259 29.4855ZM27.9467 23.6155L28.3667 24.0355C28.6935 24.3607 28.9446 24.7539 29.1023 25.1871C29.26 25.6203 29.3204 26.0829 29.2792 26.5421C29.253 26.8432 29.1837 27.139 29.0734 27.4205L27.29 29.203C26.7185 29.4274 26.0938 29.4802 25.4927 29.3548C24.8915 29.2294 24.3401 28.9313 23.9059 28.4971L23.4859 28.0771L27.9467 23.6155ZM14.1667 24.713C14.1667 24.4919 14.0789 24.28 13.9226 24.1237C13.7663 23.9674 13.5544 23.8796 13.3334 23.8796C13.1124 23.8796 12.9004 23.9674 12.7441 24.1237C12.5878 24.28 12.5 24.4919 12.5 24.713V26.3796H10.8334C10.6124 26.3796 10.4004 26.4674 10.2441 26.6237C10.0878 26.78 10 26.9919 10 27.213C10 27.434 10.0878 27.6459 10.2441 27.8022C10.4004 27.9585 10.6124 28.0463 10.8334 28.0463H12.5V29.713C12.5 29.934 12.5878 30.1459 12.7441 30.3022C12.9004 30.4585 13.1124 30.5463 13.3334 30.5463C13.5544 30.5463 13.7663 30.4585 13.9226 30.3022C14.0789 30.1459 14.1667 29.934 14.1667 29.713V28.0463H15.8334C16.0544 28.0463 16.2663 27.9585 16.4226 27.8022C16.5789 27.6459 16.6667 27.434 16.6667 27.213C16.6667 26.9919 16.5789 26.78 16.4226 26.6237C16.2663 26.4674 16.0544 26.3796 15.8334 26.3796H14.1667V24.713Z" fill="#0515A7"/>
</svg>
