<svg width="32" height="33" viewBox="0 0 32 33" fill="none" xmlns="http://www.w3.org/2000/svg">
<g clip-path="url(#clip0_289_11571)">
<path d="M24.5 0.662109H7.5C3.35786 0.662109 0 4.01997 0 8.16211V25.1621C0 29.3042 3.35786 32.6621 7.5 32.6621H24.5C28.6421 32.6621 32 29.3042 32 25.1621V8.16211C32 4.01997 28.6421 0.662109 24.5 0.662109Z" fill="url(#paint0_radial_289_11571)"/>
<path d="M24.5 0.662109H7.5C3.35786 0.662109 0 4.01997 0 8.16211V25.1621C0 29.3042 3.35786 32.6621 7.5 32.6621H24.5C28.6421 32.6621 32 29.3042 32 25.1621V8.16211C32 4.01997 28.6421 0.662109 24.5 0.662109Z" fill="url(#paint1_radial_289_11571)"/>
<path d="M16.0011 4.16211C12.6064 4.16211 12.1803 4.17698 10.847 4.23761C9.51625 4.29861 8.60787 4.50923 7.81313 4.81836C6.99088 5.13761 6.2935 5.56473 5.59875 6.25973C4.90338 6.95461 4.47625 7.65198 4.156 8.47386C3.846 9.26886 3.63512 10.1776 3.57525 11.5077C3.51562 12.8411 3.5 13.2674 3.5 16.6622C3.5 20.0571 3.515 20.4819 3.5755 21.8151C3.63675 23.1459 3.84738 24.0542 4.15625 24.849C4.47575 25.6712 4.90288 26.3686 5.59788 27.0634C6.2925 27.7587 6.98988 28.1869 7.8115 28.5061C8.60687 28.8152 9.51537 29.0259 10.8459 29.0869C12.1792 29.1475 12.605 29.1624 15.9996 29.1624C19.3948 29.1624 19.8195 29.1475 21.1528 29.0869C22.4835 29.0259 23.3929 28.8152 24.1882 28.5061C25.0101 28.1869 25.7065 27.7587 26.401 27.0634C27.0964 26.3686 27.5234 25.6712 27.8438 24.8494C28.151 24.0542 28.362 23.1456 28.4245 21.8154C28.4844 20.4821 28.5 20.0571 28.5 16.6622C28.5 13.2674 28.4844 12.8414 28.4245 11.508C28.362 10.1772 28.151 9.26898 27.8438 8.47423C27.5234 7.65198 27.0964 6.95461 26.401 6.25973C25.7057 5.56448 25.0104 5.13736 24.1875 4.81848C23.3906 4.50923 22.4817 4.29848 21.151 4.23761C19.8176 4.17698 19.3931 4.16211 15.9972 4.16211H16.0011ZM14.8798 6.41473C15.2126 6.41423 15.584 6.41473 16.0011 6.41473C19.3388 6.41473 19.7342 6.42673 21.0522 6.48661C22.271 6.54236 22.9325 6.74598 23.3731 6.91711C23.9565 7.14361 24.3724 7.41448 24.8096 7.85211C25.2471 8.28961 25.5179 8.70623 25.745 9.28961C25.9161 9.72961 26.12 10.3911 26.1755 11.6099C26.2354 12.9276 26.2484 13.3234 26.2484 16.6594C26.2484 19.9954 26.2354 20.3912 26.1755 21.7089C26.1198 22.9276 25.9161 23.5891 25.745 24.0292C25.5185 24.6126 25.2471 25.028 24.8096 25.4652C24.3721 25.9027 23.9568 26.1735 23.3731 26.4001C22.933 26.572 22.271 26.7751 21.0522 26.8309C19.7345 26.8907 19.3388 26.9037 16.0011 26.9037C12.6634 26.9037 12.2677 26.8907 10.9501 26.8309C9.73137 26.7746 9.06987 26.571 8.62887 26.3999C8.04562 26.1732 7.62887 25.9025 7.19137 25.465C6.75387 25.0275 6.48312 24.6119 6.256 24.0282C6.08488 23.5881 5.881 22.9266 5.8255 21.7079C5.76562 20.3901 5.75362 19.9944 5.75362 16.6562C5.75362 13.3182 5.76562 12.9245 5.8255 11.6067C5.88125 10.388 6.08488 9.72648 6.256 9.28586C6.48263 8.70248 6.75388 8.28586 7.1915 7.84836C7.629 7.41086 8.04562 7.13998 8.629 6.91298C9.06962 6.74111 9.73137 6.53798 10.9501 6.48198C12.1032 6.42986 12.5501 6.41423 14.8798 6.41161V6.41473ZM22.6736 8.49023C21.8455 8.49023 21.1736 9.16148 21.1736 9.98973C21.1736 10.8179 21.8455 11.4897 22.6736 11.4897C23.5018 11.4897 24.1736 10.8179 24.1736 9.98973C24.1736 9.16161 23.5018 8.48973 22.6736 8.48973V8.49023ZM16.0011 10.2429C12.4561 10.2429 9.58187 13.1171 9.58187 16.6622C9.58187 20.2074 12.4561 23.0802 16.0011 23.0802C19.5462 23.0802 22.4195 20.2074 22.4195 16.6622C22.4195 13.1172 19.546 10.2429 16.0009 10.2429H16.0011ZM16.0011 12.4955C18.3022 12.4955 20.1679 14.3609 20.1679 16.6622C20.1679 18.9634 18.3022 20.829 16.0011 20.829C13.6999 20.829 11.8345 18.9634 11.8345 16.6622C11.8345 14.3609 13.6999 12.4955 16.0011 12.4955Z" fill="white"/>
</g>
<defs>
<radialGradient id="paint0_radial_289_11571" cx="0" cy="0" r="1" gradientUnits="userSpaceOnUse" gradientTransform="translate(8.5 35.1267) rotate(-90) scale(31.7144 29.4969)">
<stop stop-color="#FFDD55"/>
<stop offset="0.1" stop-color="#FFDD55"/>
<stop offset="0.5" stop-color="#FF543E"/>
<stop offset="1" stop-color="#C837AB"/>
</radialGradient>
<radialGradient id="paint1_radial_289_11571" cx="0" cy="0" r="1" gradientUnits="userSpaceOnUse" gradientTransform="translate(-5.36012 2.96723) rotate(78.681) scale(14.1765 58.436)">
<stop stop-color="#3771C8"/>
<stop offset="0.128" stop-color="#3771C8"/>
<stop offset="1" stop-color="#6600FF" stop-opacity="0"/>
</radialGradient>
<clipPath id="clip0_289_11571">
<rect width="32" height="32" fill="white" transform="translate(0 0.662109)"/>
</clipPath>
</defs>
</svg>
