<svg width="84" height="25" viewBox="0 0 84 25" fill="none" xmlns="http://www.w3.org/2000/svg">
<path d="M5.20562 0.909647C3.51514 1.61775 1.65702 3.61568 1.07011 6.12543C0.326736 9.30429 3.41967 10.649 3.67356 10.2087C3.97211 9.6907 3.11934 9.51562 2.94377 7.86608C2.71691 5.73562 3.70738 3.35516 4.954 2.31064C5.1854 2.11646 5.17455 2.38669 5.17455 2.88622C5.17455 3.7796 5.1252 11.7998 5.1252 13.4736C5.1252 15.7384 5.03167 16.4536 4.86355 17.1604C4.69348 17.8764 4.41969 18.3604 4.62697 18.5468C4.85869 18.7553 5.84803 18.2593 6.42069 17.4601C7.10744 16.5015 7.34789 15.35 7.3911 14.1C7.4432 12.5929 7.44094 10.2012 7.4432 8.83713C7.44514 7.58614 7.46424 3.92281 7.4212 1.7205C7.41068 1.18004 5.91259 0.613364 5.20562 0.909647ZM65.2298 11.509C65.1753 12.6865 64.9146 13.6068 64.5911 14.256C63.9649 15.5128 62.6655 15.9029 62.1137 14.0964C61.8131 13.1116 61.799 11.4669 62.015 10.0927C62.2351 8.69279 62.8497 7.63549 63.867 7.7308C64.8706 7.82514 65.3403 9.11804 65.2298 11.509ZM48.312 18.8145C48.2984 20.7708 47.9905 22.4861 47.3303 22.9845C46.3937 23.6909 45.1349 23.1608 45.3956 21.7333C45.6262 20.47 46.717 19.1799 48.3148 17.6035C48.3148 17.6035 48.318 17.963 48.312 18.8145ZM48.0564 11.4977C47.9991 12.5702 47.7211 13.6474 47.4177 14.2562C46.7915 15.513 45.4827 15.9059 44.9403 14.0966C44.5694 12.8603 44.6582 11.2606 44.8416 10.2525C45.0798 8.94457 45.6571 7.73112 46.6936 7.73112C47.7013 7.73112 48.1984 8.83681 48.0564 11.4977ZM38.256 11.4815C38.1945 12.6171 37.973 13.5665 37.6175 14.2562C36.9741 15.5044 35.7013 15.9002 35.1401 14.0966C34.7354 12.7961 34.8731 11.0229 35.0414 10.065C35.2913 8.64344 35.9168 7.63565 36.8934 7.73112C37.8965 7.82918 38.384 9.11836 38.256 11.4815ZM83.1683 12.8081C82.9231 12.8081 82.8112 13.0608 82.7184 13.4861C82.3976 14.9657 82.0599 15.2995 81.6247 15.2995C81.1385 15.2995 80.7016 14.5672 80.5891 13.1008C80.5009 11.9477 80.5152 9.82501 80.628 7.71349C80.6511 7.27966 80.5313 6.85036 79.3677 6.4277C78.8671 6.24582 78.1392 5.97802 77.7768 6.85279C76.753 9.32435 76.3523 11.2865 76.258 12.0833C76.2531 12.1246 76.2025 12.1331 76.1937 12.0367C76.1335 11.3983 75.9994 10.2381 75.9826 7.80087C75.9793 7.32529 75.8787 6.92059 75.3538 6.58919C75.0131 6.37398 73.979 5.99371 73.6066 6.44631C73.284 6.81622 72.9102 7.81203 72.522 8.99263C72.2065 9.9522 71.9867 10.6011 71.9867 10.6011C71.9867 10.6011 71.9909 8.01236 71.9946 7.0303C71.9963 6.65991 71.7422 6.53644 71.6655 6.51411C71.3208 6.41411 70.6412 6.24696 70.3529 6.24696C69.9969 6.24696 69.9098 6.44566 69.9098 6.73564C69.9098 6.77366 69.8537 10.1439 69.8537 12.5006C69.8537 12.6031 69.8537 12.7147 69.8541 12.8335C69.6574 13.9167 69.019 15.3869 68.3248 15.3869C67.6297 15.3869 67.3018 14.7723 67.3018 11.9627C67.3018 10.3237 67.351 9.61093 67.3751 8.42547C67.3892 7.74261 67.4164 7.21833 67.4148 7.0994C67.4096 6.7345 66.7788 6.55052 66.4852 6.48256C66.1902 6.41411 65.9338 6.38741 65.7337 6.3989C65.4503 6.41508 65.2499 6.60068 65.2499 6.85635C65.2499 6.99357 65.2515 7.25409 65.2515 7.25409C64.8866 6.68062 64.2997 6.28158 63.9092 6.16589C62.8574 5.85358 61.76 6.13029 60.9321 7.28872C60.2742 8.20896 59.8776 9.25154 59.7214 10.7491C59.6074 11.8441 59.6446 12.9544 59.8475 13.8934C59.6023 14.9529 59.1475 15.3869 58.6493 15.3869C57.9259 15.3869 57.4017 14.2066 57.4625 12.1649C57.5026 10.822 57.7714 9.87954 58.0651 8.51609C58.1903 7.93485 58.0886 7.63064 57.8334 7.33905C57.5992 7.07156 57.1004 6.93483 56.3835 7.1028C55.8728 7.2227 55.1426 7.35167 54.4744 7.4507C54.4744 7.4507 54.5149 7.28969 54.5479 7.00619C54.7217 5.51911 53.1056 5.63966 52.5899 6.11459C52.2823 6.39825 52.0728 6.73272 51.9933 7.33403C51.8671 8.28841 52.6454 8.73858 52.6454 8.73858C52.3902 9.90754 51.7642 11.4344 51.1179 12.5385C50.7718 13.1299 50.507 13.5683 50.1651 14.0341C50.154 12.1646 50.1662 10.2949 50.2017 8.42563C50.2158 7.74277 50.2431 7.23241 50.2417 7.11331C50.2378 6.84664 50.082 6.74567 49.7578 6.61816C49.4711 6.50521 49.1323 6.42722 48.7806 6.39971C48.3369 6.3654 48.0696 6.60052 48.0767 6.87884C48.078 6.93143 48.078 7.25409 48.078 7.25409C47.7131 6.68062 47.1262 6.28158 46.7358 6.16589C45.684 5.85358 44.5866 6.13029 43.7587 7.28872C43.1009 8.20896 42.6702 9.50057 42.548 10.7378C42.4344 11.8907 42.4553 12.8705 42.6103 13.6961C42.4432 14.5227 41.9622 15.3871 41.4187 15.3871C40.7235 15.3871 40.3281 14.7723 40.3281 11.9627C40.3281 10.3237 40.3773 9.61093 40.4015 8.42547C40.4156 7.74277 40.4426 7.21833 40.4412 7.0994C40.436 6.7345 39.8051 6.55068 39.5114 6.48256C39.2043 6.41136 38.9391 6.38547 38.7353 6.40052C38.4667 6.42042 38.2777 6.66104 38.2777 6.84049V7.25409C37.9128 6.68062 37.3259 6.28158 36.9355 6.16589C35.8837 5.85358 34.7924 6.13482 33.9584 7.28872C33.4147 8.041 32.9744 8.87499 32.7478 10.7213C32.6823 11.2548 32.6533 11.7547 32.6572 12.2215C32.4404 13.5477 31.4824 15.0762 30.6991 15.0762C30.2407 15.0762 29.8039 14.1869 29.8039 12.2919C29.8039 9.76756 29.9603 6.17333 29.9868 5.82704C29.9868 5.82704 30.9766 5.81022 31.1682 5.80795C31.6621 5.80245 32.1092 5.81426 32.7669 5.78044C33.0967 5.76378 33.4145 4.57977 33.0741 4.43333C32.9197 4.36699 31.8292 4.30906 31.3968 4.29983C31.0334 4.29174 30.0214 4.21666 30.0214 4.21666C30.0214 4.21666 30.1122 1.83102 30.1334 1.57908C30.1512 1.36888 29.8793 1.26079 29.7237 1.19525C29.3447 1.03505 29.0057 0.958192 28.6039 0.875342C28.0486 0.760777 27.7968 0.872915 27.7476 1.34137C27.6735 2.05255 27.6351 4.13559 27.6351 4.13559C27.2277 4.13559 25.8358 4.05598 25.4283 4.05598C25.0497 4.05598 24.6409 5.68449 25.1645 5.70455C25.7668 5.72785 26.8165 5.74824 27.5123 5.76895C27.5123 5.76895 27.4812 9.42241 27.4812 10.5506C27.4812 10.6703 27.4819 10.786 27.4825 10.8982C27.0995 12.8942 25.7506 13.9725 25.7506 13.9725C26.0403 12.6519 25.4485 11.6602 24.3827 10.8207C23.9899 10.5114 23.2147 9.92582 22.3473 9.28406C22.3473 9.28406 22.8496 8.78891 23.2953 7.79277C23.6108 7.08694 23.6245 6.27964 22.8496 6.10148C21.5693 5.80698 20.5138 6.74729 20.1989 7.75119C19.9549 8.52887 20.085 9.10574 20.563 9.7051C20.5978 9.74896 20.6358 9.79378 20.6747 9.83876C20.3858 10.3957 19.9887 11.1457 19.6525 11.7273C18.7191 13.3422 18.0141 14.6193 17.4812 14.6193C17.0553 14.6193 17.061 13.3225 17.061 12.1084C17.061 11.0618 17.1384 9.48811 17.2002 7.85912C17.2206 7.32027 16.951 7.01331 16.4995 6.73531C16.2251 6.56638 15.6395 6.23433 15.3003 6.23433C14.7925 6.23433 13.3278 6.30343 11.9439 10.3067C11.7695 10.8113 11.4268 11.7307 11.4268 11.7307L11.4564 6.91655C11.4564 6.8036 11.3962 6.69454 11.2585 6.61994C11.0253 6.49324 10.4025 6.23433 9.84858 6.23433C9.58482 6.23433 9.45294 6.35699 9.45294 6.60165L9.40472 14.1335C9.40472 14.7058 9.41961 15.3735 9.47625 15.6654C9.53256 15.9576 9.62398 16.1955 9.73693 16.3369C9.85004 16.4782 9.98062 16.5861 10.196 16.6305C10.3965 16.6717 11.4942 16.8127 11.5514 16.3932C11.6196 15.8903 11.6224 15.3466 12.1988 13.3184C13.0962 10.1606 14.2661 8.62013 14.8163 8.07288C14.9126 7.97741 15.0223 7.97158 15.017 8.12806C14.9937 8.8203 14.911 10.5504 14.8555 12.0197C14.7064 15.9526 15.4218 16.6816 16.4443 16.6816C17.2265 16.6816 18.3291 15.9044 19.511 13.9371C20.1696 12.8407 20.8251 11.7425 21.4776 10.6425C21.8357 10.9741 22.2378 11.3309 22.6394 11.7121C23.5731 12.5982 23.8796 13.4403 23.6762 14.239C23.5208 14.8495 22.9349 15.4788 21.8923 14.8673C21.5884 14.6888 21.4587 14.5508 21.1531 14.3497C20.9891 14.2418 20.7384 14.2094 20.5881 14.3227C20.1978 14.6168 19.9745 14.9913 19.847 15.4547C19.723 15.9057 20.1747 16.144 20.6429 16.3526C21.046 16.5321 21.9125 16.6947 22.465 16.7132C24.6179 16.7852 26.3427 15.6737 27.5434 12.8065C27.7583 15.2827 28.6729 16.6839 30.262 16.6839C31.3245 16.6839 32.3897 15.3105 32.8556 13.9595C32.9893 14.5102 33.1873 14.9892 33.443 15.3942C34.6675 17.3344 37.0429 16.9169 38.2361 15.2693C38.6051 14.7602 38.6612 14.5774 38.6612 14.5774C38.8353 16.1329 40.0881 16.6764 40.8053 16.6764C41.6087 16.6764 42.438 16.2966 43.0194 14.9879C43.0875 15.13 43.1619 15.2657 43.2432 15.3942C44.4676 17.3344 46.8432 16.9169 48.0364 15.2693C48.0928 15.1919 48.1416 15.122 48.1842 15.0589L48.2191 16.0808L47.1206 17.0884C45.2791 18.7761 43.8804 20.0561 43.7775 21.5469C43.6464 23.4477 45.1872 24.1542 46.3545 24.2468C47.5919 24.345 48.6536 23.6608 49.3051 22.7034C49.8786 21.8605 50.254 20.0465 50.2263 18.2551C50.2155 17.5376 50.1972 16.6255 50.1831 15.6476C50.8295 14.8969 51.5579 13.9481 52.2284 12.8377C52.9592 11.6275 53.7424 10.0022 54.1434 8.73729C54.1434 8.73729 54.8238 8.74328 55.55 8.6957C55.7822 8.68049 55.849 8.72807 55.806 8.89813C55.7542 9.10396 54.8885 12.4427 55.6787 14.6668C56.2193 16.1895 57.4382 16.6792 58.1609 16.6792C59.007 16.6792 59.8163 16.0403 60.2499 15.0918C60.3024 15.1974 60.3569 15.2997 60.4166 15.3944C61.6411 17.3345 64.0082 16.9143 65.2099 15.2693C65.4811 14.8981 65.635 14.5774 65.635 14.5774C65.8927 16.1874 67.1449 16.6847 67.862 16.6847C68.609 16.6847 69.318 16.3784 69.8931 15.0173C69.9174 15.6167 69.9551 16.1067 70.0148 16.261C70.0512 16.3557 70.2635 16.4742 70.4179 16.5314C71.1014 16.7848 71.7982 16.6651 72.0561 16.613C72.2348 16.5767 72.3741 16.4334 72.3932 16.0635C72.4433 15.0918 72.4126 13.4592 72.7071 12.2458C73.2014 10.2096 73.6628 9.41982 73.8816 9.02888C74.0041 8.80962 74.1421 8.77354 74.1471 9.00542C74.1575 9.47468 74.1808 10.8522 74.3723 12.7034C74.5131 14.0646 74.7008 14.8693 74.8453 15.1241C75.2576 15.8523 75.7665 15.8868 76.1811 15.8868C76.4449 15.8868 76.9963 15.8139 76.947 15.3505C76.9229 15.1246 76.9649 13.7285 77.4525 11.7225C77.7708 10.4124 78.3015 9.22888 78.493 8.79603C78.5637 8.63648 78.5965 8.76221 78.5952 8.7868C78.5549 9.68892 78.4645 12.6398 78.832 14.2537C79.3304 16.44 80.7715 16.6847 81.2738 16.6847C82.3459 16.6847 83.2228 15.8691 83.5181 13.7231C83.5893 13.2066 83.484 12.8081 83.1683 12.8081Z" fill="#343433"/>
</svg>
