<svg width="41" height="41" viewBox="0 0 41 41" fill="none" xmlns="http://www.w3.org/2000/svg">
<path d="M20.1657 14.8997C18.7291 14.8997 17.3514 15.4703 16.3355 16.4862C15.3197 17.502 14.749 18.8797 14.749 20.3163C14.749 21.7529 15.3197 23.1307 16.3355 24.1465C17.3514 25.1623 18.7291 25.733 20.1657 25.733C21.6023 25.733 22.98 25.1623 23.9959 24.1465C25.0117 23.1307 25.5824 21.7529 25.5824 20.3163C25.5824 18.8797 25.0117 17.502 23.9959 16.4862C22.98 15.4703 21.6023 14.8997 20.1657 14.8997Z" fill="#29292B"/>
<path fill-rule="evenodd" clip-rule="evenodd" d="M11.4494 5.45257C17.2427 4.81041 23.0893 4.81041 28.8827 5.45257C32.0477 5.80591 34.5994 8.29757 34.971 11.4742C35.6581 17.3487 35.6581 23.2831 34.971 29.1576C34.5994 32.3342 32.0477 34.8259 28.8844 35.1809C23.0905 35.8233 17.2433 35.8233 11.4494 35.1809C8.28438 34.8259 5.73271 32.3342 5.36104 29.1592C4.67392 23.2843 4.67392 17.3492 5.36104 11.4742C5.73271 8.29757 8.28438 5.80591 11.4494 5.45257ZM28.4994 10.3159C28.0573 10.3159 27.6334 10.4915 27.3209 10.8041C27.0083 11.1166 26.8327 11.5405 26.8327 11.9826C26.8327 12.4246 27.0083 12.8485 27.3209 13.1611C27.6334 13.4736 28.0573 13.6492 28.4994 13.6492C28.9414 13.6492 29.3653 13.4736 29.6779 13.1611C29.9904 12.8485 30.166 12.4246 30.166 11.9826C30.166 11.5405 29.9904 11.1166 29.6779 10.8041C29.3653 10.4915 28.9414 10.3159 28.4994 10.3159ZM12.2494 20.3159C12.2494 18.2163 13.0835 16.2026 14.5681 14.718C16.0528 13.2333 18.0664 12.3992 20.166 12.3992C22.2657 12.3992 24.2793 13.2333 25.764 14.718C27.2486 16.2026 28.0827 18.2163 28.0827 20.3159C28.0827 22.4155 27.2486 24.4292 25.764 25.9138C24.2793 27.3985 22.2657 28.2326 20.166 28.2326C18.0664 28.2326 16.0528 27.3985 14.5681 25.9138C13.0835 24.4292 12.2494 22.4155 12.2494 20.3159Z" fill="#29292B"/>
</svg>
