<svg width="33" height="33" viewBox="0 0 33 33" fill="none" xmlns="http://www.w3.org/2000/svg">
<path d="M16.1665 2.64966C13.2502 2.6531 10.4543 3.81313 8.39214 5.87528C6.32999 7.93744 5.16996 10.7333 5.16652 13.6497C5.16302 16.0329 5.9415 18.3514 7.38252 20.2497C7.38252 20.2497 7.68252 20.6447 7.73152 20.7017L16.1665 30.6497L24.6055 20.6967C24.6495 20.6437 24.9505 20.2497 24.9505 20.2497L24.9515 20.2467C26.3918 18.3493 27.1699 16.0318 27.1665 13.6497C27.1631 10.7333 26.003 7.93744 23.9409 5.87528C21.8787 3.81313 19.0828 2.6531 16.1665 2.64966ZM16.1665 17.6497C15.3754 17.6497 14.602 17.4151 13.9442 16.9755C13.2864 16.536 12.7737 15.9113 12.471 15.1804C12.1682 14.4495 12.089 13.6452 12.2434 12.8693C12.3977 12.0934 12.7787 11.3806 13.3381 10.8212C13.8975 10.2618 14.6102 9.88086 15.3862 9.72652C16.1621 9.57218 16.9663 9.65139 17.6972 9.95414C18.4282 10.2569 19.0529 10.7696 19.4924 11.4274C19.9319 12.0852 20.1665 12.8585 20.1665 13.6497C20.1652 14.7101 19.7433 15.7268 18.9935 16.4766C18.2436 17.2265 17.227 17.6483 16.1665 17.6497Z" fill="#29292B"/>
</svg>
