<svg width="33" height="33" viewBox="0 0 33 33" fill="none" xmlns="http://www.w3.org/2000/svg">
<path d="M29.4987 10.3582V22.9782C29.4988 23.9984 29.1089 24.9802 28.409 25.7225C27.709 26.4648 26.7519 26.9116 25.7334 26.9715L25.4987 26.9782H6.83203C5.81175 26.9782 4.83001 26.5884 4.08768 25.8884C3.34536 25.1885 2.89855 24.2313 2.8387 23.2128L2.83203 22.9782V10.3582L15.4254 18.7542L15.58 18.8422C15.7623 18.9312 15.9625 18.9775 16.1654 18.9775C16.3682 18.9775 16.5684 18.9312 16.7507 18.8422L16.9054 18.7542L29.4987 10.3582Z" fill="#29292B"/>
<path d="M25.4986 5.64502C26.9386 5.64502 28.2013 6.40502 28.9053 7.54769L16.1653 16.041L3.42529 7.54769C3.7596 7.00471 4.21891 6.54955 4.7649 6.2202C5.3109 5.89084 5.92774 5.69683 6.56396 5.65435L6.83196 5.64502H25.4986Z" fill="#29292B"/>
</svg>
