<svg width="36" height="37" viewBox="0 0 36 37" fill="none" xmlns="http://www.w3.org/2000/svg">
<path fill-rule="evenodd" clip-rule="evenodd" d="M17.9375 4.04736C9.88921 4.04736 3.36536 10.5712 3.36536 18.6196C3.36536 26.6679 9.88921 33.1917 17.9375 33.1917C25.9859 33.1917 32.5097 26.6679 32.5097 18.6196C32.5097 10.5712 25.9859 4.04736 17.9375 4.04736ZM13.4538 11.8939C13.1565 11.8939 12.8714 12.012 12.6612 12.2222C12.451 12.4325 12.3329 12.7176 12.3329 13.0149C12.3329 13.3122 12.451 13.5973 12.6612 13.8075C12.8714 14.0177 13.1565 14.1358 13.4538 14.1358H15.6957C17.1604 14.1358 18.4053 15.0714 18.8672 16.3777H13.4538C13.1565 16.3777 12.8714 16.4958 12.6612 16.706C12.451 16.9162 12.3329 17.2013 12.3329 17.4986C12.3329 17.7959 12.451 18.081 12.6612 18.2912C12.8714 18.5015 13.1565 18.6196 13.4538 18.6196H18.8672C18.6351 19.2752 18.2056 19.8429 17.6376 20.2444C17.0696 20.6458 16.3912 20.8614 15.6957 20.8614H13.4538C13.2322 20.8616 13.0157 20.9275 12.8316 21.0507C12.6474 21.1738 12.5039 21.3488 12.4191 21.5535C12.3344 21.7582 12.3122 21.9835 12.3553 22.2008C12.3985 22.4181 12.5051 22.6177 12.6617 22.7745L17.1454 27.2582C17.248 27.3684 17.3718 27.4567 17.5093 27.518C17.6468 27.5792 17.7952 27.6122 17.9457 27.6148C18.0962 27.6175 18.2457 27.5898 18.3853 27.5334C18.5249 27.4771 18.6517 27.3931 18.7581 27.2867C18.8646 27.1803 18.9485 27.0535 19.0049 26.9139C19.0612 26.7743 19.0889 26.6248 19.0863 26.4743C19.0836 26.3238 19.0507 26.1754 18.9894 26.0379C18.9281 25.9004 18.8398 25.7766 18.7297 25.674L16.144 23.0854C17.3551 22.9879 18.5018 22.4998 19.4115 21.6944C20.3213 20.889 20.9448 19.8099 21.1883 18.6196H22.4213C22.7186 18.6196 23.0037 18.5015 23.2139 18.2912C23.4241 18.081 23.5422 17.7959 23.5422 17.4986C23.5422 17.2013 23.4241 16.9162 23.2139 16.706C23.0037 16.4958 22.7186 16.3777 22.4213 16.3777H21.1883C21.0229 15.5647 20.6782 14.7988 20.1794 14.1358H22.4213C22.7186 14.1358 23.0037 14.0177 23.2139 13.8075C23.4241 13.5973 23.5422 13.3122 23.5422 13.0149C23.5422 12.7176 23.4241 12.4325 23.2139 12.2222C23.0037 12.012 22.7186 11.8939 22.4213 11.8939H13.4538Z" fill="#898A8D"/>
</svg>
