<svg width="25" height="25" viewBox="0 0 25 25" fill="none" xmlns="http://www.w3.org/2000/svg">
<path fill-rule="evenodd" clip-rule="evenodd" d="M21.2111 2.21348C20.8695 1.34681 19.6445 1.34681 19.3049 2.21348L18.858 3.34889L17.7288 3.79577C16.8643 4.13743 16.8643 5.36243 17.7288 5.7041L18.858 6.15202L19.3038 7.28639C19.6445 8.15306 20.8695 8.15306 21.2101 7.28639L21.657 6.15098L22.7861 5.7041C23.6507 5.36243 23.6507 4.13743 22.7861 3.79577L21.657 3.34785L21.2111 2.21348ZM20.257 2.63639L20.6893 3.73535C20.7934 3.99993 21.0018 4.20931 21.2663 4.31452L22.3674 4.74993L21.2663 5.18639C21.1357 5.23805 21.017 5.31603 20.9177 5.41549C20.8184 5.51494 20.7407 5.63374 20.6893 5.76452L20.257 6.86348L19.8257 5.76452C19.7743 5.63374 19.6965 5.51494 19.5973 5.41549C19.498 5.31603 19.3793 5.23805 19.2486 5.18639L18.1476 4.74993L19.2486 4.31452C19.3794 4.26274 19.4981 4.1846 19.5974 4.08496C19.6967 3.98533 19.7744 3.86632 19.8257 3.73535L20.257 2.63639ZM17.182 8.2791C16.8413 7.41139 15.6163 7.41139 15.2757 8.2791L15.1143 8.68848L14.708 8.84993C13.8434 9.1916 13.8434 10.4166 14.708 10.7593L15.1143 10.9197L15.2757 11.3301C15.6163 12.1968 16.8413 12.1968 17.182 11.3301L17.3434 10.9197L17.7497 10.7593C18.6143 10.4166 18.6143 9.1916 17.7497 8.84993L17.3434 8.68848L17.182 8.2791ZM16.2288 8.70098L16.3757 9.07598C16.4799 9.33952 16.6882 9.54993 16.9528 9.6541L17.332 9.8041L16.9528 9.9541C16.822 10.0059 16.7033 10.084 16.604 10.1837C16.5047 10.2833 16.427 10.4023 16.3757 10.5333L16.2288 10.9083L16.082 10.5333C16.0307 10.4023 15.953 10.2833 15.8537 10.1837C15.7544 10.084 15.6357 10.0059 15.5049 9.9541L15.1257 9.8041L15.5049 9.6541C15.6356 9.60244 15.7542 9.52446 15.8535 9.42501C15.9528 9.32556 16.0305 9.20675 16.082 9.07598L16.2288 8.70098Z" fill="#898A8D"/>
<path fill-rule="evenodd" clip-rule="evenodd" d="M11.4747 2.9194C9.66667 3.11272 7.9502 3.81373 6.52372 4.9414C5.09723 6.06907 4.01896 7.57738 3.41351 9.29201C2.80806 11.0066 2.70016 12.8576 3.10227 14.6309C3.50438 16.4043 4.40008 18.0277 5.68587 19.3135C6.97166 20.5993 8.59504 21.495 10.3684 21.8971C12.1418 22.2992 13.9927 22.1913 15.7073 21.5858C17.422 20.9804 18.9303 19.9021 20.0579 18.4756C21.1856 17.0491 21.8866 15.3327 22.0799 13.5246C21.4199 14.3632 20.5897 15.0524 19.6439 15.5468C18.6982 16.0412 17.6583 16.3295 16.593 16.3928C15.5277 16.456 14.4611 16.2928 13.4635 15.9138C12.4658 15.5348 11.5599 14.9487 10.8053 14.1941C10.0506 13.4395 9.46453 12.5335 9.08555 11.5359C8.70657 10.5382 8.54332 9.47162 8.60658 8.40631C8.66984 7.341 8.95816 6.3012 9.45254 5.35543C9.94691 4.40966 10.6361 3.57941 11.4747 2.9194ZM1.30078 12.5007C1.30078 6.31628 6.31432 1.30273 12.4987 1.30273C13.2456 1.30273 13.6185 1.89753 13.6831 2.37148C13.7445 2.82773 13.5758 3.40794 13.0518 3.72461C12.2736 4.19425 11.6126 4.83484 11.1186 5.59785C10.6247 6.36085 10.3109 7.22626 10.201 8.12851C10.0912 9.03076 10.188 9.94619 10.4844 10.8054C10.7807 11.6647 11.2687 12.4452 11.9114 13.0879C12.5541 13.7306 13.3347 14.2186 14.1939 14.515C15.0532 14.8113 15.9686 14.9082 16.8708 14.7983C17.7731 14.6884 18.6385 14.3746 19.4015 13.8807C20.1645 13.3868 20.8051 12.7257 21.2747 11.9475C21.5914 11.4236 22.1716 11.2548 22.6279 11.3163C23.1018 11.3809 23.6966 11.7538 23.6966 12.5007C23.6966 18.685 18.6831 23.6986 12.4987 23.6986C6.31432 23.6986 1.30078 18.685 1.30078 12.5007Z" fill="#898A8D"/>
</svg>
