<svg width="33" height="33" viewBox="0 0 33 33" fill="none" xmlns="http://www.w3.org/2000/svg">
<path d="M26.766 28.4424C23.9882 28.4424 21.2438 27.8371 18.5327 26.6264C15.8216 25.4157 13.3549 23.6988 11.1327 21.4757C8.91046 19.2535 7.19402 16.7868 5.98335 14.0757C4.77268 11.3646 4.1669 8.62016 4.16602 5.84238C4.16602 5.44238 4.29935 5.10905 4.56602 4.84238C4.83268 4.57572 5.16602 4.44238 5.56602 4.44238H10.966C11.2771 4.44238 11.5549 4.54816 11.7993 4.75972C12.0438 4.97127 12.1882 5.22105 12.2327 5.50905L13.0993 10.1757C13.1438 10.5313 13.1327 10.8313 13.066 11.0757C12.9993 11.3202 12.8771 11.5313 12.6993 11.709L9.46602 14.9757C9.91046 15.7979 10.438 16.5922 11.0487 17.3584C11.6593 18.1246 12.3318 18.8637 13.066 19.5757C13.7549 20.2646 14.4771 20.9037 15.2327 21.493C15.9882 22.0824 16.7882 22.621 17.6327 23.1091L20.766 19.9757C20.966 19.7757 21.2274 19.6259 21.55 19.5264C21.8727 19.4268 22.1891 19.3988 22.4993 19.4424L27.0993 20.3757C27.4105 20.4646 27.666 20.6259 27.866 20.8597C28.066 21.0935 28.166 21.3544 28.166 21.6424V27.0424C28.166 27.4424 28.0327 27.7757 27.766 28.0424C27.4994 28.3091 27.166 28.4424 26.766 28.4424Z" fill="#29292B"/>
</svg>
