<svg width="23" height="22" viewBox="0 0 23 22" fill="none" xmlns="http://www.w3.org/2000/svg">
<path fill-rule="evenodd" clip-rule="evenodd" d="M3.87964 7.1918C5.24027 4.12125 8.42829 2.11764 11.9675 2.10876C15.7818 2.08988 19.1735 4.38607 20.3625 7.79232C21.5515 11.1986 20.2663 14.9367 17.1813 17.045C14.0963 19.1534 9.91622 19.1502 6.83481 17.0373L4.08722 19.6195C3.80786 19.8817 3.35531 19.8817 3.07595 19.6195C2.79695 19.3569 2.79695 18.9316 3.07595 18.6691L5.73768 16.1675C3.2514 13.8004 2.51901 10.2623 3.87964 7.1918ZM5.15532 13.0195C6.29773 15.6068 8.98683 17.2919 11.9675 17.2883V17.2524C16.0128 17.2476 19.2968 14.1773 19.323 10.3755C19.3268 7.57423 17.5338 5.04698 14.7808 3.97331C12.0278 2.89965 8.85765 3.49128 6.75003 5.47206C4.64241 7.45283 4.0129 10.4322 5.15532 13.0195Z" fill="#5D6B78"/>
</svg>
