<svg width="40" height="41" viewBox="0 0 40 41" fill="none" xmlns="http://www.w3.org/2000/svg">
<path d="M9.58409 16.2385H7.61409C5.98076 16.2385 4.65576 17.5619 4.65576 19.1969V33.0035C4.65576 34.6369 5.98076 35.9635 7.61409 35.9635H9.58743C11.2208 35.9635 12.5458 34.6385 12.5458 33.0035V19.1969C12.5458 17.5635 11.2208 16.2385 9.58743 16.2385" stroke="#0515A7" stroke-width="2.66667" stroke-linecap="round" stroke-linejoin="round"/>
<path d="M35.2668 20.9519L32.9001 32.7869C32.7199 33.6952 32.226 34.5112 31.5047 35.092C30.7835 35.6728 29.881 35.9813 28.9551 35.9636H16.4885C15.4422 35.9636 14.4388 35.548 13.6989 34.8082C12.9591 34.0683 12.5435 33.0649 12.5435 32.0186V20.1836C12.5753 19.424 12.7675 18.6797 13.1077 17.9998C13.4478 17.3198 13.928 16.7196 14.5168 16.2386L16.1535 6.37528C16.1907 6.14544 16.2817 5.92763 16.4189 5.73956C16.5562 5.55149 16.7359 5.39846 16.9434 5.2929C17.151 5.18735 17.3805 5.13225 17.6133 5.13208C17.8462 5.13191 18.0758 5.18669 18.2835 5.29195L20.1168 6.19861C21.3287 6.79767 22.2989 7.79367 22.8659 9.02087C23.433 10.2481 23.5627 11.6324 23.2335 12.9436L22.4068 16.2186H31.4001C31.9852 16.2184 32.5629 16.3484 33.0915 16.599C33.6202 16.8497 34.0864 17.2148 34.4565 17.6678C34.8267 18.1209 35.0914 18.6506 35.2315 19.2186C35.3716 19.7866 35.3837 20.3787 35.2668 20.9519Z" stroke="#0515A7" stroke-width="2.66667" stroke-linecap="round" stroke-linejoin="round"/>
</svg>
