<svg width="41" height="41" viewBox="0 0 41 41" fill="none" xmlns="http://www.w3.org/2000/svg">
<path d="M37.1025 9.74441C35.8301 10.3072 34.4808 10.6769 33.0992 10.8411C34.5554 9.97014 35.6454 8.59944 36.1658 6.98442C34.7992 7.79775 33.3008 8.36775 31.7392 8.67608C30.6902 7.55371 29.2998 6.80935 27.7841 6.55872C26.2684 6.30809 24.7124 6.56523 23.358 7.29017C22.0035 8.01511 20.9265 9.16722 20.2944 10.5674C19.6623 11.9676 19.5104 13.5374 19.8625 15.0327C17.091 14.8938 14.3797 14.1736 11.9047 12.9189C9.42959 11.6641 7.24607 9.90283 5.49586 7.74942C4.87634 8.8135 4.55078 10.0231 4.55253 11.2544C4.55253 13.6711 5.78252 15.8061 7.65252 17.0561C6.54587 17.0212 5.46358 16.7224 4.49586 16.1844V16.2711C4.49619 17.8806 5.05314 19.4404 6.07227 20.6862C7.0914 21.9319 8.50999 22.7869 10.0875 23.1061C9.06021 23.3845 7.98304 23.4255 6.93752 23.2261C7.3823 24.6115 8.2492 25.8231 9.41684 26.6913C10.5845 27.5594 11.9944 28.0407 13.4492 28.0677C12.0033 29.2033 10.3478 30.0427 8.57732 30.538C6.80683 31.0333 4.95607 31.1748 3.13086 30.9544C6.31702 33.0035 10.026 34.0913 13.8142 34.0877C26.6358 34.0877 33.6475 23.4661 33.6475 14.2544C33.6475 13.9544 33.6392 13.6511 33.6258 13.3544C34.9906 12.368 36.1685 11.1461 37.1042 9.74608L37.1025 9.74441Z" fill="#29292B"/>
</svg>
