<svg width="40" height="41" viewBox="0 0 40 41" fill="none" xmlns="http://www.w3.org/2000/svg">
<g clip-path="url(#clip0_42_990)">
<path d="M17.9297 37.2847C17.7995 37.7795 17.7018 38.2808 17.6367 38.7886C17.5716 39.2964 17.526 39.8172 17.5 40.3511C15.8333 40.1558 14.2448 39.7651 12.7344 39.1792C11.224 38.5933 9.82422 37.8446 8.53516 36.9331C7.24609 36.0216 6.07422 34.967 5.01953 33.769C3.96484 32.5711 3.06641 31.269 2.32422 29.8628C1.58203 28.4565 1.00911 26.9722 0.605469 25.4097C0.201823 23.8472 0 22.2261 0 20.5464C0 18.7104 0.234375 16.9396 0.703125 15.2339C1.17188 13.5282 1.84245 11.9331 2.71484 10.4487C3.58724 8.96436 4.62891 7.6167 5.83984 6.40576C7.05078 5.19482 8.40495 4.15316 9.90234 3.28076C11.3997 2.40837 12.9883 1.73779 14.668 1.26904C16.3477 0.800293 18.125 0.559408 20 0.546387C21.8359 0.546387 23.6003 0.780762 25.293 1.24951C26.9857 1.71826 28.5807 2.39535 30.0781 3.28076C31.5755 4.16618 32.9232 5.20785 34.1211 6.40576C35.319 7.60368 36.3672 8.95785 37.2656 10.4683C38.1641 11.9787 38.8346 13.5672 39.2773 15.2339C39.7201 16.9006 39.9609 18.6714 40 20.5464H38.6133C38.431 20.2469 38.2422 19.9539 38.0469 19.6675C37.8516 19.381 37.6237 19.1076 37.3633 18.8472C37.2852 17.7144 37.0833 16.6141 36.7578 15.5464H12.832C12.7279 16.3797 12.6497 17.2065 12.5977 18.0269C12.5456 18.8472 12.513 19.687 12.5 20.5464C12.5 21.3927 12.526 22.2261 12.5781 23.0464C12.6302 23.8667 12.7148 24.7 12.832 25.5464H20C20 25.9631 20.0326 26.3797 20.0977 26.7964C20.1628 27.2131 20.2474 27.6297 20.3516 28.0464H13.2617C13.418 28.7886 13.6263 29.6024 13.8867 30.4878C14.1471 31.3732 14.4727 32.2391 14.8633 33.0854C15.2539 33.9318 15.7031 34.7261 16.2109 35.4683C16.7188 36.2104 17.2917 36.8159 17.9297 37.2847ZM35.8008 13.0464C35.293 11.9917 34.694 11.0021 34.0039 10.0776C33.3138 9.15316 32.5326 8.3068 31.6602 7.53857C30.7878 6.77035 29.8633 6.08675 28.8867 5.48779C27.9102 4.88883 26.8555 4.40055 25.7227 4.02295C26.1914 4.67399 26.6081 5.3641 26.9727 6.09326C27.3372 6.82243 27.6693 7.57113 27.9688 8.33936C28.2682 9.10758 28.5221 9.88883 28.7305 10.6831C28.9388 11.4774 29.1211 12.2651 29.2773 13.0464H35.8008ZM20 3.04639C19.349 3.04639 18.75 3.22217 18.2031 3.57373C17.6562 3.92529 17.1484 4.38753 16.6797 4.96045C16.2109 5.53337 15.7943 6.1779 15.4297 6.89404C15.0651 7.61019 14.7331 8.34587 14.4336 9.10107C14.1341 9.85628 13.8932 10.5724 13.7109 11.2495C13.5286 11.9266 13.3789 12.5256 13.2617 13.0464H26.7383C26.6341 12.5386 26.4844 11.9396 26.2891 11.2495C26.0938 10.5594 25.8529 9.84326 25.5664 9.10107C25.2799 8.35889 24.9544 7.62972 24.5898 6.91357C24.2253 6.19743 23.8086 5.54639 23.3398 4.96045C22.8711 4.37451 22.3568 3.91227 21.7969 3.57373C21.237 3.23519 20.638 3.05941 20 3.04639ZM14.2969 4.00342C13.1901 4.38102 12.1354 4.86279 11.1328 5.44873C10.1302 6.03467 9.19922 6.71826 8.33984 7.49951C7.48047 8.28076 6.69922 9.13363 5.99609 10.0581C5.29297 10.9826 4.69401 11.9787 4.19922 13.0464H10.7227C10.8659 12.3302 11.0417 11.5685 11.25 10.7612C11.4583 9.95394 11.7188 9.14665 12.0312 8.33936C12.3438 7.53206 12.6823 6.75732 13.0469 6.01514C13.4115 5.27295 13.8281 4.60238 14.2969 4.00342ZM2.5 20.5464C2.5 22.2782 2.74089 23.9448 3.22266 25.5464H10.3125C10.2083 24.7131 10.1302 23.8862 10.0781 23.0659C10.026 22.2456 10 21.4058 10 20.5464C10 19.7 10.026 18.8667 10.0781 18.0464C10.1302 17.2261 10.2083 16.3927 10.3125 15.5464H3.22266C2.74089 17.1479 2.5 18.8146 2.5 20.5464ZM4.16016 28.0464C4.66797 29.1011 5.26693 30.0907 5.95703 31.0151C6.64714 31.9396 7.42839 32.7925 8.30078 33.5737C9.17318 34.355 10.1107 35.0321 11.1133 35.605C12.1159 36.1779 13.1706 36.6662 14.2773 37.0698C13.8086 36.4188 13.3919 35.7287 13.0273 34.9995C12.6628 34.2703 12.3307 33.5216 12.0312 32.7534C11.7318 31.9852 11.4779 31.2039 11.2695 30.4097C11.0612 29.6154 10.8724 28.8276 10.7031 28.0464H4.16016ZM34.4141 31.5815C35.2604 32.0112 36.0286 32.5386 36.7188 33.1636C37.4089 33.7886 37.9948 34.4917 38.4766 35.2729C38.9583 36.0542 39.3359 36.8875 39.6094 37.7729C39.8828 38.6584 40.013 39.5828 40 40.5464H37.5C37.5 39.5177 37.3047 38.5477 36.9141 37.6362C36.5234 36.7248 35.9896 35.9305 35.3125 35.2534C34.6354 34.5763 33.8346 34.036 32.9102 33.6323C31.9857 33.2287 31.0156 33.0334 30 33.0464C28.9583 33.0464 27.9883 33.2417 27.0898 33.6323C26.1914 34.0229 25.3971 34.5568 24.707 35.2339C24.0169 35.911 23.4766 36.7118 23.0859 37.6362C22.6953 38.5607 22.5 39.5308 22.5 40.5464H20C20 39.5959 20.1302 38.6779 20.3906 37.7925C20.651 36.9071 21.0221 36.0672 21.5039 35.2729C21.9857 34.4787 22.5716 33.7756 23.2617 33.1636C23.9518 32.5516 24.7201 32.0243 25.5664 31.5815C24.5898 30.8784 23.8346 29.9995 23.3008 28.9448C22.7669 27.8901 22.5 26.7573 22.5 25.5464C22.5 24.5177 22.6953 23.5477 23.0859 22.6362C23.4766 21.7248 24.0104 20.9305 24.6875 20.2534C25.3646 19.5763 26.1589 19.036 27.0703 18.6323C27.9818 18.2287 28.9583 18.0334 30 18.0464C31.0286 18.0464 31.9987 18.2417 32.9102 18.6323C33.8216 19.0229 34.6159 19.5568 35.293 20.2339C35.9701 20.911 36.5104 21.7118 36.9141 22.6362C37.3177 23.5607 37.513 24.5308 37.5 25.5464C37.5 26.7443 37.2331 27.8706 36.6992 28.9253C36.1654 29.98 35.4036 30.8654 34.4141 31.5815ZM30 30.5464C30.6901 30.5464 31.3346 30.4162 31.9336 30.1558C32.5326 29.8953 33.0664 29.5373 33.5352 29.0815C34.0039 28.6258 34.362 28.0985 34.6094 27.4995C34.8568 26.9006 34.987 26.2495 35 25.5464C35 24.8563 34.8698 24.2118 34.6094 23.6128C34.349 23.0138 33.9909 22.48 33.5352 22.0112C33.0794 21.5425 32.5521 21.1844 31.9531 20.937C31.3542 20.6896 30.7031 20.5594 30 20.5464C29.3099 20.5464 28.6654 20.6766 28.0664 20.937C27.4674 21.1974 26.9336 21.5555 26.4648 22.0112C25.9961 22.467 25.638 22.9943 25.3906 23.5933C25.1432 24.1922 25.013 24.8433 25 25.5464C25 26.2365 25.1302 26.881 25.3906 27.48C25.651 28.0789 26.0091 28.6128 26.4648 29.0815C26.9206 29.5503 27.4479 29.9084 28.0469 30.1558C28.6458 30.4032 29.2969 30.5334 30 30.5464Z" fill="#0515A7"/>
</g>
<defs>
<clipPath id="clip0_42_990">
<rect width="40" height="40" fill="white" transform="translate(0 0.546387)"/>
</clipPath>
</defs>
</svg>
