<svg width="44" height="26" viewBox="0 0 44 26" fill="none" xmlns="http://www.w3.org/2000/svg">
<path d="M22.7151 20.6162C21.4323 21.9151 20.1869 23.1362 18.9862 24.3927C17.6438 25.8045 16.458 25.9245 14.7129 24.9362C10.6633 22.6421 6.56894 20.3903 2.51935 18.0962C0.818967 17.1362 0.326713 15.6045 0.475869 13.8609C0.625026 12.1174 0.878604 10.3739 1.09488 8.63037C1.27387 7.2186 1.9451 6.18093 3.68277 6.13152C5.42044 6.08211 6.94184 7.09152 6.8076 8.55975C6.44962 12.315 8.14254 13.501 12.0281 15.8657C13.3332 16.6633 14.3251 17.8986 15.8763 18.6327C16.0478 18.5268 17.1218 17.6727 17.2933 17.5668C16.719 16.5574 16.1895 15.5198 15.5556 14.5386C14.064 12.2304 12.3636 10.0351 11.148 7.62096C10.9521 7.05852 10.8893 6.46216 10.964 5.87418C11.0388 5.2862 11.2493 4.72099 11.5806 4.2186C12.9081 2.27743 15.041 2.80683 16.6892 5.04447C18.3374 7.28212 20.09 9.37858 21.9097 11.4751C22.5958 12.2798 23.4012 12.1809 23.871 11.1574C25.0195 8.7574 26.0562 6.31507 27.3613 3.99272C28.033 2.73855 28.9938 1.64329 30.1729 0.787983C30.8217 0.350336 32.3357 0.46331 33.156 0.865663C34.4761 1.53625 34.5879 2.9833 34.0957 4.16212C32.8279 7.20447 31.3736 10.1762 30.0312 13.1833C29.6881 13.9527 29.4495 14.7574 29.1661 15.548C29.3227 15.6539 30.5085 16.3174 30.6577 16.4304C31.7167 15.7245 32.0299 14.6586 32.7533 13.7409C34.5093 11.4996 36.1111 9.15354 37.5487 6.71741C38.5928 4.95271 40.226 3.68212 41.8668 3.89388C43.2912 4.05624 43.955 4.63505 43.8356 6.08917C43.5448 9.81622 41.3671 12.7033 38.9358 15.3927C36.3181 18.2868 34.5283 20.228 32.9696 23.8633C32.3879 25.2186 30.1953 25.4233 29.3376 24.8797C27.6745 23.828 26.0786 22.6774 24.4378 21.5904C23.9382 21.1809 23.3788 20.948 22.7151 20.6162Z" fill="#0515A7"/>
</svg>
