<svg width="120" height="120" viewBox="0 0 120 120" fill="none" xmlns="http://www.w3.org/2000/svg">
<rect width="120" height="120" rx="21.0938" fill="white"/>
<path d="M92.9168 33.0443V34.8768H90.418V38.875H88.2523V34.8768H85.7535V33.0443H92.9168ZM102.095 33.0443V38.875H99.9293V36.1013L98.3384 38.875H96.9224L95.3314 36.1013V38.875H93.1658V33.0443H95.8312L97.6304 36.3761L99.4295 33.0443H102.095Z" fill="#0514A7"/>
<path d="M53.6824 79.6611C51.6042 81.875 49.5863 83.9565 47.6409 86.0982C45.4659 88.5047 43.5448 88.7092 40.7173 87.0247C34.1562 83.1143 27.5226 79.276 20.9615 75.3656C18.2066 73.7292 17.409 71.1183 17.6507 68.1463C17.8923 65.1744 18.3032 62.2025 18.6536 59.2306C18.9436 56.8241 20.0311 55.0554 22.8465 54.9711C25.6618 54.8869 28.1268 56.6075 27.9093 59.1102C27.3293 65.5113 30.0721 67.5327 36.3674 71.5635C38.482 72.9231 40.089 75.0287 42.6023 76.2801C42.8802 76.0996 44.6202 74.6437 44.8981 74.4632C43.9677 72.7426 43.1098 70.9739 42.0827 69.3014C39.6661 65.3669 36.9111 61.625 34.9416 57.51C34.6241 56.5513 34.5224 55.5347 34.6435 54.5325C34.7646 53.5303 35.1056 52.5668 35.6424 51.7105C37.7932 48.4017 41.249 49.304 43.9194 53.1182C46.5897 56.9324 49.4293 60.5059 52.3775 64.0795C53.4892 65.4511 54.7941 65.2827 55.5553 63.538C57.4161 59.4471 59.0957 55.284 61.2103 51.3254C62.2984 49.1877 63.8552 47.3207 65.7655 45.8628C66.8168 45.1168 69.2696 45.3094 70.5988 45.9952C72.7375 47.1383 72.9187 49.6048 72.1212 51.6142C70.0671 56.8 67.7109 61.8655 65.5359 66.9912C64.9801 68.3027 64.5935 69.6744 64.1343 71.022C64.3881 71.2025 66.3093 72.3335 66.551 72.526C68.2668 71.3228 68.7742 69.506 69.9463 67.9418C72.7914 64.1213 75.3865 60.1223 77.7157 55.9698C79.4074 52.9618 82.0535 50.796 84.7118 51.157C87.0197 51.4337 88.0951 52.4203 87.9018 54.899C87.4305 61.2519 83.9022 66.173 79.9632 70.7573C75.722 75.6904 72.8221 78.9993 70.2967 85.1958C69.3542 87.506 65.8018 87.8549 64.4122 86.9284C61.7177 85.1357 59.1319 83.1745 56.4736 81.3215C55.6641 80.6236 54.7578 80.2266 53.6824 79.6611Z" fill="#0514A7"/>
</svg>
