<svg width="247" height="49" viewBox="0 0 247 49" fill="none" xmlns="http://www.w3.org/2000/svg">
<path d="M2.66461 14.6339H22.2986V20.156H10.6409V24.6437H20.5981V29.8327H10.6409V40.3334H2.66461V14.6339ZM43.2999 14.6339H51.2236V29.9554C51.2236 31.4747 50.9841 32.9122 50.5049 34.2679C50.0374 35.6119 49.2953 36.7922 48.2785 37.809C47.2735 38.8141 46.2158 39.5211 45.1056 39.9302C43.5629 40.5028 41.7105 40.7892 39.5484 40.7892C38.2979 40.7892 36.9306 40.7015 35.4463 40.5262C33.9738 40.3509 32.7408 40.0061 31.7474 39.4919C30.7541 38.966 29.8425 38.2239 29.0127 37.2656C28.1946 36.3072 27.6337 35.3197 27.3298 34.3029C26.8389 32.6668 26.5935 31.2176 26.5935 29.9554V14.6339H34.5172V30.3236C34.5172 31.726 34.9029 32.8245 35.6742 33.6193C36.4573 34.4023 37.5383 34.7938 38.9173 34.7938C40.2847 34.7938 41.3541 34.4081 42.1254 33.6368C42.9084 32.8538 43.2999 31.7494 43.2999 30.3236V14.6339ZM56.5879 40.3334V14.6339H69.8233C72.2776 14.6339 74.1533 14.8443 75.4506 15.265C76.7478 15.6857 77.7938 16.4687 78.5885 17.6141C79.3832 18.7477 79.7806 20.1326 79.7806 21.7687C79.7806 23.1945 79.4767 24.4275 78.869 25.4676C78.2613 26.4961 77.4256 27.3317 76.3621 27.9745C75.6843 28.3835 74.7552 28.7224 73.5748 28.9912C74.5215 29.3068 75.211 29.6223 75.6434 29.9379C75.9356 30.1482 76.3563 30.5982 76.9056 31.2877C77.4665 31.9772 77.8405 32.509 78.0275 32.883L81.8667 40.3334H72.8911L68.6488 32.4798C68.1112 31.463 67.632 30.8027 67.2113 30.4989C66.6386 30.1015 65.99 29.9028 65.2654 29.9028H64.5642V40.3334H56.5879ZM64.5642 25.0469H67.9125C68.2748 25.0469 68.976 24.9301 70.0162 24.6963C70.5421 24.5911 70.9686 24.3223 71.2959 23.8899C71.6348 23.4575 71.8043 22.9608 71.8043 22.3998C71.8043 21.5701 71.5413 20.9331 71.0154 20.489C70.4895 20.0449 69.5019 19.8229 68.0528 19.8229H64.5642V25.0469ZM84.5313 40.3334V14.6339H97.7667C100.221 14.6339 102.097 14.8443 103.394 15.265C104.691 15.6857 105.737 16.4687 106.532 17.6141C107.327 18.7477 107.724 20.1326 107.724 21.7687C107.724 23.1945 107.42 24.4275 106.812 25.4676C106.205 26.4961 105.369 27.3317 104.305 27.9745C103.628 28.3835 102.699 28.7224 101.518 28.9912C102.465 29.3068 103.154 29.6223 103.587 29.9379C103.879 30.1482 104.3 30.5982 104.849 31.2877C105.41 31.9772 105.784 32.509 105.971 32.883L109.81 40.3334H100.834L96.5921 32.4798C96.0545 31.463 95.5754 30.8027 95.1547 30.4989C94.582 30.1015 93.9334 29.9028 93.2088 29.9028H92.5076V40.3334H84.5313ZM92.5076 25.0469H95.8559C96.2182 25.0469 96.9194 24.9301 97.9595 24.6963C98.4854 24.5911 98.912 24.3223 99.2392 23.8899C99.5781 23.4575 99.7476 22.9608 99.7476 22.3998C99.7476 21.5701 99.4846 20.9331 98.9587 20.489C98.4328 20.0449 97.4453 19.8229 95.9961 19.8229H92.5076V25.0469ZM129.479 29.8327L136.439 31.9363C135.971 33.8881 135.235 35.5184 134.23 36.8273C133.225 38.1362 131.974 39.1238 130.478 39.7899C128.994 40.4561 127.101 40.7892 124.798 40.7892C122.005 40.7892 119.721 40.386 117.944 39.5796C116.179 38.7615 114.654 37.3298 113.369 35.2846C112.083 33.2394 111.44 30.6216 111.44 27.431C111.44 23.177 112.568 19.9105 114.824 17.6316C117.091 15.341 120.293 14.1956 124.43 14.1956C127.668 14.1956 130.209 14.8501 132.056 16.159C133.914 17.468 135.293 19.4781 136.193 22.1895L129.181 23.7497C128.936 22.9667 128.679 22.394 128.41 22.0317C127.966 21.424 127.422 20.9565 126.779 20.6293C126.137 20.302 125.418 20.1384 124.623 20.1384C122.823 20.1384 121.444 20.863 120.486 22.3122C119.761 23.3874 119.399 25.0761 119.399 27.3785C119.399 30.2301 119.832 32.1876 120.696 33.2511C121.561 34.3029 122.777 34.8288 124.343 34.8288C125.862 34.8288 127.007 34.4023 127.779 33.5491C128.562 32.696 129.128 31.4572 129.479 29.8327ZM140.418 40.3334V14.6339H153.653C156.108 14.6339 157.983 14.8443 159.281 15.265C160.578 15.6857 161.624 16.4687 162.419 17.6141C163.213 18.7477 163.611 20.1326 163.611 21.7687C163.611 23.1945 163.307 24.4275 162.699 25.4676C162.091 26.4961 161.256 27.3317 160.192 27.9745C159.514 28.3835 158.585 28.7224 157.405 28.9912C158.352 29.3068 159.041 29.6223 159.473 29.9379C159.766 30.1482 160.186 30.5982 160.736 31.2877C161.297 31.9772 161.671 32.509 161.858 32.883L165.697 40.3334H156.721L152.479 32.4798C151.941 31.463 151.462 30.8027 151.041 30.4989C150.469 30.1015 149.82 29.9028 149.096 29.9028H148.394V40.3334H140.418ZM148.394 25.0469H151.743C152.105 25.0469 152.806 24.9301 153.846 24.6963C154.372 24.5911 154.799 24.3223 155.126 23.8899C155.465 23.4575 155.634 22.9608 155.634 22.3998C155.634 21.5701 155.371 20.9331 154.845 20.489C154.32 20.0449 153.332 19.8229 151.883 19.8229H148.394V25.0469ZM168.239 14.6339H189.52V20.1209H176.197V24.2055H188.556V29.447H176.197V34.5133H189.906V40.3334H168.239V14.6339Z" fill="#0515A7"/>
<path d="M240.127 5.00705V6.14047H238.581V8.6134H237.242V6.14047H235.696V5.00705H240.127ZM245.804 5.00705V8.6134H244.464V6.89781L243.48 8.6134H242.604L241.62 6.89781V8.6134H240.281V5.00705H241.929L243.042 7.06782L244.155 5.00705H245.804Z" fill="#0515A7"/>
<path d="M215.715 35.6162C214.432 36.9151 213.187 38.1362 211.986 39.3927C210.644 40.8045 209.458 40.9245 207.713 39.9362C203.663 37.6421 199.569 35.3903 195.519 33.0962C193.819 32.1362 193.327 30.6045 193.476 28.8609C193.625 27.1174 193.879 25.3739 194.095 23.6304C194.274 22.2186 194.945 21.1809 196.683 21.1315C198.42 21.0821 199.942 22.0915 199.808 23.5598C199.45 27.315 201.143 28.501 205.028 30.8657C206.333 31.6633 207.325 32.8986 208.876 33.6327C209.048 33.5268 210.122 32.6727 210.293 32.5668C209.719 31.5574 209.19 30.5198 208.556 29.5386C207.064 27.2304 205.364 25.0351 204.148 22.621C203.952 22.0585 203.889 21.4622 203.964 20.8742C204.039 20.2862 204.249 19.721 204.581 19.2186C205.908 17.2774 208.041 17.8068 209.689 20.0445C211.337 22.2821 213.09 24.3786 214.91 26.4751C215.596 27.2798 216.401 27.1809 216.871 26.1574C218.02 23.7574 219.056 21.3151 220.361 18.9927C221.033 17.7385 221.994 16.6433 223.173 15.788C223.822 15.3503 225.336 15.4633 226.156 15.8657C227.476 16.5363 227.588 17.9833 227.096 19.1621C225.828 22.2045 224.374 25.1762 223.031 28.1833C222.688 28.9527 222.45 29.7574 222.166 30.548C222.323 30.6539 223.509 31.3174 223.658 31.4304C224.717 30.7245 225.03 29.6586 225.753 28.7409C227.509 26.4996 229.111 24.1535 230.549 21.7174C231.593 19.9527 233.226 18.6821 234.867 18.8939C236.291 19.0562 236.955 19.635 236.836 21.0892C236.545 24.8162 234.367 27.7033 231.936 30.3927C229.318 33.2868 227.528 35.228 225.97 38.8633C225.388 40.2186 223.195 40.4233 222.338 39.8797C220.675 38.828 219.079 37.6774 217.438 36.5904C216.938 36.1809 216.379 35.948 215.715 35.6162Z" fill="#0515A7"/>
</svg>
